<svg
    display="none"
    width="0"
    height="0"
    version="1.1"
    xmlns="http://www.w3.org/2000/svg"
    xmlns:xlink="http://www.w3.org/1999/xlink"
>
   <defs>
       <symbol id="circle">
    <path d="M192.639 209.007c.155-.111-1.01.149-1.243.13-.699.242-1.398.428-2.116.614 1.126-.186 3.184-.799 3.339-.762l.02.018ZM191.396 209.137l3.126-1.022c-2.815.818-3.32 1.022-3.126 1.022ZM204.637 205.216l-1.728.743 3.068-1.301-1.34.558ZM212.423 202.298c-1.223.632 1.825-.558.505.055a114.545 114.545 0 0 0 5.378-2.49c-1.69.762-3.495 1.505-5.883 2.416v.019ZM220.946 198.599c-.815.446-1.689.818-2.621 1.282.893-.409 1.786-.78 2.621-1.282ZM199.9 206.535c.252-.037.757-.074 2.504-.669l-1.262.279c-.368.149-.796.26-1.242.39Z" />
    <path d="M201.104 206.164h.038c1.321-.484 2.233-.8 2.641-.948-.33.111-1.146.409-2.679.948ZM199.589 206.628c.117-.037.194-.056.311-.093a.997.997 0 0 0-.311.093ZM186.134 210.178c1.864-.539 5.747-1.561 1.923-.78-1.321.427.873 0-1.923.78ZM197.978 206.888l-3.359.967s.699-.093-.194.223l3.553-1.171v-.019ZM199.609 206.349l-1.631.539 1.262-.353.369-.186ZM215.393 200.811c1.359-.651 2.874-1.283 4.582-2.026-1.844.762-3.747 1.542-5.552 2.286-.233.149-.991.576.97-.26ZM208.481 203.524c.098-.037.214-.093.311-.13-.194.056-.349.112-.311.13ZM236.187 190.44s-.175.074-.272.111l-.039.056.311-.167Z" />
    <path d="M214.092 201.182c-1.397.558-2.193.93-2.97 1.32 1.029-.446 2.116-.911 3.281-1.413.097-.074.117-.092-.33.112l.019-.019ZM225.489 196.294c-.718.316-1.534.688-2.368 1.06.699-.298 2.135-.892 2.368-1.06ZM209.297 203.283s-.136.055-.214.074c.486-.13.408-.13.214-.074ZM209.297 203.283c.718-.298 1.281-.502 1.825-.781-.835.372-1.631.632-2.31.911.174-.037.349-.093.485-.13ZM240.323 186.722c-.059.13-.913.744-2.097 1.543-1.185.799-2.816 1.617-4.31 2.398-2.835 1.71-.699 1.078 1.999-.112.039-.13.059-.111 2.932-1.952-1.029.614-6.718 3.569-4.252 2.064 3.922-2.249 3.262-1.766 5.165-2.881-1.67.836 4.698-3.29 3.708-2.993l-3.281 2.193s1.087-.817.136-.26ZM230.207 193.711c-.408.223-.815.483-1.242.687 1.417-.706 2.446-1.226 4.387-2.174 2.02-1.208 2.408-1.487 2.524-1.617l-6.077 3.364.408-.26Z" />
    <path d="M223.257 197.186c.912-.632 3.941-2.174 1.98-1.412-3.708 1.821-2.544 1.394-4.737 2.546 5.999-2.974-1.69.929 2.698-1.115-1.165.595-2.213 1.134-3.242 1.598 1.087-.501 2.155-.985 3.145-1.431a.99.99 0 0 0-.136.056h-.019c-.272.112-.369.13-.058 0 .019 0 .097-.056.116-.056.039-.037.136-.111.253-.186 1.766-.817.291-.093-.253.186l-.058.056h.019l5.98-3.03c-1.281.632-2.873 1.394-5.708 2.788h.02ZM191.435 208.152c.194-.037.194-.037.213-.018.408-.149.563-.205-.213.018ZM194.114 207.465c-.466.167-.835.334-2.349.78-1.34.353 0-.074-.097-.111-.893.316-3.184 1.022-.272.279l.447-.149c2.601-.725 5.999-1.524 5.552-1.357-.796.093-1.495.186-3.261.558h-.02ZM209.064 202.837c1.767-.614 3.436-1.432 5.145-2.156l-2.679.966h.174c-2.951 1.19-2.31.967-2.64 1.19ZM236.789 190.179l-.563.502c.893-.595 1.806-1.152 2.66-1.821-.68.483-1.398.892-2.097 1.319ZM242.924 186.369l-.136.279 1.573-1.097-1.437.818ZM67.779 28.032l-1.437.744c.68-.354 1.107-.577 1.437-.744ZM78.496 23.107l.233-.186c-.485.242-.68.372-.233.186ZM284.415 39.723c-1.398-1.914-3.165-3.885-3.068-3.587l.388.632c1.185 1.17 2.039 2.1 2.68 2.955ZM172.66 1.12c.233 0 .466 0 .699.018.583-.075 1.126-.149 1.612-.205-.699.056-1.495.112-2.311.186ZM170.991 1.844c-1.049 0-2.097 0-3.165.019.718 0 1.728 0 3.165-.02ZM17.085 65.762l-1.048 1.525c1.844-2.23.97-1.302 1.048-1.525ZM293.19 134.011c1.088-1.71 1.728-3.178 2.35-4.442-.563 1.078-1.068 2.063-1.476 2.825-.446.744-.776 1.32-.874 1.617ZM71.177 24.482c-.894.446-1.263.65-1.224.688.913-.465 1.437-.725 1.224-.688ZM297.928 124.254c-.136.334-.272.65-.427.985-.602 1.338-1.204 2.695-1.981 4.312.796-1.599 1.806-3.42 2.408-5.297ZM145.382 199.77c.174 0 .369 0 .524.018.058-.018-.194-.018-.524-.018ZM211.724 184.901c-.563.353-1.592.78-2.524 1.245.446-.223 1.262-.52 2.524-1.245ZM265.931 168.786c-1.126 1.041-.174.168 0 0ZM259.951 173.229c.233-.223.408-.391.428-.446-.078.111-.214.26-.428.446ZM301.558 109.849s0-.074.02-.13c-.117.428-.097.353-.02.13ZM264.184 170.273c.447-.371.932-.799 1.476-1.282-.233.204-.699.595-1.476 1.282ZM264.475 170.125c-.388.353-.699.613-.99.892-.116.149 0 .056.99-.892Z" />
    <path d="M267.504 167.355c-.641.576-1.262 1.115-1.844 1.654.233-.185.33-.278.271-.204.33-.297.796-.725 1.573-1.431v-.019ZM30.58 157.895l.232.223c1.165.985.68.539-.233-.223ZM252.108 17.103s.097.038.155.075c-.058-.037-.136-.075-.194-.112l.039.037ZM247.118 14.854c2.194.8 3.417 1.32 4.951 2.212-.466-.409-.913-.836-1.398-1.226l-3.553-.967v-.018Z" />
    <path d="M43.53 42.14c1.086-.67 2.135-1.376 3.26-2.008-3.707 2.75-6.465 4.59-3.397 2.714.058-.354 3.107-2.472 6.252-4.443 3.145-1.97 6.349-3.866 6.465-4.2l2.272-1.134c-.621.353-.738.427-1.36.78 4.408-2.192 2.99-2.1 8.66-4.98 2.02-.93 3.436-1.543 2.097-.837 1.456-.743 2.912-1.543 4.388-2.249 1.32-.595 1.029-.372-.272.223 2.29-1.04 4.543-2.137 6.873-3.104l-.039.037c.951-.483 3.145-1.58 4.233-2.063 1.805-.65-.874.41-.389.28l3.845-1.655c1.63-.502-1.534.892-4.233 1.933 3.844-.948 3.145-1.487 11.164-4.108l-3.67 1.432c1.243-.316 2.582-.762 4.136-1.302 1.572-.501 3.359-1.096 5.494-1.728-1.029.26-8.62 2.472-4.368.892 1.223-.372 2.815-.93 5.125-1.784.078.167 2.35-.595 5.204-1.524l-.117.297c3.087-.985 2.796-1.022 4.602-1.654 3.475-1.004 4.271-.948 5.125-1.04 5.592-1.45-3.941.743 2.66-1.06 4.699-1.115 7.96-1.896 13.591-3.234 3.339-.558-.544.26.66.093l2.893-.744c.718-.13.505-.037.388.019 2.466-.54.156-.298 4.058-1.022 1.01-.447 8.096-.948 12.95-1.748 1.204-.074-.563.205-.175.26 3.34-.501 4.776-.668 6.058-.817 1.281-.167 2.407-.316 5.164-.65l4.718-.13c-3.475.036.932-.484 4.815-.744-1.242-.037-2.31-.075-3.009-.093 2.077-.093 4.135-.26 6.213-.316.757.037.116.111-.893.223.427-.019.815-.056 1.145-.074 2.214.074 1.068.223-.524.353-.757-.056-1.514-.075-2.233-.093-1.534.204-2.951.409-2.621.539a46.278 46.278 0 0 1 2.019-.13c-.407.055-.66.093-.466.111.214 0 .855-.056 1.864-.149l1.418.242.33-.111c2.698.037 5.397.037 8.096.185 5.786-.13 10.872-.334 20.036.632-2.291-.074-.524.26-.679.465-2.466-.558-7.087-.67-11.844-.985 2.486.149 1.923.242 1.301.242 2.816.148 5.65.26 8.485.501-.214.168 1.767.354 3.961.67-1.612-.595 6.31.576 9.707 1.189.175.186-.641.074-4.795-.613 2.271.446 3.747.706 5.242.836 1.495.149 2.97.316 5.164.948-1.009-.223-1.534-.353-1.941-.39 1.184.204 3.203.65 4.756 1.022 1.534.427 2.602.762 1.923.632l-.991-.26c3.301.855 8.291 2.249 12.484 3.717 4.233 1.375 7.669 2.825 8.213 2.844.039.055-.99 0-1.398-.075 3.883 1.19 7.689 2.62 11.455 4.22-1.087-.26 2.214 2.193-2.834-.26 1.397.798 3.184 1.672 6.115 3.345-.912-.576-2.155-1.71-.834-.985 3.378 2.341 2.426 1.524 6.484 4.535-1.359-.93.486-.353 2.563 1.19-.369-.187-.097.464-.874-.056 1.787 1.189 3.67 2.267 5.398 3.55-1.282-.967-.447.092.563 1.096-.233-.242.835.632 2.136 1.71a705.333 705.333 0 0 1 3.32 3.048l-1.923-1.914a67.819 67.819 0 0 0 3.185 2.862 84.13 84.13 0 0 0 2.155 1.952c.66.594 1.359 1.17 2.155 1.951.757.818 1.669 1.803 2.815 3.178-.641-.613-1.806-1.3.485 1.506.583.595 1.903 1.914 3.573 3.699.815.91 1.65 1.988 2.543 3.14.447.596.893 1.19 1.359 1.804.408.65.816 1.32 1.223 2.007l.466 1.115c.796 1.413 1.709 2.77 2.408 4.22-.757-1.32-2.466-3.68-4.136-6.264-.834-1.283-1.902-2.491-2.776-3.68a50.33 50.33 0 0 0-2.543-3.142c1.514 2.212.388.632 2.601 3.96.66 1.245-1.32-1.748-2.038-2.677 1.708 2.583 3.494 5.13 4.853 7.88 0-.241.932 1.283 1.826 2.807.233.39.446.762.66 1.115.174.372.33.725.485 1.004.272.576.466.93.485.836-.368-.762-.64-1.542-1.067-2.267l-1.282-2.175c-.854-1.45-1.67-2.918-2.563-4.33.039-.26.913.91 2.155 2.899.622.985 1.36 2.175 2.117 3.476.679 1.338 1.281 2.843 1.922 4.367.543 1.58-.913-.985-.952-.836.214.372.855 1.784 1.457 3.178.582 1.413.932 2.863 1.009 3.141l-.932-2.602c.486 1.747.99 3.141 1.515 4.628.252.744.524 1.506.776 2.36.175.874.33 1.822.486 2.9.252 1.487.563 4.442.66 4.703-.058-2.454.679-3.067 1.242-1.469.117.26.214 2.268.311 4.405.039 1.078.097 2.175.136 3.141.058.948-.078 1.747-.097 2.175-.136 1.245-.253.316-.388-.67-.078-.984-.369-1.988-.35-.929.078.093.136 1.45.175 2.026-.078 1.58-.214-.65-.214 2.788.097.28.156 2.045.039 3.048-.155 1.004-.078 1.264.175-1.412-.117 3.364-.389 3.55-.757 7.49.116-.613.291.298.077 1.766a85.506 85.506 0 0 1-.718 5.185c-.02-.204-.252.521-.369.874-.951 3.346-1.67 5.929-2.543 8.382-1.01 2.417-1.787 4.87-3.146 7.825-.31.521-1.708 3.327-1.262 2.082-.349.855-.64 1.673-1.475 3.494-1.029 1.654-.447.688.058-.427s1.068-2.342.311-1.06c.136.335-2.214 4.684-3.553 7.212.602-.669 3.397-5.706 4.388-8.383.155.056-.214 1.246-.991 3.216-.912 1.896-2.213 4.553-3.883 7.546-2.931 4.609-1.475 1.877-1.961 2.695-2.776 4.312-4.077 6.059-5.164 7.713-1.087 1.636-2.019 3.141-4.97 6.282-2.389 2.454-.428-.13-1.029.335 1.417-1.729 2.601-2.974 3.572-4.145.951-1.189 1.806-2.249 2.718-3.438l-2.33 2.899c.796-1.171 2.544-3.568 3.573-4.814-.466.539-1.359 1.673-2.505 3.16-.563.743-1.204 1.58-1.883 2.472a451.87 451.87 0 0 1-2.349 2.695c-3.146 3.847-7.184 7.788-10.038 10.557-.99 1.004-2.757 2.695-1.845 1.97l1.845-1.71c1.844-1.449-3.359 3.346-.932 1.264-2.427 2.361-5.067 5.111-8.931 7.974l-.854.39c.116 0 2.524-1.859 3.533-2.751-1.514 1.301-5.863 4.442-7.494 5.892a34.897 34.897 0 0 0 2.776-1.914c-1.262 1.152-2.796 2.286-4.388 3.531-1.611 1.208-3.281 2.528-5.086 3.68 1.766-.892.796-.576 3.436-2.119-1.165.632 1.049-.948 3.107-2.416 2.096-1.431 3.844-2.955 2.096-1.747 2.602-1.71 4.291-3.253 7.592-5.632-.136.037-1.165.855 1.514-1.505.117-.13.369-.409.524-.576.078-.075.117-.093.175-.149a.938.938 0 0 0-.155.13c.097-.111.116-.13-.058.056-.661.539-1.185.985-1.418 1.134 1.146-1.357 5.456-5.037 6.66-6.543 1.495-1.487-.544.688.31-.074l1.884-2.138c.33-.093 4.135-3.828.737-.204 1.029-1.078 2.136-2.1 3.087-3.234 1.787-1.933 4.233-4.628 5.553-6.412 1.301-1.655 3.048-4.35 2.058-2.807 1.379-1.877 2.796-3.717 3.98-5.724l.078-.038c.932-1.449 1.883-2.899 2.854-4.386.913-1.505 1.728-3.123 2.621-4.702 1.864-3.141 3.301-6.636 5.145-10.093.796-2.174 1.612-4.386 2.932-8.01l.349-.67c.389-1.431 1.029-3.55 1.612-5.464.524-1.933.815-3.717.874-4.349.252-.762.563-2.026.893-3.569.233-1.561.407-3.401.602-5.315.077-.948.233-1.915.233-2.881v-2.825c-.02-1.822.077-3.495-.02-4.796l-.213-.186c-.175-1.784-.331-3.512-.505-5.371-.156-1.859-.719-3.754-1.126-5.929l-.117.297c-.233-.929-.369-2.007-.699-3.16-.33-1.152-.699-2.397-1.068-3.717-.621-2.676-1.844-5.445-3.028-8.252.213.353.796 1.784 1.184 2.807-.641-1.692-1.243-3.476-2.116-5.149-.932-1.635-1.864-3.29-2.796-4.925-1.981-3.197-4.136-6.17-6.038-8.866-1.029-1.3-1.748-2.249-2.485-3.14.097.11.194.222.271.315-.116-.13-.271-.316-.446-.52a157.99 157.99 0 0 0-1.418-1.803c.428.557.835 1.078 1.185 1.524-.854-.948-2.058-2.472-3.437-3.792l-.427-.706c-.116-.112-.194-.205-.31-.316-1.243-1.394-1.107-1.022-.525-.223-.679-.67-1.301-1.282-1.825-1.729-.932-1.208-3.669-3.4-5.087-4.888-.563-.334-2.368-1.914-4.329-3.271-1.942-1.357-3.844-2.714-4.388-2.825-.039-.075-.485-.39.369.167-1.767-1.19-3.495-2.453-5.203-3.327l-.661-.65c-1.417-.688-2.776-1.431-4.213-2.063-2.446-1.432-3.456-2.045-.854-.893-3.087-1.486-4.349-2.025-5.514-2.527-1.165-.465-2.155-1.022-4.912-1.97l.33-.038c-1.922-.799-5.087-1.84-6.232-2.323-2.136-.93-7.592-2.806-14.076-4.423-6.485-1.617-13.979-2.919-19.92-3.773 2.252.724-5.514-.874-6.039-.502-.679-.168-2.349-.353-.407-.28-3.048-.222-5.339-.427-7.417-.52-2.058-.13-3.883-.204-5.999-.092-.699-.112 1.32-.13.699-.205-.486 0-1.942.056-2.583-.018-.621-.075.894-.075 1.864-.093-6.271-.13-6.892.334-7.339.576-3.164-.149-4.737 0-7.009.26-1.106-.056-2.951-.093.932-.26-2.194-.056-13.319.669-13.513.985-.679 0-3.028.26-3.611.372-4.873.52-5.3.576-10.038 1.282l1.321-.149c-1.845.52-3.942.65-7.747 1.32l.097-.056c-8.756 1.431-3.767.706-12.368 2.305l.505.074c-.699.52-7.611 1.469-12.464 2.974l1.805-.372c-2.64.8-7.611 1.562-10.29 2.305-.582.149.893-.334 1.709-.576-7.048 1.914-.835.483-6 2.156-.99.186 1.126-.706-2.368.409-1.767.483-9.883 3.81-14.562 5.52 1.068-.316 2.117-.632-.194.372-3.572 1.43-9.746 3.736-12.756 5.483-.466.167-.64.241-.66.223-1.32.669-3.436 1.765-5.417 2.788-1.96 1.078-3.786 2.1-4.543 2.564-1.34.39-5.32 2.621-8.873 4.889-3.553 2.249-6.718 4.442-6.853 4.2L40.5 42.214l-3.63 2.657.155-.186c-4.62 3.42-6.058 4.87-7.494 6.283-1.03.836-.33.167-.272.074-1.631 1.32-2.815 2.435-3.825 3.346-1.029.91-1.825 1.672-2.543 2.453-.738.762-1.437 1.505-2.253 2.379-.757.91-1.65 1.952-2.776 3.29-.213.148-.427.279-.64.427-1.127 1.469-8.097 9.07-11.34 16.598 0-.075.06-.242.311-.837-2.038 4.09-4.135 9.182-5.164 13.829-.485 2.323-.913 4.479-.951 6.3-.059.911-.078 1.71-.078 2.398.058.688.136 1.245.214 1.673 0 2.007.31 3.977.582 5.966-.738-7.695.427 1.115.214-2.063.077.743.155 1.598.233 2.416.135.799.252 1.543.349 2.101.155 1.096.136 1.375-.252-.447l-.078-.576c-.31-.65.136 1.71.621 4.219.524 2.491 1.476 5.037 1.282 4.981 2.368 7.249 5.805 14.052 9.92 20.297 4.214 6.17 8.99 11.839 14.135 16.969l-.951-1.394c1.145 1.245 2.388 2.379 3.63 3.513.932.948 1.165 1.357-1.495-1.097.641.707 1.787 1.692 2.777 2.528.99.836 1.844 1.487 1.903 1.506 5.358 4.628-2.35-1.543-.66-.168.718.669 1.495 1.283 2.271 1.896l-.485-.446c1.941 1.431 2.174 1.487 5.553 4.219 2.193 1.673 1.029.967 1.902 1.617 0 0 .272.242 1.34.985 1.708 1.283 3.456 2.528 5.261 3.662l-2.038-1.58c2.446 1.468 5.067 3.29 2.718 1.487.874.65 2.524 1.84 4.62 3.178 2.156 1.264 4.68 2.769 7.223 4.163 2.582 1.32 5.126 2.602 7.165 3.643 2.096.93 3.669 1.654 4.27 1.952 3.69 1.58 7.417 2.899 11.98 4.702-1.107-.502-1.747-.873 2.252.483-1.65-.037 7.262 2.733 10.504 3.829-1.437-.52 1.476.279 4.174.985 2.738.576 5.281 1.097 2.971.409 3.456.799.155.223 2.757.93 8.29 1.524 18.347 3.457 28.831 3.698.156-.056-1.572-.26.661-.223 1.825.186 3.669.242 5.514.372 2.077-.056 1.902-.297 5.669-.205-.544-.018-1.34-.055.058-.167 10.251-.111 20.677-1.691 30.851-4.145 10.193-2.472 20.153-5.91 29.569-10.222-2.601 1.078-.912.279 1.029-.632-1.281.558-.038-.149-.33-.111 2.699-1.06 5.165-2.528 7.747-3.811.602-.52 2.699-1.524 4.543-2.769 1.864-1.208 3.67-2.361 3.961-2.714l-2.272 1.506c2.855-2.212-4.562 2.286-4.387 1.561-1.69 1.115-4.078 2.305-6.738 3.643-2.679 1.338-5.766 2.546-8.659 4.182-1.359.558 1.088-.632.33-.372-1.436.892-3.32 1.636-6.873 2.937l.389-.186c-9.883 3.754-14.368 4.888-26.056 7.193h.913c-2.524.446-3.068.483-4.272.65-2.854.781 7.106-1.245 4.524-.483-3.378.428-17.92 2.751-20.289 2.138-3.941.223 1.165.148-2.776.353l-1.049-.056-.99.204c-2.601.038-3.902-.148-3.999-.241.621 0 1.786-.019 2.465-.037-3.358-.149-9.474.055-10.62-.168 1.262.093 2.524.223 3.786.205-10.795-.093-23.881-1.933-34.054-4.126l.757.26c-3.922-.744-5.436-1.227-7.048-1.71-.815-.242-1.65-.483-2.796-.818-1.165-.334-2.64-.706-4.698-1.412l.31.074c-1.689-.465-3.902-1.171-6.174-1.933 1.068.297.098-.037-.776-.446-.874-.39-1.65-.744-.291-.279-8.038-2.992-4.058-1.32-9.378-3.29l-1.126-.65c-1.806-.707-2.02-.632-5.96-2.472 3.222 1.505-2.37-1.45 1.261.223-7.98-4.294-12.056-6.059-15.396-8.569-1.844-.985-.272.186 1.631 1.283 1.883 1.097 4 2.286 2.97 1.747 1.65 1.059-3.184-1.394-5.552-2.992-2.388-1.636-3.96-2.937-9.766-7.249.582.409.64.446 1.223.855-1.068-.836-2.174-1.58-3.3-2.398-1.107-.873-2.272-1.784-3.495-2.899-.796-.502-1.631-1.19-2.35-1.747-.699-.595-1.242-1.097-1.533-1.171 1.592 1.524 3.417 2.806 5.125 4.219-1.475-1.171-3.01-2.193-4.64-3.55-1.611-1.394-3.475-2.955-5.63-5.186.427.353 1.786 1.524 2.737 2.324a34.342 34.342 0 0 0-1.941-1.803 38.215 38.215 0 0 1-1.864-1.952c.524.242 5.785 5.576 9.047 7.974-1.475-1.246-5.786-4.926-4.096-3.773-2.485-1.617-5.087-4.926-8.64-8.271l.35.13a79.361 79.361 0 0 1-2.525-2.807l1.845 1.803c-1.34-1.431-2.544-2.899-3.69-4.349-1.067-1.524-2.096-3.048-3.241-4.516 4.64 6.3.854 1.542 2.718 4.293-2.951-3.847-3.767-4.981-4.427-6.375-.35-.688-.699-1.394-1.34-2.509-.64-1.115-1.592-2.584-2.795-5 .349.632.931 1.877 1.34 2.676.446.781.62 1.171 0 .223-.972-1.802-2.117-4.256-2.622-5.39-2.932-6.449.194 1.097-1.107-1.617-.68-2.323-1.495-3.159-2.62-6.077l.174-.075c-1.126-3.866-1.398-4.349-1.611-4.739-.253-.391-.389-.706-1.049-4.275l.874 2.955-.816-3.68.37.725c-.234-1.004-.447-1.822-.603-2.565-.097-.743-.155-1.413-.232-2.063-.195-1.32-.195-2.639-.175-4.628-.097.929-.466-.52-.136-4.07.35-2.398-.078 1.356.66-3.625-.02 1.153-.214 2.36-.485 4.535.038.223.038 1.115.077 1.357.233-2.583.7-6.468 1.185-8.234-.175.67-.389 1.487-.466 1.915.388-2.398.912-4.777 1.65-7.1.427-1.078.194-.186-.039.687.214-.706.388-1.3.602-1.988.252-.67.544-1.431.951-2.435-.058.576.078.502-.932 3.401.758-2.193 1.554-4.368 2.583-6.468.136-.204.582-.985.932-1.617.388-.613.718-1.078.504-.669 1.903-3.364 4.777-8.29 8.213-12.23.155-.223.466-.669 1.165-1.524 3.281-3.661 6.446-6.672 10.678-10.724l2.719-1.952c3.475-3.01-3.709 2.64 2.135-2.323 4.213-3.42 1.748-1.078 3.281-2.212a185.432 185.432 0 0 1 4.175-3.327c1.747-1.226 3.708-2.676 5.902-3.921-1.379.91-2.466 1.635-3.747 2.527l.155-.13Zm51.333-25.483c-1.048.372-3.087 1.283-3.902 1.469 1.126-.614 2.077-.911 3.902-1.469Zm86.379-15.315c-.835.056-2.136.037-3.592 0a76.928 76.928 0 0 1 3.592 0Zm96.164 155.382s.039-.056.077-.093c1.67-1.821 1.068-1.171-.077.093Zm-3.437 3.81c-.349.39-.291.372-.116.242.272-.316 1.009-1.134 1.864-2.119-.292.242-.699.743-1.728 1.877h-.02Zm-231.702 8.587-.777-.632c1.864 1.301 1.32.948.777.632Z" />
    <path d="M171.224 1.751c-.311-.018-.408-.056-.486-.074-.446.037-.446.074.486.074ZM17.28 65.465l-.117.13s-.078.13-.078.149l.195-.279ZM303.034 90.073c.039-1.022.078-1.598.116-1.97-.038-.056-.097.41-.116 1.97ZM253.894 179.009c.874-.669 1.708-1.394 2.563-2.1-1.243 1.003-1.709 1.338-2.369 1.821.078 0 .641-.334-.194.279ZM228.945 193.432c-.446.223-.912.465-1.339.688h.155c1.883-.855 3.048-1.71 1.184-.688ZM251.02 180.31c-.31.037-1.961 1.282-3.824 2.658l.33-.242c-.427.576 1.533-.929 3.494-2.416ZM246.768 183.284c-.563.427-1.184.818-1.786 1.189-.194.205.777-.409 1.786-1.189ZM269.484 165.255c-.796.762-.33.632-.815 1.022-.718 1.004 4.931-5.371.815-1.022ZM249.195 181.016l.777-.334.971-.874-1.748 1.208ZM263.504 169.79l-2.757 2.416s-.291.298-.718.669c.913-.687 1.767-1.505 2.446-2.1.661-.595 1.107-1.003 1.049-1.003l-.02.018ZM260.01 172.875c-.932.744-1.806 1.45-2.291 1.878.485-.409 1.553-1.283 2.291-1.878ZM253.253 178.024c.311-.186.583-.428.893-.632l2.039-1.617c-.971.743-1.922 1.524-2.912 2.267l-.02-.018ZM288.919 139.978c.738-1.097 1.301-2.305 1.942-3.457.136-.391-.428.539-1.126 1.84-.389.873-1.224 2.081-.816 1.617ZM281.638 149.55c.68-.837.758-.874 1.185-1.32l-.117-.223-1.048 1.543h-.02ZM288.181 140.052c.233-.316 2.738-5.018.253-.688-.156.372-2.291 3.699-.253.688ZM303.364 84.033l.097.985.369-.167-.466-.818ZM280.435 38.31c1.592 1.71 1.805 1.896 1.98 2.026.194.13.33.223 1.67 1.878.776.78-2.175-2.695-1.379-1.878-1.961-2.044-3.009-3.104-2.271-2.026ZM282.726 40.336c.31.335.64.688.99 1.06-.544-.595-.816-.874-.99-1.06ZM221.703 179.474l2.66-1.599-1.767.967-.893.632ZM226.538 176.035l.757-.204 1.437-1.19c-.583.39-1.709 1.134-2.194 1.376v.018ZM103.153 14.408l.214-.13c-.485.093-1.165.298-2.543.725l2.349-.595h-.02ZM64.44 29.984l.64-.335-1.3.428.66-.093ZM35.278 48.775c1.106-.874 2.388-1.933 3.553-2.751-2.466 1.821-4 2.788-3.553 2.75Z" />
       </symbol>
   </defs>
</svg>
