<svg width="100%" height="100%" viewBox="0 0 24 24" fill="none" xmlns="http://www.w3.org/2000/svg">
  <g>
    <path id="Vector" d="M12.0001 15.0751C11.9001 15.0751 11.8085 15.0584 11.7251 15.0251C11.6418 14.9917 11.5585 14.9334 11.4751 14.8501L6.52515 9.90006C6.39182 9.76672 6.32932 9.58756 6.33765 9.36256C6.34598 9.13756 6.41682 8.95839 6.55015 8.82506C6.71682 8.65839 6.89598 8.58756 7.08765 8.61256C7.27932 8.63756 7.45015 8.71672 7.60015 8.85006L12.0001 13.2501L16.4001 8.85006C16.5335 8.71672 16.7126 8.64172 16.9376 8.62506C17.1626 8.60839 17.3418 8.68339 17.4751 8.85006C17.6418 8.98339 17.7126 9.15839 17.6876 9.37506C17.6626 9.59172 17.5835 9.77506 17.4501 9.92506L12.5251 14.8501C12.4418 14.9334 12.3585 14.9917 12.2751 15.0251C12.1918 15.0584 12.1001 15.0751 12.0001 15.0751Z" fill="#190D1A"/>
  </g>
</svg>
