<svg width="285" height="176" viewBox="0 0 285 176" fill="none" xmlns="http://www.w3.org/2000/svg">
<path d="M107.972 5.11996C106.904 5.36633 107.34 5.486 107.192 5.56343C108.955 5.07773 107.916 5.07773 107.972 5.11996Z" fill="#CD4D14"/>
<path d="M125.807 1.77697L125.491 1.8896L128.161 1.47428L125.807 1.77697Z" fill="#CD4D14"/>
<path d="M142.865 1.51009C141.263 1.06662 136.676 1.37635 133.641 1.34115L133.135 1.26372L131.772 1.59456C135.46 1.43266 140.265 1.29187 142.865 1.51009Z" fill="#CD4D14"/>
<path d="M151.87 2.92504C151.322 2.74202 153.837 2.96023 149.77 2.70682C149.973 2.74202 150.03 2.7561 150.149 2.77721C150.514 2.80537 151.02 2.83353 151.87 2.93207V2.92504Z" fill="#CD4D14"/>
<path d="M150.149 2.76897C148.364 2.63522 151.308 2.98718 150.149 2.76897V2.76897Z" fill="#CD4D14"/>
<path d="M158.382 3.55125L156.022 3.38935C156.499 3.53717 158.579 3.8117 157.799 3.7765C160.209 4.00175 159.731 3.85393 158.382 3.54421V3.55125Z" fill="#CD4D14"/>
<path d="M160.644 3.57277C160.236 3.53053 159.829 3.4883 159.421 3.46014C159.632 3.52349 159.948 3.5798 160.644 3.57277Z" fill="#CD4D14"/>
<path d="M156.829 3.25502L159.421 3.46014C159.091 3.35455 159.07 3.2339 158.234 3.35357C158.459 3.2691 157.932 3.31133 156.829 3.25502Z" fill="#CD4D14"/>
<path d="M155.375 3.02275C154.069 2.80454 152.362 2.57928 154.743 2.69191C150.233 2.28364 150.879 2.61448 155.375 3.02275Z" fill="#CD4D14"/>
<path d="M143.75 1.15108L141.973 0.975098L140.427 1.05253C141.2 1.01733 143.855 1.25666 143.743 1.15108H143.75Z" fill="#CD4D14"/>
<path d="M172.867 6.12724C173.028 6.07797 172.129 5.75416 171.975 5.62746L170.24 5.39517C171.111 5.61338 172.776 5.97942 172.86 6.12724H172.867Z" fill="#CD4D14"/>
<path d="M171.975 5.62746L174.56 6.02096C172.277 5.52118 171.841 5.51483 171.975 5.62746Z" fill="#CD4D14"/>
<path d="M161.115 3.21936C159.682 3.09266 158.249 3.03635 156.816 2.95188C158.523 3.05746 160.23 3.17009 161.937 3.33199L161.115 3.21936Z" fill="#CD4D14"/>
<path d="M182.583 8.33733L181.1 8.15431L183.728 8.52738L182.583 8.33733Z" fill="#CD4D14"/>
<path d="M188.982 9.99119C187.886 9.84337 190.352 10.6599 189.214 10.4276C190.942 10.9133 192.452 11.1949 193.808 11.4976C192.389 11.1245 190.893 10.6881 188.982 9.99119Z" fill="#CD4D14"/>
<path d="M196.07 12.0329C195.361 11.8499 194.616 11.6806 193.808 11.4976C194.56 11.6947 195.312 11.8781 196.07 12.0329Z" fill="#CD4D14"/>
<path d="M178.902 7.01435C179.084 7.10586 179.443 7.31703 180.855 7.70419L179.906 7.25368C179.597 7.18329 179.253 7.09882 178.902 7.02139V7.01435Z" fill="#CD4D14"/>
<path d="M179.871 7.23217L179.906 7.24625C180.994 7.49262 181.739 7.7038 182.062 7.78123C181.781 7.71788 181.135 7.52078 179.871 7.23217Z" fill="#CD4D14"/>
<path d="M178.649 6.95759C178.74 6.97871 178.81 6.99323 178.902 7.01435C178.81 6.97211 178.754 6.95055 178.649 6.95759Z" fill="#CD4D14"/>
<path d="M167.865 4.48688C169.396 4.6347 172.579 5.09928 169.558 4.33905C168.441 4.28978 170.176 4.71917 167.865 4.48688Z" fill="#CD4D14"/>
<path d="M177.468 6.39537C176.569 6.16308 175.663 5.96598 174.763 5.76184C174.806 5.83223 175.276 6.01525 174.518 5.92374C175.501 6.07861 176.492 6.21939 177.468 6.39537Z" fill="#CD4D14"/>
<path d="M178.81 6.62765L177.468 6.39537L178.466 6.64173L178.81 6.62765Z" fill="#CD4D14"/>
<path d="M191.588 10.4351C192.768 10.6674 194.026 11.0475 195.445 11.4839C193.949 10.956 192.375 10.4562 190.879 10.0268C190.647 10.0268 189.952 9.96348 191.588 10.4351Z" fill="#CD4D14"/>
<path d="M185.926 8.78084C186.011 8.80196 186.109 8.82308 186.186 8.83716C186.032 8.7738 185.905 8.73861 185.926 8.78084Z" fill="#CD4D14"/>
<path d="M209.206 16.3408C209.136 16.2986 209.072 16.2634 209.002 16.2212C208.981 16.2212 208.967 16.2352 208.939 16.2352L209.206 16.3408Z" fill="#CD4D14"/>
<path d="M190.632 9.91327C189.501 9.53316 188.799 9.39237 188.117 9.27975C188.988 9.48388 189.902 9.74433 190.871 10.0259C190.976 10.0259 190.998 10.0048 190.625 9.91327H190.632Z" fill="#CD4D14"/>
<path d="M199.969 13.2089C199.393 12.9625 198.739 12.7021 198.051 12.4346C198.606 12.6951 199.744 13.1948 199.969 13.2089Z" fill="#CD4D14"/>
<path d="M186.558 8.99909C186.502 8.98501 186.446 8.97798 186.383 8.9639C186.748 9.11172 186.706 9.07652 186.558 8.99909Z" fill="#CD4D14"/>
<path d="M186.558 9.00033C187.162 9.12703 187.64 9.20446 188.125 9.28189C187.415 9.10591 186.762 8.95809 186.186 8.83139C186.326 8.8877 186.46 8.95105 186.558 9.00033Z" fill="#CD4D14"/>
<path d="M213.864 16.6571C213.576 16.7838 210.605 15.7209 208.132 14.5664C205.568 13.7499 206.973 15.024 209.003 16.2136C209.109 16.1643 209.151 16.0587 211.743 16.9879C210.907 16.4881 206.158 14.5101 208.392 15.1718C211.834 16.3825 211.146 16.3473 212.747 17.1076C212.094 16.7063 213.211 17.0442 214.405 17.4314C215.592 17.8256 216.878 18.2409 216.59 17.91C215.585 17.5299 214.595 17.1287 213.59 16.7767C213.555 16.6993 214.672 17.0513 213.864 16.6641V16.6571Z" fill="#CD4D14"/>
<path d="M204.113 14.3547L203.039 13.9957C204.233 14.4744 205.083 14.8334 206.607 15.6077C208.399 16.1849 208.792 16.2482 208.932 16.2342C207.204 15.5654 205.483 14.8756 203.734 14.2561L204.106 14.3547H204.113Z" fill="#CD4D14"/>
<path d="M198.248 12.3505C199.155 12.4138 201.761 13.1952 200.264 12.4279C197.11 11.3791 198.002 11.8577 196.078 11.3509C201.192 12.9418 194.581 10.9849 198.22 12.3082C197.209 12.0056 196.302 11.7381 195.452 11.4847C196.359 11.8085 197.244 12.0971 198.052 12.4279C198.009 12.4068 197.974 12.3927 197.939 12.3786H197.918V12.3716C197.707 12.273 197.644 12.2308 197.883 12.3294C197.897 12.3294 197.96 12.3505 197.988 12.3575C198.031 12.3364 198.136 12.3434 198.241 12.3575C199.695 12.8995 198.452 12.4913 197.988 12.3575C197.967 12.3575 197.925 12.3575 197.918 12.3716C197.918 12.3716 197.932 12.3716 197.939 12.3786C199.639 12.9136 201.36 13.4204 203.046 14.0047C201.993 13.5823 200.644 13.1318 198.248 12.3575V12.3505Z" fill="#CD4D14"/>
<path d="M172.474 4.38953C172.635 4.43881 172.621 4.45993 172.635 4.474C172.98 4.51624 173.113 4.52328 172.474 4.38953Z" fill="#CD4D14"/>
<path d="M174.616 4.9734C174.222 4.92413 173.885 4.94525 172.649 4.66368C171.581 4.38915 172.678 4.55143 172.635 4.474C171.87 4.38953 169.965 4.13574 172.305 4.69184L172.684 4.73407C174.791 5.25497 177.454 6.09967 177.075 6.05744C176.506 5.71252 175.986 5.46615 174.616 4.9734Z" fill="#CD4D14"/>
<path d="M186.713 8.31657C188.16 8.66853 189.614 9.02049 191.054 9.41468C190.344 9.14016 189.635 8.85155 188.918 8.5911L188.996 8.73188C186.551 8.02093 187.043 8.30249 186.713 8.30953V8.31657Z" fill="#CD4D14"/>
<path d="M209.643 16.6296L209.003 16.6437C209.846 16.8408 210.675 17.0731 211.518 17.2913L209.643 16.6366V16.6296Z" fill="#CD4D14"/>
<path d="M215.01 18.8187L214.729 18.9243L216.183 19.4171L215.01 18.8187Z" fill="#CD4D14"/>
<path d="M100.357 172.187C99.9149 172.145 99.4794 172.089 99.0368 172.025C99.655 172.124 100.055 172.166 100.357 172.187Z" fill="#CD4D14"/>
<path d="M109.847 173.561L110.093 173.49C109.643 173.49 109.461 173.504 109.847 173.561Z" fill="#CD4D14"/>
<path d="M271.98 126.082C271.362 126.793 270.709 127.553 270.231 128.102C269.725 128.63 269.423 128.989 269.585 128.975L270.126 128.658C270.898 127.596 271.439 126.751 271.98 126.082Z" fill="#CD4D14"/>
<path d="M187.942 170.52C188.125 170.513 188.322 170.506 188.511 170.492C188.961 170.337 189.383 170.197 189.748 170.056C189.207 170.211 188.589 170.352 187.942 170.52Z" fill="#CD4D14"/>
<path d="M186.762 171.682L184.233 171.957C184.802 171.915 185.617 171.83 186.762 171.682Z" fill="#CD4D14"/>
<path d="M50.0952 157.518C49.5894 157.37 49.0836 157.237 48.5849 157.061C50.7836 158.11 49.8704 157.532 50.0952 157.518Z" fill="#CD4D14"/>
<path d="M264.063 51.255C265.082 52.5431 265.953 53.5075 266.669 54.4015C265.489 52.8177 264.541 51.5225 264.063 51.255Z" fill="#CD4D14"/>
<path d="M104.438 170.358C103.637 170.281 103.293 170.274 103.307 170.323C104.129 170.408 104.6 170.436 104.438 170.358Z" fill="#CD4D14"/>
<path d="M269.613 58.0752C269.452 57.8359 269.297 57.5965 269.135 57.3572C268.405 56.414 267.569 55.5418 266.669 54.4015C267.519 55.5841 268.552 56.8856 269.613 58.0822V58.0752Z" fill="#CD4D14"/>
<path d="M73.0092 24.3937C73.1426 24.3655 73.3042 24.3233 73.4307 24.2951C73.4588 24.2529 73.2761 24.3092 73.0092 24.3937Z" fill="#CD4D14"/>
<path d="M127.431 23.1117C126.911 22.985 126.075 22.7527 125.267 22.5908C125.654 22.6823 126.307 22.8372 127.431 23.1117Z" fill="#CD4D14"/>
<path d="M235.76 29.3696C234.692 28.7713 235.577 29.2922 235.76 29.3696V29.3696Z" fill="#CD4D14"/>
<path d="M230.99 25.6404C231.236 25.7459 231.426 25.8093 231.475 25.7811C231.363 25.7811 231.194 25.7319 230.99 25.6404Z" fill="#CD4D14"/>
<path d="M277.368 67.6137C277.368 67.6137 277.396 67.67 277.418 67.7122C277.291 67.3603 277.305 67.4236 277.368 67.6137Z" fill="#CD4D14"/>
<path d="M234.208 28.3559C234.594 28.6093 235.044 28.8979 235.536 29.2006C235.325 29.0598 234.925 28.7994 234.208 28.3559Z" fill="#CD4D14"/>
<path d="M234.37 28.5766C234.004 28.3584 233.723 28.1824 233.449 28.0205C233.295 27.9783 233.4 28.0627 234.37 28.5766Z" fill="#CD4D14"/>
<path d="M237.229 30.2366C236.632 29.8705 236.07 29.5256 235.536 29.2018C235.74 29.3356 235.817 29.3989 235.761 29.3708C236.077 29.5467 236.512 29.8002 237.229 30.2366Z" fill="#CD4D14"/>
<path d="M0.737769 89.8644C0.751818 89.7799 0.772893 89.6884 0.786942 89.5969C0.800992 88.9563 0.843141 88.7803 0.815042 88.8859C0.793967 88.9845 0.751818 89.3716 0.737769 89.8644Z" fill="#CD4D14"/>
<path d="M250.253 149.529C250.302 149.493 250.323 149.479 250.372 149.444C250.323 149.472 250.253 149.507 250.21 149.536H250.26L250.253 149.529Z" fill="#CD4D14"/>
<path d="M246.501 151.993C248.011 150.79 248.938 150.226 250.21 149.537L248.601 149.748C247.906 150.494 247.224 151.275 246.501 152V151.993Z" fill="#CD4D14"/>
<path d="M77.8701 167.417C78.8606 167.769 79.8581 168.079 80.8556 168.409C79.9143 168.255 79.0432 168.093 78.3126 167.945C77.582 167.776 76.992 167.642 76.6056 167.558C75.8329 167.389 75.868 167.445 77.2519 167.987C77.554 167.727 80.5254 168.459 83.4829 169.198C86.4614 169.859 89.4399 170.535 89.735 170.197L91.73 170.753C91.147 170.627 91.0486 170.648 90.4726 170.528C94.3503 171.662 93.5003 170.641 98.5722 171.64C100.335 172.028 101.572 172.281 100.342 172.189L104.347 172.626C105.499 172.816 105.204 172.9 104.052 172.703C106.075 173.006 108.112 173.21 110.135 173.471L110.086 173.485C110.964 173.499 112.959 173.52 113.921 173.555C115.46 173.823 113.135 173.548 113.521 173.675C114.652 173.738 115.783 173.808 116.914 173.858C117.595 174.006 117.23 174.069 116.401 174.062C115.579 174.041 114.294 173.935 113.128 173.801C116.204 174.857 115.938 173.963 122.724 174.928C121.656 174.893 120.588 174.815 119.52 174.759C121.55 175.364 124.058 175.371 127.669 175.857C126.812 175.667 120.462 174.752 124.15 174.808C125.182 174.921 126.545 175.061 128.54 175.012C128.54 175.266 130.486 175.287 132.917 175.378L132.741 175.709C135.368 175.702 135.171 175.505 136.717 175.392C139.639 175.505 140.243 175.744 140.932 175.969C145.624 176.033 137.693 175.54 143.243 175.491C145.189 175.575 146.854 175.512 148.603 175.449C150.359 175.392 152.2 175.223 154.525 175.026C157.25 175.04 154.054 175.251 155.038 175.308C155.838 175.195 156.639 175.061 157.44 174.921C158.03 174.893 157.848 174.984 157.749 175.033C159.779 174.808 157.897 174.688 161.086 174.407C161.915 173.984 167.682 174.477 171.581 173.618C172.565 173.618 171.132 173.872 171.448 173.97C174.138 173.569 175.283 173.33 176.316 173.154C177.341 172.957 178.255 172.802 180.432 172.281L184.226 171.95C182.828 172.028 182.996 171.859 183.896 171.591C184.795 171.31 186.417 170.894 187.935 170.514C186.937 170.556 186.094 170.592 185.525 170.634C187.148 170.289 188.771 169.993 190.387 169.613C190.984 169.557 190.513 169.761 189.74 170.057C190.07 169.965 190.379 169.874 190.618 169.803C192.389 169.592 191.518 169.958 190.302 170.38C189.698 170.437 189.087 170.465 188.504 170.493C187.331 170.901 186.228 171.317 186.516 171.464C186.832 171.373 187.436 171.239 188.11 171.105C187.801 171.211 187.605 171.295 187.759 171.303C187.935 171.303 188.434 171.148 189.22 170.929C189.614 170.993 190.007 171.042 190.401 171.091L190.646 170.894C192.796 170.556 194.953 170.254 197.095 169.845C198.219 169.508 199.301 169.17 200.404 168.811C201.5 168.438 202.624 168.064 203.818 167.656C205.019 167.255 206.298 166.833 207.717 166.361C209.143 165.903 210.702 165.404 212.458 164.841C210.78 165.622 212.206 165.383 212.199 165.727C211.693 165.791 211.096 165.932 210.428 166.122C209.761 166.298 209.016 166.523 208.223 166.776C207.429 167.023 206.579 167.29 205.701 167.565C204.815 167.825 203.895 168.057 202.954 168.269C204.914 167.832 204.52 168.086 204.036 168.262C206.234 167.635 208.405 166.896 210.59 166.213C210.513 166.516 212.044 165.995 213.793 165.594C213.063 165.523 214.271 165.101 215.971 164.524C217.664 163.918 219.877 163.243 221.155 162.687C221.373 162.792 220.811 163.222 217.559 164.214C221.268 163.447 221.956 162.074 225.532 161.138C224.759 161.455 224.323 161.553 224.049 161.757C225.827 160.962 230.273 159.308 229.297 159.871L228.524 160.174C231.109 159.202 234.966 157.513 238.204 155.894C239.813 155.07 241.267 154.254 242.363 153.627C243.445 152.98 244.147 152.466 244.274 152.269C244.351 152.29 243.902 153.092 243.649 153.339C246.297 151.311 248.875 149.221 251.306 146.989C250.786 147.792 254.088 146.715 250.364 149.425C250.947 149.115 251.566 148.707 252.338 148.2C253.097 147.679 254.038 147.095 255.12 146.201C254.369 146.708 252.957 147.01 253.961 146.306C255.45 145.497 255.949 145.187 256.532 144.821C257.115 144.455 257.783 144.047 259.504 142.857C258.401 143.646 259.195 142.224 260.852 140.907C260.656 141.189 261.379 141.252 260.81 141.794C261.443 141.168 262.012 140.471 262.616 139.816C263.199 139.141 263.817 138.507 264.365 137.803C263.501 138.817 264.54 138.338 265.51 137.606C265.271 137.761 266.093 136.944 267.09 135.959C268.053 134.938 269.149 133.699 269.605 133.15L267.997 134.755C270.069 132.566 270.779 131.207 271.523 129.926C271.909 129.293 272.226 128.61 272.675 127.807C273.111 126.991 273.757 126.097 274.481 124.802C274.228 125.477 274.214 126.745 275.829 124.147C275.935 123.802 276.124 123.267 276.328 122.556C276.518 121.838 276.764 120.965 277.059 119.994C277.199 119.508 277.382 119.001 277.529 118.459C277.677 117.917 277.838 117.354 278.007 116.777C278.183 116.2 278.365 115.616 278.569 115.024C278.752 114.426 278.941 113.814 279.131 113.194L279.644 112.328C280.079 111.075 280.346 109.773 280.69 108.499C280.62 109.118 280.494 110.019 280.332 111.082C280.136 112.138 279.855 113.335 279.574 114.595C279.279 115.848 278.857 117.101 278.506 118.312C278.337 118.917 278.126 119.487 277.923 120.015C277.719 120.55 277.522 121.05 277.354 121.5C277.923 120.529 278.042 120.409 278.204 120.156C278.358 119.902 278.604 119.536 279.272 117.974C279.897 116.939 278.773 119.783 278.281 120.656C278.92 119.501 279.447 118.29 279.995 117.087C280.262 116.481 280.564 115.89 280.796 115.278L281.519 113.426C281.407 113.476 281.463 113.138 281.604 112.61C281.681 112.342 281.765 112.033 281.864 111.695C281.948 111.35 282.039 110.984 282.131 110.611C282.496 109.133 282.882 107.661 282.672 107.76C282.334 109.147 281.969 110.526 281.59 111.906C281.133 113.257 280.726 114.637 280.234 115.982C280.114 116.024 280.136 115.749 280.234 115.207C280.318 114.665 280.494 113.87 280.747 112.92C280.873 112.441 281.021 111.92 281.168 111.371C281.295 110.808 281.442 110.217 281.604 109.604C281.765 108.992 281.941 108.358 282.11 107.711C282.257 107.056 282.412 106.387 282.58 105.711C283.051 104.367 282.945 106.887 283.086 106.81C283.1 106.437 283.395 105.141 283.606 103.86C283.802 102.572 284.013 101.319 284.098 101.073L283.873 103.445C284.21 101.917 284.336 100.643 284.357 99.2847C284.386 98.6089 284.421 97.9121 284.498 97.1589C284.526 96.3987 284.589 95.5751 284.709 94.6459C284.723 94.3221 284.786 93.9209 284.828 93.4915C284.863 93.0621 284.898 92.6116 284.934 92.1963C285.004 91.3586 285.039 90.6547 284.934 90.5421C284.575 92.689 283.332 93.0621 283.002 91.7176C283.002 91.605 283.023 91.1404 283.051 90.4787C283.065 89.817 283.023 88.9653 283.009 88.0713C282.995 87.6278 283.002 87.1703 282.974 86.7339C282.938 86.2974 282.903 85.868 282.875 85.4739C282.819 84.6855 282.777 84.0238 282.77 83.6577C282.707 82.6089 283.086 83.3269 283.374 84.1223C283.683 84.9107 283.985 85.7554 283.985 84.8403C283.873 84.777 283.599 83.6366 283.458 83.165C283.255 81.8276 283.873 83.6577 283.198 80.7858C283.079 80.6872 282.967 80.2649 282.805 79.7792C282.65 79.2935 282.489 78.7233 282.376 78.308C282.152 77.4773 282.103 77.2591 282.566 79.5046C282.124 78.139 281.948 77.3999 281.723 76.6045C281.477 75.8232 281.238 74.9644 280.648 73.3876C280.747 73.9226 280.269 73.2961 279.63 72.2191C279.3 71.6841 278.962 71.0224 278.569 70.3678C278.176 69.7131 277.782 69.0303 277.452 68.4039C277.607 68.5165 277.438 67.89 277.347 67.5803C276.644 66.3062 276.068 65.1588 275.471 64.124C274.853 63.1034 274.312 62.132 273.729 61.2098C273.125 60.2947 272.528 59.3937 271.895 58.4364C271.214 57.5142 270.497 56.5288 269.669 55.4588C269.416 55.0224 267.828 52.9247 268.657 53.692C268.109 53.1218 267.568 52.6431 266.43 51.4113C264.491 48.7857 268.966 54.1636 267.596 52.073C267.449 52.0659 266.662 51.2987 265.714 50.3343C264.758 49.3699 263.557 48.2577 262.686 47.4412C262.826 47.8213 263.775 48.8138 264.913 49.926C266.002 51.0734 267.294 52.3264 268.109 53.2063C268.025 53.2837 267.779 53.15 267.386 52.8614C266.985 52.5798 266.437 52.1293 265.784 51.5521C265.138 50.9678 264.365 50.2569 263.48 49.4755C262.602 48.6801 261.646 47.7861 260.578 46.864C258.935 45.3506 258.612 44.9845 258.647 44.9141C258.682 44.8437 259.068 45.069 258.752 44.8367C257.2 43.4218 256.054 42.4504 255.092 41.7606C254.144 41.0637 253.448 40.571 252.76 40.1416C251.383 39.2828 250.21 38.4803 247.477 36.3123C245.391 34.468 247.709 35.7702 247.33 35.2493C248.833 36.2911 249.957 37.1358 250.912 37.9594C251.868 38.783 252.704 39.508 253.673 40.2753C252.914 39.5995 252.128 38.9519 251.355 38.2832C251.84 38.607 252.577 39.1279 253.322 39.677C254.059 40.2331 254.769 40.8525 255.261 41.3101C254.446 40.4654 251.713 38.1636 248.39 35.7773C245.082 33.3699 241.239 30.8147 238.492 29.0478C237.46 28.5129 235.683 27.5978 236.441 28.1679C237.045 28.4917 237.628 28.8507 238.225 29.1957C239.729 30.3642 234.748 27.464 236.926 28.9C235.697 28.2806 234.39 27.6189 232.957 26.8938C231.51 26.197 229.992 25.3593 228.292 24.4231L227.794 23.8036C227.829 23.9233 229.964 25.134 230.955 25.5846C230.217 25.2537 228.96 24.4512 227.646 23.7051C226.993 23.325 226.333 22.9519 225.721 22.6492C225.103 22.3606 224.541 22.1354 224.099 22.0368C224.878 22.5014 225.665 22.9589 226.438 23.4446C223.902 22.3325 220.671 21.1851 217.587 19.6787C218.872 20.6149 218.324 19.9743 220.382 21.3259C219.518 20.6782 221.52 21.5722 223.34 22.4803C225.173 23.3531 226.831 24.219 225.433 23.2264C227.464 24.7539 229.206 25.3523 231.882 27.2599C231.84 27.1261 230.976 26.5067 233.449 27.9708C233.575 28.006 233.863 28.1257 234.039 28.2031C234.116 28.2524 234.137 28.2665 234.2 28.3087C234.151 28.2735 234.116 28.2524 234.067 28.2172C234.186 28.2665 234.193 28.2665 234.018 28.182C233.449 27.8019 232.992 27.4711 232.83 27.3092C233.505 27.5626 234.84 28.2594 236.174 28.9774C237.502 29.7165 238.816 30.4979 239.511 30.8499C240.944 31.7861 238.837 30.5824 239.574 31.1666C240.27 31.5115 240.937 31.8917 241.626 32.2577C241.689 32.5815 245.208 35.0522 241.766 32.9827C242.778 33.6303 243.775 34.3061 244.759 35.003C246.445 36.2982 248.763 38.072 250.252 39.0857C251.566 40.1697 253.793 41.5283 252.514 40.754C253.266 41.3241 253.996 41.9154 254.741 42.4997C255.485 43.0769 256.216 43.6752 256.926 44.2876V44.3651C257.445 44.8297 257.972 45.2942 258.506 45.7588C259.026 46.2375 259.553 46.7232 260.08 47.2089C261.155 48.1662 262.194 49.1869 263.241 50.2428C263.775 50.7566 264.288 51.2987 264.793 51.8688C265.292 52.432 265.805 53.0021 266.311 53.5723C266.802 54.1566 267.273 54.776 267.751 55.3955C268.228 56.0149 268.706 56.6414 269.128 57.3172C269.711 58.0492 270.329 58.7743 270.982 59.6612C271.607 60.5763 272.373 61.5829 273.167 62.9344L273.314 63.5609C273.638 64.0607 274.038 64.6942 274.438 65.384C274.811 66.095 275.204 66.8482 275.583 67.5662C275.977 68.2771 276.279 68.9811 276.56 69.5442C276.841 70.1073 277.073 70.5367 277.234 70.7479C277.536 72.029 278.618 74.6828 279.595 77.59C280.009 79.0682 280.529 80.5676 280.817 82.0035C280.971 82.7145 281.154 83.3973 281.26 84.0308C281.351 84.6714 281.435 85.2556 281.512 85.7695L281.8 85.8892C281.857 86.2411 281.906 86.6001 281.962 86.9521C281.997 87.3111 282.032 87.663 282.06 88.022C282.131 88.74 282.208 89.458 282.285 90.2042C282.32 90.9503 282.355 91.7176 282.398 92.5271C282.412 92.9283 282.447 93.3437 282.447 93.766C282.447 94.1883 282.433 94.6248 282.426 95.0753L282.672 94.8641C282.672 95.6384 282.693 96.5324 282.58 97.4968C282.461 98.4611 282.334 99.51 282.166 100.608C281.941 101.692 281.709 102.84 281.47 104.008C281.161 105.162 280.866 106.352 280.571 107.542C280.571 107.197 280.88 105.993 281.14 105.148C280.901 105.845 280.691 106.556 280.487 107.274C280.255 107.985 280.016 108.703 279.798 109.428C279.398 110.885 278.871 112.321 278.4 113.764C278.183 114.489 277.895 115.186 277.614 115.876C277.333 116.566 277.052 117.249 276.778 117.924C276.181 119.248 275.492 120.487 274.811 121.634C274.249 122.838 273.715 123.633 273.202 124.408C273.265 124.302 273.314 124.203 273.357 124.119C273.286 124.239 273.181 124.408 273.076 124.584C272.759 125.076 272.366 125.534 271.973 126.055C272.324 125.625 272.689 125.231 272.928 124.837C272.394 125.703 271.516 126.977 270.715 128.272L270.118 128.631C270.041 128.73 269.985 128.807 269.907 128.913C268.917 130.025 269.261 129.926 269.907 129.419C269.465 130.046 269.071 130.63 268.783 131.102C268.264 131.461 267.596 132.2 266.929 133.023C266.592 133.425 266.24 133.84 265.889 134.213C265.524 134.579 265.138 134.882 264.772 135.1C264.259 136.036 259.342 140.506 258.907 141.28C258.829 141.266 258.457 141.534 259.103 141.006C258.422 141.527 257.74 142.041 257.094 142.569C256.434 143.082 255.781 143.561 255.204 144.068L254.432 144.237C253.533 145.11 252.57 145.905 251.608 146.722C249.606 147.82 248.77 148.235 250.505 146.785C249.444 147.637 248.629 148.144 248.025 148.573C247.407 148.988 246.971 149.277 246.55 149.558C245.721 150.129 244.934 150.558 243.002 151.867L243.101 151.572C242.742 151.776 242.335 152.029 241.907 152.283C241.478 152.529 241.028 152.79 240.593 153.043C239.729 153.536 238.928 153.979 238.443 154.127C237.579 154.472 236.083 155.07 234.228 155.915C233.308 156.351 232.247 156.753 231.145 157.231C230.035 157.703 228.854 158.21 227.611 158.674C226.368 159.146 225.103 159.674 223.79 160.131C222.483 160.589 221.155 161.053 219.849 161.511C217.207 162.349 214.629 163.151 212.318 163.714C213.287 163.749 212.213 163.996 210.857 164.306C209.508 164.629 207.864 164.925 207.752 165.214C207.176 165.214 205.876 165.481 207.33 164.96C205.012 165.678 203.221 166.03 201.619 166.389C200.025 166.762 198.613 167.072 197.018 167.614C196.442 167.586 197.987 167.185 197.489 167.206C197.116 167.318 196.006 167.656 195.494 167.677C194.995 167.698 196.161 167.41 196.899 167.185C194.482 167.734 193.161 168.093 192.417 168.402C191.672 168.719 191.496 168.973 191.363 169.212C188.855 169.508 187.619 169.705 185.87 170.289C184.984 170.296 183.516 170.402 186.551 169.838C184.844 170.176 176.035 171.211 175.894 171.528C175.346 171.507 173.478 171.802 173.028 171.894C171.089 172.077 170.029 172.175 168.982 172.281C167.935 172.387 166.896 172.485 164.992 172.647L166.053 172.619C164.577 173.126 162.884 173.006 159.807 173.217L159.892 173.168C156.351 173.238 155.586 173.309 154.834 173.358C154.082 173.414 153.345 173.485 149.846 173.428L150.233 173.675C149.593 174.231 144.037 173.492 139.983 173.647L141.445 173.794C139.225 174.006 135.263 172.957 133.057 172.83C132.572 172.76 133.823 172.788 134.497 172.76C128.709 172.225 133.731 173.069 129.404 172.964C128.617 172.746 130.451 172.563 127.55 172.387C126.833 172.267 124.719 172.274 122.281 172.239C119.857 172.133 117.104 172.042 115.151 171.633C116.008 171.866 116.858 172.098 114.849 171.985C111.765 171.725 106.63 170.507 103.82 170.5C103.44 170.402 103.3 170.345 103.286 170.31C100.933 170.099 95.6991 169.233 94.259 169.198C93.2755 168.536 89.6577 167.973 86.335 167.297C85.506 167.135 84.6912 166.973 83.9325 166.826C83.1808 166.657 82.4994 166.495 81.9164 166.347C80.7573 166.044 80.0267 165.784 80.0899 165.594C78.9168 165.319 77.7577 164.974 76.5915 164.658C75.4324 164.327 74.2593 164.031 73.1072 163.665L73.311 163.644C71.1122 162.919 69.6019 162.504 68.4568 162.18C67.3118 161.849 66.5109 161.673 65.7031 161.497C64.7056 161.096 65.4713 161.279 65.5696 161.272C59.2613 158.808 58.6502 158.569 53.2832 156.668L52.8547 156.182C51.3584 155.732 44.1791 151.677 38.4328 148.418C38.503 148.425 38.6505 148.453 39.1142 148.693C37.4633 147.834 35.7914 146.644 34.0844 145.49C33.2414 144.892 32.4336 144.244 31.6257 143.632C30.8179 143.012 30.0241 142.407 29.3005 141.773C28.5629 141.161 27.8464 140.562 27.179 140.006C26.4976 139.464 25.9145 138.901 25.3455 138.444C24.2286 137.5 23.2662 136.839 22.634 136.515L20.8005 134.882L19.8872 134.058L19.0162 133.192C20.0558 134.396 20.5968 134.903 20.7373 135.114C20.8848 135.318 20.6811 135.192 20.386 134.987C19.7959 134.579 18.8897 133.812 19.7538 134.811C17.9765 133.009 15.574 129.821 17.6815 132.073L17.9695 132.46C18.2505 132.587 18.0678 132.277 17.6393 131.742C17.4286 131.468 17.1405 131.158 16.8525 130.785C16.5645 130.412 16.2414 130.011 15.9182 129.595C15.2719 128.772 14.5765 127.948 14.1269 127.28C13.6773 126.611 13.4033 126.153 13.4947 126.139C9.82069 121.106 6.94754 115.594 4.98059 109.886C4.02522 107.021 3.18927 104.135 2.7467 101.242C2.28306 98.3415 2.11447 95.4272 2.29711 92.5553L1.8686 93.8716C1.90372 93.1958 1.91777 92.5201 1.95992 91.8513L2.17067 89.8382C2.25497 89.3102 2.41654 88.9794 2.44464 89.1202C2.47273 89.2609 2.45869 89.8945 2.31116 91.3164C2.62026 89.8381 2.7748 86.5227 2.75373 86.4171C4.15167 80.9477 2.70455 88.6626 3.09794 86.9662L3.58266 84.6855L3.42108 85.1852C3.53348 84.242 3.64588 83.7281 3.77233 83.0242C3.8496 82.6723 3.91985 82.271 4.07439 81.7642C4.23596 81.2574 4.44671 80.6309 4.74175 79.8073C5.61985 77.7871 5.38101 78.85 5.7182 78.0546C5.75332 78.0757 5.84465 77.8011 6.25208 76.8438C6.6244 76.0836 6.97564 75.3093 7.36903 74.5561L8.59135 72.3247L7.35498 73.9718C7.81862 72.93 8.40168 71.8742 8.71779 71.3392C9.01986 70.7901 9.00581 70.7268 8.24713 71.656C9.32895 70.2692 11.9211 66.2428 14.9207 62.7162C17.8782 59.1544 21.0674 56.0219 21.9104 55.3603C24.0881 53.0092 26.4836 50.9256 29.5955 48.5534C29.1951 48.8279 28.8298 48.9898 28.8931 48.8279C28.9563 48.659 29.4621 48.1592 30.8319 47.1667C30.5579 47.8284 31.8154 46.9273 33.5224 45.8081C34.3654 45.2309 35.3208 44.5974 36.234 44.0554C37.1332 43.4993 37.9902 43.0276 38.6365 42.7742C37.5266 43.2951 39.5146 41.9577 41.4113 40.7892C43.2869 39.5925 45.0712 38.5648 43.2799 39.2969C45.7667 37.9524 43.5609 39.4447 45.4997 38.5296C51.239 35.0311 58.7415 31.955 66.4899 29.0619C66.5812 28.9282 65.2254 29.2801 66.8481 28.5269C68.2812 28.2031 69.7002 27.8371 71.1403 27.5485C72.6787 27.0065 72.4048 26.5489 75.3692 26.0139C74.9407 26.0632 74.3015 26.1266 75.3482 25.7816C83.2089 23.7192 91.3296 21.9383 99.6119 21.1217C103.749 20.7134 107.922 20.5515 112.06 20.7486C116.197 20.9387 120.314 21.4948 124.248 22.5507C122.119 21.9312 123.566 22.1917 125.217 22.5507C124.157 22.2691 125.295 22.3325 125.112 22.1635C127.325 22.7618 129.488 23.5221 131.582 24.3949C131.898 24.4231 132.488 24.5991 133.205 24.8384C133.914 25.1059 134.729 25.4719 135.537 25.8239C136.324 26.2181 137.089 26.6123 137.714 26.9009C138.319 27.2317 138.782 27.4499 138.979 27.4711C138.347 27.1261 137.721 26.7601 137.061 26.4715C138.438 26.9502 137.651 26.3025 136.562 25.493C135.481 24.6695 134.026 23.8318 134.328 23.6629C133.528 23.4306 132.614 23.1349 131.631 22.7266C130.633 22.3747 129.566 21.9101 128.393 21.53C126.074 20.6994 123.398 20.0658 120.672 19.9673C119.499 19.7068 121.712 19.9462 121.094 19.742C120.391 19.7561 119.633 19.7209 118.663 19.6153C117.694 19.5449 116.521 19.3901 114.982 19.2423L115.333 19.2071C111.013 18.9396 107.922 18.9114 104.705 18.9888C101.487 19.0804 98.1296 19.2352 93.3106 19.8617L94.0553 20.0025C91.99 20.277 91.5404 20.2559 90.5709 20.3685C89.4259 20.7698 90.866 20.4952 92.3412 20.2911C93.8164 20.0799 95.3127 19.8758 94.266 20.2418C92.868 20.1855 89.2292 20.7134 85.7449 21.4526C82.2606 22.1776 78.9168 23.0082 77.9473 22.9941C74.8564 23.8388 78.9308 23.0223 75.8399 23.867L74.9829 23.9585L74.2663 24.3809C72.2432 24.9369 71.1824 25.1059 71.063 24.9933C71.5548 24.8525 72.4329 24.5005 72.9527 24.3457C70.2833 24.9651 65.668 26.8164 64.7828 27.1261C65.7523 26.7883 66.7357 26.4715 67.7122 26.1758C63.6027 27.6822 59.0787 29.4631 54.6952 31.4693C50.3117 33.4755 46.0687 35.7139 42.4931 37.9665L43.1113 37.7553C40.3716 39.4588 39.2687 40.1205 38.0815 40.8103C36.9013 41.5001 35.6299 42.2181 32.7567 44.2876L32.9534 44.1187C32.4125 44.5762 31.7522 45.0831 31.0497 45.6321C30.3542 46.1882 29.5885 46.7725 28.8088 47.3497C30.1365 46.1389 25.9918 49.2221 27.748 47.6524C27.0807 48.2225 26.5397 48.6871 26.0902 49.0602C25.6616 49.4544 25.3245 49.7641 25.0505 50.0105C24.5166 50.5032 24.2637 50.7566 24.067 50.9678C23.6736 51.3831 23.5402 51.6506 21.9666 53.3541C21.6575 53.5371 21.3554 53.7413 21.0534 53.9383C20.0348 55.1561 19.9786 55.2899 17.555 57.8521C19.4658 55.6629 15.7567 59.26 17.8782 56.7822C15.1385 59.3233 13.4033 61.5125 12.0897 63.3638C11.4083 64.2719 10.8604 65.1166 10.2984 65.8698C9.72234 66.6159 9.20953 67.3128 8.59837 67.9393C7.87482 69.5231 8.83722 68.2068 9.84879 66.7215C10.9166 65.2714 12.0757 63.6524 11.5488 64.4549C12.6587 63.2934 10.1579 66.9327 8.89341 68.8825C8.24713 69.875 7.5868 70.6564 6.7087 71.839C6.29423 72.4443 5.8025 73.1483 5.27564 74.0493C4.7839 74.9714 4.16571 76.0484 3.61778 77.4633C3.8496 76.9072 3.82852 76.8509 4.06034 76.3018C3.06282 78.3432 2.52191 80.469 1.59463 83.0946C1.51736 83.883 1.32769 84.7629 1.16612 85.509C0.997524 86.2552 0.892151 86.8746 1.06777 87.1351C1.19422 86.22 1.42604 85.326 1.60166 84.418C1.79133 83.517 2.0653 82.6371 2.29711 81.7431C2.10744 82.5033 1.93885 83.2636 1.77728 84.0379C1.65786 84.8263 1.53141 85.6428 1.39794 86.5157C1.29257 87.3956 1.18719 88.3318 1.03967 89.3665C0.997524 89.8874 0.941325 90.4294 0.878102 91.0066C0.842978 91.2953 0.807854 91.5839 0.77273 91.8865C0.751655 92.1892 0.723556 92.499 0.702481 92.8228C0.674382 92.6186 0.618184 92.1329 0.632233 91.5698C0.646283 90.9996 0.667357 90.352 0.688432 89.8241C0.55496 90.5702 0.491737 91.2952 0.456613 92.0273C0.456613 92.7664 0.442563 93.5056 0.351241 94.2869C0.252893 94.1743 0.210744 93.6956 0.20372 92.9846C0.20372 92.6327 0.20372 92.2174 0.217769 91.7669C0.259918 91.3164 0.302067 90.8236 0.351241 90.3168C0.519836 88.2614 1.01157 85.8892 1.25744 84.1998C0.632233 85.7484 0.386365 90.5561 0.210744 88.8034C0.245869 89.4299 0.280993 90.1197 0.224794 90.8588C0.196695 91.2319 0.168596 91.612 0.133471 92.0132C0.112397 92.4145 0.0913226 92.8228 0.0702481 93.2521C0.0491737 93.6815 0.0280993 94.118 0 94.5685C0.0140496 95.019 0.0210744 95.4836 0.0351241 95.9622C0.0561985 96.4409 0.0702481 96.9266 0.133471 97.4193C0.20372 97.9121 0.295042 98.4119 0.39339 98.9187L0.119422 98.6723C0.17562 98.9961 0.252893 99.4888 0.351241 100.052C0.477687 100.608 0.604134 101.235 0.695457 101.826C0.477687 101.129 0.231819 100.432 0.0421489 99.7212C0.407439 101.368 0.604134 102.966 0.927276 104.536C1.00455 104.93 1.06075 105.331 1.15207 105.711L1.44711 106.859C1.65083 107.619 1.87563 108.379 2.14257 109.133C0.224794 102.734 1.95992 107.626 1.39794 104.86C2.6624 108.759 2.88017 109.907 3.18224 111.188C3.32274 111.829 3.47026 112.504 3.7934 113.56C4.15167 114.602 4.7558 115.989 5.76035 118.065C5.17729 116.953 3.94092 113.743 4.84712 115.475C5.19836 116.277 5.55663 117.228 5.94299 118.079C6.34341 118.924 6.69465 119.691 6.89837 120.198C9.96119 125.477 6.63845 119.269 8.04341 121.451C8.45788 122.408 8.88639 123.028 9.38515 123.675C9.89796 124.316 10.4599 125.027 11.2819 126.062L11.0852 126.224C12.0686 127.646 12.6306 128.448 13.031 128.891C13.4385 129.328 13.6141 129.448 13.7827 129.553C14.1269 129.75 14.3657 129.926 16.2976 132.348C15.6021 131.799 15.005 131.158 14.3447 130.567C15.0472 131.39 15.7426 132.214 16.5153 132.974L15.848 132.672C17.1265 133.903 17.9203 134.741 18.7141 135.572C19.536 136.374 20.3228 137.198 21.5311 138.437C21.3063 138.092 21.4608 138.092 21.9596 138.43C22.4654 138.753 23.3224 139.408 24.4604 140.415C25.191 141.161 24.9311 141.013 24.903 141.034C24.8889 141.048 24.924 141.097 25.1769 141.323C25.4298 141.548 25.9075 141.921 26.7575 142.59C26.329 142.35 25.8724 142.097 25.3596 141.738C24.8468 141.379 24.3129 140.865 23.6806 140.154C23.484 140.091 22.8517 139.633 22.648 139.563C23.4418 140.358 24.4674 141.344 25.5071 142.16C26.5538 142.977 27.5373 143.737 28.1555 144.216C27.6918 143.829 27.1369 143.371 26.8699 143.111C28.5559 144.357 30.3331 145.462 32.0894 146.595C32.834 147.25 32.1596 146.855 31.4852 146.461C32.5179 147.2 33.3327 147.566 34.8923 148.58C34.3794 148.482 34.3513 148.735 32.0964 147.341C32.9394 147.876 33.8034 148.383 34.6534 148.904C35.5104 149.418 36.3464 149.953 37.2315 150.417C37.5266 150.699 39.7323 152.212 39.0299 151.874C40.3997 152.818 42.2613 153.655 44.2001 154.627C45.1696 155.105 46.2022 155.535 47.2067 156.028C48.2113 156.52 49.2158 157.013 50.1993 157.499C50.4241 157.555 50.8526 157.71 51.7097 158.076C55.4188 159.843 58.7204 161.427 63.3779 162.863L65.8647 164.116C69.4965 165.284 62.4857 162.461 68.5271 164.383C72.8403 165.615 70.0304 165.185 71.4986 165.756C72.5944 165.995 74.0907 166.326 75.8188 166.706C76.6758 166.903 77.5891 167.142 78.5304 167.41C79.4788 167.656 80.4482 167.938 81.4316 168.269C80.0969 167.994 79.0643 167.691 77.8349 167.382L77.8701 167.417ZM124.072 174.801C123.166 174.801 121.347 174.836 120.693 174.618C121.747 174.421 122.527 174.618 124.072 174.801ZM194.784 169.747C194.138 169.958 193.105 170.113 191.939 170.24C192.775 170.057 193.723 169.888 194.784 169.747ZM247.133 36.5234C247.133 36.5234 247.189 36.5516 247.217 36.5727C248.77 37.8327 248.222 37.3822 247.133 36.5234ZM243.789 34.0597C243.424 33.8485 243.431 33.8978 243.557 34.0245C243.831 34.1371 244.604 34.6581 245.468 35.2775C245.264 35.0522 244.85 34.7144 243.796 34.0527L243.789 34.0597ZM5.84465 77.6322L5.47936 78.3432C6.10456 76.6397 5.97109 77.1395 5.84465 77.6322Z" fill="#CD4D14"/>
<path d="M186.924 171.54C186.664 171.54 186.587 171.505 186.516 171.47C186.172 171.569 186.172 171.618 186.924 171.54Z" fill="#CD4D14"/>
<path d="M50.3688 157.597L50.2424 157.534C50.1651 157.513 50.1159 157.513 50.0948 157.513L50.3758 157.59L50.3688 157.597Z" fill="#CD4D14"/>
<path d="M283.852 83.163C283.972 84.0358 283.986 84.5286 283.993 84.8594C284.056 84.8946 284.063 84.4934 283.852 83.163Z" fill="#CD4D14"/>
<path d="M224.535 23.436C225.349 23.795 226.136 24.1962 226.937 24.5764C225.785 24.0062 225.406 23.7317 224.837 23.4149C224.865 23.4923 225.279 23.795 224.535 23.436Z" fill="#CD4D14"/>
<path d="M203.811 12.9545C203.431 12.8489 203.031 12.68 202.652 12.5744L202.715 12.7222C204.288 13.2783 205.419 13.588 203.811 12.9545Z" fill="#CD4D14"/>
<path d="M222.68 21.5993C222.588 21.3037 221.036 20.6561 219.315 19.917C219.42 19.9662 219.512 20.0085 219.617 20.0577C218.985 20.107 220.853 20.818 222.68 21.5993Z" fill="#CD4D14"/>
<path d="M218.922 19.7405C218.395 19.5082 217.854 19.2689 217.341 19.0366C217.095 19.0577 217.973 19.3322 218.922 19.7405Z" fill="#CD4D14"/>
<path d="M239.293 31.3137C238.57 30.8069 238.675 31.2574 238.296 30.9195C237.804 30.7787 239.103 31.4685 239.996 31.912C240.874 32.3766 241.379 32.5315 239.293 31.3066V31.3137Z" fill="#CD4D14"/>
<path d="M221.612 20.3036L222.111 20.8245L223.151 21.092C222.638 20.8315 222.132 20.55 221.619 20.3036H221.612Z" fill="#CD4D14"/>
<path d="M234.671 27.3088C233.821 26.7808 232.964 26.267 232.093 25.7742C232.114 25.8376 231.763 25.6757 231.341 25.4715C232.971 26.3444 234.692 27.4144 234.671 27.3088Z" fill="#CD4D14"/>
<path d="M231.348 25.4712C230.505 25.0137 229.705 24.5632 229.206 24.3661C229.669 24.5984 230.653 25.1333 231.348 25.4712Z" fill="#CD4D14"/>
<path d="M225.342 22.0154C225.602 22.1632 225.862 22.304 226.115 22.4588L227.99 23.4443C227.105 22.9727 226.234 22.4729 225.342 22.0154Z" fill="#CD4D14"/>
<path d="M260.586 46.329C261.394 47.0681 262.209 47.7861 262.975 48.5675C263.263 48.7505 262.701 48.0466 261.802 47.2301C261.19 46.7303 260.291 45.9208 260.593 46.329H260.586Z" fill="#CD4D14"/>
<path d="M253.589 39.26C254.257 39.8513 254.25 39.9498 254.587 40.3299L254.868 40.1399C254.439 39.8442 254.025 39.5345 253.589 39.26Z" fill="#CD4D14"/>
<path d="M260.874 45.4965C261.169 45.6584 264.52 48.6149 261.478 45.7429C261.176 45.5739 258.738 43.3496 260.874 45.4965Z" fill="#CD4D14"/>
<path d="M283.649 88.3717L283.572 87.534L283.052 87.71L283.649 88.3717Z" fill="#CD4D14"/>
<path d="M272.514 130.114C274.902 126.925 272.802 129.164 274.945 126.278C275.366 125.447 273.202 128.636 273.645 127.784C272.437 129.854 271.552 130.762 272.521 130.114H272.514Z" fill="#CD4D14"/>
<path d="M273.639 127.786C273.835 127.455 274.039 127.111 274.257 126.737C273.892 127.322 273.73 127.61 273.639 127.786Z" fill="#CD4D14"/>
<path d="M135.7 26.4409C136.395 26.8491 137.112 27.2222 137.793 27.6586C137.386 27.3348 136.929 27.0744 136.5 26.7717L135.707 26.4409H135.7Z" fill="#CD4D14"/>
<path d="M139.963 28.3575L140.251 28.9629L141.635 29.519C141.171 29.2233 140.272 28.6532 139.963 28.3505V28.3575Z" fill="#CD4D14"/>
<path d="M130.999 175.87L131.196 175.793C130.809 175.687 130.226 175.652 129.046 175.589L130.999 175.863V175.87Z" fill="#CD4D14"/>
<path d="M97.1825 171.984L97.7585 172.09L96.7329 171.597L97.1825 171.984Z" fill="#CD4D14"/>
<path d="M69.2865 165.551C70.4035 165.917 71.7312 166.262 72.8551 166.628C70.4035 165.917 69.1039 165.086 69.2865 165.551Z" fill="#CD4D14"/>
</svg>
