<svg width="100%" height="100%" viewBox="0 0 143 143" fill="none" xmlns="http://www.w3.org/2000/svg">
<g clip-path="url(#clip0_75_44377)">
<path d="M2.50638 69.5377C2.22881 69.3208 2.20953 69.5543 2.14595 69.5619C2.65762 69.8688 2.52719 69.4881 2.50638 69.5377Z" fill="#CD4D14"/>
<path d="M7.53044 72.4873L7.40328 72.5025L8.22608 72.8068L7.53044 72.4873Z" fill="#CD4D14"/>
<path d="M12.0941 75.4336C11.8489 74.8558 10.389 74.4578 9.65522 73.8062L9.56908 73.6514L9.04584 73.6557C10.055 74.2696 11.4464 74.9228 12.1013 75.4407L12.0941 75.4336Z" fill="#CD4D14"/>
<path d="M14.1837 77.5872C14.0971 77.3758 14.7865 77.8014 13.6219 77.2029C13.6718 77.252 13.6861 77.266 13.7146 77.2941C13.814 77.3498 13.9491 77.4406 14.1907 77.58L14.1837 77.5872Z" fill="#CD4D14"/>
<path d="M13.7075 77.3012C13.203 77.0154 13.9715 77.5889 13.7075 77.3012V77.3012Z" fill="#CD4D14"/>
<path d="M16.0658 78.5545L15.3354 78.2989C15.4285 78.4467 16.0183 78.7883 15.7703 78.7267C16.4871 79.039 16.3869 78.8984 16.0588 78.5617L16.0658 78.5545Z" fill="#CD4D14"/>
<path d="M16.8231 78.6685L16.4542 78.5302C16.5043 78.5934 16.5826 78.6564 16.8231 78.6685Z" fill="#CD4D14"/>
<path d="M15.6669 78.2185L16.4472 78.5232C16.3827 78.4176 16.4243 78.3183 16.0924 78.3705C16.2051 78.313 16.0142 78.3217 15.6597 78.2115L15.6669 78.2185Z" fill="#CD4D14"/>
<path d="M15.2763 77.9458C14.9487 77.6657 14.4935 77.3442 15.217 77.6211C13.9456 76.9315 14.0048 77.2563 15.2763 77.9458Z" fill="#CD4D14"/>
<path d="M12.5167 75.2604L12.0964 74.8749L11.6213 74.7162C11.8552 74.7921 12.4964 75.3666 12.5238 75.2533L12.5167 75.2604Z" fill="#CD4D14"/>
<path d="M20.1793 80.9176C20.2567 80.8675 20.0354 80.6218 20.0275 80.5158L19.4886 80.3364C19.7164 80.5184 20.1925 80.8044 20.1793 80.9176Z" fill="#CD4D14"/>
<path d="M20.0278 80.5158L20.843 80.7566C20.1755 80.4227 20.027 80.4168 20.0278 80.5158Z" fill="#CD4D14"/>
<path d="M17.1249 78.3902L15.7919 77.9628L17.3592 78.5085L17.1249 78.3902Z" fill="#CD4D14"/>
<path d="M23.097 82.2866L22.5876 82.2483L23.4794 82.3541L23.097 82.2866Z" fill="#CD4D14"/>
<path d="M25.0836 83.0904C24.7018 83.0936 25.4477 83.5046 25.0582 83.4442C25.6114 83.6376 26.1212 83.7182 26.5812 83.7639C26.1136 83.6547 25.6452 83.4464 25.0836 83.0904Z" fill="#CD4D14"/>
<path d="M27.346 83.8707C27.1123 83.8231 26.8575 83.7969 26.5814 83.7638C26.8364 83.8183 27.0772 83.8587 27.346 83.8707Z" fill="#CD4D14"/>
<path d="M22.1139 81.4037C22.1569 81.4741 22.2219 81.6362 22.634 81.8732L22.4192 81.5497C22.3268 81.5009 22.2275 81.4593 22.121 81.4107L22.1139 81.4037Z" fill="#CD4D14"/>
<path d="M22.4055 81.5357C22.7392 81.6956 22.9734 81.7997 23.0658 81.8484C22.9806 81.8067 22.7889 81.7164 22.4055 81.5357Z" fill="#CD4D14"/>
<path d="M22.0357 81.3689C22.0357 81.3689 22.0854 81.3898 22.1138 81.4037C22.0853 81.3756 22.071 81.3616 22.0357 81.3689Z" fill="#CD4D14"/>
<path d="M18.9741 79.577C19.463 79.6932 20.4347 80.0458 19.6376 79.4301C19.2625 79.3978 19.718 79.7476 18.9741 79.577Z" fill="#CD4D14"/>
<path d="M21.7853 80.9538L21.0039 80.5219C21.0039 80.5219 21.1045 80.719 20.8566 80.6716L21.7853 80.9538Z" fill="#CD4D14"/>
<path d="M22.2107 81.0776L21.7854 80.9538L22.0767 81.114L22.2107 81.0776Z" fill="#CD4D14"/>
<path d="M25.9754 83.1396C26.3648 83.2 26.7691 83.3452 27.2157 83.4899C26.7473 83.2817 26.2576 83.0665 25.7964 82.8794C25.7048 82.9155 25.4505 82.9459 25.9684 83.1467L25.9754 83.1396Z" fill="#CD4D14"/>
<path d="M24.2369 82.3691C24.2369 82.3691 24.2936 82.3827 24.322 82.3967C24.2792 82.3546 24.2437 82.3337 24.2369 82.3691Z" fill="#CD4D14"/>
<path d="M31.7107 84.9377L31.6536 84.8816L31.6256 84.9101L31.7107 84.9377Z" fill="#CD4D14"/>
<path d="M25.7392 82.8092C25.3983 82.6282 25.1646 82.5947 24.9381 82.5683C25.2146 82.658 25.4983 82.7546 25.8033 82.8723C25.8456 82.8578 25.8597 82.8435 25.7392 82.8092Z" fill="#CD4D14"/>
<path d="M28.6292 84.2207C28.4515 84.1161 28.2455 83.9976 28.0324 83.8862C28.1961 84.0192 28.5375 84.2568 28.6292 84.2207Z" fill="#CD4D14"/>
<path d="M24.4145 82.5019L24.3578 82.4882C24.4505 82.5794 24.4503 82.5511 24.4145 82.5019Z" fill="#CD4D14"/>
<path d="M24.4144 82.5019C24.6128 82.5427 24.7756 82.5625 24.9383 82.5682C24.7184 82.4923 24.5058 82.4375 24.3216 82.3966C24.3573 82.4316 24.3929 82.4667 24.4214 82.4947L24.4144 82.5019Z" fill="#CD4D14"/>
<path d="M33.4279 83.9618C33.3163 84.1466 32.3045 84.0772 31.5301 83.6381C30.6738 83.5533 31.0196 84.3283 31.6535 84.8816C31.7024 84.8035 31.723 84.7255 32.6079 84.8525C32.3306 84.6639 30.7914 84.0897 31.5552 84.1117C32.7025 84.3143 32.449 84.4437 32.9812 84.6727C32.5753 84.3295 34.5085 84.66 34.3354 84.2513L33.3304 84.1465C33.3304 84.1465 33.7047 84.0798 33.435 83.9688L33.4279 83.9618Z" fill="#CD4D14"/>
<path d="M30.0372 84.3859L29.6829 84.304C30.0732 84.4634 30.3221 84.6381 30.8125 84.9381C31.4283 85.0108 31.5694 84.9672 31.6326 84.9172C31.0514 84.7523 30.4772 84.5802 29.9169 84.3798L30.0443 84.3929L30.0372 84.3859Z" fill="#CD4D14"/>
<path d="M28.1236 83.7795C28.4622 83.6777 29.3194 83.8615 28.8848 83.4762C27.885 83.1379 28.1275 83.3905 27.4901 83.2685C29.1279 83.7994 26.9805 83.2161 28.1093 83.7513C27.7833 83.6691 27.4855 83.5726 27.2161 83.49C27.5 83.6149 27.7699 83.7541 28.0184 83.8864C28.0042 83.8724 27.9971 83.8654 27.9899 83.8583C27.9329 83.8022 27.9115 83.7812 27.9826 83.823C27.9826 83.823 28.0038 83.8299 28.018 83.8298C28.039 83.8084 28.0813 83.7939 28.1236 83.7795C28.5779 83.9878 28.1809 83.8638 28.018 83.8298C28.011 83.837 27.9969 83.8512 27.9899 83.8583C28.55 84.0305 29.1097 84.1602 29.6695 84.3041C29.336 84.1583 28.8825 84.049 28.1166 83.7866L28.1236 83.7795Z" fill="#CD4D14"/>
<path d="M20.6479 79.4288C20.6907 79.4709 20.6767 79.4851 20.6768 79.4993C20.7902 79.5266 20.8326 79.5263 20.6479 79.4288Z" fill="#CD4D14"/>
<path d="M21.2176 79.8483C21.0901 79.8211 20.963 79.8504 20.615 79.6624C20.3304 79.4526 20.6637 79.5701 20.6773 79.4992C20.4294 79.4518 19.8479 79.2586 20.4809 79.6989L20.6013 79.7191C21.1842 80.082 21.8681 80.6986 21.7477 80.6784C21.6536 80.4175 21.5459 80.2133 21.2176 79.8483Z" fill="#CD4D14"/>
<path d="M24.6639 81.8776L26.0251 82.3048L25.4204 81.8643L25.4144 81.9846C24.6832 81.6441 24.7908 81.8342 24.6639 81.8776Z" fill="#CD4D14"/>
<path d="M31.8463 85.0851L31.6002 85.2498L32.4905 85.1717L31.8463 85.0851Z" fill="#CD4D14"/>
<path d="M33.6819 85.5153L33.5773 85.693L34.0864 85.6888L33.6819 85.5153Z" fill="#CD4D14"/>
<path d="M42.5285 61.7179L42.9324 61.8206C42.7481 61.7656 42.6276 61.7312 42.5285 61.7179Z" fill="#CD4D14"/>
<path d="M39.818 60.51L39.7053 60.5675C39.8538 60.5733 39.9174 60.5657 39.818 60.51Z" fill="#CD4D14"/>
<path d="M49.9883 57.3427C49.7147 56.7509 49.44 56.0319 49.3286 56.245L49.3027 56.5281C49.6234 56.8295 49.8306 57.0894 49.9812 57.3356L49.9883 57.3427Z" fill="#CD4D14"/>
<path d="M22.7589 45.6246C22.8081 45.5888 22.8573 45.5531 22.9065 45.5173C22.9122 45.3546 22.9747 45.2197 23.016 45.078C22.9042 45.2345 22.8208 45.419 22.7518 45.6176L22.7589 45.6246Z" fill="#CD4D14"/>
<path d="M23.415 46.3121C23.3242 46.4472 23.2336 46.6106 23.1787 46.8091C23.2342 46.6813 23.3035 46.5111 23.415 46.3121Z" fill="#CD4D14"/>
<path d="M57.9782 66.6742L58.5007 66.585C57.7779 66.393 58.0694 66.5815 57.9782 66.6742Z" fill="#CD4D14"/>
<path d="M52.6717 82.5792C53.1641 82.264 53.4936 81.9289 53.7883 81.6436C53.212 82.0727 52.698 82.3386 52.6717 82.5792Z" fill="#CD4D14"/>
<path d="M40.5411 63.3678C40.7963 63.4364 40.9094 63.4355 40.9232 63.3929C40.6681 63.3243 40.5123 63.2973 40.5411 63.3678Z" fill="#CD4D14"/>
<path d="M54.803 80.2845C54.7259 80.3629 54.6558 80.4342 54.5856 80.5055C54.3908 80.889 54.1178 81.2236 53.7888 81.6294C54.182 81.2867 54.6239 80.8517 54.8029 80.2704L54.803 80.2845Z" fill="#CD4D14"/>
<path d="M116.458 75.2979C116.458 75.2979 116.55 75.3184 116.593 75.3322C116.614 75.3108 116.55 75.2901 116.458 75.2979Z" fill="#CD4D14"/>
<path d="M133.687 78.1748C133.517 78.1903 133.234 78.1785 132.972 78.1736C133.1 78.1867 133.312 78.1991 133.687 78.1748Z" fill="#CD4D14"/>
<path d="M41.2842 86.5273C40.8742 86.5448 41.2208 86.549 41.2842 86.5273V86.5273Z" fill="#CD4D14"/>
<path d="M39.3533 85.6099C39.438 85.595 39.5085 85.5662 39.5151 85.5166C39.4731 85.5594 39.4239 85.5951 39.3533 85.6099Z" fill="#CD4D14"/>
<path d="M55.1635 76.0105L55.1703 75.9751C55.1004 76.0747 55.1144 76.0604 55.1635 76.0105Z" fill="#CD4D14"/>
<path d="M40.6683 86.4263C40.8241 86.4533 40.9942 86.4943 41.1852 86.4998C41.1002 86.4864 40.9374 86.4665 40.6683 86.4263Z" fill="#CD4D14"/>
<path d="M40.7475 86.5318C40.606 86.5188 40.4928 86.5056 40.3866 86.4994C40.3374 86.5352 40.3801 86.5631 40.7475 86.5318Z" fill="#CD4D14"/>
<path d="M41.8499 86.5085C41.6166 86.5175 41.3974 86.5122 41.1851 86.4998C41.2701 86.5133 41.2985 86.5272 41.2773 86.5344C41.3975 86.5264 41.5672 86.525 41.8499 86.5085Z" fill="#CD4D14"/>
<path d="M84.7588 72.8167C84.7588 72.8167 84.8085 72.8375 84.8369 72.8514C85.2396 72.8127 85.0628 72.8071 84.7588 72.8167Z" fill="#CD4D14"/>
<path d="M40.867 52.3692C40.867 52.3692 40.8954 52.3831 40.9095 52.383C40.8953 52.3689 40.881 52.3549 40.8668 52.3409L40.867 52.3692Z" fill="#CD4D14"/>
<path d="M39.6389 51.7501C40.276 51.8297 40.5324 52.0538 40.8671 52.341L40.8395 51.5704C40.4369 51.6233 40.0484 51.676 39.6459 51.7429L39.6389 51.7501Z" fill="#CD4D14"/>
<path d="M49.2034 64.173L48.3507 63.6709C49.5606 63.7528 50.3273 64.1142 49.5521 63.5761C49.1965 64.1943 45.9854 62.3964 45.6294 62.958L45.089 62.5948C45.2593 62.6641 45.3015 62.6355 45.4648 62.7119C44.4191 61.9639 44.4193 62.8478 42.971 62.1527C42.4739 61.8881 42.1537 61.6574 42.5361 61.7249L41.3242 61.3885C40.9976 61.2356 41.1243 61.1639 41.4508 61.3167C40.862 61.0882 40.2731 60.8456 39.6982 60.5887L39.7122 60.5745C39.4293 60.5627 38.7991 60.4618 38.4944 60.3866C38.103 60.0857 38.7423 60.434 38.6704 60.2932L37.6567 59.9834C37.3497 59.6394 38.2072 59.8657 38.8464 60.1998C38.265 59.151 37.9679 59.9949 36.2881 58.6653L37.2034 59.0466C36.8233 58.4063 36.0649 58.1934 35.2243 57.4366C35.3748 57.6829 36.8921 59.0209 35.807 58.641C35.5508 58.4451 35.1954 58.2218 34.5928 58.0358C34.7042 57.8228 34.1507 57.5869 33.5111 57.2104L33.7141 56.9612C32.9831 56.6349 32.9491 56.7978 32.4742 56.6674C31.7346 56.1644 31.7179 55.8534 31.6589 55.5569C30.5135 54.7249 32.2531 56.4359 30.8173 55.5426C29.9198 54.7581 29.1743 54.3895 27.9658 53.6216C27.4021 53.0111 28.2057 53.5631 28.0339 53.3099C27.7857 53.22 27.5586 53.1229 27.3244 53.0188C27.1961 52.8926 27.2949 52.8776 27.3372 52.8631C26.8182 52.5209 27.0703 53.0775 26.3227 52.4543C25.8565 52.5147 25.304 50.6949 24.3788 49.9813C24.2986 49.692 24.6122 49.9864 24.6676 49.8446C24.1325 49.2762 23.9393 49.002 23.7677 48.763C23.596 48.524 23.4105 48.3276 23.0807 47.7787C23.0565 47.4183 23.0961 47.0786 23.1715 46.788C23.0469 47.1143 22.9266 47.1082 22.783 46.8407C22.6677 46.5871 22.5858 46.0857 22.7445 45.6106C22.4916 45.8107 22.3027 46.0598 22.2123 46.2373C22.2713 45.6782 22.5493 45.096 23.0056 44.6892C23.2241 44.6096 23.1125 44.7944 23.0087 45.071C23.0645 44.9716 23.1416 44.8931 23.1976 44.822C23.7757 44.605 23.5451 44.9393 23.3852 45.273C23.2301 45.3308 23.0397 45.396 22.8992 45.5103C22.8319 45.921 22.9833 46.2663 23.1741 46.2576C23.1664 46.1799 23.1794 46.0384 23.2489 45.8964C23.2496 45.9812 23.2855 46.0446 23.3137 46.0302C23.356 46.0157 23.3479 45.8956 23.3958 45.7042C23.5445 45.7242 23.672 45.7514 23.7997 45.807L23.7562 45.6659C24.1435 45.4718 24.6451 45.4181 25.176 45.4915C26.3325 45.1001 27.7893 45.1163 30.0079 45.7556C29.3789 45.7961 29.7422 46.1113 29.6101 46.3882C29.1532 45.8687 27.8595 45.9006 26.8167 45.5062C27.3557 45.6997 27.1869 45.8001 27.0314 45.8156L29.1208 46.2155C28.9882 46.4358 29.4771 46.5519 29.9604 46.8449C29.7502 46.2315 31.5605 47.0863 32.4039 47.3126C32.3841 47.4896 32.1301 47.5624 31.1789 47.1177C32.0978 47.9233 32.7914 47.1468 33.71 47.9241C33.4758 47.82 33.362 47.736 33.2279 47.7725C33.8371 47.8948 35.1159 48.6196 34.734 48.6086L34.4998 48.5045C36.0264 49.2626 39.0667 50.9346 39.4895 50.7472C39.4758 50.8039 39.0325 51.0692 38.8983 51.0915C40.0094 51.2025 41.121 51.3701 42.247 51.5659C41.8169 51.7179 42.1669 53.002 40.8819 52.3833C41.1881 52.6424 41.5586 52.9787 42.3185 53.3755C42.1259 53.172 42.0712 52.5432 42.3981 52.7384C42.9928 53.674 42.8627 53.3357 43.6422 54.397C43.3638 54.0811 44.0908 53.9124 44.5894 54.3467C44.4621 54.3478 44.268 54.8161 44.0479 54.7118L45.6442 55.3421C45.2678 55.1543 45.279 55.6421 45.4376 56.0085C45.3865 55.818 46.4566 56.9547 46.7842 57.2348C46.6553 57.0379 46.5335 56.848 46.3905 56.6653C47.618 58.0129 48.2422 57.3925 49.4419 58.811C49.2077 58.7068 48.5583 58.8536 49.0808 59.6059C49.5556 59.7364 51.3697 60.2022 52.4767 61.5154C52.4917 61.6284 52.5069 61.7555 52.515 61.8757L53.3365 62.8801C52.5259 62.3352 50.5774 61.0078 49.6103 60.3653C49.9125 60.985 49.5701 60.6343 50.1849 61.4353C50.2658 61.8094 49.6662 61.1356 49.4875 60.9037C49.9383 61.5434 50.3398 62.2048 50.7341 62.8592C50.9582 62.5886 51.9403 64.1998 52.1155 64.0075C51.6076 63.3116 51.0647 62.6514 50.4867 62.0127C50.6965 61.7281 52.1471 62.7061 52.8743 64.277C52.9558 64.7218 52.1954 64.2684 52.1112 64.354C52.3386 64.4794 53.006 65.6689 53.0004 65.8457L52.5432 65.2838C52.8192 66.1584 53.5785 66.4844 53.6447 67.6436C53.7608 68.0103 53.5626 68.8393 53.7679 68.8588C53.9814 68.1711 55.0733 67.6742 55.4652 68.0316C55.5018 68.1798 55.6529 70.208 55.4731 70.6903C55.2666 71.3709 54.6316 69.8346 54.4527 70.4301C54.5446 70.4364 54.7029 70.7603 54.7606 70.9013C54.7357 71.3116 54.4696 70.7694 54.604 71.6309C54.9656 71.7482 54.6822 73.391 54.9254 72.0172C55.0138 72.4407 54.9874 72.6672 54.9612 72.922C54.9279 73.1698 54.9089 73.4316 54.8705 73.9269C55.1225 73.6137 55.5715 74.8969 55.459 75.8242C55.3877 75.7541 55.2336 75.9251 55.1564 76.0035C54.6689 77.7542 54.1031 78.6003 53.1597 79.9588C52.9906 80.0309 52.4224 80.5801 52.5184 80.2257C52.4283 80.4457 52.3596 80.6867 52.0161 81.0501C51.1433 81.5382 52.7587 80.2096 51.9904 80.5059C52.105 80.6888 51.2996 81.6218 50.7593 82.1283C51.1565 82.2806 52.1084 81.0989 52.4781 80.4806C52.7983 80.7254 52.3075 82.0801 50.8256 83.3016C49.5951 84.1533 50.1333 83.3922 49.951 83.5775C48.7257 84.1958 48.2406 84.5322 47.7908 84.8753C47.3336 85.169 46.912 85.4837 45.7388 85.5641C44.7977 85.4941 45.6002 85.049 45.3656 84.9025C46.473 84.561 47.1455 84.6473 47.8856 84.3654C47.5752 84.4528 47.2432 84.4909 46.9184 84.5502C47.2564 84.3777 47.9466 84.0467 48.3702 83.9583C47.9815 83.9828 46.9454 84.3944 45.6816 84.6382C44.4323 84.9102 42.9767 85.0495 41.9647 84.9518C41.6049 85.0468 40.9764 85.158 41.2814 85.2616L41.9315 85.2138C42.5414 85.4209 40.7109 85.5421 41.5318 85.6201C40.6563 85.783 39.6328 85.9965 38.3932 85.7451L38.1925 85.4215C38.2145 85.5132 38.9866 85.6695 39.3396 85.61C38.8031 85.7134 37.4892 85.0243 36.8836 85.3263L37.7207 85.6588C37.2754 85.6837 36.7453 85.7093 36.2223 85.7419C35.6919 85.7392 35.1258 85.6873 34.5871 85.5362C35.0288 85.9285 34.8418 85.5482 35.5601 86.0444C34.9477 85.5261 38.3994 86.4946 37.3689 85.8738C38.1299 86.3979 38.7576 86.2017 39.8147 86.6243C39.7856 86.5256 39.4383 86.4224 40.3936 86.5064C40.4358 86.4778 40.5416 86.4415 40.605 86.4198C40.6333 86.4196 40.6405 86.4266 40.6687 86.4263L40.6121 86.4127C40.6121 86.4127 40.6544 86.3982 40.5908 86.4058C40.364 86.3511 40.1797 86.296 40.1156 86.2329C40.5949 86.0451 42.0868 86.0257 42.5947 85.88C43.1533 85.8825 42.3625 86.0163 42.6743 86.0986L43.4218 85.852C43.5085 86.0776 44.9651 86.0655 43.645 86.3381C44.0479 86.3135 44.4504 86.2465 44.853 86.1937C45.2138 86.2119 45.6448 86.173 46.0614 86.0918C46.478 86.0247 46.866 85.9154 47.1477 85.7716C47.7337 85.6607 48.4784 85.0747 48.0498 85.4106C48.6487 85.144 49.2403 84.8563 49.7962 84.5193L49.8389 84.5614C50.7123 84.144 51.5204 83.5221 52.2782 82.8087C53.0645 82.1234 53.765 81.3256 54.5785 80.5127C54.906 79.9231 55.2192 79.3194 55.6989 78.3184L55.9665 78.1889C56.2427 77.3805 56.9223 75.7626 56.728 75.3611C57.057 74.9554 57.2392 73.9002 57.1805 72.7905C57.183 72.2319 57.0864 71.674 57.0396 71.1511C56.9506 70.6427 56.883 70.1695 56.8447 69.8092L56.583 69.8043C56.3981 68.8229 56.1218 67.9059 55.6176 66.7928L55.4349 66.9358C54.9324 66.0207 54.6359 64.3826 53.8109 62.9539C53.9387 63.0094 54.1115 63.3899 54.2128 63.6719C53.7507 61.6604 51.7951 60.326 51.0113 58.7555C50.6694 58.4614 50.4905 58.2012 50.3397 57.9267C50.3682 57.9547 50.3967 57.9828 50.4181 58.0038C50.3896 57.9758 50.3467 57.9196 50.3038 57.8633C50.2104 57.6873 50.11 57.5184 49.9883 57.3285C50.0675 57.5047 50.1536 57.6595 50.2395 57.7861C50.0112 57.5334 49.6476 57.1758 49.2771 56.8394L49.3098 56.521C49.3098 56.521 49.2599 56.4719 49.2243 56.4368C48.945 56.0219 48.8619 56.2347 48.9211 56.5454C48.7218 56.3915 48.5228 56.2658 48.3594 56.1752C48.3617 55.6025 47.3484 55.3492 47.2298 54.6855C46.8613 54.5895 45.2511 53.132 44.7647 53.3128C44.7855 53.2632 44.6856 53.1509 44.9061 53.3117C44.507 52.9331 44.1077 52.5404 43.6394 52.3463L43.6362 51.9645L42.4239 51.5856C41.9313 51.0169 41.7312 50.764 42.4755 50.977C40.8081 50.3049 41.2251 50.2803 39.7646 49.8115L39.9332 49.6828C39.4783 49.4037 38.6141 49.2129 38.4136 48.9176C37.9926 48.4614 36.7067 47.7296 35.1732 46.9927C33.6466 46.2346 31.8585 45.4998 30.4879 44.797C30.8477 45.5435 29.2443 44.0506 28.9718 44.456C28.8501 44.266 28.4735 44.0499 28.983 44.1023C27.5445 43.7253 26.634 43.0823 25.3499 43.4323C25.1366 43.2926 25.7514 43.2381 25.5668 43.1547C25.4114 43.1702 24.9667 43.2658 24.7541 43.211C24.5415 43.1561 25.0428 43.0601 25.3464 43.0081C24.3352 43.0094 23.7368 43.3325 23.4774 43.5963C23.2039 43.8743 23.2342 44.1145 23.2712 44.3193C22.3194 44.6595 21.9715 45.3412 22.0339 46.0479C21.922 46.1902 21.8176 46.3961 21.7613 46.4249C21.7049 46.4536 21.6399 46.2915 21.8256 45.6607C21.6516 45.9945 21.4203 47.0995 21.654 47.9885C21.8453 48.8921 22.2539 49.5605 22.4091 49.5168C22.4039 49.736 22.7829 50.2491 22.89 50.3684C23.5779 51.4658 23.6494 51.5642 24.4775 52.5049C24.4131 52.4136 24.3486 52.308 24.2912 52.2095C24.9003 52.3317 25.0255 52.9318 25.7805 53.5902L25.7311 53.5977C27.2305 55.339 26.5208 54.1781 28.062 55.8483L28.1093 55.5863C28.5738 55.3137 29.5002 57.0244 30.7069 57.5801L30.3926 57.2008C31.0594 57.4499 31.6722 58.8661 32.2626 59.2926C32.3767 59.4048 32.0146 59.231 31.8088 59.1408C33.2756 60.3591 32.1753 58.9963 33.4181 59.6437C33.5548 59.9183 32.9108 59.86 33.728 60.3412C34.0704 60.706 36.3794 61.1536 37.3903 61.9797C37.1904 61.7409 37.0045 61.502 37.6213 61.6878C38.5225 62.0693 39.8335 63.2606 40.8161 63.2312C40.9158 63.3152 40.9516 63.3645 40.9377 63.3929C41.6678 63.606 43.2635 64.1656 43.7652 64.1261C44.1133 65.1698 48.2659 65.3829 47.9958 66.071L50.1937 66.7741L50.1094 66.8314C51.4995 67.329 52.0509 67.3103 52.6023 67.2916C52.9075 67.4376 52.653 67.4397 52.6178 67.4612C54.6324 68.2223 54.8519 68.2559 56.6843 68.3751L56.7928 68.6641C57.3019 68.6599 59.6949 69.8634 61.818 70.0721C61.797 70.0935 61.7336 70.1294 61.5709 70.1236C63.9352 70.4152 66.9613 72.0731 68.002 71.3715L69.5798 71.4787C67.617 70.9929 69.9519 71.1574 69.1714 70.8386C69.9573 70.9523 71.1286 71.5012 70.1658 71.3678L70.0238 71.2982C69.5815 71.6908 72.4546 71.9499 72.344 72.2478C76.2604 72.972 80.0367 73.8529 83.7326 74.4163L83.3614 73.9951L84.65 74.1966C84.9693 74.3283 85.0631 74.5467 84.1426 74.3988C84.5975 74.6779 85.7128 74.4424 85.7405 74.3714C87.5187 74.7739 84.9794 74.6889 85.5317 74.7833L86.282 74.8619L86.1188 74.7996C86.7476 74.7308 86.8242 74.5958 87.9216 74.7494C88.6159 74.9133 88.249 75.0153 88.5252 75.0626C88.5183 75.0838 88.6175 75.1113 88.9501 75.1298L90.5713 75.3638L89.9531 74.9942C90.6881 74.9457 91.4751 75.2008 90.7645 74.7824C91.8022 75.4244 96.8107 75.6657 97.463 75.8725C98.4945 75.7649 99.4925 75.8769 100.724 76.0081C100.419 75.9187 100.275 75.5805 101.33 75.7203C100.875 76.3534 103.25 76.1923 104.075 76.7512C103.329 76.3684 107.124 76.9168 105.939 76.368C106.823 76.4951 105.969 76.6223 106.635 76.829C108.777 76.7476 111.3 77.349 113.931 77.4262C113.973 77.341 113.547 77.1748 114.119 77.0781L115.474 77.5973C115.99 77.5859 115.986 77.1193 116.908 77.4793C116.78 77.3955 116.588 77.2769 116.935 77.267C122.06 77.9741 127.451 77.4133 132.656 78.3531C131.947 78.161 132.428 78.157 132.966 78.1667C132.612 78.113 132.978 77.9544 132.914 77.8348L135.095 78.2127C135.495 77.8912 137.443 78.2357 137.68 77.9226L136.988 77.9707C137.911 77.6166 135.715 77.1115 135.859 76.6365C134.816 77.0412 133.16 75.9588 131.46 76.5174C131.091 76.4073 131.784 76.3733 131.585 76.2618C131.156 76.4563 130.64 76.4818 129.677 76.3624L129.783 76.3121C127.095 76.2919 125.947 76.0185 122.933 75.7748L123.14 76.0206C122.496 75.9622 122.354 75.8786 122.064 75.8032C121.303 76.1348 123.882 75.9083 123.192 76.2676C122.353 75.7513 118.615 76.0439 118.058 75.4686C117.061 75.4133 118.337 75.7563 117.339 75.7009L117.083 75.5333L116.823 75.7122C116.172 75.6469 115.852 75.4445 115.83 75.3103C115.985 75.3373 116.282 75.3066 116.452 75.3052C115.616 75.0858 114.061 75.2259 113.771 75.1506L114.719 75.2983C111.99 75.2785 108.684 74.8462 106.033 74.9318L106.218 75.0575C104.196 75.1026 104.617 74.8162 102.41 74.7072L102.495 74.6923C102.043 74.7668 101.456 74.7646 100.848 74.6989C101.413 74.6235 99.8264 74.3538 100.568 74.2699C98.3762 74.288 99.4797 74.3355 98.0041 74.6093L97.6911 74.3856C97.1829 74.503 97.1341 74.5812 96.0305 74.5196C96.9492 74.4554 95.3557 74.1645 96.3944 74.064C94.1404 73.418 92.9367 74.0856 91.9479 73.3795C90.8339 73.7706 93.9038 73.8866 93.2961 73.9341C93.7718 74.1635 92.3791 74.2104 91.6638 74.082C90.9276 73.9891 90.4974 73.2713 88.65 73.0533C88.8341 73.08 88.855 73.0445 89.032 73.0643C88.3654 72.8435 87.6602 73.0756 86.8372 72.743C86.3229 72.9806 85.7468 72.5682 85.5518 72.9375L87.2572 73.086C86.2882 73.0587 85.3222 73.3849 83.777 72.9451C83.9108 72.8804 84.3984 72.841 84.7307 72.8312C84.2908 72.6509 83.8323 72.7891 83.371 72.5878C83.5659 72.2185 85.4375 72.797 86.504 72.6397C86.0353 72.4031 84.5241 72.6561 85.101 72.2977C84.2773 72.7359 83.3022 71.9732 81.9958 72.1891L82.1142 71.9689C81.9092 71.9777 81.4853 72.0236 81.1242 71.963L81.8296 71.7591C80.784 71.8668 79.9302 71.2374 78.9471 71.2102C80.9651 71.54 79.3531 71.5675 80.183 71.8788C77.6436 71.7796 78.8537 71.0342 76.0575 70.6684C76.4397 70.7077 77.4466 71.0529 76.8385 71.0579C76.3141 70.9209 75.6335 70.7002 75.335 70.5188C73.487 70.2301 75.5707 70.8068 74.7646 70.8135C74.1886 70.4152 73.845 70.7645 73.0171 70.7077L73.0576 70.467C71.0022 69.9041 72.4102 70.8542 70.56 70.2967L71.4212 70.1199L70.4232 70.0079L70.6759 69.7796C69.5728 69.7745 69.2535 69.6428 68.2257 69.3473C68.4396 69.5576 68.0027 69.7451 67.0748 69.5619C66.4785 69.284 67.4767 69.4242 66.1664 69.1593C66.498 69.0787 66.8578 68.9697 67.3767 69.2977C67.4468 69.2264 67.7013 69.2102 67.7785 69.1459C67.1325 68.8472 66.0851 68.7427 65.6175 68.6335C65.7947 68.6815 66.0144 68.7433 66.1139 68.7991L64.1543 68.6951C63.8772 68.5347 64.1316 68.5185 64.379 68.5094C63.9896 68.4489 63.7001 68.5008 63.1334 68.3782C63.3301 68.221 63.3354 68.0159 64.1495 68.1153L62.3091 67.8901C62.2091 67.7778 61.4497 67.4376 61.6971 67.4284C60.7396 67.0757 59.1777 67.1806 57.9148 66.6819C57.8372 66.7038 57.6887 66.6979 57.4054 66.6437C56.1931 66.2648 55.1774 65.7287 53.6626 65.5433L52.9506 64.9552C51.8098 64.6747 53.9187 65.725 52.0056 65.26C50.6453 64.946 51.5989 64.8179 51.1655 64.5739C50.4509 64.5304 49.199 64.4912 48.0901 63.7933C48.508 63.8817 48.8062 64.0207 49.1889 64.1307L49.2034 64.173ZM35.8214 58.6691C36.0908 58.7518 36.6575 58.8744 36.7795 59.0926C36.3702 59.195 36.2127 58.9558 35.8214 58.6691ZM24.5851 45.0085C24.4234 45.1159 24.1548 45.1322 23.8441 45.1914C24.0269 45.0626 24.288 44.9968 24.5851 45.0085ZM45.7558 85.9034L45.7768 85.882C46.4622 85.8268 46.222 85.8429 45.7558 85.9034ZM44.3638 86.0351C44.2299 86.0857 44.2372 86.121 44.3082 86.1487C44.3994 86.0702 44.7031 86.0182 45.0564 85.987C44.9499 85.9383 44.766 85.9257 44.3638 86.0351ZM88.6662 75.0048L88.4179 74.915C89.0049 74.9172 88.8355 74.961 88.6662 75.0048Z" fill="#CD4D14"/>
<path d="M23.336 46.2351C23.2796 46.2638 23.2231 46.2643 23.1806 46.2646C23.2026 46.3564 23.2309 46.3561 23.336 46.2351Z" fill="#CD4D14"/>
<path d="M57.8791 66.6893L57.9216 66.703C57.9216 66.703 57.9639 66.6885 57.978 66.6743L57.8791 66.6893Z" fill="#CD4D14"/>
<path d="M54.4141 70.9395C54.412 70.6849 54.439 70.5291 54.4664 70.4299C54.4027 70.4233 54.3755 70.5509 54.4141 70.9395Z" fill="#CD4D14"/>
<path d="M37.0685 86.3359C37.3586 86.3547 37.6558 86.3805 37.9458 86.3852C37.5212 86.3463 37.3791 86.2626 37.1735 86.2007C37.1881 86.2571 37.3375 86.362 37.0685 86.3359Z" fill="#CD4D14"/>
<path d="M30.1485 83.2182C30.0211 83.2051 29.9004 83.1425 29.773 83.1294L29.7669 83.2497C30.2703 83.4081 30.6452 83.4262 30.1485 83.2182Z" fill="#CD4D14"/>
<path d="M36.3824 85.4365C36.3453 85.2317 35.8076 85.1937 35.2131 85.1279L35.3193 85.1483C35.0879 85.3835 35.7459 85.4276 36.3824 85.4365Z" fill="#CD4D14"/>
<path d="M35.0782 85.1078C34.8941 85.081 34.7101 85.0543 34.5329 85.0062C34.4417 85.0989 34.7526 85.0681 35.0782 85.1078Z" fill="#CD4D14"/>
<path d="M42.6264 86.3323C42.3291 86.2923 42.4518 86.5954 42.2815 86.5261C41.9729 86.8256 44.2295 86.0715 42.6264 86.3323Z" fill="#CD4D14"/>
<path d="M36.0151 84.697L36.1802 84.9855L36.5396 84.834C36.3625 84.8002 36.1923 84.745 36.0151 84.697Z" fill="#CD4D14"/>
<path d="M40.6522 85.3445L39.7037 85.2392C39.7037 85.2392 39.5912 85.3108 39.4426 85.305C40.0228 85.3426 40.6739 85.4079 40.645 85.3375L40.6522 85.3445Z" fill="#CD4D14"/>
<path d="M39.4506 85.312C39.1462 85.2792 38.8562 85.2604 38.6867 85.2901C38.8565 85.3028 39.2032 85.3211 39.4506 85.312Z" fill="#CD4D14"/>
<path d="M37.3039 84.8136L37.5734 84.9104C37.7929 84.9439 38.0125 84.9916 38.2318 85.011C37.9204 84.9711 37.6156 84.8817 37.304 84.8277L37.3039 84.8136Z" fill="#CD4D14"/>
<path d="M50.5117 83.0354C50.7999 82.828 51.0596 82.5925 51.3265 82.3781C51.3608 82.2435 51.1002 82.3658 50.8053 82.6228C50.6444 82.8292 50.328 83.0511 50.5117 83.0354Z" fill="#CD4D14"/>
<path d="M47.435 83.768C47.7034 83.7233 47.7462 83.7654 47.909 83.7853L47.8287 83.4819L47.435 83.768Z" fill="#CD4D14"/>
<path d="M50.005 82.4528C50.0678 82.3462 51.0078 81.4333 50.031 82.1697C49.9966 82.2902 49.1881 82.8555 50.005 82.4528Z" fill="#CD4D14"/>
<path d="M54.9733 69.2731L55.032 69.5271L55.5187 69.3746L54.9733 69.2731Z" fill="#CD4D14"/>
<path d="M47.4439 58.3891C48.1307 59.3451 47.8682 58.3855 48.4625 59.2787C48.7394 59.4107 47.9756 58.5473 48.2384 58.6936C47.669 58.2458 47.4684 57.9221 47.4439 58.3891Z" fill="#CD4D14"/>
<path d="M48.2382 58.6935C48.3307 58.7706 48.4303 58.8405 48.537 58.9174C48.3733 58.7844 48.288 58.7285 48.2382 58.6935Z" fill="#CD4D14"/>
<path d="M136.56 78.5046L137.346 78.6183L136.836 78.4387L136.56 78.5046Z" fill="#CD4D14"/>
<path d="M138.071 78.1526L138.251 78.4835L138.729 78.1967C138.553 78.2052 138.206 78.2293 138.071 78.1526Z" fill="#CD4D14"/>
<path d="M34.2808 57.0554L34.1892 57.0915C34.2468 57.2183 34.3962 57.3232 34.7018 57.5116L34.2808 57.0554Z" fill="#CD4D14"/>
<path d="M43.5547 61.7872L43.3844 61.7179L43.5928 62.1193L43.5547 61.7872Z" fill="#CD4D14"/>
<path d="M51.963 64.4189C51.6226 64.2944 51.2049 64.2342 50.8644 64.1097C51.6297 64.3014 51.9449 64.7938 51.963 64.4189Z" fill="#CD4D14"/>
<path d="M108.827 56.2616C108.748 56.1562 108.622 56.3269 108.58 56.3273C108.779 56.467 108.862 56.2118 108.827 56.2616Z" fill="#CD4D14"/>
<path d="M110.609 57.1448L110.532 57.195L110.871 57.1639L110.609 57.1448Z" fill="#CD4D14"/>
<path d="M111.966 58.0175C112.027 57.6281 111.441 57.7673 111.269 57.5L111.275 57.408L111.008 57.58C111.328 57.7399 111.809 57.8067 111.966 58.0175Z" fill="#CD4D14"/>
<path d="M112.308 59.1108C112.328 58.9622 112.527 59.1019 112.158 58.9636C112.166 58.9847 112.166 58.9989 112.166 59.013C112.194 59.0269 112.237 59.0548 112.301 59.1038L112.308 59.1108Z" fill="#CD4D14"/>
<path d="M112.173 59.0199C112.217 59.1751 112.024 58.9433 112.173 59.0199V59.0199Z" fill="#CD4D14"/>
<path d="M112.89 59.3464L112.635 59.3485C112.636 59.4475 112.799 59.5522 112.708 59.5742C112.941 59.6217 112.941 59.5369 112.897 59.3534L112.89 59.3464Z" fill="#CD4D14"/>
<path d="M113.2 59.2165L113.073 59.2035C113.073 59.2035 113.095 59.2669 113.2 59.2165Z" fill="#CD4D14"/>
<path d="M112.811 59.1844L113.08 59.2105C113.08 59.2105 113.135 59.0403 112.96 59.1902C113.037 59.1118 112.938 59.1692 112.811 59.1844Z" fill="#CD4D14"/>
<path d="M112.718 59.0649C112.646 58.9383 112.532 58.8119 112.786 58.8098C112.396 58.6363 112.32 58.8844 112.718 59.0649Z" fill="#CD4D14"/>
<path d="M112.226 57.7396L112.14 57.5706L111.956 57.6004C112.048 57.5926 112.178 57.846 112.226 57.7537L112.226 57.7396Z" fill="#CD4D14"/>
<path d="M114.014 60.1715C114.07 60.1145 114.04 59.9591 114.075 59.8669L113.891 59.8685C113.934 59.953 114.055 60.0722 114.014 60.1715Z" fill="#CD4D14"/>
<path d="M114.075 59.867L114.351 59.8717C114.166 59.7601 114.103 59.796 114.075 59.867Z" fill="#CD4D14"/>
<path d="M113.43 58.8964L112.943 58.9357L113.501 58.9241L113.43 58.8964Z" fill="#CD4D14"/>
<path d="M114.83 60.6102L114.626 60.7038L114.965 60.5879L114.83 60.6102Z" fill="#CD4D14"/>
<path d="M115.384 60.8743C115.222 60.9535 115.394 61.1642 115.26 61.1865C115.416 61.2418 115.599 61.1978 115.768 61.154C115.62 61.1482 115.492 61.0644 115.384 60.8743Z" fill="#CD4D14"/>
<path d="M116.037 61.1094C115.966 61.11 115.875 61.1319 115.769 61.154C115.847 61.1605 115.931 61.1456 116.037 61.1094Z" fill="#CD4D14"/>
<path d="M114.7 60.088C114.7 60.088 114.673 60.258 114.766 60.3633L114.785 60.1298C114.785 60.1298 114.728 60.102 114.707 60.0809L114.7 60.088Z" fill="#CD4D14"/>
<path d="M114.785 60.1297C114.877 60.1926 114.941 60.2274 114.97 60.2413C114.948 60.2203 114.891 60.1925 114.792 60.1226L114.785 60.1297Z" fill="#CD4D14"/>
<path d="M114.678 60.0811L114.692 60.0951C114.692 60.0951 114.699 60.0597 114.678 60.0811Z" fill="#CD4D14"/>
<path d="M113.895 59.3664C114.071 59.3296 114.397 59.3552 114.239 59.0595C114.077 59.1386 114.177 59.3075 113.895 59.3664Z" fill="#CD4D14"/>
<path d="M114.696 59.791L114.49 59.6301C114.469 59.6797 114.47 59.7787 114.378 59.8007L114.689 59.7981L114.696 59.791Z" fill="#CD4D14"/>
<path d="M114.839 59.7899L114.697 59.7911L114.776 59.8541L114.839 59.7899Z" fill="#CD4D14"/>
<path d="M115.737 60.73C115.878 60.7006 115.984 60.7492 116.119 60.7976C116.012 60.6924 115.884 60.6086 115.756 60.539C115.707 60.5889 115.595 60.6605 115.737 60.73Z" fill="#CD4D14"/>
<path d="M115.282 60.4226L115.31 60.4224C115.31 60.4224 115.296 60.3942 115.282 60.4226Z" fill="#CD4D14"/>
<path d="M117.313 61.41L117.312 61.3676L117.291 61.4031L117.313 61.41Z" fill="#CD4D14"/>
<path d="M115.749 60.4895C115.663 60.4054 115.585 60.4131 115.501 60.4421C115.579 60.4626 115.664 60.4902 115.749 60.5319C115.77 60.5105 115.784 60.4963 115.742 60.4825L115.749 60.4895Z" fill="#CD4D14"/>
<path d="M116.419 61.1911C116.391 61.1206 116.348 61.0644 116.305 60.994C116.32 61.0787 116.377 61.2197 116.419 61.1911Z" fill="#CD4D14"/>
<path d="M115.311 60.493L115.304 60.5002C115.304 60.5002 115.311 60.5213 115.311 60.493Z" fill="#CD4D14"/>
<path d="M115.311 60.4931C115.311 60.4931 115.438 60.4638 115.501 60.442C115.43 60.4285 115.367 60.4219 115.303 60.4154C115.31 60.4365 115.31 60.4648 115.303 60.4861L115.311 60.4931Z" fill="#CD4D14"/>
<path d="M118.301 60.3764C118.196 60.5399 117.85 60.5782 117.727 60.2751C117.438 60.2987 117.287 60.9505 117.312 61.3675C117.354 61.2965 117.396 61.2254 117.672 61.2302C117.642 61.089 117.286 60.7525 117.561 60.6866C117.908 60.7474 117.775 60.8687 117.868 61.0447C117.852 60.762 118.412 60.92 118.508 60.5656L118.189 60.5471C118.21 60.4974 118.344 60.4609 118.294 60.3836L118.301 60.3764Z" fill="#CD4D14"/>
<path d="M116.9 61.1305L116.801 61.103C116.886 61.1872 116.93 61.2999 116.995 61.5045C117.193 61.5028 117.263 61.4457 117.298 61.3959L116.85 61.1379L116.9 61.1305Z" fill="#CD4D14"/>
<path d="M116.374 60.8944C116.543 60.7374 116.812 60.7776 116.781 60.495C116.504 60.3629 116.506 60.5609 116.301 60.5555C116.769 60.7355 116.117 60.5995 116.381 60.8731C116.282 60.8598 116.197 60.8322 116.119 60.7975C116.183 60.8606 116.247 60.9237 116.298 61.0011L116.283 60.987C116.283 60.987 116.276 60.9376 116.297 60.9586C116.297 60.9586 116.339 60.9159 116.353 60.9016C116.46 61.0068 116.347 60.9653 116.297 60.9586L116.276 60.98L116.772 61.1032C116.694 61.0261 116.573 60.9776 116.353 60.8875L116.374 60.8944Z" fill="#CD4D14"/>
<path d="M114.681 58.7799C114.681 58.7799 114.674 58.8153 114.675 58.8295C114.71 58.8221 114.731 58.8149 114.681 58.7799Z" fill="#CD4D14"/>
<path d="M114.796 58.9911C114.796 58.9911 114.684 59.0628 114.591 58.9857C114.527 58.8802 114.64 58.8934 114.675 58.8295C114.59 58.8443 114.385 58.8531 114.528 59.0499L114.577 59.0424C114.713 59.2039 114.815 59.5567 114.773 59.5712C114.814 59.3728 114.834 59.2242 114.803 58.9981L114.796 58.9911Z" fill="#CD4D14"/>
<path d="M115.624 59.9036L116.035 59.9992L115.941 59.7383L115.899 59.8376C115.707 59.6907 115.694 59.8323 115.631 59.8964L115.624 59.9036Z" fill="#CD4D14"/>
<path d="M117.306 61.5302L117.159 61.7082L117.518 61.5284L117.306 61.5302Z" fill="#CD4D14"/>
<path d="M117.796 61.7454L117.691 61.9089L117.868 61.8721L117.796 61.7454Z" fill="#CD4D14"/>
<path d="M138.728 78.9675L138.658 79.0953C138.693 79.0455 138.714 78.9959 138.728 78.9675Z" fill="#CD4D14"/>
<path d="M139.451 78.3039L139.394 78.2195C139.401 78.2831 139.416 78.3254 139.451 78.3039Z" fill="#CD4D14"/>
<path d="M129.365 67.7238C129.431 67.9708 129.455 68.3171 129.545 68.1112L129.607 67.8915C129.479 67.8643 129.415 67.8012 129.372 67.7167L129.365 67.7238Z" fill="#CD4D14"/>
<path d="M137.471 71.5177L137.471 71.4328C137.386 71.4618 137.316 71.4907 137.252 71.5124C137.323 71.5119 137.394 71.5113 137.471 71.5177Z" fill="#CD4D14"/>
<path d="M138.152 70.9251L138.239 71.1931C138.232 71.1154 138.203 71.0308 138.152 70.9251Z" fill="#CD4D14"/>
<path d="M134.672 81.9357L134.653 82.1975C134.85 82.0827 134.715 82.0343 134.672 81.9357Z" fill="#CD4D14"/>
<path d="M122.695 64.1373C122.788 64.285 122.881 64.362 122.973 64.4249C122.866 64.2349 122.821 63.9948 122.695 64.1373Z" fill="#CD4D14"/>
<path d="M137.46 77.0334C137.432 77.1043 137.44 77.1538 137.476 77.1888C137.503 77.1179 137.503 77.0613 137.46 77.0334Z" fill="#CD4D14"/>
<path d="M123.357 64.6197C123.357 64.6197 123.328 64.5634 123.307 64.5424C123.194 64.5292 123.08 64.5018 122.966 64.4321C123.045 64.5799 123.153 64.6992 123.357 64.6339L123.357 64.6197Z" fill="#CD4D14"/>
<path d="M118.491 88.4621C118.491 88.4621 118.455 88.4554 118.448 88.4483C118.448 88.4766 118.469 88.4694 118.491 88.4621Z" fill="#CD4D14"/>
<path d="M113.001 88.1257C113.036 88.0901 113.121 88.0611 113.191 88.0322C113.149 88.0326 113.092 88.0613 113.001 88.1257Z" fill="#CD4D14"/>
<path d="M119.672 62.8047C119.565 62.7702 119.651 62.8261 119.672 62.8047V62.8047Z" fill="#CD4D14"/>
<path d="M119.564 61.7873C119.564 61.7873 119.627 61.7514 119.648 61.7159C119.613 61.7515 119.585 61.78 119.564 61.7873Z" fill="#CD4D14"/>
<path d="M119.557 62.6359C119.557 62.6359 119.614 62.7203 119.657 62.7623C119.636 62.7413 119.614 62.692 119.557 62.6359Z" fill="#CD4D14"/>
<path d="M119.536 62.7421C119.536 62.7421 119.486 62.693 119.458 62.6791C119.43 62.7076 119.43 62.7359 119.536 62.7421Z" fill="#CD4D14"/>
<path d="M119.813 62.8601C119.757 62.8323 119.707 62.7973 119.664 62.7553C119.685 62.7763 119.679 62.7976 119.671 62.7906C119.7 62.8045 119.742 62.8183 119.82 62.853L119.813 62.8601Z" fill="#CD4D14"/>
<path d="M126.966 84.6512C126.966 84.6512 126.952 84.6371 126.938 84.6372C126.868 84.7651 126.903 84.7295 126.966 84.6512Z" fill="#CD4D14"/>
<path d="M133.031 67.2479L133.017 67.2481L133.031 67.2621L133.031 67.2479Z" fill="#CD4D14"/>
<path d="M133.477 67.3221C133.188 67.4588 133.124 67.3816 133.031 67.2622L132.824 67.872L133.47 67.3292L133.477 67.3221Z" fill="#CD4D14"/>
<path d="M136.979 80.3609L137.339 80.3509C137.216 80.8186 136.926 80.8705 137.316 80.9451C136.979 80.3751 138.272 80.2017 137.899 79.625L138.146 79.6158C138.09 79.6446 138.112 79.6798 138.055 79.7085C138.572 79.7255 137.987 79.1504 138.43 78.8993C138.6 78.8272 138.762 78.8188 138.721 78.9605L138.916 78.5771C139.007 78.4985 139.071 78.6041 138.98 78.6826L139.386 78.1984L139.401 78.2124C139.385 78.0711 139.404 77.8235 139.411 77.7032C139.587 77.6381 139.411 77.8163 139.504 77.8368L139.599 77.4541C139.833 77.4451 139.779 77.785 139.597 77.9704C140.326 78.127 139.658 77.6516 140.418 77.2494C140.384 77.384 140.328 77.4835 140.279 77.6041C140.747 77.6568 140.793 77.2816 141.229 76.9669C141.053 77.0461 140.25 77.477 140.331 76.9955C140.436 76.9169 140.541 76.7816 140.518 76.5202C140.745 76.6314 140.785 76.3624 140.861 76.0577L141.159 76.1684C141.17 75.7864 141.021 75.7947 140.899 75.5483C140.966 75.1517 141.206 75.0649 141.417 74.95C141.454 74.2284 141.046 75.441 140.934 74.6428C140.939 74.367 140.88 74.1271 140.772 73.8946C140.65 73.7047 140.472 73.5577 140.28 73.3684C140.228 73.0364 140.477 73.3243 140.497 73.1756C140.377 73.1271 140.256 73.1069 140.143 73.0796C140.114 73.0232 140.192 73.0014 140.234 72.9869C140.035 72.8612 139.953 73.1448 139.696 72.9206C139.379 73.0576 139.696 72.0791 139.123 72.0344C139.129 71.9 139.299 71.941 139.369 71.8273C138.809 71.6127 138.908 71.626 138.356 71.574C138.319 71.44 138.276 71.2989 138.232 71.172C138.27 71.5182 137.818 71.5078 137.457 71.5037C137.451 71.6522 137.438 71.7796 137.446 71.8432L136.999 71.6843C136.991 71.6065 137.097 71.5562 137.238 71.4984C137.195 71.4988 137.16 71.5061 137.125 71.4994C137.081 71.3017 137.264 71.2154 137.461 71.1572C137.462 71.242 137.463 71.3269 137.456 71.4188C137.668 71.3464 137.893 71.2596 137.998 71.0961C137.949 71.1036 137.885 71.0829 137.821 71.0622C137.878 71.0476 137.92 71.019 137.934 70.9906C137.94 70.9552 137.863 70.977 137.75 70.9921L137.903 70.6514L137.79 70.7372C137.689 70.5401 137.568 70.3643 137.453 70.1672C136.88 70.1649 136.267 70.3609 135.635 70.0904C135.924 69.9819 135.915 69.7628 136.097 69.5208C136.058 69.903 136.615 69.7216 136.865 69.9953C136.736 69.855 136.856 69.762 136.926 69.7473L136.232 69.6116C136.393 69.4194 136.237 69.3782 136.158 69.188C135.971 69.6633 135.578 69.1786 135.274 69.1741C135.35 69.025 135.498 68.9177 135.74 69.1278C135.665 68.6193 135.035 69.3599 134.939 68.9011C135.003 68.9359 135.025 68.9852 135.095 68.9281C134.862 68.9512 134.569 68.6071 134.731 68.5422L134.795 68.577C134.404 68.2479 133.487 67.7393 133.207 68.0669C133.228 68.0172 133.529 67.6682 133.606 67.6039L132.092 68.3589C132.352 68.0951 132.535 67.1814 133.002 67.22C132.923 67.1146 132.83 66.981 132.54 66.9622C132.583 67.0467 132.446 67.5145 132.332 67.4872C132.272 66.9785 132.259 67.1908 132.107 66.7041C132.171 66.8379 131.772 67.2585 131.608 67.1396C131.671 67.0754 131.873 66.6424 131.972 66.6275L131.274 66.8666C131.429 66.837 131.532 66.4614 131.516 66.2777C131.51 66.3979 131.154 66.0615 131.012 66.0485L131.127 66.2597C130.693 65.9168 130.268 66.6769 129.813 66.3978C129.926 66.3262 130.304 65.8564 130.097 65.653C129.844 65.8389 128.945 66.5959 128.414 66.565L128.413 66.3811L128.003 66.3704C128.403 66.0913 129.403 65.6022 129.883 65.4568C129.768 65.2456 129.924 65.2584 129.647 65.1264C129.624 64.9356 129.908 65.004 129.986 65.0387L129.402 64.6051C129.27 64.9103 128.759 64.6458 128.648 64.9013L129.497 64.965C129.365 65.2701 128.647 65.5872 128.234 65.2936C128.183 65.1173 128.598 64.8098 128.646 64.7033C128.534 64.775 128.116 64.6723 128.122 64.5804L128.39 64.5216C128.197 64.2757 127.784 64.6963 127.632 64.2521C127.539 64.1751 127.521 63.7085 127.416 63.872C127.406 64.2964 126.884 65.3685 126.638 65.5614C126.61 65.5192 126.273 64.9492 126.242 64.7232C126.211 64.3699 126.832 64.2233 126.808 63.9195C126.76 63.9977 126.612 64.0484 126.555 64.063C126.483 63.9363 126.737 63.8352 126.475 63.7454C126.279 64.0299 126.013 63.4735 126.229 63.9384C125.953 63.9053 126.022 63.7492 125.738 63.6243C125.726 63.8648 125.149 64.1666 124.873 64.1335C124.929 64.0623 124.928 63.935 124.927 63.8785C124.472 63.6135 124.286 63.3464 123.853 63.1166C123.852 63.0176 123.681 62.821 123.843 62.7419C123.751 62.7639 123.639 62.8355 123.504 62.773C123.373 62.3781 123.83 62.8834 123.791 62.4665C123.686 62.63 123.318 62.5341 123.071 62.5432C122.995 62.8479 123.497 62.8225 123.745 62.8134C123.557 63.1898 123.014 63.4135 122.469 63.3543C122.058 63.2587 122.438 63.0293 122.346 63.0513C121.692 62.6324 121.43 63.4124 120.994 62.8574C120.892 62.5047 121.231 62.3746 121.257 62.1764C121.604 62.2371 121.642 62.555 121.841 62.6524L121.655 62.4135C121.789 62.377 122.023 62.4246 122.095 62.5513C122.014 62.2338 120.958 61.9243 120.523 61.4541C120.389 61.4906 120.184 61.4852 120.213 61.6264L120.397 61.6814C120.456 61.9497 119.946 61.7842 120.11 61.9879C119.82 62.0115 119.453 62.0994 119.189 61.8258L119.265 61.5211C119.23 61.5992 119.394 61.7887 119.521 61.7453C119.331 61.7963 119.219 61.1255 118.896 61.411L119.019 61.7141C118.729 61.7377 118.299 61.8897 118.064 61.6583C118.052 61.9978 118.142 61.6648 118.187 62.0745C118.212 61.5935 118.898 62.4505 118.83 61.9066C118.848 62.3731 119.101 62.2437 119.211 62.6883C119.245 62.5961 119.202 62.4692 119.415 62.6371C119.436 62.6157 119.486 62.5941 119.507 62.5869C119.521 62.5726 119.521 62.5726 119.507 62.5869C119.471 62.5235 119.449 62.4459 119.456 62.3822C119.674 62.2319 120.05 62.4339 120.234 62.3899C120.348 62.5021 120.121 62.4616 120.151 62.6027L120.426 62.5368C120.343 62.7497 120.628 63.0584 120.239 63.0121L120.53 63.1724C120.645 63.3694 120.865 63.5444 121.056 63.5357C121.17 63.6479 121.523 63.4894 121.318 63.5831L121.843 63.6919L121.822 63.7415C122.269 63.9995 122.933 63.8808 123.271 64.5215C123.455 64.5483 123.646 64.5679 123.867 64.757L123.826 64.9554C124.053 64.9959 124.325 65.4321 124.5 65.2963C124.47 65.8693 125.403 65.8898 125.703 66.1561L125.835 65.9358C126.063 66.0753 126.325 66.1226 126.665 66.1905L126.755 65.9847C127.094 65.9536 127.325 66.475 127.736 66.6696C127.673 66.7338 127.581 66.6567 127.538 66.5722C127.777 67.2703 128.713 66.7888 128.972 67.3523C129.121 67.344 129.185 67.4072 129.235 67.4987C129.228 67.4917 129.214 67.4918 129.2 67.4919C129.207 67.4989 129.221 67.5129 129.243 67.5198C129.271 67.5762 129.3 67.6466 129.329 67.703C129.314 67.6324 129.292 67.5689 129.264 67.5267C129.349 67.5684 129.484 67.6168 129.632 67.6368L129.564 67.8778C129.564 67.8778 129.578 67.8918 129.592 67.8917C129.671 68.0396 129.747 67.848 129.767 67.6569C129.852 67.6562 129.93 67.6485 130 67.6196C129.904 68.0164 130.382 67.6872 130.308 68.1191C130.491 67.9903 130.989 68.3398 131.269 68.0122C131.248 68.0619 131.263 68.1042 131.206 68.0763C131.32 68.1885 131.427 68.322 131.604 68.2852L131.507 68.583L132.008 68.4021C132.095 68.67 132.103 68.8043 131.807 68.9058C132.414 68.8583 132.218 69.0014 132.769 68.912L132.643 69.0686C132.77 69.1382 133.123 69.0363 133.111 69.2344C133.2 69.7287 134.483 70.1777 134.971 70.9656C135.178 70.3982 135.137 71.4097 135.424 71.0609C135.383 71.2026 135.433 71.3366 135.25 71.3522C135.682 71.4972 135.622 71.9149 136.095 71.7907C136.046 71.9255 135.897 71.8914 135.877 71.9835C135.919 71.9831 136.054 71.9749 136.04 72.0599C136.02 72.152 135.92 72.1104 135.829 72.1182C136.177 72.3628 136.486 72.0633 136.759 71.7852C136.804 72.0819 136.904 72.1235 137.2 72.0362C137.166 72.1849 137.181 72.3687 136.94 72.2292C137.054 72.3414 137.476 72.9814 137.708 72.7744C137.688 72.8665 137.844 72.936 137.893 72.9426C138.1 73.2025 138.087 73.2451 138.329 73.4694L138.314 73.3705C138.709 73.2258 138.556 73.5241 138.734 73.7135L138.706 73.742C138.789 74.3565 138.955 73.8885 138.932 74.5109L139.136 74.389C139.389 74.3021 139.377 74.4719 139.293 74.6423C139.217 74.8197 139.112 74.9691 139.177 75.1029L139.324 74.9956C139.403 75.0727 139.22 75.2015 139.016 75.2669C138.825 75.3321 138.535 75.3557 138.493 75.3985C138.444 75.4059 138.436 75.3424 138.415 75.3072C138.034 75.48 138.706 75.425 138.701 75.6867C138.531 75.6598 138.338 75.4563 138.226 75.5987C138.141 75.5994 138.199 75.7686 138.229 75.9664C138.231 76.1643 138.162 76.3912 137.943 76.4001C138.078 76.4343 138.226 76.4543 138.2 76.6525C138.067 76.887 137.388 76.7936 137.512 77.2522C137.462 77.2455 137.434 77.2316 137.405 77.2036C137.329 77.4093 137.028 77.7583 137.072 78.0125C136.417 77.4663 136.268 79.101 135.825 78.4683L135.319 78.8543L135.29 78.7839C134.917 78.9637 134.89 79.1902 134.857 79.4239C134.751 79.4318 134.764 79.3327 134.757 79.2974C134.157 79.4792 134.129 79.5218 133.865 80.1038L133.701 79.9143C133.646 80.1127 132.747 79.9858 132.348 80.5195C132.334 80.4913 132.327 80.4419 132.354 80.3851C131.878 80.9547 130.616 80.4843 130.772 81.3952L130.457 81.7867C131.014 81.6054 130.545 82.182 130.821 82.2151C130.638 82.358 130.17 82.2205 130.402 82.0559L130.466 82.0766C130.363 81.6107 129.739 82.2311 129.623 81.9209C128.588 82.4033 127.465 82.6035 126.471 82.9865L126.721 83.2744L126.362 83.3976C126.234 83.3562 126.141 83.1802 126.38 83.0933C126.167 82.9537 126.029 83.4215 126.051 83.4991C125.514 83.5601 126.083 83.0251 125.928 83.0829L125.738 83.1906L125.801 83.2113C125.697 83.4172 125.734 83.5654 125.437 83.6668C125.218 83.6757 125.259 83.4915 125.182 83.5134C125.174 83.4922 125.146 83.4783 125.062 83.5497L124.61 83.6949L124.888 83.8977C124.748 84.111 124.472 84.0496 124.792 84.2662C124.308 83.9166 123.084 84.7329 122.843 84.65C122.648 84.9486 122.366 85.05 122.027 85.1518C122.134 85.1721 122.299 85.4607 121.988 85.5339C121.862 84.8632 121.358 85.4614 120.952 85.09C121.279 85.3135 120.156 85.4713 120.639 85.7785C120.378 85.816 120.539 85.553 120.297 85.4701C119.806 85.9268 118.963 85.7711 118.28 86.1091C118.295 86.1939 118.459 86.2844 118.354 86.4621L117.828 86.1836C117.702 86.2695 117.868 86.7136 117.506 86.5115C117.563 86.5676 117.656 86.6588 117.571 86.7161C116.023 86.8208 114.824 88.0541 113.104 87.8491C113.36 87.9318 113.24 87.9965 113.092 88.0613C113.205 88.0604 113.171 88.2657 113.229 88.3643C112.988 88.338 112.748 88.3117 112.5 88.2925C112.524 88.6388 111.838 88.595 111.904 88.9268L112.073 88.784C111.984 89.2302 112.763 89.3793 112.909 89.8448C113.018 89.3348 113.852 90.1411 114.086 89.4037C114.221 89.4521 114.052 89.5808 114.152 89.6648C114.199 89.4311 114.319 89.3382 114.609 89.3287L114.595 89.3854C115.307 89.0754 115.689 89.143 116.565 88.9801L116.421 88.7833C116.612 88.7464 116.669 88.8025 116.776 88.837C116.857 88.4262 116.268 88.9967 116.321 88.5579C116.713 88.9294 117.576 88.1232 117.919 88.5729C118.194 88.4787 117.747 88.3481 118.022 88.2539L118.144 88.3731L118.149 88.168C118.339 88.131 118.489 88.2783 118.547 88.391C118.497 88.3984 118.434 88.4626 118.392 88.4912C118.683 88.5666 119.026 88.2031 119.132 88.2235L118.842 88.2329C119.539 87.8382 120.528 87.6886 121.139 87.1391L121.046 87.0479C121.524 86.6621 121.526 87.0015 122.097 86.6927L122.076 86.7141C122.166 86.579 122.314 86.4717 122.483 86.4137C122.379 86.5914 122.859 86.545 122.712 86.7513C123.232 86.3227 122.943 86.4736 123.193 85.9341L123.343 86.0814C123.426 85.8685 123.404 85.7768 123.686 85.6189C123.49 85.8609 123.977 85.8074 123.775 86.1131C124.554 86.2481 124.561 85.3712 125.066 85.8125C125.168 85.2248 124.415 85.7613 124.541 85.5906C124.349 85.4861 124.644 85.1442 124.855 85.1142C125.06 85.0489 125.439 85.5902 125.94 85.381C125.89 85.4026 125.898 85.4379 125.848 85.4595C126.082 85.5071 126.157 85.1459 126.469 85.2564C126.48 84.9169 126.779 85.1548 126.67 84.7668L126.241 85.032C126.465 84.8322 126.539 84.3012 127.055 84.3323C127.056 84.4171 126.965 84.5664 126.902 84.6588C127.073 84.714 127.113 84.4874 127.29 84.5496C127.407 84.9304 126.763 84.858 126.596 85.2554C126.795 85.3527 127.016 84.771 127.041 85.2305C127.044 84.6435 127.571 85.0917 127.75 84.567L127.823 84.7926C127.865 84.7357 127.927 84.5867 128.033 84.5505L127.972 84.9116C128.146 84.5495 128.594 84.8923 128.805 84.6502C128.255 84.8951 128.562 84.44 128.272 84.3788C128.833 83.7943 128.905 84.7908 129.629 84.3534C129.545 84.439 129.184 84.3925 129.296 84.2218C129.458 84.1993 129.692 84.2044 129.827 84.2811C130.313 84.0154 129.648 84.0916 129.802 83.8641C130.094 84.0526 130.012 83.6502 130.188 83.4719L130.289 83.6974C130.931 83.586 130.235 83.1675 130.828 83.106L130.754 83.5097L130.985 83.3027L131.044 83.5709C131.247 83.251 131.36 83.2501 131.685 83.1908C131.549 83.0576 131.54 82.7819 131.779 82.6526C132.013 82.7002 131.781 82.9072 132.126 82.6993C132.113 82.8691 132.108 83.0883 131.86 82.9702C131.881 83.0478 131.84 83.1471 131.862 83.2247C132.124 83.2862 132.348 83.0298 132.475 82.9722C132.418 82.9868 132.355 83.0085 132.312 82.9947L132.683 82.4472C132.81 82.4885 132.769 82.5879 132.734 82.6801C132.825 82.6016 132.852 82.474 132.993 82.3739C133.037 82.5715 133.145 82.7474 132.962 82.9328L133.355 82.4911C133.419 82.5542 133.716 82.5659 133.681 82.6723C134.006 82.6271 134.178 81.9964 134.609 81.9292C134.608 81.8867 134.629 81.8371 134.685 81.7659C135.045 81.6144 135.462 81.6746 135.72 81.1987L136.131 81.365C136.398 81.1082 135.599 81.1643 136.041 80.7435C136.343 80.4369 136.333 80.9178 136.51 80.9234C136.592 80.654 136.708 80.151 137.189 80.1753C137.12 80.3032 137.007 80.3183 136.923 80.4038L136.979 80.3609ZM140.324 77.0168C140.318 77.137 140.342 77.4126 140.172 77.3858C140.014 77.1466 140.162 77.1383 140.324 77.0168ZM137.281 70.7556C137.38 70.7406 137.43 70.818 137.453 70.9663C137.382 70.9245 137.31 70.8685 137.281 70.7556ZM120.863 63.1908L120.87 63.1837C120.998 63.3524 120.948 63.2891 120.863 63.1908ZM120.563 62.9246C120.563 62.9246 120.507 62.9675 120.5 63.0029C120.549 62.953 120.635 62.9947 120.713 63.0577C120.712 62.987 120.691 62.9236 120.57 62.9175L120.563 62.9246ZM125.246 83.6048L125.338 83.6394C125.212 83.7677 125.233 83.6898 125.246 83.6048Z" fill="#CD4D14"/>
<path d="M138.075 70.9893C138.075 70.9893 138.048 71.0744 138.013 71.1101C138.062 71.1026 138.097 71.0669 138.075 70.9893Z" fill="#CD4D14"/>
<path d="M134.68 81.8861L134.672 81.8932C134.672 81.8932 134.673 81.9215 134.673 81.9357L134.68 81.8861Z" fill="#CD4D14"/>
<path d="M126.766 63.7925C126.823 63.8627 126.837 63.9191 126.838 63.9757C126.873 63.9259 126.865 63.8623 126.766 63.7925Z" fill="#CD4D14"/>
<path d="M118.572 62.3683L118.813 62.4229C118.7 62.3814 118.685 62.3108 118.649 62.2616C118.628 62.3113 118.629 62.4103 118.565 62.3754L118.572 62.3683Z" fill="#CD4D14"/>
<path d="M117.358 60.0801C117.358 60.0801 117.287 60.0525 117.245 60.0528L117.203 60.1521C117.338 60.2147 117.479 60.1852 117.358 60.066L117.358 60.0801Z" fill="#CD4D14"/>
<path d="M118.735 61.5466C118.811 61.355 118.641 61.3423 118.471 61.3013C118.471 61.3013 118.485 61.3153 118.492 61.3223C118.318 61.5571 118.523 61.5484 118.728 61.5537L118.735 61.5466Z" fill="#CD4D14"/>
<path d="M118.429 61.3017C118.429 61.3017 118.322 61.2672 118.287 61.2321C118.224 61.3246 118.336 61.2812 118.429 61.3017Z" fill="#CD4D14"/>
<path d="M120.074 62.8225C120.024 62.7451 119.914 63.0289 119.906 62.937C119.716 63.1295 120.528 62.9036 120.074 62.8225Z" fill="#CD4D14"/>
<path d="M118.913 60.8947L118.852 61.1427L119.027 61.0068L118.913 60.8947Z" fill="#CD4D14"/>
<path d="M120.037 61.6631L119.823 61.481C119.823 61.481 119.774 61.5309 119.725 61.5243C119.867 61.608 120.009 61.7341 120.044 61.6701L120.037 61.6631Z" fill="#CD4D14"/>
<path d="M119.725 61.5244C119.646 61.4755 119.575 61.4478 119.505 61.4625C119.547 61.4763 119.647 61.5179 119.725 61.5244Z" fill="#CD4D14"/>
<path d="M119.282 60.9906L119.332 61.0821L119.496 61.1868L119.282 60.9906Z" fill="#CD4D14"/>
<path d="M122.644 63.0346L122.941 63.1029C123.004 63.0387 122.961 62.9542 122.841 62.934C122.749 62.9559 122.636 62.9286 122.637 63.0276L122.644 63.0346Z" fill="#CD4D14"/>
<path d="M122.148 62.0133C122.198 62.0907 122.177 62.1545 122.178 62.2394L122.324 61.9624L122.14 62.0063L122.148 62.0133Z" fill="#CD4D14"/>
<path d="M122.956 62.3461C123.019 62.2819 123.458 62.3207 123.103 62.1681C123.04 62.2322 122.735 62.157 122.956 62.3461Z" fill="#CD4D14"/>
<path d="M126.781 64.7612L126.717 64.7263L126.487 65.1879L126.781 64.7612Z" fill="#CD4D14"/>
<path d="M130.874 65.5899C130.618 65.3092 130.65 65.8181 130.443 65.5298C130.309 65.5946 130.614 65.7688 130.487 65.8123C130.735 65.8032 130.799 65.9229 130.881 65.5828L130.874 65.5899Z" fill="#CD4D14"/>
<path d="M130.48 65.8194C130.48 65.8194 130.395 65.8202 130.346 65.8276C130.417 65.8271 130.452 65.8197 130.48 65.8194Z" fill="#CD4D14"/>
<path d="M112.075 88.2111L111.799 88.2205L112.019 88.3106L112.075 88.2111Z" fill="#CD4D14"/>
<path d="M111.776 88.7722L111.554 88.5265C111.548 88.6468 111.542 88.7529 111.543 88.866C111.592 88.8161 111.697 88.7375 111.776 88.7722Z" fill="#CD4D14"/>
<path d="M141.303 76.4925L141.246 76.4364C141.148 76.4655 141.113 76.5435 141.043 76.6997C141.135 76.6353 141.219 76.5639 141.311 76.4995L141.303 76.4925Z" fill="#CD4D14"/>
<path d="M138.696 79.4133L138.746 79.3775L138.476 79.2242L138.696 79.4133Z" fill="#CD4D14"/>
<path d="M136.612 81.3468C136.718 81.2965 136.787 81.1686 136.893 81.1182C136.711 81.3036 136.39 81.0446 136.612 81.3468Z" fill="#CD4D14"/>
</g>
<defs>
<clipPath id="clip0_75_44377">
<rect width="94.61" height="107.37" fill="white" transform="matrix(0.701229 -0.712936 -0.712936 -0.701229 76.5479 142.742)"/>
</clipPath>
</defs>
</svg>
