<svg width="100%" height="100%" viewBox="0 0 29 33" fill="none" xmlns="http://www.w3.org/2000/svg">
<path d="M5.48509 0.97575C5.48509 0.97575 5.62695 0.998149 5.65682 0.998149C5.61202 1.02802 5.44775 0.968283 5.48509 0.97575Z" fill="#6C45AA"/>
<path d="M5.03623 1.28974L5.10343 1.2972L4.93917 1.3196L5.03623 1.28974Z" fill="#6C45AA"/>
<path d="M4.94663 1.66306C4.70024 1.56599 5.0213 1.53613 4.94663 1.44653L4.8869 1.42413L5.10343 1.44653C5.05116 1.52119 4.8869 1.58839 4.94663 1.66306Z" fill="#6C45AA"/>
<path d="M5.45522 1.99816C5.35816 1.96083 5.35816 2.02056 5.43282 1.94589C5.44029 1.94589 5.44776 1.95336 5.45522 1.96083C5.45522 1.96829 5.45522 1.98323 5.45522 1.99816Z" fill="#6C45AA"/>
<path d="M5.46099 1.96094C5.47631 1.92263 5.5376 2.00691 5.46099 1.96094V1.96094Z" fill="#6C45AA"/>
<path d="M5.35763 2.13229L5.46216 2.10242C5.52189 2.12482 5.52189 2.17709 5.56669 2.16962C5.50696 2.20695 5.44723 2.18455 5.35763 2.13229Z" fill="#6C45AA"/>
<path d="M5.1555 2.13317L5.2003 2.11823C5.2003 2.11823 5.23017 2.14063 5.1555 2.13317Z" fill="#6C45AA"/>
<path d="M5.29791 2.08187L5.20084 2.1192C5.16351 2.10427 5.07391 2.08187 5.23817 2.0968C5.16351 2.08187 5.23817 2.0968 5.29791 2.08187Z" fill="#6C45AA"/>
<path d="M5.2677 2.0373C5.21544 1.9925 5.19304 1.9477 5.08851 1.97757C5.14824 1.88797 5.32743 1.9477 5.2677 2.0373Z" fill="#6C45AA"/>
<path d="M4.67858 1.61738L4.61138 1.55765L4.70845 1.54271C4.66365 1.54271 4.76071 1.63231 4.67858 1.60991V1.61738Z" fill="#6C45AA"/>
<path d="M5.40981 2.48409C5.35754 2.47662 5.26795 2.43182 5.20075 2.40942L5.27541 2.38702C5.27541 2.38702 5.33515 2.46169 5.41728 2.48409H5.40981Z" fill="#6C45AA"/>
<path d="M5.20067 2.41073L5.08867 2.44059C5.08867 2.38833 5.14094 2.38833 5.20067 2.41073Z" fill="#6C45AA"/>
<path d="M4.87267 2.06659L5.0892 2.02179L4.8652 2.08899L4.87267 2.06659Z" fill="#6C45AA"/>
<path d="M5.3651 2.70798H5.4995L5.29043 2.71545L5.3651 2.70798Z" fill="#6C45AA"/>
<path d="M5.30563 2.84194C5.41763 2.84194 5.47736 2.9166 5.54456 2.90914C5.51469 2.94647 5.41763 2.95394 5.32803 2.9614C5.38029 2.939 5.38029 2.90167 5.30563 2.83447V2.84194Z" fill="#6C45AA"/>
<path d="M5.20066 2.99127C5.20066 2.99127 5.2828 2.97633 5.33506 2.96887C5.30519 2.97633 5.26786 2.99127 5.20066 2.99127Z" fill="#6C45AA"/>
<path d="M5.0964 2.55146C5.0964 2.55146 5.21586 2.59625 5.24573 2.63359L5.0964 2.57386C5.0964 2.57386 5.0964 2.55892 5.0964 2.55146Z" fill="#6C45AA"/>
<path d="M5.0892 2.56569C5.0892 2.56569 5.0892 2.61048 5.0892 2.61795C5.0892 2.61795 5.0892 2.59555 5.0892 2.56569Z" fill="#6C45AA"/>
<path d="M5.09631 2.54377C5.07345 2.53615 5.08107 2.54377 5.09631 2.54377V2.54377Z" fill="#6C45AA"/>
<path d="M4.96904 2.25316C4.87197 2.26809 4.76744 2.31289 4.64797 2.20836C4.75997 2.20836 4.82717 2.26809 4.96904 2.25316Z" fill="#6C45AA"/>
<path d="M4.90965 2.47003L4.88725 2.40283C4.92459 2.41777 4.98432 2.44016 5.02912 2.4327L4.90219 2.47003H4.90965Z" fill="#6C45AA"/>
<path d="M4.84966 2.48417L4.90965 2.47003L4.91686 2.49164L4.84966 2.48417Z" fill="#6C45AA"/>
<path d="M5.08122 2.85037C5.00655 2.85784 4.99162 2.88771 4.97669 2.91757C4.95429 2.87277 4.94682 2.83544 4.95429 2.79811C5.00655 2.79811 5.09615 2.81304 5.08122 2.85037Z" fill="#6C45AA"/>
<path d="M5.06627 2.70814C5.06627 2.70814 5.06627 2.70814 5.05881 2.70814C5.04387 2.70814 5.04387 2.70067 5.06627 2.70814Z" fill="#6C45AA"/>
<path d="M4.89472 3.23875C4.89472 3.23875 4.8794 3.23109 4.86408 3.22342C4.87174 3.22342 4.8794 3.22342 4.89472 3.22342V3.23875Z" fill="#6C45AA"/>
<path d="M4.92476 2.79073C4.92476 2.79073 4.9397 2.7534 4.99196 2.74593C4.96956 2.76086 4.95463 2.78326 4.94716 2.7982C4.92476 2.7982 4.90983 2.7982 4.9173 2.78326L4.92476 2.79073Z" fill="#6C45AA"/>
<path d="M5.10362 3.05978C5.10362 3.05978 5.05136 3.01498 5.02896 2.99258C5.07376 3.01498 5.14095 3.06725 5.10362 3.05978Z" fill="#6C45AA"/>
<path d="M5.10374 2.7317C5.10374 2.7317 5.10375 2.7317 5.11121 2.7317C5.14108 2.74663 5.12614 2.74663 5.10374 2.7317Z" fill="#6C45AA"/>
<path d="M5.10343 2.73038C5.10343 2.73038 5.03623 2.73785 4.9989 2.73785C5.01383 2.72292 5.03641 2.71561 5.05881 2.70814C5.06627 2.70814 5.08103 2.72292 5.09596 2.73038H5.10343Z" fill="#6C45AA"/>
<path d="M3.87875 3.08185C4.02062 3.11172 4.16995 3.08185 4.03555 2.97732C4.15501 2.94746 4.61794 3.10425 4.8718 3.21625C4.81207 3.20132 4.75234 3.18638 4.6478 3.22372C4.57314 3.18638 4.49847 3.04452 4.35661 3.05945C4.25955 3.11919 4.39394 3.13412 4.45367 3.19385C4.28194 3.11919 4.16995 3.23118 3.90862 3.14905L4.02062 3.10425C3.98328 3.08932 3.90862 3.10425 3.87875 3.07439V3.08185Z" fill="#6C45AA"/>
<path d="M4.88005 3.10352L4.90245 3.08112C4.90245 3.08112 4.96965 3.14832 5.07418 3.21552C4.99205 3.23792 4.93978 3.23792 4.88752 3.22299V3.09606H4.87258L4.88005 3.10352Z" fill="#6C45AA"/>
<path d="M4.9317 2.97739C4.76744 2.95499 4.69277 2.99979 4.52851 2.92512C4.55838 2.85792 4.67037 2.91019 4.75251 2.88032C4.68531 2.98486 4.84957 2.86539 4.91677 2.97739C4.94664 2.96246 4.96157 2.94006 4.9765 2.92512C4.99143 2.94752 5.00637 2.97739 5.03623 2.99979C5.03623 2.99979 5.03623 2.99979 5.02877 2.99979C5.01383 2.99232 4.9989 2.98486 5.00637 2.99979C4.98397 2.99979 4.96157 2.99979 4.94664 2.99232C4.96904 3.03712 4.98397 3.00726 5.00637 2.99979C5.01383 2.99979 5.0213 2.99979 5.02877 2.99979L4.91677 3.09685C4.91677 3.09685 4.91677 3.03712 4.94664 2.98486L4.9317 2.97739Z" fill="#6C45AA"/>
<path d="M4.29671 2.19255C4.29671 2.19255 4.31969 2.20021 4.33502 2.20787C4.31203 2.20787 4.29671 2.20787 4.29671 2.19255Z" fill="#6C45AA"/>
<path d="M4.37945 2.26047C4.37945 2.26047 4.46905 2.26047 4.46158 2.23061C4.42425 2.19327 4.38692 2.21567 4.33465 2.20074C4.37945 2.20074 4.46158 2.17087 4.52132 2.23807H4.49892C4.54372 2.30527 4.72291 2.4098 4.74531 2.4098C4.61091 2.35754 4.51385 2.3202 4.37945 2.26047Z" fill="#6C45AA"/>
<path d="M4.61803 2.61222L4.5135 2.69435L4.39404 2.61222L4.47617 2.63462C4.46123 2.57489 4.5583 2.60476 4.61803 2.61969V2.61222Z" fill="#6C45AA"/>
<path d="M4.96965 3.26769L5.14138 3.29756L4.89498 3.29009L4.96965 3.26769Z" fill="#6C45AA"/>
<path d="M4.91694 3.38786L5.06627 3.41772L4.96921 3.43266L4.91694 3.38786Z" fill="#6C45AA"/>
<path d="M1.35622 10.0996L1.31142 10.1146C1.31142 10.1146 1.34129 10.0996 1.35622 10.0996Z" fill="#6C45AA"/>
<path d="M1.39223 9.89093L1.4669 9.90586C1.4221 9.90586 1.39223 9.90586 1.39223 9.89093Z" fill="#6C45AA"/>
<path d="M4.12544 6.50105C4.25237 6.57571 4.4465 6.67278 4.28223 6.62798L4.12544 6.57571C4.12544 6.57571 4.14784 6.52345 4.12544 6.50105Z" fill="#6C45AA"/>
<path d="M2.65456 8.39705C2.65456 8.39705 2.6247 8.38212 2.60977 8.37465C2.6695 8.37465 2.72176 8.37465 2.76656 8.38212C2.72923 8.38212 2.6919 8.38958 2.65456 8.39705Z" fill="#6C45AA"/>
<path d="M1.99709 8.26239L2.08669 8.34452C2.08669 8.34452 2.02696 8.29973 1.99709 8.26239Z" fill="#6C45AA"/>
<path d="M0.900073 11.1907H0.728344C0.743277 11.131 0.817942 11.1758 0.900073 11.1907Z" fill="#6C45AA"/>
<path d="M4.53625 4.67294C4.58852 4.72521 4.61092 4.76254 4.61092 4.78494C4.52879 4.71774 4.40185 4.65054 4.53625 4.67294Z" fill="#6C45AA"/>
<path d="M3.04246 10.4365C3.04246 10.4365 2.97527 10.444 2.93793 10.4365C2.9678 10.4216 3.00513 10.4216 3.04246 10.4365Z" fill="#6C45AA"/>
<path d="M4.58096 4.8885C4.58096 4.8885 4.55856 4.87357 4.55109 4.85864C4.58096 4.83624 4.61092 4.82227 4.61092 4.78494C4.67065 4.83721 4.70043 4.88103 4.58096 4.8885Z" fill="#6C45AA"/>
<path d="M0.00446544 15.3347C0.00446544 15.3347 0.0119323 15.3421 0.0193988 15.3496C-0.00300073 15.3496 -0.00300107 15.3421 0.00446544 15.3347Z" fill="#6C45AA"/>
<path d="M1.28833 16.9321C1.28833 16.9321 1.30326 16.9022 1.31073 16.8873C1.3182 16.9022 1.31073 16.9097 1.28833 16.9321Z" fill="#6C45AA"/>
<path d="M4.27493 3.62617C4.27493 3.62617 4.23013 3.62617 4.1928 3.6187C4.23013 3.6187 4.25253 3.62617 4.27493 3.62617Z" fill="#6C45AA"/>
<path d="M3.53577 4.91059C3.5059 4.89566 3.51337 4.89566 3.53577 4.91059V4.91059Z" fill="#6C45AA"/>
<path d="M4.79731 3.85745C4.79731 3.85745 4.82718 3.88731 4.83464 3.90224C4.82718 3.89478 4.81224 3.87984 4.79731 3.85745Z" fill="#6C45AA"/>
<path d="M4.872 3.88177C4.872 3.88177 4.872 3.85878 4.86434 3.85112C4.89499 3.85112 4.91031 3.85878 4.872 3.88177Z" fill="#6C45AA"/>
<path d="M4.84229 3.94651C4.84229 3.94651 4.84229 3.91665 4.84229 3.90172C4.84975 3.90918 4.85722 3.91665 4.86468 3.91665C4.86468 3.91665 4.85722 3.93158 4.84975 3.95398L4.84229 3.94651Z" fill="#6C45AA"/>
<path d="M0.975262 13.2365C0.975262 13.2365 0.975262 13.2365 0.990195 13.244C0.91553 13.2515 0.930463 13.244 0.975262 13.2365Z" fill="#6C45AA"/>
<path d="M2.17679 6.85803C2.38586 6.86549 2.36346 6.83563 2.33359 6.79829L2.78158 6.94016L2.18426 6.85803H2.17679Z" fill="#6C45AA"/>
<path d="M1.18404 10.5853L1.05711 10.4808C0.803249 10.5032 0.870448 10.5853 0.683785 10.4733C1.17657 10.5853 0.803249 10.2195 1.29604 10.3389L1.20644 10.2717C1.20644 10.2717 1.17657 10.2792 1.17657 10.2941C0.960046 10.1448 1.5499 10.3165 1.5051 10.1896C1.47524 10.1448 1.4155 10.0925 1.3483 10.1075L1.49017 10.0477C1.49017 10.0477 1.40057 10.0029 1.40057 10.0328L1.47524 9.91332H1.4603C1.54243 9.91332 1.66937 9.89839 1.7291 9.89092C1.66937 9.83866 1.66936 9.89092 1.6171 9.86852L1.7515 9.82373C1.63203 9.76399 1.49017 9.79386 1.49763 9.84613C1.02724 9.652 1.6395 9.81626 1.38564 9.59973L1.30351 9.652C1.03471 9.54 1.15418 9.51013 0.99738 9.3832C1.08698 9.428 1.3931 9.652 1.54243 9.59973C1.51257 9.56986 1.49764 9.53253 1.60963 9.5176C1.4379 9.4728 1.49017 9.44293 1.51257 9.39067L1.28111 9.3384C1.36324 9.30107 1.4827 9.3384 1.5947 9.32347C1.5947 9.25627 1.40804 9.19654 1.26617 9.14427C1.25124 9.03228 1.53497 9.28614 1.60963 9.17414C1.54243 9.06961 1.65443 9.03228 1.81869 8.96508C1.7515 8.88295 1.67683 8.94268 1.60963 8.90534H1.81123C1.81123 8.90534 1.7515 8.87548 1.72163 8.86801C1.80376 8.83815 1.95309 8.92028 2.03522 8.86801C2.29655 8.91281 1.69923 8.62908 2.01283 8.62162C1.95309 8.58428 1.87096 8.59922 1.78136 8.56935C1.99789 8.50215 1.94563 8.50215 2.22189 8.47229L2.08749 8.35282C2.24429 8.45735 2.46828 8.42749 2.65494 8.40509C2.73707 8.44989 2.80427 8.48722 2.83414 8.50215L2.98347 8.42749C2.98347 8.42749 2.86401 8.39762 2.76694 8.39016C2.78934 8.39016 2.81174 8.39016 2.82667 8.39016C2.75201 8.33042 2.61015 8.31549 2.47575 8.31549C2.52055 8.33789 2.56535 8.36776 2.61015 8.39016C2.46082 8.38269 2.30402 8.36776 2.16962 8.33042C2.19949 8.33042 2.22189 8.32296 2.24429 8.30802C2.20695 8.30802 2.16962 8.30802 2.14722 8.29309C2.12482 8.28562 2.17709 8.28562 2.24429 8.28562L1.99042 8.19603L2.09495 8.21843L1.96803 8.03923C2.25175 8.0019 2.65494 8.00936 2.80427 7.87497C2.60268 7.8675 2.49068 7.80777 2.26668 7.7555C2.49068 7.86003 2.13229 7.85257 2.16215 7.94963C2.14722 7.89737 2.03522 7.88243 1.99789 7.88243L2.25175 7.78537C2.06509 7.74057 2.12482 7.71817 2.05762 7.65844C2.41602 7.7779 2.32642 7.60617 2.45335 7.57631C2.33388 7.53897 2.20695 7.52404 2.21442 7.60617C1.96056 7.45684 2.66988 7.60617 2.45335 7.47178C2.45335 7.48671 2.46081 7.50164 2.40108 7.49417C2.52055 7.47924 2.46081 7.35231 2.34882 7.35231V7.36724C2.32642 7.24031 2.43095 7.00138 2.74454 7.06112C2.70721 7.05365 2.37122 6.98645 2.30402 6.97899L3.39413 7.02378C3.12533 6.97899 2.51308 6.74752 2.34135 6.80726C2.31149 6.76992 2.27415 6.72512 2.38615 6.68779C2.41602 6.71766 2.75947 6.82966 2.78934 6.81472C2.51308 6.66539 2.64748 6.72512 2.41602 6.57579C2.46828 6.62059 2.88641 6.68779 2.88641 6.64299C2.81921 6.63553 2.47575 6.53846 2.43095 6.54593L2.86401 6.53099C2.78188 6.53846 2.52055 6.44886 2.40855 6.3966C2.48321 6.42646 2.42348 6.29953 2.47575 6.27713L2.55788 6.3518C2.52801 6.20993 3.16267 6.36673 3.17013 6.23233C3.08054 6.23233 2.64001 6.14274 2.61015 6.0606C2.82667 6.083 3.64799 6.18007 3.83465 6.1054L3.72265 6.05314L3.87945 6.00087C3.55093 5.97847 2.85654 5.96354 2.57281 5.97847C2.49068 5.90381 2.43842 5.92621 2.46082 5.85901C2.35628 5.80674 2.28162 5.85901 2.26668 5.87394L2.23682 5.68728C2.47575 5.75448 2.51308 5.62008 2.71468 5.67981L2.41602 5.79928C2.65494 5.86648 3.1328 5.86648 3.11787 5.73954C3.02827 5.68728 2.67734 5.65741 2.59521 5.62755C2.68481 5.62755 2.78188 5.55288 2.72961 5.53048L2.58774 5.54542C2.51308 5.45582 2.93867 5.51555 2.72214 5.38115C2.71468 5.35129 2.43095 5.21689 2.57281 5.25422C2.84161 5.36622 3.70025 5.59021 3.90932 5.61261C3.89438 5.59768 3.67786 5.40355 3.55093 5.33635C3.34186 5.23929 3.01334 5.27662 2.83414 5.18702C2.90134 5.20196 2.99094 5.19449 3.0208 5.18702C2.96854 5.14222 2.81174 5.14969 2.85654 5.08996C3.10293 5.14222 2.86401 4.95556 3.07307 5.11236C3.16267 5.06756 3.03574 5.03769 3.07307 4.96303C3.22987 5.02276 3.63306 5.03023 3.71519 4.99289C3.64799 4.97796 3.57332 4.94809 3.53599 4.93316C3.54346 4.79876 3.44639 4.70917 3.47626 4.5897C3.41653 4.5673 3.36426 4.49264 3.25227 4.48517C3.29707 4.48517 3.38666 4.48517 3.40159 4.44784C3.20746 4.32091 3.34933 4.5225 3.10294 4.40304C3.2448 4.43291 3.32693 4.35824 3.424 4.32837C3.64052 4.40304 3.43893 4.45531 3.3344 4.48517C3.64052 4.55984 3.98398 4.55237 4.15571 4.46277C4.25278 4.38064 3.96905 4.37317 4.01385 4.36571C4.01385 4.17158 4.58877 4.34331 4.40211 4.13424C4.22291 4.02225 4.01385 4.03718 3.87945 3.98491C3.78239 4.04465 3.96905 4.14171 3.95412 4.18651L3.87945 4.09691C3.80479 4.10438 3.74506 4.14918 3.79732 4.18651C3.63306 4.08945 3.84212 3.86545 3.71519 3.68625C3.78985 3.67879 3.86452 3.64892 3.93918 3.68625L3.90185 3.72359C4.05118 3.80572 4.14078 3.69372 4.20051 3.76839C4.32744 3.73852 4.51411 3.70865 4.44691 3.60412L4.23038 3.52946C4.29758 3.54439 4.3496 3.6187 4.27493 3.62617C4.37946 3.6187 4.00638 3.42493 4.30504 3.45479L4.44691 3.55186C4.57384 3.52199 4.8277 3.50706 4.77543 3.40999C4.9845 3.49959 4.74557 3.41746 4.99196 3.53692C4.68583 3.40999 4.95463 3.73105 4.64104 3.57426C4.92476 3.70119 4.74557 3.70119 4.97703 3.83558C4.90236 3.81319 4.84194 3.77646 4.86434 3.85112C4.84194 3.85112 4.81277 3.85052 4.79783 3.85052C4.79783 3.85052 4.79783 3.85052 4.79037 3.85052C4.77543 3.85052 4.77543 3.85052 4.79037 3.85052C4.7605 3.82812 4.72317 3.80572 4.68583 3.79079C4.50664 3.78332 4.49171 3.88038 4.39464 3.89532C4.41704 3.94012 4.48424 3.89532 4.5589 3.94012L4.41704 3.95505C4.5813 3.99985 4.66344 4.11931 4.7829 4.05958L4.76797 4.14171C4.8501 4.20891 4.86503 4.28358 4.79037 4.30597C4.81277 4.35077 4.58877 4.35824 4.72317 4.35824L4.58877 4.45531L4.6261 4.47024C4.61864 4.59717 4.29011 4.6569 4.55144 4.86596C4.49917 4.89583 4.43944 4.92569 4.46931 5.00783L4.6037 5.06009C4.54397 5.09742 4.70823 5.25422 4.55144 5.23929C4.9173 5.38862 4.56637 5.51555 4.61117 5.62755L4.42451 5.58275C4.42451 5.64995 4.34984 5.69475 4.26024 5.76194L4.09598 5.71715C3.94665 5.75448 4.17065 5.91874 4.12585 6.02327C4.19305 6.03074 4.17811 6.00087 4.14825 5.97101C4.48424 6.195 3.81225 6.18007 4.05118 6.35926C3.98398 6.3742 3.99892 6.3966 4.03625 6.43393C4.03625 6.43393 4.03625 6.43393 4.04371 6.43393C4.04371 6.43393 4.04371 6.4414 4.04371 6.44886C4.06611 6.47126 4.09598 6.49366 4.11838 6.5086C4.08105 6.4862 4.05118 6.4638 4.04371 6.45633C4.03625 6.47873 4.00638 6.50859 3.95412 6.53099L4.12585 6.59073C4.18558 6.64299 4.03625 6.59073 3.90932 6.54593C3.87945 6.55339 3.83465 6.56086 3.78985 6.56086C4.06611 6.65793 3.67039 6.62806 3.96158 6.74006C3.81225 6.72512 3.81225 6.88192 3.49866 6.82219C3.53599 6.83712 3.55839 6.84459 3.56586 6.82966C3.58826 6.87445 3.61812 6.91925 3.52106 6.93419L3.73759 7.00885H3.41653C3.53599 7.09845 3.61066 7.14325 3.79732 7.13578C3.50613 7.18805 3.67785 7.21045 3.38666 7.24778L3.52853 7.27765C3.52853 7.27765 3.30453 7.32244 3.424 7.37471C3.67786 7.52404 3.36426 7.78537 3.56586 8.05416C3.1552 7.90483 3.73012 8.19603 3.40159 8.12136C3.49866 8.15869 3.55092 8.20349 3.64052 8.18856C3.51359 8.27069 3.75999 8.39016 3.46133 8.39016C3.55839 8.42749 3.61066 8.40509 3.67039 8.42749C3.64799 8.42749 3.57333 8.44242 3.63306 8.46482C3.69279 8.48722 3.72266 8.46482 3.76745 8.46482C3.72266 8.56935 3.41653 8.50215 3.12533 8.44242C3.2448 8.53202 3.2224 8.55442 3.0208 8.54695C3.1104 8.59175 3.2 8.64402 3.25227 8.58428C3.25227 8.62908 3.3344 8.85308 3.10294 8.79335C3.1552 8.82321 3.10293 8.85308 3.08053 8.85308C3.08053 8.94268 3.09547 8.95761 3.05067 9.03228L3.0208 9.00241C2.72961 8.96508 2.93867 9.05467 2.89387 9.11441H2.92374C3.088 9.32347 2.81174 9.15921 3.00587 9.36827L2.83414 9.316C2.45335 9.23387 3.0208 9.50267 2.85654 9.5624L2.76694 9.50267C2.62508 9.5176 3.2448 9.76399 3.27466 9.82373C3.30453 9.84613 3.3344 9.82372 3.3568 9.80879C3.54346 9.98799 3.12534 9.77146 3.05067 9.84613C3.17013 9.89092 3.37173 9.89839 3.3792 9.97306C3.46879 10.0328 2.9312 10.0552 3.14773 10.2045C3.05813 10.1597 2.96854 10.1224 2.88641 10.1448C2.83414 10.2045 3.2 10.4136 2.88641 10.4061C2.90881 10.421 2.9312 10.4285 2.96107 10.436C2.87147 10.4658 2.78934 10.5704 2.62508 10.5629C3.21493 10.757 2.25175 10.8093 2.80427 10.9437L2.73708 11.093H2.79681C2.81174 11.2125 2.66988 11.2125 2.52801 11.22C2.55788 11.2498 2.61761 11.2498 2.64748 11.2573C2.72214 11.4365 2.69228 11.444 2.38615 11.4962L2.56535 11.556C2.45335 11.5634 2.79681 11.8397 2.55041 11.9293C2.57281 11.9293 2.61015 11.9367 2.63254 11.9293C2.37868 12.0413 3.03574 12.4445 2.36375 12.3399L2.17709 12.4071C2.16215 12.2578 1.88589 12.3549 1.7963 12.2727C1.74403 12.3175 1.96056 12.4669 2.00536 12.4071L1.97549 12.3847C2.31895 12.4445 2.05016 12.5863 2.28909 12.6386C2.20695 12.9074 2.32642 13.221 2.27415 13.4823L2.02029 13.3853V13.4748C2.06509 13.5122 2.21442 13.557 2.21442 13.4898C2.35628 13.5644 2.06509 13.5644 2.00536 13.5495C2.08002 13.6988 2.32642 13.5794 2.32642 13.6167L2.29655 13.6615L2.26668 13.6391C2.14722 13.654 2.03522 13.6316 2.02776 13.7063C2.06509 13.766 2.18455 13.7735 2.19202 13.7959C2.21442 13.7959 2.22189 13.8108 2.19202 13.8258V13.9452L1.99042 13.8482C1.87843 13.8706 1.97549 13.9602 1.7515 13.8482C2.09496 14.0124 1.7739 14.3036 1.87843 14.3783C1.7067 14.4082 1.69177 14.4828 1.69177 14.5724C1.65443 14.5426 1.42297 14.4679 1.43044 14.55C1.92323 14.6471 1.60963 14.7367 1.93816 14.886C1.72163 14.774 1.82616 15.0801 1.52003 14.9159C1.54243 14.9906 1.69923 14.9682 1.80376 15.0428C1.57977 15.1399 1.84856 15.3937 1.73656 15.5655C1.66936 15.5505 1.57977 15.4983 1.47524 15.5132L1.76643 15.6849C1.7291 15.7148 1.3931 15.6252 1.5947 15.7447C1.54243 15.7223 1.46777 15.6849 1.4379 15.7073C1.6619 16.1404 1.00485 16.3719 1.49763 16.8796C1.38564 16.7974 1.36324 16.8273 1.35577 16.8646C1.33337 16.8348 1.19898 16.8273 1.11684 16.7974L1.31844 17.0065C1.07205 16.9766 1.25871 17.1633 1.02724 17.126L1.07951 17.0886C0.795785 17.0886 0.497123 16.8497 0.153663 16.775C0.48219 16.775 -0.256996 16.4764 0.213394 16.4689C0.146196 16.4241 0.0939312 16.4689 0.0192661 16.4316C0.176063 16.4391 0.213396 16.4092 0.168597 16.3271H0.131265C0.213396 16.1479 0.0864638 16.0284 0.0416647 15.7969L0.205929 15.8567C0.190996 15.8044 0.146197 15.782 0.101398 15.7521C0.377659 15.7671 0.0864659 15.8791 0.385126 15.9089C0.0491334 15.7596 0.45979 15.5879 0.0715314 15.4535C0.0864644 15.3863 0.26566 15.5207 0.280593 15.4535L0.176062 15.4087L0.317928 15.4236C0.302995 15.3713 0.176063 15.3191 0.0864648 15.2892C0.0939313 15.3041 0.0565977 15.3116 0.0416647 15.3265C-0.070333 15.2369 0.123797 15.1697 0.0864648 15.1399L0.13873 15.222C0.28806 15.0577 0.205928 14.789 0.467256 14.662L0.541922 14.6994C0.728585 14.5948 0.482188 14.565 0.58672 14.4306H0.564321C0.653919 14.4231 0.706186 14.3932 0.706186 14.3484C0.601655 14.3634 0.541922 14.229 0.422458 14.2514C0.624054 14.1394 0.564323 14.2066 0.892849 14.1842L0.765917 14.1244C0.892848 14.1244 0.960048 14.1319 1.01231 14.0647C0.877916 14.102 0.818183 13.9676 0.646453 13.9975C0.392592 13.766 1.00485 13.8332 0.594188 13.654C0.982446 13.6764 0.765916 13.8407 0.855514 13.8258C0.967512 13.893 1.14671 13.8332 1.12431 13.7735C1.12431 13.7212 0.668854 13.5644 0.706186 13.4375C0.706186 13.4524 0.67632 13.4375 0.67632 13.4599C0.594188 13.3853 0.82565 13.4002 0.691253 13.3031C0.922715 13.3255 0.691251 13.221 0.989912 13.2882L0.892849 13.3927C0.982447 13.3479 1.33337 13.3629 1.19898 13.2135C1.13924 13.2135 1.05711 13.221 1.00485 13.2359C0.93018 13.1837 1.07951 13.1911 1.00485 13.1314C0.713651 13.0717 0.90778 13.2583 0.668852 13.2733C0.556854 13.2061 0.907781 13.1911 0.594188 13.1463C1.00485 13.1911 0.579255 13.0045 0.900315 12.997L0.728585 12.9597C0.728585 12.9597 0.848049 12.9447 0.848049 12.9149H0.616586C0.825649 12.885 0.482189 12.7282 0.601653 12.6834C0.56432 12.8253 0.803249 12.7655 0.90778 12.8551C1.18404 12.7357 0.482189 12.6386 0.616586 12.4669C0.58672 12.4893 0.691251 12.5938 0.788316 12.5714C0.765916 12.5266 0.706186 12.4594 0.624054 12.4146C0.691253 12.2951 0.795784 12.4818 0.915248 12.4519C0.713652 12.3549 1.01978 12.4071 1.09444 12.3698L0.922713 12.325C0.848048 12.1458 1.29604 12.3773 1.19151 12.213H0.937646L1.01978 12.1533L0.818182 12.1159C0.982446 12.0786 0.95258 12.0413 0.915248 11.9591C1.03471 12.0039 1.23631 12.0263 1.25871 11.9591C1.16911 11.8919 1.08698 11.9442 1.13178 11.8546C1.01978 11.8546 0.877914 11.8397 1.02724 11.9143C0.967512 11.9069 0.915246 11.9143 0.855514 11.8994C0.750983 11.8248 0.855515 11.7725 0.870448 11.7352C0.870448 11.7501 0.877915 11.765 0.900315 11.78L1.17657 11.7053C1.11684 11.668 1.05711 11.668 1.00485 11.6754C1.02724 11.653 1.11684 11.653 1.13924 11.6157C0.997379 11.5933 0.848049 11.5485 0.765917 11.5933L0.95258 11.5037C0.892848 11.4813 0.795784 11.3992 0.743518 11.3992C0.67632 11.3096 1.06458 11.2946 0.974978 11.1752C1.00484 11.1752 1.03471 11.1752 1.05711 11.1602C1.04964 11.0632 0.892849 10.9437 1.11684 10.884L0.877916 10.7645C0.952581 10.6973 1.17657 10.9288 1.31097 10.8093C1.4155 10.7346 1.10191 10.7197 1.04218 10.6674C1.18404 10.6525 1.46777 10.6301 1.28111 10.4957C1.22884 10.5106 1.25871 10.548 1.22884 10.5704L1.18404 10.5853ZM1.5499 9.59973C1.5051 9.6072 1.38564 9.62213 1.4827 9.65946C1.69176 9.68933 1.5947 9.64453 1.5499 9.59973ZM2.35628 8.16616C2.29655 8.16616 2.31895 8.19603 2.37868 8.24083C2.40108 8.22589 2.39362 8.20349 2.35628 8.16616ZM4.6485 4.17904C4.6485 4.17904 4.6485 4.17904 4.64104 4.17904C4.70077 4.23878 4.67837 4.21638 4.6485 4.17904ZM4.59624 4.06705C4.59624 4.06705 4.6485 4.06705 4.6709 4.08198C4.6261 4.08198 4.61864 4.09691 4.6261 4.12678C4.5813 4.11185 4.55144 4.08945 4.59624 4.07451V4.06705ZM2.08749 13.8183L2.04269 13.7884C1.98296 13.8183 2.02776 13.8183 2.08749 13.8183Z" fill="#6C45AA"/>
<path d="M2.07298 8.2782C2.07298 8.2782 2.13272 8.3006 2.16258 8.30807C2.13272 8.30807 2.09538 8.3006 2.07298 8.2782Z" fill="#6C45AA"/>
<path d="M0.930114 11.1906C0.922452 11.1906 0.907735 11.1907 0.900073 11.1907L0.930114 11.1906Z" fill="#6C45AA"/>
<path d="M2.75954 5.10493C2.75954 5.10493 2.8118 5.14973 2.84166 5.16467C2.79687 5.1572 2.767 5.1348 2.75954 5.10493Z" fill="#6C45AA"/>
<path d="M5.00698 3.65691L4.94725 3.70171C4.94725 3.70171 4.92485 3.65691 4.90245 3.63451C4.93978 3.64944 4.99952 3.67184 5.00698 3.65691Z" fill="#6C45AA"/>
<path d="M4.05068 2.88059C4.05068 2.88059 4.05068 2.86566 4.08054 2.85819L4.16267 2.88059C4.16267 2.88059 4.07308 2.92539 4.05068 2.88059Z" fill="#6C45AA"/>
<path d="M4.43945 3.45488C4.29012 3.41008 4.34985 3.38768 4.38718 3.35782C4.59625 3.39515 4.51411 3.42502 4.43945 3.44742V3.45488Z" fill="#6C45AA"/>
<path d="M4.40167 3.3493C4.40167 3.3493 4.4166 3.3269 4.4166 3.31197C4.49873 3.3269 4.43154 3.33436 4.40167 3.3493Z" fill="#6C45AA"/>
<path d="M4.71541 3.97761C4.71541 3.97761 4.90953 4.01494 4.8498 3.98508C5.04393 4.00747 4.58848 4.05974 4.71541 3.97761Z" fill="#6C45AA"/>
<path d="M3.96802 3.30564L4.13975 3.36537L3.99042 3.35044L3.96802 3.30564Z" fill="#6C45AA"/>
<path d="M4.02131 3.657L3.98398 3.58233C3.98398 3.58233 4.03624 3.58233 4.05118 3.58233C4.05118 3.62713 4.07358 3.6794 4.02131 3.66446V3.657Z" fill="#6C45AA"/>
<path d="M4.05118 3.58233C4.05118 3.58233 4.05814 3.54553 4.09548 3.53806C4.09548 3.54553 4.08104 3.57487 4.05118 3.58233Z" fill="#6C45AA"/>
<path d="M3.8858 3.37995L3.92314 3.40982V3.45462L3.8858 3.37995Z" fill="#6C45AA"/>
<path d="M3.87887 4.37351L3.81167 4.43324C3.74447 4.42577 3.7146 4.39591 3.74447 4.37351C3.78927 4.37351 3.81914 4.34364 3.87887 4.37351Z" fill="#6C45AA"/>
<path d="M3.43888 4.02979C3.43888 4.02979 3.51354 4.06712 3.56581 4.09698L3.34181 4.04472L3.43888 4.02979Z" fill="#6C45AA"/>
<path d="M3.33339 4.22389C3.26619 4.21642 3.13179 4.28362 3.16166 4.19402C3.22886 4.20149 3.29605 4.14176 3.33339 4.22389Z" fill="#6C45AA"/>
<path d="M3.34901 5.36652L3.35648 5.35159L3.72234 5.44865L3.34901 5.36652Z" fill="#6C45AA"/>
<path d="M2.22836 6.08917C2.16117 5.98464 2.45983 6.1265 2.37023 6.02197C2.45983 6.02197 2.44489 6.1041 2.52703 6.1041C2.4225 6.13397 2.46729 6.1713 2.22836 6.08917Z" fill="#6C45AA"/>
<path d="M2.52738 6.1128C2.52738 6.1128 2.56471 6.10533 2.58711 6.09787C2.55724 6.10533 2.54231 6.1128 2.52738 6.1128Z" fill="#6C45AA"/>
<path d="M1.43843 17.1782L1.50563 17.2529L1.38617 17.1857L1.43843 17.1782Z" fill="#6C45AA"/>
<path d="M1.13899 17.2146L1.37045 17.2893L1.14645 17.2669C1.14645 17.2669 1.18379 17.237 1.13899 17.2146Z" fill="#6C45AA"/>
<path d="M1.11624 9.33122H1.17597C1.2357 9.36855 1.2357 9.37602 1.24317 9.40588L1.12371 9.33122H1.11624Z" fill="#6C45AA"/>
<path d="M1.10131 10.1071V10.0996L1.31037 10.1743L1.10131 10.1071Z" fill="#6C45AA"/>
<path d="M0.676589 10.6597C0.676589 10.6597 0.728855 10.6149 0.728855 10.585C0.676589 10.6298 0.945384 10.7344 0.676589 10.6597Z" fill="#6C45AA"/>
<path d="M20.4546 14.0057C20.4546 14.0057 20.5442 14.1177 20.5666 14.1327C20.5143 14.1327 20.4322 13.9684 20.4546 14.0057Z" fill="#6C45AA"/>
<path d="M19.9107 13.945L19.9555 13.9898L19.8136 13.8927L19.9107 13.945Z" fill="#6C45AA"/>
<path d="M19.5966 14.1614C19.4771 13.9225 19.7385 14.1166 19.7385 14.0046L19.7161 13.9449L19.8654 14.1017C19.7758 14.1241 19.6041 14.0643 19.6041 14.1614H19.5966Z" fill="#6C45AA"/>
<path d="M19.7462 14.7527C19.7014 14.6631 19.6566 14.7004 19.7686 14.7004C19.7686 14.7154 19.7686 14.7154 19.776 14.7303C19.7686 14.7303 19.7611 14.7378 19.7462 14.7602V14.7527Z" fill="#6C45AA"/>
<path d="M19.7754 14.729C19.8061 14.821 19.8137 14.7137 19.7754 14.729V14.729Z" fill="#6C45AA"/>
<path d="M19.589 14.7824L19.6861 14.8272C19.7085 14.8869 19.6861 14.9243 19.716 14.9467C19.6413 14.9317 19.6189 14.8795 19.589 14.7749V14.7824Z" fill="#6C45AA"/>
<path d="M19.4321 14.6469L19.4769 14.6618C19.4769 14.6618 19.4843 14.6991 19.4321 14.6469Z" fill="#6C45AA"/>
<path d="M19.5737 14.6991L19.4769 14.6618C19.4619 14.6245 19.4094 14.5497 19.5139 14.6692C19.4691 14.6095 19.5139 14.6692 19.5662 14.6916L19.5737 14.6991Z" fill="#6C45AA"/>
<path d="M19.5816 14.6456C19.5742 14.5784 19.5816 14.5261 19.492 14.4813C19.5966 14.4514 19.6862 14.6157 19.5816 14.6456Z" fill="#6C45AA"/>
<path d="M19.425 13.9459V13.8563L19.4922 13.9086C19.4549 13.8787 19.4698 14.0131 19.425 13.9385V13.9459Z" fill="#6C45AA"/>
<path d="M19.3871 15.0877C19.3498 15.0429 19.3199 14.9533 19.2826 14.8935L19.3498 14.9234C19.3498 14.9682 19.3498 15.0205 19.3871 15.0877Z" fill="#6C45AA"/>
<path d="M19.2827 14.8856L19.1782 14.8408C19.2155 14.8035 19.2529 14.8408 19.2827 14.8856Z" fill="#6C45AA"/>
<path d="M19.261 14.4081L19.4551 14.5276L19.246 14.4156L19.261 14.4081Z" fill="#6C45AA"/>
<path d="M19.2086 15.2155L19.3057 15.3051L19.1489 15.1781L19.2086 15.2155Z" fill="#6C45AA"/>
<path d="M19.0661 15.282C19.1483 15.3567 19.1408 15.4538 19.2005 15.4911C19.1557 15.4911 19.0736 15.4388 18.9989 15.3866C19.0512 15.409 19.0736 15.3791 19.0661 15.2746V15.282Z" fill="#6C45AA"/>
<path d="M18.8948 15.3188C18.8948 15.3188 18.962 15.3636 19.0068 15.3935C18.977 15.386 18.9471 15.3636 18.8948 15.3188Z" fill="#6C45AA"/>
<path d="M19.1105 14.9157C19.1105 14.9157 19.1702 15.0277 19.1627 15.0725L19.0955 14.9306C19.0955 14.9306 19.1105 14.9231 19.1105 14.9157Z" fill="#6C45AA"/>
<path d="M19.0891 14.9315C19.0891 14.9315 19.0584 14.9698 19.0508 14.9698C19.0508 14.9698 19.0661 14.9545 19.0891 14.9315Z" fill="#6C45AA"/>
<path d="M19.1112 14.9174C19.1036 14.8946 19.1112 14.9022 19.1112 14.9174V14.9174Z" fill="#6C45AA"/>
<path d="M19.2155 14.6182C19.1334 14.5659 19.0214 14.5286 19.0065 14.3718C19.0886 14.4464 19.0961 14.536 19.2155 14.6182Z" fill="#6C45AA"/>
<path d="M19.0289 14.7362L19.0588 14.669C19.0588 14.669 19.1036 14.7586 19.1484 14.7885L19.0289 14.7362Z" fill="#6C45AA"/>
<path d="M18.9692 14.707L19.0289 14.7362L19.014 14.7592L18.9692 14.707Z" fill="#6C45AA"/>
<path d="M18.8942 15.1316C18.8345 15.0868 18.8046 15.1017 18.7673 15.1092C18.7822 15.0644 18.7971 15.027 18.827 15.0121C18.8569 15.0494 18.9241 15.1166 18.8867 15.1316H18.8942Z" fill="#6C45AA"/>
<path d="M18.9839 15.0211C18.9839 15.0211 18.9839 15.0211 18.9758 15.0211C18.9758 15.0049 18.9758 15.0049 18.9839 15.0211Z" fill="#6C45AA"/>
<path d="M18.4985 15.2973C18.4985 15.2973 18.4909 15.282 18.4832 15.2667C18.4832 15.2667 18.4909 15.282 18.4985 15.2897V15.2973Z" fill="#6C45AA"/>
<path d="M18.8275 14.9827C18.8275 14.9453 18.8648 14.9677 18.9096 14.9976C18.8872 14.9976 18.8573 14.9976 18.8424 15.0125C18.8275 14.9976 18.82 14.9827 18.8275 14.9827Z" fill="#6C45AA"/>
<path d="M18.7755 15.3116C18.7755 15.3116 18.768 15.2444 18.768 15.2145C18.783 15.2668 18.8054 15.3414 18.7755 15.3116Z" fill="#6C45AA"/>
<path d="M18.9915 15.058C18.9915 15.0804 19.0064 15.0878 18.9915 15.058V15.058Z" fill="#6C45AA"/>
<path d="M18.9915 15.058C18.9915 15.058 18.9395 15.02 18.9096 14.9976C18.932 14.9976 18.9545 14.9979 18.9769 15.0203C18.9769 15.0352 18.9844 15.0501 18.9918 15.0651L18.9915 15.058Z" fill="#6C45AA"/>
<path d="M17.8418 14.5062C17.9314 14.6256 18.0658 14.7003 18.0285 14.536C18.1405 14.5958 18.3794 15.0214 18.4914 15.2752C18.4541 15.2229 18.4167 15.1707 18.3197 15.1333C18.2898 15.0512 18.3271 14.9019 18.2077 14.8198C18.0957 14.8048 18.1778 14.9019 18.1927 14.9915C18.1181 14.8198 17.9538 14.8272 17.8194 14.5958L17.9314 14.6331C17.9314 14.6331 17.8493 14.5584 17.8418 14.5136V14.5062Z" fill="#6C45AA"/>
<path d="M18.6106 15.1924C18.6031 15.2297 18.6106 15.2894 18.6479 15.4089C18.5733 15.3716 18.5359 15.3342 18.5061 15.2969L18.5957 15.2073L18.5733 15.1924H18.6106Z" fill="#6C45AA"/>
<path d="M18.708 15.1319C18.6035 15.0125 18.5139 14.9901 18.4467 14.8258C18.5139 14.796 18.5661 14.9079 18.6408 14.9378C18.5213 14.9751 18.7229 14.9901 18.7005 15.117C18.7379 15.1245 18.7603 15.117 18.7752 15.117C18.7752 15.1469 18.768 15.1772 18.768 15.2145C18.768 15.2145 18.7677 15.2141 18.7677 15.2066C18.7677 15.1842 18.7528 15.1767 18.7603 15.1917C18.7453 15.1767 18.7379 15.1618 18.7229 15.1469C18.7155 15.1917 18.7453 15.1842 18.7603 15.1917C18.7603 15.1917 18.7677 15.2066 18.7752 15.2141H18.6259C18.6333 15.1767 18.6632 15.1618 18.7229 15.1469L18.708 15.1319Z" fill="#6C45AA"/>
<path d="M18.752 14.1251C18.752 14.1251 18.7673 14.1481 18.7673 14.1558C18.752 14.1404 18.7367 14.1328 18.752 14.1251Z" fill="#6C45AA"/>
<path d="M18.7678 14.2298C18.7678 14.2298 18.8276 14.2896 18.8425 14.2597C18.8425 14.2074 18.7972 14.1931 18.7673 14.1558C18.8046 14.1782 18.8798 14.2149 18.8798 14.312L18.8574 14.297C18.85 14.3717 18.9097 14.5733 18.9246 14.5882C18.8574 14.4613 18.8052 14.3642 18.7529 14.2298H18.7678Z" fill="#6C45AA"/>
<path d="M18.708 14.6476H18.5811L18.5438 14.4983L18.5886 14.5655C18.6184 14.5057 18.6632 14.5953 18.708 14.6476Z" fill="#6C45AA"/>
<path d="M18.5363 15.3708L18.6408 15.5052L18.4616 15.341L18.5363 15.3708Z" fill="#6C45AA"/>
<path d="M18.4164 15.4311L18.4985 15.5506L18.4239 15.4983L18.4164 15.4311Z" fill="#6C45AA"/>
<path d="M11.2563 18.0596L11.2115 18.0447C11.2115 18.0447 11.2488 18.0521 11.2563 18.0596Z" fill="#6C45AA"/>
<path d="M11.4281 17.9324L11.4729 17.9921C11.4729 17.9921 11.4206 17.9399 11.4281 17.9324Z" fill="#6C45AA"/>
<path d="M15.7364 17.2225C15.7812 17.3644 15.8558 17.566 15.7662 17.4241L15.6841 17.2822C15.7289 17.2822 15.7364 17.2598 15.7289 17.2225H15.7364Z" fill="#6C45AA"/>
<path d="M13.3696 17.6562C13.3696 17.6562 13.3547 17.6264 13.3547 17.6114C13.392 17.6488 13.4293 17.6861 13.4667 17.7234C13.4368 17.701 13.4069 17.6786 13.3696 17.6562Z" fill="#6C45AA"/>
<path d="M12.9655 17.1181L12.9805 17.2376C12.973 17.2003 12.9655 17.1629 12.9655 17.1181Z" fill="#6C45AA"/>
<path d="M10.1883 18.5736L10.0688 18.4542C10.1136 18.4243 10.1435 18.5064 10.1883 18.5736Z" fill="#6C45AA"/>
<path d="M17.2661 16.133C17.2661 16.2076 17.2661 16.245 17.2437 16.2674C17.2287 16.1628 17.1839 16.0285 17.2661 16.133Z" fill="#6C45AA"/>
<path d="M12.2943 19.44C12.2943 19.44 12.2345 19.4027 12.2196 19.3728C12.2495 19.3877 12.2793 19.4027 12.2943 19.44Z" fill="#6C45AA"/>
<path d="M17.1552 16.3272C17.1552 16.3272 17.1552 16.2974 17.1552 16.2824C17.1926 16.2824 17.2299 16.2899 17.2523 16.2675C17.2672 16.3422 17.2523 16.4019 17.1627 16.3272H17.1552Z" fill="#6C45AA"/>
<path d="M6.74619 21.0756C6.74619 21.0756 6.74619 21.0906 6.74619 21.098C6.73126 21.0831 6.73873 21.0756 6.74619 21.0756Z" fill="#6C45AA"/>
<path d="M6.63464 23.1207C6.63464 23.1207 6.6645 23.1132 6.6869 23.1058C6.6869 23.1207 6.67197 23.1282 6.63464 23.1207Z" fill="#6C45AA"/>
<path d="M17.7744 15.1778C17.7744 15.1778 17.7445 15.1479 17.7221 15.118C17.7445 15.1479 17.7594 15.1703 17.7744 15.1778Z" fill="#6C45AA"/>
<path d="M16.3632 15.6484C16.3558 15.6186 16.3558 15.626 16.3632 15.6484V15.6484Z" fill="#6C45AA"/>
<path d="M18.0131 15.6999C18.0131 15.6999 18.0131 15.7447 18.0131 15.7596C18.0131 15.7447 18.0131 15.7298 18.0131 15.6999Z" fill="#6C45AA"/>
<path d="M18.0501 15.7685C18.0501 15.7685 18.0577 15.7455 18.0654 15.7378C18.0807 15.7608 18.0884 15.7761 18.0501 15.7685Z" fill="#6C45AA"/>
<path d="M17.9819 15.7983C17.9819 15.7983 18.0055 15.7749 18.0131 15.7596C18.0131 15.7749 18.0126 15.783 18.0202 15.783C18.0126 15.783 17.9973 15.783 17.9819 15.7983Z" fill="#6C45AA"/>
<path d="M8.87356 20.1565C8.87356 20.1565 8.87356 20.164 8.87356 20.1714C8.81383 20.1341 8.82877 20.1341 8.87356 20.1565Z" fill="#6C45AA"/>
<path d="M14.1974 16.2375H14.2058V16.2459L14.1974 16.2375Z" fill="#6C45AA"/>
<path d="M14.0484 16.1928C14.1977 16.3346 14.2052 16.3048 14.2052 16.245L14.4367 16.6482L14.0484 16.1853V16.1928Z" fill="#6C45AA"/>
<path d="M10.8082 18.3128L10.7858 18.156C10.5842 18.0066 10.5767 18.1112 10.517 17.9021C10.8082 18.3128 10.7709 17.7901 11.0621 18.2082L11.0397 18.0962C11.0397 18.0962 11.0098 18.0813 11.0023 18.0962C10.9426 17.8424 11.2637 18.365 11.3159 18.2381C11.3308 18.1858 11.3159 18.1037 11.2562 18.0738L11.398 18.1261C11.398 18.1261 11.3607 18.0365 11.3458 18.0589L11.4802 18.0141V17.9992C11.5324 18.0514 11.637 18.1336 11.6818 18.1634C11.6668 18.0813 11.637 18.1261 11.6071 18.0738L11.7415 18.1336C11.6967 18.0066 11.5698 17.9394 11.5399 17.9842C11.3159 17.5288 11.6668 18.0514 11.622 17.7229L11.525 17.708C11.4055 17.4466 11.51 17.4989 11.4727 17.3048C11.51 17.3944 11.5922 17.7677 11.734 17.8274C11.734 17.7826 11.749 17.7528 11.8386 17.8125C11.7415 17.6632 11.8012 17.6781 11.846 17.6557L11.7116 17.4616C11.8012 17.484 11.861 17.5885 11.9506 17.6557C11.9879 17.596 11.8983 17.4392 11.8236 17.2973C11.8908 17.2077 11.9282 17.581 12.0551 17.5512C12.0775 17.4242 12.182 17.4765 12.3463 17.5362C12.3463 17.4317 12.2567 17.4242 12.2343 17.3496L12.3836 17.4765C12.3836 17.4765 12.3538 17.4168 12.3388 17.3944C12.421 17.4317 12.4732 17.5885 12.5703 17.6034C12.7346 17.8125 12.4732 17.2002 12.7196 17.4018C12.6972 17.3346 12.63 17.2898 12.5852 17.2077C12.7943 17.3048 12.7495 17.2674 12.9809 17.4317L12.966 17.2525C13.0183 17.4392 13.1975 17.5661 13.3543 17.6706C13.3841 17.7528 13.414 17.8274 13.4215 17.8648L13.5857 17.9096C13.5783 17.8722 13.5185 17.805 13.4513 17.7378C13.4663 17.7528 13.4887 17.7602 13.5036 17.7752C13.4887 17.6781 13.3916 17.5736 13.2945 17.484C13.3095 17.5288 13.3244 17.581 13.3468 17.6258C13.2423 17.5213 13.1303 17.4018 13.0556 17.2824C13.078 17.3048 13.1004 17.3122 13.1228 17.3122C13.0929 17.2824 13.0705 17.26 13.0631 17.2376C13.0556 17.2152 13.0929 17.2525 13.1377 17.2898L13.0108 17.0584L13.078 17.1405L13.1079 16.924C13.3468 17.0882 13.638 17.3645 13.8396 17.357C13.6977 17.2152 13.6529 17.0957 13.5185 16.9091C13.6156 17.1405 13.3543 16.8941 13.3095 16.9837C13.3319 16.9389 13.2647 16.8493 13.2348 16.8269L13.4887 16.924C13.3767 16.7672 13.4364 16.7896 13.4289 16.7C13.6156 17.0285 13.6604 16.8419 13.7799 16.9016C13.7127 16.7971 13.6305 16.7 13.5857 16.7672C13.4961 16.4835 13.9217 17.0733 13.8545 16.8269C13.8396 16.8344 13.8396 16.8568 13.7948 16.8045C13.8919 16.8717 13.9292 16.7373 13.8471 16.6627H13.8321C13.9068 16.5656 14.1383 16.4611 14.3324 16.7075C14.31 16.6701 14.1009 16.4013 14.0636 16.3491L14.8476 17.1106C14.6758 16.8941 14.3769 16.3197 14.2052 16.245C14.2052 16.1928 14.2055 16.14 14.3175 16.1848C14.3175 16.2296 14.4966 16.5357 14.534 16.5432C14.4294 16.252 14.4892 16.3789 14.4145 16.1101C14.422 16.1773 14.6908 16.5133 14.7206 16.476C14.6758 16.4237 14.4892 16.1251 14.4444 16.0952L14.7804 16.3789C14.7132 16.3341 14.5788 16.0877 14.534 15.9757C14.5713 16.0504 14.6161 15.9085 14.6609 15.9309L14.6758 16.0429C14.7505 15.916 15.1164 16.4611 15.2134 16.364C15.1537 16.3043 14.8849 15.9459 14.9073 15.8637C15.0566 16.028 15.6017 16.6403 15.7884 16.7149L15.7361 16.6029L15.8929 16.6701C15.6614 16.4312 15.1537 15.9608 14.9372 15.7891C14.9222 15.6771 14.87 15.6621 14.9372 15.6248C14.8924 15.5128 14.8028 15.5053 14.7804 15.5128L14.8849 15.356C15.0193 15.5651 15.1388 15.4904 15.2508 15.6696L14.9446 15.5576C15.079 15.7667 15.4374 16.0877 15.5121 15.9832C15.4822 15.8861 15.2433 15.6248 15.1985 15.5576C15.2582 15.6173 15.3852 15.6323 15.3628 15.5725L15.2433 15.4904C15.2433 15.371 15.5196 15.6995 15.4598 15.4605C15.4748 15.4307 15.3478 15.147 15.4374 15.2664C15.5569 15.5277 16.0497 16.2669 16.1915 16.4312C16.1915 16.4088 16.1617 16.1176 16.1094 15.9832C16.0198 15.7741 15.751 15.58 15.6764 15.4008C15.7137 15.4531 15.7884 15.5128 15.8108 15.5277C15.8033 15.4605 15.6838 15.356 15.751 15.3486C15.9004 15.5501 15.8481 15.259 15.9004 15.5128C15.9974 15.5352 15.9302 15.4307 15.9974 15.4008C16.0721 15.5501 16.3633 15.8264 16.4603 15.8488C16.423 15.7965 16.3857 15.7219 16.3707 15.6845C16.4678 15.5949 16.4603 15.4605 16.5574 15.3859C16.535 15.3261 16.5425 15.2366 16.4603 15.1544C16.4977 15.1843 16.5649 15.244 16.5947 15.2291C16.535 15.0051 16.5051 15.244 16.4006 14.9976C16.4902 15.1171 16.5947 15.1096 16.6918 15.1619C16.8038 15.3635 16.6171 15.2664 16.5201 15.2216C16.6993 15.4829 16.9606 15.7069 17.1473 15.7517C17.2742 15.7592 17.0726 15.5576 17.1099 15.5875C17.2369 15.4381 17.5504 15.9533 17.5579 15.6771C17.4982 15.4755 17.3339 15.3486 17.2667 15.2142C17.1547 15.1992 17.2369 15.3933 17.1846 15.4157V15.2963C17.1323 15.259 17.0577 15.244 17.0651 15.3112C17.0054 15.132 17.3115 15.1022 17.3414 14.8856C17.4011 14.923 17.4758 14.9603 17.5057 15.035H17.4534C17.5057 15.1992 17.6475 15.1768 17.6475 15.2664C17.7595 15.3262 17.9238 15.4381 17.9387 15.3112L17.8267 15.1096C17.864 15.1694 17.8566 15.2515 17.7968 15.2142C17.8864 15.2814 17.7371 14.8856 17.9387 15.1096L17.976 15.2739C18.0955 15.3336 18.2896 15.4904 18.3195 15.3859C18.4166 15.5949 18.2896 15.3709 18.3942 15.6248C18.2523 15.3261 18.2374 15.7443 18.1104 15.4157C18.2374 15.6995 18.103 15.58 18.1851 15.8339C18.1478 15.7667 18.1254 15.6995 18.0955 15.7667C18.0806 15.7517 18.0582 15.7293 18.0432 15.7219C18.0432 15.7219 18.0432 15.7219 18.0432 15.7144C18.0358 15.7069 18.0358 15.7069 18.0432 15.7144C18.0432 15.6771 18.0283 15.6397 18.0059 15.6024C17.879 15.4755 17.7968 15.5427 17.7222 15.4829C17.7072 15.5352 17.7819 15.5427 17.8118 15.6248L17.6923 15.5427C17.7819 15.6845 17.767 15.8339 17.8939 15.8637L17.8267 15.916C17.8416 16.0205 17.8043 16.0877 17.7296 16.0504C17.7147 16.1027 17.543 15.9533 17.6475 16.0429L17.4833 16.028L17.5057 16.0653C17.4161 16.1549 17.1323 15.9832 17.1846 16.3117C17.1249 16.3043 17.0577 16.2819 17.0278 16.364L17.095 16.4909C17.0203 16.4835 17.0427 16.7 16.9382 16.588C17.1099 16.9464 16.7665 16.8045 16.7217 16.9165L16.6097 16.7597C16.5574 16.8045 16.4753 16.7971 16.3707 16.7821L16.2811 16.6403C16.1467 16.5656 16.199 16.8419 16.0945 16.8867C16.1393 16.9389 16.1542 16.9091 16.1467 16.8643C16.2513 17.2525 15.7585 16.7971 15.8108 17.0882C15.751 17.0584 15.7436 17.0882 15.751 17.133C15.751 17.133 15.751 17.133 15.766 17.133C15.766 17.133 15.766 17.133 15.7585 17.1405C15.7585 17.1704 15.7734 17.2077 15.7734 17.2376C15.7585 17.2002 15.751 17.1629 15.751 17.1405C15.7286 17.148 15.6913 17.1554 15.639 17.1405L15.7286 17.2973C15.7286 17.2973 15.7286 17.2973 15.7212 17.2973C15.7286 17.372 15.654 17.245 15.5868 17.1181C15.5569 17.1032 15.5196 17.0808 15.4897 17.0509C15.6316 17.3048 15.3628 17.021 15.5046 17.2973C15.4001 17.1853 15.2956 17.2973 15.1014 17.0509C15.1238 17.0882 15.1238 17.1106 15.1462 17.1032C15.1313 17.1554 15.1238 17.2077 15.0417 17.1554L15.1537 17.357L14.9148 17.148C14.9521 17.2898 14.9745 17.372 15.1164 17.4914C14.8625 17.3346 14.9745 17.4616 14.743 17.2973L14.8326 17.4168C14.8326 17.4168 14.6385 17.3048 14.6908 17.4168C14.7804 17.693 14.3697 17.6781 14.3399 18.0216C14.1308 17.6408 14.3697 18.2381 14.1681 17.9618C14.2129 18.0514 14.2204 18.1186 14.3025 18.1709C14.1532 18.1485 14.2577 18.4024 14.0337 18.2082C14.0785 18.2978 14.1383 18.3202 14.1607 18.38C14.1383 18.365 14.0785 18.3277 14.1084 18.38C14.1308 18.4397 14.1681 18.4397 14.2129 18.4696C14.1084 18.5218 13.9217 18.2605 13.75 18.0216C13.7799 18.1709 13.75 18.1709 13.6007 18.029C13.638 18.1186 13.6679 18.2232 13.7425 18.2157C13.7201 18.253 13.6231 18.4696 13.4887 18.2754C13.5111 18.3352 13.4513 18.3202 13.4289 18.3053C13.3617 18.365 13.3692 18.3874 13.2871 18.4173V18.3725C13.0929 18.156 13.19 18.3576 13.1153 18.3725L13.1303 18.3949C13.1153 18.6562 13.0183 18.3501 13.0183 18.6338L12.9212 18.477C12.6898 18.1634 12.9361 18.7458 12.7719 18.6711L12.742 18.5666C12.63 18.4845 12.9212 19.0818 12.9063 19.149C12.9137 19.1863 12.9511 19.1863 12.9735 19.1938C12.9959 19.4551 12.8316 19.0071 12.7196 19.0221C12.7794 19.1341 12.9212 19.2759 12.8764 19.3357C12.9063 19.4402 12.4882 19.1042 12.5479 19.3506C12.5106 19.261 12.4732 19.1639 12.3911 19.1341C12.3164 19.1415 12.4434 19.5447 12.2194 19.3282C12.2268 19.3581 12.2418 19.3805 12.2492 19.3954C12.1596 19.3581 12.0327 19.3805 11.9132 19.261C12.2194 19.7986 11.4727 19.1938 11.7938 19.6717L11.6444 19.7389L11.6818 19.7837C11.6146 19.8733 11.51 19.7837 11.398 19.6866C11.398 19.7314 11.4428 19.7687 11.4652 19.7911C11.4055 19.9703 11.3756 19.9629 11.1143 19.7911L11.2039 19.9554C11.1143 19.8882 11.1815 20.3212 10.9351 20.2242C10.9501 20.2391 10.9725 20.269 10.9949 20.2839C10.7335 20.2018 10.9501 20.9335 10.517 20.4108L10.3303 20.3362C10.4199 20.2092 10.1511 20.1047 10.1362 19.9778C10.069 19.9778 10.1362 20.2316 10.2034 20.2167V20.1794C10.4125 20.4556 10.1138 20.381 10.2557 20.5751C10.0093 20.717 9.88981 21.038 9.68075 21.1948L9.55382 20.9484L9.48662 21.0156C9.50155 21.0828 9.57622 21.2098 9.62848 21.165C9.68822 21.3143 9.46422 21.1202 9.42689 21.0679C9.38209 21.2322 9.65088 21.3068 9.62102 21.3292L9.56129 21.3442V21.3143C9.45675 21.2471 9.38209 21.15 9.32982 21.2098C9.32236 21.2844 9.40449 21.3666 9.38955 21.3815C9.40449 21.3964 9.39702 21.4114 9.36716 21.4039L9.28502 21.486L9.20289 21.2844C9.09836 21.2247 9.12076 21.3516 9.0237 21.1202C9.17303 21.4786 8.73997 21.4786 8.76237 21.598C8.61304 21.5084 8.55331 21.5532 8.49357 21.613C8.49357 21.5607 8.35918 21.3516 8.31438 21.4263C8.62051 21.822 8.31438 21.6876 8.47117 22.0161C8.38158 21.7847 8.25465 22.0908 8.14265 21.7623C8.11278 21.8295 8.24718 21.9191 8.26958 22.046C8.03812 21.9713 8.06052 22.3372 7.87385 22.3895C7.83652 22.3372 7.80665 22.2327 7.71706 22.1804L7.82159 22.5089C7.76932 22.5089 7.58266 22.2177 7.64986 22.4417C7.62746 22.3895 7.59013 22.3148 7.56026 22.3073C7.43333 22.7777 6.79121 22.5089 6.82108 23.2183C6.79121 23.0839 6.75388 23.0913 6.72401 23.1137C6.72401 23.0764 6.63441 22.9793 6.58961 22.9047V23.1959C6.44028 23.0092 6.44775 23.278 6.30589 23.0913H6.37309C6.16402 22.9047 6.10429 22.5313 5.89523 22.2401C6.13416 22.4641 5.7907 21.7399 6.14909 22.0535C6.12669 21.9788 6.06696 21.9713 6.02963 21.8967C6.14162 22.0087 6.18642 22.0087 6.20882 21.9191L6.17896 21.8892C6.35815 21.8145 6.34322 21.6428 6.46268 21.4338L6.54482 21.5906C6.56721 21.5458 6.54482 21.4935 6.54482 21.4412C6.73894 21.6354 6.44775 21.5234 6.64935 21.7473C6.50002 21.4114 6.91814 21.5607 6.72401 21.1948C6.78374 21.15 6.82108 21.374 6.88081 21.3367L6.83601 21.2322L6.93307 21.3367C6.95547 21.2919 6.90321 21.165 6.85094 21.0828C6.85094 21.0978 6.80614 21.0828 6.79121 21.0828C6.76881 20.941 6.95547 21.0231 6.94801 20.9783L6.92561 21.0754C7.14214 21.053 7.2616 20.7991 7.54533 20.8812L7.58266 20.9559C7.79172 21.0007 7.62746 20.814 7.79919 20.7842L7.78426 20.7692C7.85892 20.8215 7.91865 20.829 7.94852 20.7991C7.85892 20.7394 7.90372 20.5975 7.79919 20.5378C8.02318 20.59 7.93359 20.605 8.19491 20.7991L8.13518 20.6722C8.23225 20.7543 8.27705 20.8066 8.35918 20.7916C8.23971 20.7319 8.28451 20.59 8.13518 20.5004C8.10532 20.157 8.50851 20.6124 8.32185 20.2092C8.59811 20.4855 8.32184 20.4631 8.40398 20.5079C8.44131 20.6348 8.61304 20.7095 8.63544 20.6498C8.67277 20.6124 8.43384 20.1943 8.54584 20.1271C8.53837 20.1346 8.51597 20.1122 8.50851 20.1271C8.49358 20.0151 8.6653 20.1794 8.62797 20.0151C8.78477 20.1868 8.6877 19.9629 8.85943 20.2018L8.71757 20.2167C8.81463 20.2391 9.0685 20.493 9.0685 20.2914C9.03116 20.2466 8.9565 20.2018 8.9117 20.1794C8.8893 20.0898 8.99383 20.1943 8.9789 20.0972C8.80717 19.8583 8.8221 20.1271 8.63544 19.9853C8.59811 19.8583 8.87437 20.0823 8.65784 19.8359C8.9341 20.142 8.73997 19.7165 8.98636 19.9255L8.88183 19.7837C8.88183 19.7837 8.9789 19.8509 9.0013 19.8359L8.82957 19.6717C9.0013 19.7911 8.85197 19.4477 8.97143 19.4999C8.8445 19.5746 9.06103 19.6941 9.08343 19.8359C9.36716 19.933 8.9117 19.3954 9.12823 19.3506C9.0909 19.3506 9.10583 19.4999 9.18049 19.5373C9.19543 19.485 9.19543 19.4029 9.16556 19.3133C9.29996 19.2685 9.24769 19.4775 9.35969 19.5373C9.27756 19.3357 9.46422 19.5746 9.55382 19.597L9.45675 19.4477C9.51649 19.2685 9.70315 19.7389 9.73302 19.5447L9.54635 19.373L9.64342 19.3879L9.51649 19.2237C9.66582 19.3058 9.66582 19.261 9.69568 19.1714C9.75542 19.2834 9.88981 19.4327 9.94954 19.4029C9.92714 19.2909 9.83008 19.2759 9.92714 19.2461C9.84501 19.1639 9.74795 19.0594 9.80768 19.2237C9.77035 19.1789 9.72555 19.1415 9.68822 19.0967C9.65835 18.9698 9.77781 19.0071 9.80768 18.9847C9.80768 18.9997 9.79275 19.0146 9.80021 19.037L10.0541 19.1639C10.0317 19.0967 9.98688 19.0594 9.94208 19.0221C9.97941 19.0221 10.0391 19.0818 10.0839 19.0669C9.99434 18.9549 9.91221 18.8279 9.82261 18.7981L10.0242 18.8578C9.99434 18.7981 9.97941 18.6711 9.93461 18.6413C9.94954 18.5293 10.2407 18.7757 10.2631 18.6263C10.2855 18.6487 10.3079 18.6637 10.3378 18.6711C10.3975 18.589 10.3602 18.3949 10.5618 18.5069L10.4647 18.253C10.5693 18.253 10.5842 18.5741 10.7559 18.5741C10.8829 18.589 10.6589 18.365 10.6514 18.2904C10.7634 18.3725 10.9874 18.5442 10.9426 18.3202C10.8903 18.2978 10.8903 18.3426 10.8605 18.3426L10.8082 18.3128ZM11.7415 17.82C11.7042 17.7976 11.6071 17.7229 11.6519 17.82C11.7863 17.9768 11.749 17.8872 11.7415 17.82ZM13.302 17.2824C13.2572 17.245 13.2497 17.2824 13.2721 17.3496C13.2945 17.3496 13.3095 17.3346 13.302 17.2824ZM17.6848 15.8339C17.6848 15.8861 17.6848 15.916 17.6848 15.8339V15.8339ZM17.7222 15.7144C17.7222 15.7144 17.7595 15.7517 17.767 15.7741C17.7371 15.7368 17.7147 15.7517 17.7072 15.7741C17.6848 15.7293 17.6774 15.6995 17.7222 15.7144ZM9.31489 21.3218L9.29996 21.2695C9.24022 21.2471 9.27009 21.2844 9.31489 21.3218Z" fill="#6C45AA"/>
<path d="M13.0187 17.1861C13.0187 17.1861 13.0486 17.2459 13.0635 17.2683C13.0411 17.2459 13.0187 17.216 13.0187 17.1861Z" fill="#6C45AA"/>
<path d="M10.2104 18.5967C10.2029 18.5893 10.1957 18.5811 10.1883 18.5736L10.2104 18.5967Z" fill="#6C45AA"/>
<path d="M15.6539 15.2667C15.6539 15.2667 15.6613 15.3339 15.6763 15.3637C15.6539 15.3264 15.6389 15.2891 15.6539 15.2667Z" fill="#6C45AA"/>
<path d="M18.2298 15.6935C18.2298 15.6935 18.2448 15.6412 18.2448 15.6114C18.2672 15.6487 18.2895 15.7009 18.3119 15.6935H18.2298Z" fill="#6C45AA"/>
<path d="M18.1104 14.4757C18.1104 14.4757 18.1254 14.4682 18.1478 14.4757L18.1926 14.5429C18.1926 14.5429 18.0955 14.5205 18.1104 14.4682V14.4757Z" fill="#6C45AA"/>
<path d="M18.0136 15.1624C17.9315 15.0355 17.9912 15.0579 18.0435 15.0579C18.1704 15.2296 18.0957 15.1923 18.0211 15.1624H18.0136Z" fill="#6C45AA"/>
<path d="M18.051 15.0582C18.051 15.0582 18.0808 15.0582 18.0883 15.0358C18.1406 15.103 18.0883 15.0582 18.051 15.0582Z" fill="#6C45AA"/>
<path d="M17.8714 15.7302C17.8714 15.6854 17.9909 15.887 17.9685 15.8272C18.0954 15.9766 17.7296 15.7078 17.8714 15.7302Z" fill="#6C45AA"/>
<path d="M17.7595 14.7291L17.8566 14.8934L17.7521 14.7814L17.7595 14.7291Z" fill="#6C45AA"/>
<path d="M17.565 15.0278L17.5948 14.9457C17.5948 14.9457 17.6322 14.983 17.6471 14.9905C17.6172 15.0204 17.6023 15.0726 17.5724 15.0278H17.565Z" fill="#6C45AA"/>
<path d="M17.6395 14.9904C17.6395 14.9904 17.6769 14.968 17.6993 14.9904C17.6918 14.9904 17.6619 15.0054 17.6395 14.9904Z" fill="#6C45AA"/>
<path d="M17.6546 14.737L17.6621 14.7818L17.6248 14.8191L17.6546 14.737Z" fill="#6C45AA"/>
<path d="M16.8931 15.4678C16.8483 15.4155 16.8483 15.3707 16.8856 15.3782C16.923 15.408 16.9603 15.408 16.9901 15.4678H16.8931Z" fill="#6C45AA"/>
<path d="M16.8778 14.9153C16.8778 14.9601 16.9077 14.9974 16.9301 15.0497L16.7957 14.8556L16.8778 14.9079V14.9153Z" fill="#6C45AA"/>
<path d="M16.6695 14.99C16.6247 14.9377 16.4754 14.9004 16.565 14.8556C16.6098 14.9079 16.6994 14.9079 16.6695 14.99Z" fill="#6C45AA"/>
<path d="M15.9152 15.856L15.9301 15.8485L16.1466 16.1696L15.9152 15.856Z" fill="#6C45AA"/>
<path d="M14.5936 15.6555C14.616 15.5286 14.743 15.8347 14.743 15.7003C14.8102 15.7601 14.743 15.8123 14.8027 15.8646C14.7056 15.8123 14.7131 15.8721 14.5936 15.6555Z" fill="#6C45AA"/>
<path d="M14.8105 15.8643C14.8105 15.8643 14.8404 15.8793 14.8628 15.8942C14.8404 15.8867 14.818 15.8718 14.8105 15.8643Z" fill="#6C45AA"/>
<path d="M6.58255 23.406L6.57508 23.5031L6.53775 23.3761L6.58255 23.406Z" fill="#6C45AA"/>
<path d="M6.33625 23.2338L6.46318 23.4429L6.31385 23.2786C6.31385 23.2786 6.36611 23.2786 6.33625 23.2338Z" fill="#6C45AA"/>
<path d="M11.5993 17.3284L11.6366 17.3732C11.6665 17.433 11.659 17.4404 11.6366 17.4628L11.5993 17.3284Z" fill="#6C45AA"/>
<path d="M11.0692 17.9019L11.0766 17.8945L11.1812 18.0886L11.0692 17.9019Z" fill="#6C45AA"/>
<path d="M10.3828 18.0291C10.3828 18.0291 10.45 18.0291 10.4649 18.0067C10.3977 18.0067 10.5247 18.2606 10.3828 18.0291Z" fill="#6C45AA"/>
<path d="M28.2348 31.2377C28.2348 31.2377 28.2646 31.3796 28.2721 31.4095C28.2273 31.3796 28.2348 31.2004 28.2348 31.2377Z" fill="#6C45AA"/>
<path d="M27.8093 30.9175L27.8167 30.9772L27.7495 30.8279L27.8093 30.9175Z" fill="#6C45AA"/>
<path d="M27.4356 30.9548C27.4505 30.686 27.5775 30.9847 27.6372 30.8876V30.8279L27.6895 31.0369C27.6073 31.0071 27.4879 30.8801 27.4356 30.9548Z" fill="#6C45AA"/>
<path d="M27.2802 31.543C27.2802 31.4385 27.228 31.4609 27.325 31.5057C27.325 31.5206 27.325 31.5206 27.325 31.5356C27.3175 31.5356 27.3026 31.5356 27.2877 31.543H27.2802Z" fill="#6C45AA"/>
<path d="M27.3168 31.5362C27.3019 31.6258 27.3542 31.5362 27.3168 31.5362V31.5362Z" fill="#6C45AA"/>
<path d="M27.1301 31.4919L27.1898 31.5815C27.1898 31.6413 27.1376 31.6637 27.16 31.701C27.1002 31.6562 27.1077 31.5965 27.1301 31.4919Z" fill="#6C45AA"/>
<path d="M27.0698 31.3054L27.0997 31.3427C27.0997 31.3427 27.0922 31.38 27.0698 31.3054Z" fill="#6C45AA"/>
<path d="M27.1598 31.4166L27.0926 31.3419C27.0926 31.2971 27.0926 31.215 27.1225 31.3718C27.1075 31.2971 27.1225 31.3718 27.1598 31.4241V31.4166Z" fill="#6C45AA"/>
<path d="M27.1905 31.3719C27.2129 31.3121 27.2502 31.2748 27.1905 31.1852C27.295 31.2151 27.295 31.4017 27.1905 31.3719Z" fill="#6C45AA"/>
<path d="M27.3911 30.6776L27.4209 30.5954L27.4657 30.685C27.4433 30.6402 27.3985 30.7672 27.3911 30.685V30.6776Z" fill="#6C45AA"/>
<path d="M26.8241 31.6558C26.8166 31.5961 26.8241 31.5065 26.8241 31.4319L26.8689 31.4916C26.8539 31.5289 26.8166 31.5737 26.8241 31.6558Z" fill="#6C45AA"/>
<path d="M26.8241 31.4319L26.7566 31.3415C26.8089 31.3265 26.8241 31.3721 26.8241 31.4319Z" fill="#6C45AA"/>
<path d="M27.0336 31.0065L27.1456 31.2007L27.0112 31.0065H27.0336Z" fill="#6C45AA"/>
<path d="M26.6003 31.6856L26.6451 31.8126L26.5705 31.6184L26.6003 31.6856Z" fill="#6C45AA"/>
<path d="M26.4579 31.6706C26.4877 31.7751 26.4429 31.8573 26.4728 31.9245C26.428 31.9095 26.3907 31.8199 26.3533 31.7378C26.3907 31.7826 26.4205 31.7677 26.4579 31.6706Z" fill="#6C45AA"/>
<path d="M26.2866 31.6184C26.2866 31.6184 26.3239 31.6856 26.3463 31.7379C26.3239 31.7155 26.309 31.6782 26.2866 31.6184Z" fill="#6C45AA"/>
<path d="M26.6594 31.3797C26.6594 31.3797 26.6594 31.5066 26.6295 31.5439V31.3797C26.6295 31.3797 26.6519 31.3797 26.6594 31.3797Z" fill="#6C45AA"/>
<path d="M26.6372 31.3718C26.6372 31.3718 26.5999 31.3867 26.5924 31.3867C26.5924 31.3867 26.6148 31.3792 26.6372 31.3718Z" fill="#6C45AA"/>
<path d="M26.6673 31.372C26.6673 31.3491 26.6673 31.3567 26.6673 31.372V31.372Z" fill="#6C45AA"/>
<path d="M26.8918 31.162C26.847 31.0724 26.7723 30.9903 26.8246 30.8484C26.8619 30.953 26.8246 31.0351 26.8918 31.162Z" fill="#6C45AA"/>
<path d="M26.6748 31.1699L26.7346 31.1251C26.7346 31.1699 26.7346 31.2296 26.7495 31.2744L26.6748 31.1699Z" fill="#6C45AA"/>
<path d="M26.6453 31.1251L26.6748 31.1699L26.6603 31.1849L26.6453 31.1251Z" fill="#6C45AA"/>
<path d="M26.3759 31.4615C26.3461 31.3943 26.3162 31.3943 26.2789 31.3793C26.3087 31.342 26.3461 31.3271 26.3834 31.3196C26.3909 31.3719 26.4133 31.454 26.3834 31.454L26.3759 31.4615Z" fill="#6C45AA"/>
<path d="M26.5028 31.4023C26.5028 31.4023 26.5028 31.4023 26.5028 31.3948C26.5028 31.3799 26.5028 31.3799 26.5028 31.4023Z" fill="#6C45AA"/>
<path d="M25.9653 31.4103C25.9653 31.4103 25.9653 31.3873 25.9653 31.3797C25.9653 31.3873 25.9653 31.395 25.9653 31.4103Z" fill="#6C45AA"/>
<path d="M26.3909 31.2962C26.3909 31.2962 26.4357 31.2962 26.4507 31.3485C26.4283 31.3336 26.4059 31.3261 26.3835 31.3261C26.3835 31.3037 26.3835 31.2888 26.3835 31.2962H26.3909Z" fill="#6C45AA"/>
<path d="M26.1896 31.5515C26.1896 31.5515 26.212 31.4843 26.2269 31.4619C26.2195 31.5142 26.1971 31.5963 26.1896 31.5515Z" fill="#6C45AA"/>
<path d="M26.4957 31.4382C26.4957 31.4531 26.4957 31.4755 26.4957 31.4382V31.4382Z" fill="#6C45AA"/>
<path d="M26.4957 31.4382C26.4957 31.4382 26.4659 31.3791 26.4509 31.3417C26.4659 31.3567 26.4808 31.3716 26.4957 31.394C26.4957 31.4089 26.4957 31.4232 26.4957 31.4382Z" fill="#6C45AA"/>
<path d="M25.7785 30.401C25.7934 30.5503 25.8756 30.6772 25.9204 30.513C25.9876 30.6175 25.9951 31.1034 25.9653 31.3797C25.9653 31.3125 25.9502 31.2522 25.883 31.1775C25.898 31.0954 26.0025 30.9759 25.9353 30.849C25.8457 30.7818 25.8756 30.9087 25.8457 30.9908C25.8606 30.8042 25.7188 30.7295 25.7113 30.4607L25.786 30.5503C25.786 30.5055 25.7561 30.4458 25.771 30.401H25.7785Z" fill="#6C45AA"/>
<path d="M26.0769 31.3575L26.1068 31.3725C26.1068 31.3725 26.062 31.4621 26.0396 31.5815C25.9948 31.5143 25.9798 31.4621 25.9724 31.4098L26.0918 31.3799V31.3575H26.0769Z" fill="#6C45AA"/>
<path d="M26.219 31.3643C26.1892 31.2075 26.122 31.1403 26.1444 30.9686C26.219 30.9686 26.2041 31.0955 26.2564 31.1627C26.1369 31.1328 26.3012 31.2523 26.219 31.3494C26.2414 31.3718 26.2638 31.3792 26.2862 31.3867C26.2638 31.4091 26.2489 31.4315 26.234 31.4688C26.234 31.4688 26.234 31.4688 26.234 31.4614C26.234 31.439 26.234 31.4315 26.234 31.439C26.234 31.4166 26.234 31.3942 26.2265 31.3792C26.1966 31.4166 26.2265 31.424 26.234 31.439C26.234 31.4464 26.234 31.4539 26.234 31.4614L26.107 31.3867C26.107 31.3867 26.1593 31.3643 26.219 31.3792V31.3643Z" fill="#6C45AA"/>
<path d="M26.7345 30.5053C26.7345 30.5053 26.7345 30.5283 26.7345 30.5436C26.7268 30.5206 26.7192 30.513 26.7345 30.5053Z" fill="#6C45AA"/>
<path d="M26.6971 30.6109C26.6971 30.6109 26.7195 30.693 26.7494 30.6781C26.7718 30.6258 26.7494 30.6034 26.7419 30.5512C26.7643 30.5885 26.8091 30.6632 26.7643 30.7453V30.7229C26.7121 30.7826 26.6673 30.9842 26.6747 31.0066C26.6747 30.8648 26.6747 30.7602 26.6971 30.6109Z" fill="#6C45AA"/>
<path d="M26.4507 30.9468L26.3461 30.8796L26.3835 30.7377V30.8199C26.4432 30.7825 26.4357 30.8871 26.4507 30.9468Z" fill="#6C45AA"/>
<path d="M25.9583 31.4911L25.9882 31.6629L25.9061 31.4239L25.9583 31.4911Z" fill="#6C45AA"/>
<path d="M25.831 31.484L25.8459 31.6259L25.8086 31.5438L25.831 31.484Z" fill="#6C45AA"/>
<path d="M18.4835 30.2828L18.4529 30.2444C18.4529 30.2444 18.4758 30.2674 18.4835 30.2828Z" fill="#6C45AA"/>
<path d="M18.6931 30.2523L18.708 30.327C18.6931 30.2897 18.6856 30.2598 18.6931 30.2523Z" fill="#6C45AA"/>
<path d="M22.7027 31.737C22.6728 31.8789 22.6429 32.0954 22.6355 31.9311V31.7669C22.6355 31.7669 22.6877 31.7669 22.7027 31.737Z" fill="#6C45AA"/>
<path d="M20.4772 30.9608C20.4772 30.9608 20.4772 30.9309 20.4846 30.9085C20.4996 30.9608 20.5145 31.013 20.5294 31.0578C20.5145 31.028 20.4996 30.9906 20.4772 30.9533V30.9608Z" fill="#6C45AA"/>
<path d="M20.3879 30.2966L20.3431 30.4086C20.3506 30.3713 20.3655 30.334 20.3879 30.2966Z" fill="#6C45AA"/>
<path d="M17.3261 30.2079L17.2813 30.0436C17.3336 30.0436 17.3187 30.1258 17.3261 30.2079Z" fill="#6C45AA"/>
<path d="M24.5162 31.5359C24.4863 31.6031 24.4565 31.633 24.4341 31.6405C24.4714 31.5434 24.4938 31.4015 24.5162 31.5359Z" fill="#6C45AA"/>
<path d="M18.7151 31.9843C18.7151 31.9843 18.6853 31.9245 18.6853 31.8872C18.7077 31.9096 18.7151 31.9469 18.7151 31.9843Z" fill="#6C45AA"/>
<path d="M24.3302 31.6478C24.3302 31.6478 24.3377 31.6254 24.3452 31.6105C24.375 31.6329 24.4042 31.6554 24.4341 31.6405C24.4042 31.7151 24.375 31.7598 24.3302 31.6478Z" fill="#6C45AA"/>
<path d="M13.2129 30.6998C13.2129 30.6998 13.2129 30.7147 13.2054 30.7222C13.2054 30.6998 13.2054 30.6998 13.2129 30.6998Z" fill="#6C45AA"/>
<path d="M12.1527 32.4311C12.1527 32.4311 12.1825 32.4386 12.2049 32.4386C12.1975 32.4535 12.1825 32.4535 12.1527 32.4311Z" fill="#6C45AA"/>
<path d="M25.3977 30.9468C25.3977 30.9468 25.3827 30.9095 25.3827 30.8721C25.3827 30.9095 25.3977 30.9319 25.3977 30.9468Z" fill="#6C45AA"/>
<path d="M23.9786 30.6705C23.9786 30.6406 23.9786 30.6481 23.9786 30.6705V30.6705Z" fill="#6C45AA"/>
<path d="M25.3605 31.522C25.3605 31.522 25.3381 31.5593 25.3306 31.5742C25.3306 31.5593 25.3456 31.5444 25.3605 31.522Z" fill="#6C45AA"/>
<path d="M25.3596 31.5958C25.3596 31.5958 25.375 31.5805 25.3826 31.5805C25.3826 31.6111 25.3826 31.6264 25.3596 31.5958Z" fill="#6C45AA"/>
<path d="M25.2857 31.5886C25.2857 31.5886 25.3155 31.5812 25.3305 31.5662C25.3305 31.5812 25.3305 31.5886 25.3305 31.5886C25.323 31.5886 25.3081 31.5886 25.2931 31.5886H25.2857Z" fill="#6C45AA"/>
<path d="M15.4596 30.9387C15.4596 30.9387 15.4596 30.9461 15.4596 30.9536C15.4298 30.8864 15.4372 30.9013 15.4596 30.9387Z" fill="#6C45AA"/>
<path d="M21.8507 30.1243H21.8591L21.8507 30.1327V30.1243Z" fill="#6C45AA"/>
<path d="M21.7467 30.0136C21.8064 30.2077 21.8288 30.1853 21.8512 30.1405V30.6109L21.7467 30.0211V30.0136Z" fill="#6C45AA"/>
<path d="M17.9839 30.2749L18.0362 30.1255C17.9317 29.8941 17.8794 29.9837 17.9242 29.7746C17.9765 30.2823 18.193 29.8045 18.2453 30.3047L18.2826 30.1927C18.2826 30.1927 18.2677 30.1703 18.2527 30.1778C18.3199 29.9314 18.3498 30.5362 18.4543 30.454C18.4916 30.4092 18.514 30.3346 18.4767 30.2823L18.5738 30.4018C18.5738 30.4018 18.5812 30.3047 18.5588 30.3122L18.6932 30.3421V30.3271C18.7156 30.4018 18.7679 30.5212 18.7978 30.5735C18.8276 30.4988 18.7754 30.5212 18.7828 30.4615L18.865 30.581C18.8874 30.4466 18.8127 30.3271 18.7604 30.3495C18.7828 29.8418 18.8351 30.469 18.9546 30.1629L18.8799 30.1031C18.9023 29.8119 18.962 29.909 19.0292 29.7298C19.0218 29.8269 18.9098 30.1927 18.9994 30.3122C19.0218 30.2749 19.0442 30.2525 19.0964 30.3495C19.0815 30.1703 19.1263 30.2077 19.1786 30.2151L19.1562 29.9762C19.2159 30.0434 19.2234 30.1629 19.2682 30.2674C19.3279 30.2375 19.3279 30.0509 19.3279 29.8941C19.425 29.8493 19.2831 30.1927 19.41 30.2301C19.4847 30.133 19.5519 30.2301 19.6714 30.357C19.7236 30.2674 19.649 30.2151 19.6639 30.1405L19.7311 30.3271C19.7311 30.3271 19.7311 30.2599 19.7311 30.2375C19.7834 30.3047 19.7535 30.4764 19.8282 30.5362C19.873 30.7975 19.9402 30.1405 20.0522 30.4316C20.0671 30.3645 20.0298 30.2898 20.0298 30.1927C20.1641 30.3794 20.1417 30.3271 20.2612 30.581L20.3284 30.4167C20.2836 30.6034 20.3807 30.805 20.4628 30.9692C20.4479 31.0588 20.4404 31.1335 20.4255 31.1708L20.5449 31.2903C20.5524 31.253 20.5375 31.1708 20.5076 31.0738C20.5151 31.0962 20.5225 31.1111 20.53 31.126C20.5599 31.0364 20.53 30.902 20.4927 30.7676C20.4852 30.8124 20.4777 30.8647 20.4628 30.917C20.4255 30.7751 20.3881 30.6183 20.3807 30.4764C20.3881 30.5063 20.4031 30.5287 20.4255 30.5362C20.418 30.4988 20.4105 30.4615 20.4105 30.4391C20.4105 30.4167 20.4255 30.469 20.4479 30.5212V30.2525L20.4628 30.357L20.5897 30.1778C20.7167 30.4391 20.8361 30.8199 21.0079 30.917C20.9481 30.7228 20.9705 30.6034 20.9481 30.3719C20.9257 30.6183 20.8137 30.2823 20.7316 30.3346C20.7764 30.3047 20.754 30.1927 20.7391 30.1554L20.9108 30.3644C20.8884 30.1778 20.9332 30.2226 20.9631 30.1405C20.9631 30.5138 21.0975 30.3794 21.1647 30.4914C21.1647 30.3645 21.1348 30.2375 21.0601 30.2749C21.1199 29.9837 21.202 30.7004 21.2617 30.4615C21.2468 30.4615 21.2319 30.4764 21.2244 30.4167C21.2767 30.5212 21.3737 30.4242 21.3364 30.3197H21.3215C21.4409 30.2674 21.6873 30.2823 21.7321 30.5959C21.7321 30.5511 21.6798 30.2151 21.6724 30.1554L21.9785 31.2007C21.9337 30.9319 21.9561 30.2749 21.8366 30.133C21.859 30.0882 21.8964 30.0434 21.9636 30.133C21.9486 30.1703 21.9486 30.5287 21.9785 30.5511C22.0233 30.245 22.0158 30.3869 22.083 30.1181C22.0606 30.1778 22.1278 30.6034 22.1726 30.581C22.1577 30.5212 22.1428 30.1629 22.1204 30.1181L22.2697 30.5287C22.2324 30.454 22.2324 30.1778 22.2473 30.0509C22.2473 30.133 22.3444 30.0359 22.3817 30.0733L22.3444 30.1778C22.4713 30.1031 22.5236 30.7527 22.6505 30.7228C22.6281 30.6407 22.5684 30.1927 22.6281 30.133C22.6804 30.3421 22.8521 31.1484 22.979 31.3052L22.994 31.1783L23.091 31.3127C23.0089 30.9916 22.7998 30.3271 22.6878 30.0733C22.7252 29.9687 22.6878 29.9239 22.7625 29.9314C22.7774 29.8119 22.7102 29.7597 22.6878 29.7522L22.8521 29.6626C22.867 29.9165 23.0014 29.9015 23.0164 30.1106L22.8073 29.8642C22.8222 30.1181 22.9716 30.566 23.091 30.5138C23.1134 30.4092 23.0313 30.0733 23.0238 29.9837C23.0462 30.0658 23.1508 30.1405 23.1582 30.0733L23.0985 29.9463C23.1582 29.8493 23.2329 30.2674 23.2926 30.021C23.3225 30.0061 23.3449 29.6925 23.3673 29.8418C23.3449 30.133 23.4121 31.014 23.4643 31.2231C23.4718 31.2007 23.5838 30.9394 23.6062 30.7975C23.6361 30.5735 23.4942 30.2674 23.5166 30.0733C23.5241 30.1405 23.5539 30.2226 23.5689 30.2525C23.5913 30.1927 23.539 30.0434 23.6062 30.0658C23.6361 30.3197 23.7331 30.0359 23.651 30.2749C23.7182 30.342 23.7107 30.2151 23.7854 30.2226C23.7779 30.3868 23.8974 30.7751 23.9646 30.8423C23.9571 30.7751 23.9646 30.693 23.9646 30.6556C24.0915 30.6183 24.1438 30.4988 24.2633 30.4914C24.2633 30.4316 24.323 30.3495 24.2857 30.245C24.3081 30.2898 24.3305 30.3719 24.3678 30.3794C24.4201 30.1554 24.2857 30.3495 24.3155 30.0807C24.3305 30.2301 24.4275 30.2749 24.4873 30.3644C24.4873 30.5959 24.3678 30.4167 24.3081 30.3346C24.3379 30.6482 24.4574 30.9692 24.5918 31.1036C24.6963 31.1708 24.6142 30.8946 24.6366 30.9394C24.8158 30.8722 24.8382 31.477 24.9726 31.2306C25.0174 31.029 24.9427 30.8348 24.9427 30.6855C24.8531 30.6183 24.8307 30.8199 24.7785 30.8199L24.8382 30.7228C24.8083 30.6556 24.7486 30.6108 24.7262 30.6706C24.7635 30.4839 25.0323 30.6108 25.1592 30.4316C25.1891 30.4988 25.2414 30.5586 25.2264 30.6407L25.1816 30.6183C25.1518 30.7826 25.2862 30.8348 25.2339 30.917C25.3011 31.0215 25.3907 31.2007 25.4654 31.0962V30.8647C25.4654 30.9319 25.4206 31.0066 25.3907 30.9394C25.4355 31.0364 25.4952 30.6183 25.5624 30.917L25.5176 31.0812C25.5848 31.1932 25.6819 31.4247 25.7566 31.35C25.7416 31.5815 25.7342 31.3276 25.7043 31.5964C25.7192 31.2679 25.5102 31.6263 25.555 31.2754C25.5251 31.589 25.4728 31.4098 25.4206 31.6786C25.4206 31.6039 25.4355 31.5292 25.3758 31.574C25.3758 31.5516 25.3608 31.5218 25.3534 31.5068C25.3534 31.5068 25.3534 31.5068 25.3534 31.4994C25.3534 31.4844 25.3534 31.4919 25.3534 31.4994C25.3683 31.462 25.3758 31.4247 25.3758 31.3799C25.331 31.2082 25.2264 31.2231 25.1891 31.141C25.1518 31.1783 25.2115 31.2231 25.1966 31.3052L25.1368 31.1783C25.1443 31.3426 25.0622 31.462 25.1592 31.5516L25.0771 31.5666C25.0398 31.6636 24.98 31.7084 24.9278 31.6412C24.8904 31.6786 24.8158 31.462 24.8606 31.589L24.7262 31.4994V31.5442C24.6067 31.574 24.4499 31.2903 24.3379 31.6039C24.2931 31.5666 24.2483 31.5143 24.1811 31.574V31.7234C24.1214 31.6786 24.0318 31.8802 23.9945 31.7308C23.9721 32.1265 23.7406 31.8354 23.6585 31.9175L23.6361 31.7308C23.5689 31.7458 23.5091 31.701 23.4195 31.6263V31.462C23.3299 31.3276 23.2403 31.5964 23.1358 31.589C23.1508 31.6487 23.1732 31.6338 23.1881 31.589C23.091 31.9772 22.8894 31.3351 22.7924 31.6263C22.755 31.5666 22.7401 31.589 22.7177 31.6338C22.7177 31.6338 22.7177 31.6338 22.7252 31.6412C22.7252 31.6412 22.7252 31.6412 22.7102 31.6412C22.7028 31.6711 22.6878 31.7084 22.6804 31.7308C22.6878 31.686 22.6953 31.6562 22.7102 31.6412C22.6878 31.6412 22.6505 31.6188 22.6132 31.5815V31.7607C22.5833 31.8279 22.5758 31.6786 22.5833 31.5442C22.5609 31.5143 22.546 31.4844 22.531 31.4396C22.531 31.7308 22.434 31.35 22.4265 31.6636C22.3892 31.5143 22.2473 31.5666 22.2025 31.253C22.2025 31.2978 22.2025 31.3127 22.2174 31.3127C22.1801 31.35 22.1502 31.3948 22.1054 31.3052V31.5367L22.0009 31.238C21.9636 31.3799 21.9486 31.462 22.0158 31.6338C21.874 31.3724 21.9113 31.5442 21.7844 31.2828L21.7993 31.4322C21.7993 31.4322 21.6873 31.238 21.6724 31.3575C21.6126 31.6412 21.2767 31.4322 21.09 31.7084C21.09 31.2679 21.0079 31.91 20.9705 31.574C20.9705 31.6786 20.9407 31.7383 20.9855 31.8204C20.8735 31.7308 20.8361 31.9996 20.7391 31.7234C20.7391 31.8279 20.7764 31.8727 20.7689 31.9324C20.7615 31.91 20.7241 31.8428 20.7241 31.91C20.7241 31.9697 20.7465 31.9921 20.7689 32.0369C20.6569 32.0295 20.6196 31.7159 20.5897 31.4172C20.5449 31.5591 20.5151 31.5442 20.4628 31.3575C20.4553 31.4546 20.4255 31.5591 20.5001 31.589C20.4628 31.6039 20.2836 31.7532 20.2537 31.5143C20.2537 31.574 20.2015 31.5367 20.1865 31.5143C20.1044 31.5367 20.0969 31.5591 20.0074 31.5442L20.0298 31.5068C19.97 31.2231 19.9551 31.4471 19.8804 31.4172V31.4471C19.746 31.6711 19.8058 31.3575 19.6788 31.6039V31.4247C19.6266 31.0439 19.5594 31.6636 19.4548 31.5218L19.4772 31.4172C19.4175 31.2903 19.3876 31.9474 19.3428 31.9996C19.3354 32.0369 19.3652 32.0519 19.3802 32.0743C19.2756 32.3132 19.3428 31.8428 19.2458 31.798C19.2458 31.9249 19.298 32.1191 19.2308 32.1489C19.2084 32.2535 19.0068 31.7532 18.9471 32.0071C18.9546 31.91 18.9695 31.813 18.9172 31.7383C18.85 31.7084 18.7679 32.1191 18.6783 31.8204C18.6783 31.8503 18.6783 31.8727 18.6783 31.8951C18.6186 31.8204 18.4991 31.7756 18.4543 31.6114C18.4543 32.2311 18.1034 31.3426 18.1557 31.91L17.9914 31.8951V31.9548C17.9018 31.9996 17.857 31.8652 17.8047 31.7383C17.7823 31.7756 17.8047 31.8279 17.8047 31.8577C17.6629 31.9847 17.6479 31.9623 17.4986 31.6935V31.8802C17.4613 31.7756 17.3119 32.1863 17.1477 31.9847C17.1477 32.0071 17.1551 32.0444 17.1701 32.0668C16.9909 31.8652 16.8192 32.6119 16.7072 31.9474L16.5877 31.7906C16.7221 31.7234 16.5429 31.4994 16.5877 31.3874C16.528 31.35 16.4608 31.6039 16.5354 31.6338V31.5964C16.5952 31.9473 16.3786 31.7383 16.401 31.9772C16.1248 31.9772 15.8709 32.2012 15.617 32.2385V31.9623L15.5349 31.9847C15.52 32.0519 15.52 32.2012 15.5872 32.1863C15.5648 32.3431 15.4677 32.0668 15.4602 32.0071C15.3408 32.1265 15.5349 32.3207 15.4976 32.3281L15.4453 32.3132V32.2833C15.4005 32.1788 15.3856 32.0593 15.3109 32.0817C15.2661 32.1415 15.3035 32.2535 15.2811 32.2609C15.2811 32.2833 15.2811 32.2908 15.2512 32.2684L15.1392 32.2983L15.1691 32.0817C15.1093 31.9772 15.0645 32.1041 15.0944 31.8577C15.0496 32.2385 14.6837 32.0295 14.6464 32.1489C14.5643 31.9996 14.4896 32.0071 14.4075 32.0369C14.4224 31.9921 14.4149 31.7458 14.3477 31.7831C14.4149 32.2759 14.2283 32.0145 14.1984 32.3729C14.2283 32.134 13.9819 32.3356 14.0341 31.9847C13.9744 32.0295 14.0491 32.1713 14.0117 32.2908C13.8475 32.1116 13.6981 32.4476 13.5115 32.3953C13.504 32.3281 13.5264 32.2311 13.4742 32.134L13.407 32.47C13.3696 32.4401 13.3398 32.0967 13.295 32.3281C13.295 32.2759 13.3024 32.1863 13.28 32.1713C12.9515 32.5223 12.5259 31.9697 12.2198 32.6044C12.2571 32.47 12.2198 32.4625 12.1899 32.4625C12.2123 32.4327 12.175 32.2983 12.175 32.2087L12.0481 32.47C11.9958 32.2236 11.8838 32.47 11.8465 32.2311L11.8987 32.2684C11.8091 31.9996 11.9361 31.6412 11.8987 31.2903C11.9958 31.5964 12.0481 30.805 12.2048 31.2455C12.2272 31.1708 12.175 31.1335 12.1824 31.0514C12.2272 31.2007 12.2646 31.2306 12.3243 31.1559V31.1186C12.5035 31.141 12.5707 30.9842 12.7723 30.8647V31.0439C12.8171 31.014 12.8171 30.9618 12.8395 30.917C12.9142 31.1783 12.7126 30.9468 12.7872 31.2306C12.8171 30.8647 13.1083 31.2007 13.1083 30.79C13.1755 30.7826 13.1083 30.9991 13.1755 30.9842V30.8722L13.2128 31.014C13.2576 30.9842 13.2651 30.8498 13.2576 30.7527C13.2502 30.7676 13.2203 30.7303 13.2128 30.7228C13.2576 30.5884 13.3846 30.7527 13.3995 30.7079L13.3398 30.7826C13.5414 30.8722 13.7579 30.7079 13.9595 30.9095V30.9916C14.1088 31.1335 14.0565 30.8871 14.2133 30.9468V30.9244C14.2432 31.0066 14.288 31.0439 14.3328 31.029C14.288 30.9319 14.3925 30.8348 14.3328 30.7303C14.4971 30.8796 14.4224 30.8498 14.5493 31.1559V31.014C14.6091 31.1335 14.6165 31.2007 14.6912 31.2306C14.6165 31.1186 14.7211 31.014 14.6389 30.8647C14.7733 30.5511 14.9077 31.1484 14.9376 30.7004C15.0421 31.0738 14.8181 30.9244 14.8629 30.9991C14.8405 31.126 14.9451 31.2828 14.9973 31.238C15.0496 31.2231 15.0421 30.7452 15.1691 30.7378C15.1541 30.7378 15.1541 30.7154 15.1392 30.7154C15.1765 30.6108 15.2437 30.8423 15.2885 30.678C15.3408 30.9095 15.3632 30.6556 15.4005 30.9543L15.2736 30.8946C15.3482 30.9692 15.4378 31.3052 15.5349 31.126C15.52 31.0663 15.4826 30.9916 15.4528 30.9543C15.4752 30.8647 15.52 31.0066 15.5424 30.917C15.505 30.6258 15.393 30.8647 15.3034 30.6482C15.3258 30.5212 15.4602 30.8498 15.393 30.5362C15.4826 30.9394 15.5125 30.4764 15.632 30.7751L15.6096 30.5959C15.6096 30.5959 15.6618 30.7004 15.6842 30.693L15.617 30.469C15.7066 30.6556 15.7365 30.2898 15.8186 30.3869C15.6768 30.3869 15.8037 30.6034 15.7589 30.7378C15.953 30.9618 15.8186 30.2674 16.0202 30.3346C15.9904 30.3122 15.9306 30.4466 15.9754 30.5287C16.0128 30.4914 16.0501 30.4167 16.065 30.3197C16.1994 30.3421 16.065 30.5063 16.1248 30.6034C16.1472 30.3868 16.1994 30.6855 16.2592 30.7527L16.2442 30.5735C16.3861 30.4466 16.3189 30.9468 16.4384 30.79L16.3637 30.5436L16.4384 30.6034L16.4085 30.4018C16.4981 30.5436 16.5205 30.5063 16.5877 30.4391C16.5877 30.566 16.625 30.7602 16.6922 30.7602C16.7296 30.6482 16.6549 30.5884 16.7445 30.6108C16.7146 30.4988 16.6773 30.3645 16.6549 30.5287C16.6474 30.469 16.625 30.4167 16.6176 30.357C16.6549 30.2301 16.737 30.3197 16.7669 30.3197C16.752 30.3271 16.737 30.342 16.737 30.3644L16.8938 30.6034C16.9087 30.5362 16.8938 30.4839 16.864 30.4316C16.8938 30.4466 16.9162 30.5287 16.961 30.5436C16.9386 30.4018 16.9311 30.245 16.864 30.1853L17.0058 30.3346C17.0058 30.2674 17.0581 30.1554 17.0357 30.1031C17.1029 30.0135 17.2373 30.3719 17.3194 30.2525C17.3194 30.2823 17.3418 30.3047 17.3642 30.3271C17.4538 30.2898 17.5135 30.1031 17.633 30.2898L17.6703 30.021C17.7599 30.0733 17.6181 30.357 17.7674 30.4466C17.8719 30.5212 17.7823 30.2226 17.8122 30.1479C17.8719 30.2749 17.9765 30.5362 18.0511 30.3122C18.0138 30.2674 17.9989 30.3122 17.969 30.2898L17.9839 30.2749ZM19.0143 30.3047C19.0143 30.3047 18.9396 30.1554 18.9396 30.2599C18.977 30.4615 18.9919 30.3645 19.0143 30.3047ZM20.5972 30.6034C20.5748 30.5436 20.5599 30.5735 20.5375 30.6482C20.5599 30.6631 20.5748 30.6482 20.5972 30.6034ZM25.0174 31.477C25.0174 31.477 25.0174 31.477 25.0174 31.4695C24.98 31.5442 24.995 31.5143 25.0174 31.477ZM25.0995 31.3948C25.0995 31.3948 25.1144 31.4471 25.107 31.4695C25.0995 31.4247 25.0771 31.4247 25.0547 31.4396C25.0547 31.3948 25.0696 31.3575 25.0995 31.3948ZM15.2811 32.1713L15.296 32.1265C15.2512 32.0817 15.2661 32.1265 15.2811 32.1713Z" fill="#6C45AA"/>
<path d="M20.3958 30.3709C20.3958 30.3709 20.3958 30.4381 20.3958 30.468C20.3884 30.4381 20.3809 30.4008 20.3958 30.3709Z" fill="#6C45AA"/>
<path d="M17.3412 30.2387C17.3412 30.2311 17.3412 30.2157 17.3412 30.2081V30.2387Z" fill="#6C45AA"/>
<path d="M23.5533 29.9915C23.5533 29.9915 23.5309 30.0512 23.5234 30.0885C23.5234 30.0437 23.5234 30.0064 23.5533 29.9915Z" fill="#6C45AA"/>
<path d="M25.6071 31.6561L25.5474 31.6113C25.5474 31.6113 25.5847 31.574 25.5922 31.5441C25.5922 31.5889 25.5922 31.6486 25.6071 31.6486V31.6561Z" fill="#6C45AA"/>
<path d="M26.0176 30.499C26.0176 30.499 26.0326 30.499 26.0475 30.5214V30.6035C26.0475 30.6035 25.9878 30.5363 26.0176 30.499Z" fill="#6C45AA"/>
<path d="M25.6138 31.0511C25.6064 30.9018 25.6437 30.9466 25.6885 30.969C25.7184 31.1781 25.6661 31.1109 25.6213 31.0437L25.6138 31.0511Z" fill="#6C45AA"/>
<path d="M25.6962 30.9765C25.6962 30.9765 25.7261 30.984 25.7336 30.9765C25.7485 31.0586 25.7186 30.9989 25.6962 30.9765Z" fill="#6C45AA"/>
<path d="M25.2256 31.4833C25.2406 31.446 25.2555 31.6774 25.263 31.6102C25.3003 31.7969 25.1136 31.3862 25.2256 31.4833Z" fill="#6C45AA"/>
<path d="M25.5997 30.5512L25.6071 30.7378L25.5698 30.596L25.5997 30.5512Z" fill="#6C45AA"/>
<path d="M25.2934 30.7153L25.3531 30.6555C25.3531 30.6555 25.3681 30.7078 25.3755 30.7153C25.3382 30.7227 25.2934 30.7675 25.2934 30.7153Z" fill="#6C45AA"/>
<path d="M25.3754 30.7219C25.3754 30.7219 25.4202 30.7219 25.4277 30.7518C25.4128 30.7518 25.3904 30.7518 25.3754 30.7219Z" fill="#6C45AA"/>
<path d="M25.5099 30.5053L25.495 30.5427L25.4502 30.5651L25.5099 30.5053Z" fill="#6C45AA"/>
<path d="M24.5909 30.812L24.5162 30.7672C24.5013 30.7075 24.5162 30.6627 24.5461 30.6851C24.5685 30.7299 24.5984 30.7523 24.5909 30.812Z" fill="#6C45AA"/>
<path d="M24.7628 30.2819C24.7479 30.3192 24.7479 30.364 24.7404 30.4237L24.718 30.1923L24.7628 30.2819Z" fill="#6C45AA"/>
<path d="M24.5471 30.2517C24.5322 30.1845 24.4277 30.08 24.5173 30.08C24.5322 30.1397 24.6069 30.192 24.5471 30.2517Z" fill="#6C45AA"/>
<path d="M23.4939 30.6334H23.5163L23.5462 31.0142L23.4939 30.6334Z" fill="#6C45AA"/>
<path d="M22.4706 29.8104C22.5452 29.7134 22.5079 30.0419 22.5751 29.9224C22.605 30.012 22.5228 30.0195 22.5452 30.0942C22.4855 30.0046 22.4631 30.0568 22.4631 29.8104H22.4706Z" fill="#6C45AA"/>
<path d="M22.5455 30.0958C22.5455 30.0958 22.5679 30.1257 22.5754 30.1481C22.5605 30.1257 22.553 30.1108 22.5455 30.0958Z" fill="#6C45AA"/>
<path d="M11.9654 32.6482L11.9206 32.7304L11.943 32.6034L11.9654 32.6482Z" fill="#6C45AA"/>
<path d="M11.8389 32.619L11.7941 32.4025C11.8091 32.4099 11.8315 32.4323 11.8389 32.3726V32.619Z" fill="#6C45AA"/>
<path d="M19.1191 29.8049V29.8646C19.1191 29.9318 19.1191 29.9318 19.0892 29.9468L19.1191 29.8049Z" fill="#6C45AA"/>
<path d="M18.3943 30.0511L18.4092 30.0436L18.4017 30.2602L18.3943 30.0511Z" fill="#6C45AA"/>
<path d="M17.7515 29.827C17.7515 29.827 17.8113 29.8644 17.8337 29.8494C17.7739 29.8121 17.7665 30.0958 17.7515 29.827Z" fill="#6C45AA"/>
</svg>
