<svg width="328" height="468" viewBox="0 0 328 468" fill="none" xmlns="http://www.w3.org/2000/svg">
<path d="M-66.2933 466C-67.6321 468.084 -66.9614 467.462 -67.1196 467.816C-64.9295 464.243 -66.3982 466.066 -66.2933 466Z" fill="#6C45AA"/>
<path d="M-51.3641 430.197L-51.509 430.87L-49.6986 425.463L-51.3641 430.197Z" fill="#6C45AA"/>
<path d="M-38.7527 396.376C-40.3074 399.445 -43.1725 408.682 -45.5576 414.658L-46.0262 415.615L-46.7313 418.452C-44.0157 411.124 -40.7569 401.51 -38.7527 396.376Z" fill="#6C45AA"/>
<path d="M-31.3946 378.567C-31.942 379.629 -30.1301 374.605 -32.9564 382.778C-32.7834 382.381 -32.7481 382.262 -32.6455 382.03C-32.3841 381.298 -32.0171 380.282 -31.4033 378.579L-31.3946 378.567Z" fill="#6C45AA"/>
<path d="M-32.6368 382.018C-33.9027 385.597 -31.6692 379.726 -32.6368 382.018V382.018Z" fill="#6C45AA"/>
<path d="M-26.8381 365.453L-28.3758 370.211C-27.9276 369.257 -26.4356 365.065 -26.921 366.647C-25.2841 361.783 -25.7207 362.746 -26.8497 365.444L-26.8381 365.453Z" fill="#6C45AA"/>
<path d="M-25.5452 360.875L-26.3536 363.342C-26.1631 362.921 -25.9195 362.286 -25.5452 360.875Z" fill="#6C45AA"/>
<path d="M-28.0645 368.57L-26.3536 363.342C-26.6554 364.007 -26.8067 364.038 -27.1502 365.746C-27.1107 365.284 -27.3675 366.346 -28.0733 368.582L-28.0645 368.57Z" fill="#6C45AA"/>
<path d="M-29.1624 371.493C-30.1893 374.105 -31.4487 377.506 -29.9139 372.728C-33.0747 381.778 -32.3232 380.543 -29.1624 371.493Z" fill="#6C45AA"/>
<path d="M-38.5162 394.496L-39.9096 397.979L-40.889 401.082C-40.3979 399.541 -38.3005 394.332 -38.5046 394.505L-38.5162 394.496Z" fill="#6C45AA"/>
<path d="M-16.3243 336.095C-16.2969 335.769 -17.1001 337.603 -17.3251 337.925L-18.4426 341.452C-17.7559 339.676 -16.5255 336.289 -16.3243 336.095Z" fill="#6C45AA"/>
<path d="M-17.3367 337.916L-15.6634 332.642C-17.3082 337.3 -17.5382 338.183 -17.3367 337.916Z" fill="#6C45AA"/>
<path d="M-25.6839 359.877L-28.419 368.557L-25.114 358.232L-25.6839 359.877Z" fill="#6C45AA"/>
<path d="M-9.41147 316.128L-10.2336 319.168L-8.71103 313.779L-9.41147 316.128Z" fill="#6C45AA"/>
<path d="M-4.88641 302.863C-5.47604 305.113 -3.57937 299.952 -4.2798 302.301C-3.06901 298.699 -2.15639 295.563 -1.3322 292.762C-2.27907 295.726 -3.35735 298.863 -4.88641 302.863Z" fill="#6C45AA"/>
<path d="M0.0861968 288.041C-0.361089 289.525 -0.820221 291.072 -1.32345 292.75C-0.826423 291.177 -0.35852 289.618 0.0861968 288.041Z" fill="#6C45AA"/>
<path d="M-12.5321 323.751C-12.3476 323.362 -11.9409 322.631 -10.8722 319.723L-11.8212 321.702C-12.0357 322.323 -12.2883 323.043 -12.5409 323.763L-12.5321 323.751Z" fill="#6C45AA"/>
<path d="M-11.8534 321.769L-11.8096 321.711C-11.0427 319.467 -10.5109 317.92 -10.2702 317.264C-10.4699 317.841 -10.9458 319.194 -11.8534 321.769Z" fill="#6C45AA"/>
<path d="M-12.7085 324.274C-12.6409 324.088 -12.5881 323.946 -12.5321 323.751C-12.62 323.94 -12.6757 324.062 -12.7085 324.274Z" fill="#6C45AA"/>
<path d="M-20.678 346.265C-19.7306 343.156 -17.6402 336.703 -20.0055 342.821C-20.6154 345.074 -19.2655 341.577 -20.678 346.265Z" fill="#6C45AA"/>
<path d="M-13.8918 326.731L-15.8712 332.266C-15.7692 332.179 -15.3325 331.216 -15.8033 332.754L-13.9005 326.742L-13.8918 326.731Z" fill="#6C45AA"/>
<path d="M-13.03 323.976L-13.8918 326.731L-13.1605 324.679L-13.03 323.976Z" fill="#6C45AA"/>
<path d="M-3.39292 297.488C-2.67469 295.044 -1.78432 292.42 -0.776403 289.448C-1.88097 292.62 -3.04405 295.894 -4.12517 299.012C-4.20538 299.479 -4.54778 300.896 -3.38417 297.477L-3.39292 297.488Z" fill="#6C45AA"/>
<path d="M-7.52019 309.287C-7.47018 309.125 -7.3967 308.907 -7.3467 308.745C-7.47867 309.064 -7.56683 309.325 -7.52019 309.287Z" fill="#6C45AA"/>
<path d="M9.18754 260.238C9.12593 260.392 9.05273 260.537 8.99112 260.691C8.99679 260.732 8.99087 260.763 8.98777 260.816L9.18754 260.238Z" fill="#6C45AA"/>
<path d="M-4.36255 299.543C-5.22583 301.914 -5.66718 303.365 -6.05595 304.747C-5.45352 302.962 -4.81577 301.058 -4.13394 299.023C-4.10117 298.811 -4.10683 298.77 -4.36255 299.543Z" fill="#6C45AA"/>
<path d="M2.75555 279.858C2.29466 281.095 1.76341 282.496 1.2087 283.953C1.6956 282.755 2.66375 280.317 2.75555 279.858Z" fill="#6C45AA"/>
<path d="M-7.00955 307.961C-7.04487 308.08 -7.08019 308.199 -7.1155 308.318C-6.79589 307.558 -6.85722 307.639 -7.00955 307.961Z" fill="#6C45AA"/>
<path d="M-7.00955 307.961C-6.62132 306.724 -6.34443 305.732 -6.06755 304.739C-6.53801 306.205 -6.97314 307.551 -7.35828 308.736C-7.23224 308.449 -7.1062 308.161 -7.02114 307.952L-7.00955 307.961Z" fill="#6C45AA"/>
<path d="M10.6959 250.868C10.7754 251.365 8.82778 257.726 6.73861 263.069C5.08229 268.465 6.98635 265.223 8.97078 260.694C8.93371 260.502 8.84663 260.472 10.5849 254.919C9.8106 256.811 6.15718 267.019 7.52611 262.316C9.89001 254.995 9.63496 256.369 10.9558 252.886C9.66031 255.805 13.7168 243.497 12.7756 244.935L10.7435 251.359C10.6327 251.458 11.3331 249.109 10.6639 250.862L10.6959 250.868Z" fill="#6C45AA"/>
<path d="M5.39486 271.161L4.64239 273.434C5.56161 270.868 6.27457 269.057 7.60359 265.708C8.77732 261.914 8.96633 261.109 8.98777 260.816L5.17109 271.939L5.40362 271.149L5.39486 271.161Z" fill="#6C45AA"/>
<path d="M1.18685 283.573C1.56282 281.725 3.30367 276.265 1.91697 279.498C-0.333973 286.139 0.518928 284.215 -0.71951 288.216C2.8835 277.496 -1.63497 291.331 1.13428 283.642C0.43183 285.752 -0.185564 287.654 -0.776403 289.448C-0.0775843 287.535 0.589013 285.689 1.22906 283.95C1.1909 284.049 1.15867 284.116 1.13805 284.191L1.11177 284.226C0.915355 284.679 0.862525 284.821 1.05044 284.307C1.06796 284.284 1.10044 284.145 1.1239 284.09C1.11258 284.008 1.15692 283.805 1.19845 283.581C2.30558 280.502 1.42397 283.114 1.1239 284.09C1.12956 284.13 1.10017 284.217 1.11177 284.226C1.11177 284.226 1.12929 284.203 1.13805 284.191L4.67151 273.419C3.85515 275.68 2.9029 278.531 1.20721 283.57L1.18685 283.573Z" fill="#6C45AA"/>
<path d="M-18.5188 336.95C-18.3869 336.631 -18.3637 336.648 -18.3462 336.625C-18.143 335.922 -18.0665 335.652 -18.5188 336.95Z" fill="#6C45AA"/>
<path d="M-16.8431 332.588C-17.0756 333.377 -17.209 334.06 -18.1135 336.582C-18.9528 338.753 -18.2238 336.535 -18.3462 336.625C-18.8053 338.172 -20.0344 342.016 -18.2556 337.276L-18.0202 336.507C-16.4378 332.22 -14.2262 326.788 -14.4528 327.545C-15.1082 328.726 -15.6353 329.785 -16.8431 332.588Z" fill="#6C45AA"/>
<path d="M-7.75284 307.764L-4.79863 298.794L-6.56198 303.272L-6.36073 303.078C-8.14659 308.14 -7.62828 307.093 -7.74407 307.752L-7.75284 307.764Z" fill="#6C45AA"/>
<path d="M9.65327 259.26L9.49744 260.527L10.9005 255.249L9.65327 259.26Z" fill="#6C45AA"/>
<path d="M13.5765 247.635L13.6472 248.144L14.5627 245.029L13.5765 247.635Z" fill="#6C45AA"/>
<path d="M119.913 156.399L120.704 153.737C120.33 155.003 120.089 155.804 119.913 156.399Z" fill="#6C45AA"/>
<path d="M113.674 175.474L113.629 175.968C113.856 175.065 113.939 174.69 113.674 175.474Z" fill="#6C45AA"/>
<path d="M95.5575 118.082C97.1349 114.356 98.9899 110.239 98.5846 110.606L97.9266 111.694C97.0012 114.364 96.2439 116.378 95.5691 118.09L95.5575 118.082Z" fill="#6C45AA"/>
<path d="M85.2254 210.366C85.3401 209.997 85.452 209.608 85.5551 209.231C85.6895 208.258 85.8093 207.328 85.914 206.515C85.7005 207.665 85.4689 208.984 85.2138 210.357L85.2254 210.366Z" fill="#6C45AA"/>
<path d="M85.624 213.381L84.3086 218.544C84.6035 217.383 85.0253 215.716 85.624 213.381Z" fill="#6C45AA"/>
<path d="M153.802 52.0831L154.63 48.9386C152.961 53.725 153.826 51.6647 153.802 52.0831Z" fill="#6C45AA"/>
<path d="M32.1075 281.97C32.616 281.225 33.1214 280.532 33.5569 279.859C33.9693 279.169 34.3554 278.514 34.7355 277.89C35.4958 276.643 36.1105 275.469 36.6754 274.384C34.6417 278.111 32.5939 280.917 32.0988 281.981L32.1075 281.97Z" fill="#6C45AA"/>
<path d="M120.012 164.726C120.492 163.103 120.663 162.395 120.605 162.424C120.102 164.102 119.851 165.06 120.012 164.726Z" fill="#6C45AA"/>
<path d="M41.0893 265.242C40.814 265.799 40.5475 266.345 40.2722 266.902C39.1853 269.231 38.1767 271.602 36.6842 274.372C37.4594 273.009 38.2584 271.518 38.9878 269.975C39.7376 268.428 40.4701 266.833 41.0777 265.234L41.0893 265.242Z" fill="#6C45AA"/>
<path d="M244.315 -27.2317C244.479 -27.4722 244.677 -27.7593 244.823 -27.9767C244.841 -28.0725 244.631 -27.7216 244.315 -27.2317Z" fill="#6C45AA"/>
<path d="M308.923 -123.412C308.309 -122.455 307.292 -120.893 306.333 -119.431C306.815 -120.142 307.604 -121.33 308.923 -123.412Z" fill="#6C45AA"/>
<path d="M25.1397 218.214C25.1227 218.092 25.1599 217.464 25.1397 218.214V218.214Z" fill="#6C45AA"/>
<path d="M24.3182 214.023C24.4739 213.576 24.6149 213.172 24.6361 212.951C24.5592 213.294 24.4533 213.651 24.3182 214.023Z" fill="#6C45AA"/>
<path d="M49.6467 240.689C49.6789 240.623 49.6907 240.559 49.7317 240.48C49.4036 241.18 49.4593 241.058 49.6467 240.689Z" fill="#6C45AA"/>
<path d="M25.3221 216.84C25.2772 217.188 25.2379 217.578 25.1956 218.019C25.2224 217.839 25.2702 217.511 25.3221 216.84Z" fill="#6C45AA"/>
<path d="M25.187 217.211C25.1997 216.929 25.2208 216.709 25.2216 216.491C25.1634 216.519 25.16 216.644 25.187 217.211Z" fill="#6C45AA"/>
<path d="M24.9242 221.439C25.0159 220.233 25.1073 219.1 25.1956 218.019C25.1747 218.167 25.1482 218.275 25.1397 218.214C25.0994 218.894 25.026 219.858 24.9155 221.451L24.9242 221.439Z" fill="#6C45AA"/>
<path d="M154.045 117.988C153.995 118.151 153.939 118.345 153.892 118.528C153.368 121.101 153.637 119.975 154.045 117.988Z" fill="#6C45AA"/>
<path d="M117.086 75.4269C117.101 75.3107 117.113 75.2468 117.128 75.1307C117.104 75.2585 117.072 75.3978 117.057 75.514L117.086 75.4269Z" fill="#6C45AA"/>
<path d="M115.552 84.6866C116.026 80.7096 116.476 78.4996 117.045 75.5053L115.793 78.4389L115.552 84.6866Z" fill="#6C45AA"/>
<path d="M134.574 110.612L132.351 116.783C134.419 109.129 136.311 103.71 134.116 109.483C134.574 110.612 126.385 133.786 126.851 134.904L125.363 138.97C125.728 137.788 125.784 137.594 126.151 136.433C123.213 144.321 124.783 142.557 121.347 152.839C120.133 156.42 119.2 158.885 119.913 156.399L117.497 164.464C116.721 166.792 116.781 166.182 117.548 163.866L113.614 176.084L113.62 175.979C113.172 177.753 112.038 181.76 111.479 183.705C110.348 186.767 111.912 182.12 111.551 182.886L109.489 189.688C108.377 192.363 110.072 186.722 111.636 182.075C108.794 188.124 109.996 187.739 104.941 201.151L107.011 194.773C105.195 198.719 103.682 203.733 100.898 210.791C101.657 209.16 106.519 196.678 104.201 204.034C103.447 206.068 102.472 208.756 101.242 212.745C100.963 212.68 99.6964 216.549 97.9726 221.312L97.7331 220.858C95.9758 226.051 96.291 225.706 95.3088 228.789C93.1368 234.506 92.3714 235.567 91.6315 236.811C88.0084 245.895 94.5257 230.693 90.3528 241.492C88.7665 245.229 87.4033 248.407 85.9725 251.77C85.2745 253.464 84.5154 255.168 83.66 256.998C83.238 257.918 82.7986 258.861 82.3357 259.859C81.838 260.831 81.3052 261.849 80.7578 262.911C77.9157 267.539 81.0489 262.019 79.9791 263.652C79.6159 264.397 79.2621 264.986 78.8904 265.671L77.843 267.538C77.4634 268.016 77.5575 267.723 77.5928 267.604C77.0233 268.358 76.7903 268.473 76.5806 268.606C76.3332 268.692 75.8337 268.606 75.8276 266.325C75.601 265.516 75.9422 262.076 76.6813 257.917C77.3973 253.74 78.4009 248.797 78.9393 244.687C79.4205 242.701 78.9763 245.698 79.2371 245.112C81.1126 233.907 80.848 235.51 82.3965 226.279L84.3202 218.553C82.7937 224.212 84.0592 216.825 85.2282 210.386C84.6454 212.387 84.1566 214.094 83.8384 215.238L85.9313 204.998C86.27 203.778 86.1585 204.842 85.9284 206.544C86.0589 205.841 86.1747 205.182 86.2668 204.65C87.2277 201.041 87.0083 202.97 86.6206 205.628C86.2615 206.85 85.9112 208.061 85.558 209.251C85.22 211.819 84.9321 214.225 85.2506 213.755C85.3548 213.087 85.6008 211.797 85.9025 210.386C85.8099 211.063 85.7763 211.493 85.8792 211.188C85.988 210.851 86.1489 209.771 86.4429 208.08L87.3783 205.855L87.337 205.259L90.6588 191.995C92.4645 182.376 93.824 173.95 97.2371 158.806C96.6475 162.623 97.5301 159.719 97.8313 160.02C96.4823 164.046 95.2098 171.755 93.2887 179.574C94.2891 175.503 94.242 176.433 94.0579 177.496L97.0222 163.452C97.2417 163.837 97.934 160.535 98.924 156.911C97.7023 159.54 101.012 146.413 102.187 140.689C102.456 140.382 102.34 141.788 100.637 148.716C102.877 141.174 102.322 138.678 104.443 131.246C104.056 132.939 103.808 133.844 103.739 134.539C104.5 130.542 106.905 120.902 106.542 123.214L106.155 124.907C107.501 119.294 109.495 110.728 111.08 103.329C112.677 95.938 113.842 89.6966 113.77 88.8041C113.849 88.6998 114.046 90.4152 113.997 91.1067C114.434 87.6847 114.859 84.2539 115.224 80.8316L115.731 75.6776L115.929 73.1499C115.976 72.3653 115.993 71.7405 115.992 71.1389C116.067 71.3775 116.242 71.2183 116.447 70.8267C116.651 70.4351 116.889 69.8315 117.082 69.4311C117.279 69.0511 117.445 68.9035 117.523 69.6914C117.568 70.0898 117.557 70.7553 117.472 71.7838C117.426 72.2777 117.366 72.8152 117.309 73.4456C117.246 73.9627 117.168 74.5234 117.09 75.1567C117.155 74.8052 117.221 74.4538 117.283 74.082C117.357 73.6464 117.429 73.1903 117.518 72.7111C117.694 71.5143 117.899 70.1579 117.971 68.8096C118.061 67.4381 117.963 66.2171 117.664 65.3354C117.489 64.893 117.397 64.4596 116.887 64.0741C116.557 63.8607 116.193 64.0046 115.96 64.12C115.718 64.247 115.482 64.4147 115.252 64.6231C115.555 64.4149 115.849 64.2184 116.256 64.1618C116.445 64.1044 116.762 64.216 116.883 64.417C117.022 64.5948 117.068 64.7751 117.111 64.9351C117.188 65.2667 117.158 65.4992 117.129 65.5136C117.059 65.5337 117.086 65.2809 116.707 64.7942C116.568 64.6163 116.284 64.5833 116.129 64.667C115.961 64.7216 115.818 64.8141 115.696 64.9037C115.451 65.083 115.238 65.2682 115.066 65.4478C114.701 65.8097 114.395 66.1428 114.114 66.5138C113.843 66.8005 113.585 67.3343 113.354 67.688C113.129 68.0824 112.901 68.4565 112.673 68.8306C112.228 69.5875 111.652 70.5183 111.163 71.5511C110.876 72.0993 110.56 72.7347 110.168 73.4947C109.749 74.2894 109.336 75.1249 108.879 76.091C110.101 73.5351 109.418 76.6801 107.694 80.7687C107.868 80.0806 106.949 80.8619 107.493 79.3235C106.268 82.824 105.107 86.3364 103.977 89.8547C104.891 87.2482 103.625 89.1878 102.571 91.4509C103.08 90.4152 99.1457 100.393 98.1966 103.191L99.9885 98.8437C95.5449 110.531 96.5584 110.732 92.3271 122.38C92.7045 120.916 92.7887 118.612 90.5899 124.51C89.9254 127.341 87.817 137.095 84.4011 147.519L83.5162 149.437L80.926 157.443C82.1976 152.339 86.081 138.115 88.3824 130.419C86.6747 134.775 87.7329 131.567 85.4152 138.176C84.4244 140.451 86.4374 134.486 87.1102 132.536L81.5661 147.872C82.1727 147.31 77.7931 159.757 78.2976 159.282L83.8008 142.457C84.4103 141.916 81.4385 152.475 77.5356 163.351C76.4095 166.07 77.6197 161.046 77.4069 161.232C77.0382 162.683 73.9997 171.644 73.5543 172.619L74.9872 167.927C72.7008 173.941 71.9766 177.984 69.0291 185.137C68.1014 187.642 65.8776 192.464 65.9368 192.964C67.826 189.018 69.4083 188.684 68.7467 191.536C68.4121 192.412 63.6092 204.575 62.3463 207.354C60.5178 211.364 63.8206 200.873 62.2618 204.285C62.3076 204.465 61.6043 206.794 61.2927 207.76C60.2426 210.355 61.3844 206.554 59.3286 212.287C59.3449 213.374 55.0161 223.873 58.641 215.101C56.6845 220.726 56.3696 220.998 53.9184 227.542C54.9373 225.544 52.5266 233.722 50.451 239.312C50.4843 238.955 49.8725 240.15 49.5797 240.73C45.0444 252.056 42.4354 258.063 37.622 268.36C37.353 268.812 36.6006 270.265 36.0213 271.321C35.4099 272.371 34.9832 273.032 35.4463 271.961C34.7376 273.429 34.2643 274.875 32.4947 277.891C30.6358 280.712 31.6273 279.038 32.6747 277.171C33.7453 275.32 34.7559 273.188 33.4021 275.389C33.3605 275.612 32.4113 277.664 30.9492 280.056C30.575 280.648 30.1949 281.271 29.7856 281.909C29.3619 282.518 28.9063 283.12 28.4218 283.665C27.4325 284.757 26.4146 285.718 25.3931 285.31C25.6159 285.57 26.496 285.707 27.3997 284.969C28.3498 284.266 29.3685 283.087 30.2659 281.707C31.1633 280.327 32.1076 278.837 32.8571 277.363C33.6617 275.913 34.3383 274.512 34.8772 273.389C35.089 273.494 34.3809 275.564 32.7092 278.836C32.3282 279.677 31.7612 280.524 31.2084 281.472C30.6556 282.421 30.0067 283.424 29.1573 284.403C28.7282 284.898 28.276 285.376 27.6727 285.813C27.0404 286.264 26.1728 286.665 25.3221 286.441C24.4742 286.237 23.8145 285.447 23.4394 284.69C23.0585 283.965 22.852 283.226 22.6543 282.475C22.1226 280.07 22.0873 278.622 22.0295 277.759C21.992 276.893 22.0279 276.628 22.0657 276.602C22.1415 276.55 22.2921 277.484 22.208 276.655C22.0327 272.187 22.1317 269.02 22.1496 266.538C22.1676 264.056 22.1859 262.248 22.1981 260.545C22.2311 257.127 22.2948 254.079 23.1213 246.744C23.9537 240.943 23.7672 246.54 24.1091 245.268C23.5371 252.941 22.9028 257.034 22.6103 262.241L23.1834 255.844C23.0987 258.293 22.8471 263.422 22.6565 266.229C22.8777 263.791 23.3095 256.303 24.0999 247.738C24.8699 239.176 25.8736 229.534 26.5645 222.715C26.6723 220.283 26.813 216.072 26.573 218.077L26.2984 222.368C26.0121 224.338 26.0923 222.304 26.166 220.447C26.2043 219.528 26.2338 218.622 26.223 218.395C26.2035 218.18 26.1741 218.267 26.0469 219.664C26.1079 218.089 26.114 217.238 26.1093 216.16C26.0811 215.136 26.0934 214.18 25.8905 213.244C25.8648 213.133 25.8274 213.014 25.7697 212.897C25.7236 212.79 25.5933 212.673 25.4506 212.765C25.2029 212.924 25.0565 213.214 24.9248 213.461C24.6439 213.977 24.4385 214.514 24.2214 215.042C23.7899 216.192 23.3321 217.376 22.845 218.647L22.003 219.978C22.003 219.978 22.1816 219.621 22.3899 219.104C22.5747 218.643 22.8095 218.019 23.0794 217.349C23.4846 216.234 23.9689 214.943 24.2625 214.144C24.0246 214.821 23.7166 215.59 23.3498 216.533C23.1503 217.038 22.9333 217.566 22.7103 218.126C22.4373 218.849 22.1556 219.583 21.8651 220.329C20.7322 223.298 19.6485 226.322 19.2522 228.172L21.353 222.838C19.6059 228.403 17.6358 235.348 15.1836 242.183C16.5811 239.177 15.6778 240.589 17.7356 235.842C15.7995 239.898 23.7849 218.319 20.9471 224.918C22.0255 222.527 22.865 220.283 23.6724 218.107C23.8453 217.709 24.0038 217.282 24.1853 216.946C24.3667 216.609 24.5335 216.317 24.7221 216.404C24.7432 216.184 24.6708 216.111 24.7208 215.948C24.7531 215.881 24.7711 215.713 24.9662 215.624C25.1723 215.688 25.1563 216.095 25.1603 216.572C25.201 216.566 25.2471 216.674 25.27 216.764C25.2698 216.837 25.2638 216.869 25.2607 216.921C25.2638 216.869 25.2698 216.837 25.2816 216.773C25.2989 216.822 25.3105 216.831 25.2847 216.72C25.3604 215.921 25.4063 215.282 25.4306 215.009C25.674 215.193 25.7065 216.62 25.6356 218.497C25.4408 221.647 25.2401 224.829 25.1527 226.439C24.7703 230.029 25.1496 224.924 24.8604 226.874L24.6156 231.752C24.3058 232.21 23.2724 241.266 23.9288 232.782L23.1942 240.405C22.6138 244.884 22.0008 251.07 21.8296 254.911C21.4907 258.517 21.5165 264.074 21.5021 260.912C21.3244 264.931 21.1903 268.964 21.2566 273.022L21.1777 273.126C21.2246 276.149 21.3063 279.198 21.9687 282.394C22.1429 283.2 22.3811 284.017 22.7587 284.868C22.9519 285.287 23.3042 285.881 23.7154 286.301C24.1381 286.73 24.6716 287.06 25.2611 287.196C25.8506 287.332 26.4729 287.256 27.0346 287.043C27.5963 286.83 28.1673 286.46 28.5025 286.185C29.2401 285.595 29.815 284.955 30.3464 284.3C31.4207 282.999 32.2223 281.601 33.1516 280.227C33.9822 278.815 34.8013 277.394 35.6059 275.943C36.3786 274.487 37.1485 273.011 37.9387 271.532C38.6969 270.046 39.4727 268.538 40.2457 267.009C41.8288 263.324 43.4588 259.529 46.0974 253.362L46.802 252.237C48.7234 247.478 52.749 238.007 53.3121 235.864C55.9142 230.927 62.2395 212.629 65.3807 204.183L65.2194 203.77C67.3453 197.945 69.2814 192.322 71.7615 185.016L71.365 185.372C73.3909 179.053 77.2488 169.345 80.7152 159.433C80.5643 160.139 79.6569 162.641 78.979 164.405C83.7102 152.771 87.367 139.305 91.603 128.736C92.4617 126.034 93.1809 124.118 93.9202 122.272C93.8408 122.522 93.7585 122.751 93.691 122.937C93.7879 122.664 93.9289 122.261 94.0875 121.834C94.5481 120.67 95.035 119.472 95.5397 118.178C95.0793 119.269 94.6453 120.325 94.296 121.245C95.0157 119.184 96.1056 116.055 97.172 112.981L97.906 111.769C97.9854 111.52 98.0617 111.322 98.1499 111.061C99.3467 108.104 98.9088 108.611 98.1243 110.131C98.6445 108.575 99.1118 107.161 99.4444 106.046C100.758 103.779 102.267 97.9977 103.97 94.8768C104.481 92.7309 109.744 79.6225 110.041 77.8799C110.146 77.8134 110.553 76.9372 109.864 78.5476C110.611 76.9083 111.35 75.208 112.024 73.7864C112.613 72.501 113.187 71.2593 113.726 70.0639C113.901 69.9773 114.064 69.9547 114.177 70.0219C114.37 69.6216 114.569 69.1893 114.832 68.7689C114.981 68.5718 115.125 68.334 115.337 68.2214C115.593 68.1236 115.686 68.339 115.743 68.4554C115.979 69.0347 115.968 69.7728 115.974 70.6331C115.807 71.6003 115.662 72.3467 115.538 72.8723C115.39 73.5257 115.278 73.9874 115.19 74.2486C115.099 74.4895 115.058 74.4225 115.075 74.0157C115.07 73.6844 115.131 72.8563 115.136 72.4407C115.118 72.6092 115.108 72.7661 115.099 72.923C115.063 73.1873 115.036 73.4401 115.018 73.6813C114.946 74.2826 114.877 74.8316 114.811 75.3284C114.656 76.377 114.531 77.2659 114.42 78.0386C114.167 79.578 113.989 80.6817 113.802 81.7244C113.448 83.8069 113.128 85.6774 112.307 90.5221L112.184 90.0102C111.477 93.4283 110.567 98.9702 109.935 100.988C107.863 108.548 101.16 138.746 96.0855 158.209C97.6539 154.567 93.6368 167.232 93.959 168.132C93.5306 169.229 92.8084 171.943 93.4103 168.737C91.2049 178.764 89.6288 183.694 88.446 190.705C88.0292 191.811 88.7216 188.509 88.3836 189.51C88.2266 190.321 87.7817 192.717 87.4466 193.738C87.1174 194.728 87.6527 192.237 87.9493 190.639C85.6066 200.873 85.8697 202.019 86.1426 202.862C84.7401 207.996 84.1986 210.592 83.6613 214.412C83.1199 216.188 82.2893 219.167 83.6528 212.784C82.7996 216.347 78.6831 234.639 79.0157 235.09C78.6919 236.194 77.9827 240.12 77.8454 241.073C76.3041 249.162 76.0894 249.855 74.9463 257.899L75.3236 255.689C75.3089 257.299 75.0963 258.978 74.8358 261.058C74.7011 262.103 74.569 263.242 74.4711 264.553C74.4164 265.203 74.3877 265.892 74.3819 266.671C74.3902 267.552 74.4243 268.543 74.6506 269.424C74.6218 269.366 74.5842 269.319 74.5553 269.261C74.69 269.782 74.8102 270.274 75.0792 270.641C75.3102 271.034 75.7654 271.323 76.2016 271.252C77.0218 271.107 77.6049 270.601 78.1358 270.091C79.2707 268.927 79.6604 268.074 80.1598 267.413C81.0281 266.048 81.551 265.332 81.8878 264.621C82.5907 263.185 83.4762 261.869 86.8111 255.263L86.2101 255.866C86.2623 255.122 87.6479 252.18 89.4581 248.411C90.3138 246.508 91.2546 244.396 92.1954 242.283C93.1014 240.145 93.961 237.971 94.6864 235.951L93.4087 238.774C94.9422 234.359 98.8588 226.864 100.508 222.464C100.907 221.527 100.029 224.014 99.5851 225.373C104.095 213.935 99.8062 223.755 102.794 215.102C103.547 213.576 102.542 217.316 104.63 211.516C105.832 208.673 109.855 194.409 112.872 186.561C112.145 188.27 111.426 189.968 112.645 185.898C114.656 179.694 118.716 169.357 120.075 163.608C120.371 162.83 120.509 162.551 120.547 162.525C121.968 157.753 125.327 147.067 126.009 144.14C128.335 140.05 135.036 114.532 135.857 114.915L140.521 100.334L140.484 100.744C143.57 91.455 144.443 88.1072 145.327 84.7682C146.1 82.6379 145.658 84.2347 145.643 84.4235C150.299 70.9118 150.723 69.5561 154.166 58.0599L154.844 56.9696C155.748 53.8457 161.993 37.5818 166.861 24.4662C166.849 24.6027 166.775 24.8931 166.413 25.9496C167.811 22.2696 169.421 18.259 171.226 14.3044C172.088 12.2964 173.098 10.382 174.032 8.44694C174.489 7.48081 175.016 6.56728 175.522 5.65657C176.013 4.78939 176.493 3.91345 176.967 3.0695C177.572 2.2696 177.985 1.36143 178.521 1.03789C178.693 0.930997 178.855 1.12636 178.877 1.28921C178.92 1.44919 178.934 1.62363 178.945 1.77768C178.959 2.09745 178.949 2.3997 178.927 2.69314C178.915 2.97499 178.911 3.24525 178.826 4.0558C178.766 4.73859 178.708 5.36904 178.654 5.94721C178.556 7.11229 178.495 8.08565 178.504 8.82101C178.014 12.2399 177.42 15.6527 176.794 19.0595C179.537 5.88657 176.862 21.1145 178.115 15.7221C177.148 20.9296 174.926 29.0504 176.281 22.6789L176.549 21.6976C176.533 20.4652 175.617 24.5452 174.61 28.8661C173.603 33.187 172.505 37.7488 172.381 37.5274C166.277 63.3159 159.387 88.218 153.371 112.324L154.483 109.649L152.374 118.055C151.744 120.238 151.322 120.94 152.812 114.943C152.301 116.488 151.731 119.026 151.307 121.201C151.094 122.279 150.921 123.278 150.797 124.021C150.734 124.393 150.692 124.689 150.651 124.913C150.609 125.209 150.582 125.389 150.576 125.421C149.587 129.501 149.189 131.258 149.059 131.597C148.933 131.957 149.077 130.9 149.373 129.303C149.69 127.702 150.09 125.727 150.333 124.49C150.493 123.628 150.558 123.276 150.343 124.188L149.539 127.734L148.725 131.582L149.162 129.799C148.628 132.747 148.463 134.098 148.382 135.53C148.371 136.196 148.371 136.87 148.403 137.623C148.425 138.004 148.415 138.451 148.46 138.922C148.482 139.158 148.516 139.402 148.617 139.678C148.657 139.745 148.677 139.815 148.779 139.874C148.889 139.921 148.976 139.877 149.035 139.848C149.169 139.768 149.268 139.66 149.355 139.544C149.74 139.18 150.206 138.202 150.42 137.871C150.654 137.465 150.756 137.306 150.808 137.236C150.922 137.086 150.843 137.263 151.343 136.384C151.326 136.407 151.422 136.28 151.645 135.865C151.876 135.438 152.277 134.739 152.882 133.649L158.851 123.078L156.328 127.018C157.56 124.689 158.868 122.235 159.541 120.958C160.182 119.749 160.192 119.592 158.783 121.842C160.87 118.574 165.704 109.769 170.415 101.125C175.234 92.5812 179.853 84.324 181.046 82.3841C184.196 76.3855 187.597 70.6319 191.768 63.4746C190.672 65.2143 189.736 66.0915 193.363 59.9435C192.681 62.5799 200.33 48.8701 203.768 44.2008C202.289 46.3256 204.866 41.9524 207.235 37.8778C209.616 33.812 211.836 30.0798 209.507 33.4018C212.662 28.3361 209.941 33.2377 212.446 29.4659C219.522 17.1635 228.872 2.8642 238.016 -12.1014C238.069 -12.3889 236.392 -9.97707 238.25 -13.2543L243.585 -20.8433C245.372 -23.8098 244.773 -23.8615 248.42 -29.0473C247.876 -28.3286 247.059 -27.2708 248.255 -29.263C266.922 -58.1059 285.453 -88.8181 305.346 -117.499C302.591 -113.662 304.299 -116.306 306.266 -119.318C304.948 -117.382 306.075 -119.499 305.713 -119.19L314.067 -131.182C315.189 -133.631 322.721 -144.223 323.284 -145.691L320.762 -141.823C323.836 -147.168 315.154 -135.224 315.208 -136.258C311.799 -130.255 304.582 -121.501 298.992 -111.646C297.531 -109.617 299.996 -113.529 299.166 -112.48C297.797 -109.945 295.964 -107.013 292.378 -101.691L292.714 -102.329C282.974 -87.1765 278.579 -80.8076 267.58 -63.8203L268.618 -64.9295C266.242 -61.2793 265.678 -60.5577 264.533 -58.8734C262.203 -54.4411 271.122 -69.1577 269.064 -65.0848C265.463 -60.5381 252.645 -39.169 250.027 -36.2113C246.458 -30.5485 251.335 -37.7003 247.786 -32.0403L246.708 -30.6144L245.99 -29.0622C243.631 -25.3625 242.279 -23.5975 242.069 -23.5373C242.651 -24.4274 243.639 -26.121 244.23 -27.0953C241.048 -22.3786 235.795 -13.4524 234.713 -11.8288L238.206 -17.2217C228.683 -1.63259 216.859 17.264 208.031 32.5593L208.846 31.4812C202.095 43.1366 203.182 40.6616 195.694 53.4362L195.949 52.9547C194.538 55.568 192.587 58.9931 190.543 62.4935C192.293 59.1897 186.751 68.4258 189.075 64.0982C181.948 76.8538 185.622 70.4502 181.181 79.0249L179.89 80.8539C178.434 83.8159 178.401 84.1006 174.808 90.5655C177.63 85.1934 172.204 94.5172 175.327 88.4807C167.23 101.724 164.58 108.846 160.558 114.769C157.692 121.309 167.248 103.122 165.462 106.69C167.225 103.851 163.056 112.067 160.681 116.318C160.095 117.406 159.496 118.392 158.861 119.424C158.335 120.265 157.777 121.173 157.124 122.228C155.92 124.159 154.736 126.088 152.821 129.85C153.234 129.015 153.257 128.96 153.65 128.127C153.322 128.681 152.986 129.319 152.631 130.053C152.447 130.442 152.251 130.822 152.066 131.21C151.92 131.5 151.79 131.84 151.569 132.11C151.507 132.191 151.409 132.153 151.409 132.08C151.38 132.022 151.392 131.958 151.383 131.897C151.375 131.763 151.379 131.638 151.391 131.501C151.415 131.228 151.457 130.932 151.525 130.601C151.641 129.942 151.824 129.169 152.065 128.368C151.932 128.086 152.183 126.982 152.364 126.189C152.491 125.611 152.84 124.017 152.716 123.578L151.803 127.751C151.569 128.904 151.338 130.004 151.166 131.076C151.428 129.38 151.602 127.872 152.171 124.878C152.896 121.291 153.812 117.211 155.224 112.066C155.11 112.891 154.465 116.01 154.024 118.136C154.904 115.14 155.368 112.285 156.295 109.179C156.407 109.682 155.589 113.053 154.583 117.156C154.09 119.206 153.57 121.436 153.059 123.582C152.947 124.116 152.823 124.642 152.699 125.168C152.637 125.467 152.583 125.754 152.53 126.042C152.45 126.509 152.393 126.922 152.372 127.215C152.518 126.78 152.628 126.298 152.74 125.764C152.994 124.608 153.258 123.368 153.485 122.319C154.006 119.944 154.375 118.419 154.214 120.174C154.782 115.157 157.22 108.293 158.826 99.9982L158.952 100.603C159.238 99.308 159.783 96.5868 160.397 94.2088L159.648 98.5975C161.03 91.9006 163.153 85.9098 164.598 79.5154C161.23 92.8169 163.518 82.4148 161.896 87.9832C165.704 71.498 165.008 78.7323 169.494 60.3373C168.918 62.8346 167.001 69.637 167.847 65.7224C168.784 62.2412 170.033 57.648 170.704 55.5318C173.644 43.3274 169.959 57.3368 171.088 52.1066C172.432 48.0399 172.43 46.0897 173.601 40.7086L173.886 40.7416C177.338 26.8476 174.226 36.9182 177.277 24.3974L176.473 29.8001L177.84 23.2195L177.852 24.6494C179.163 17.4437 179.718 15.2398 181.035 8.14744C180.805 8.95747 180.719 8.71011 180.805 7.46361C180.862 6.83316 180.95 5.97027 181.044 4.85752C181.101 4.22702 181.162 3.54428 181.243 2.78602C181.314 1.87371 181.387 0.836432 181.344 -0.14319C181.291 -1.49483 181.141 -1.82675 181.139 -1.99239C181.119 -2.13489 181.197 -2.02122 181.206 -2.0328C181.206 -2.0328 181.221 -2.22171 180.904 -2.7896C180.811 -2.93234 180.716 -3.09548 180.496 -3.26196C180.284 -3.44002 179.878 -3.52873 179.569 -3.43394C179.238 -3.35673 178.929 -3.1893 178.57 -2.93195C178.39 -2.81347 178.197 -2.63106 177.993 -2.45747C177.792 -2.26347 177.581 -1.91261 177.362 -1.62279C177.549 -1.91854 177.748 -2.27817 177.962 -2.53604C178.18 -2.75321 178.408 -2.98197 178.644 -3.14963C179.11 -3.45306 179.574 -3.84953 180.387 -3.59949C181.059 -3.23657 181.31 -2.7009 181.592 -1.86863C181.833 -1.03072 181.854 0.314983 181.683 1.84309C181.714 2.13964 181.693 2.88942 181.662 3.63044C181.639 4.21453 181.632 4.68242 181.642 4.90915C181.684 4.61284 181.735 4.30498 181.785 3.99708L181.869 3.4045L181.953 2.66659C182.047 1.62648 182.15 0.429456 182.073 -0.576453C182.004 -1.5939 181.768 -2.39112 181.43 -2.95623C181.245 -3.2417 181.055 -3.49529 180.744 -3.71151C180.42 -3.95685 179.906 -3.99943 179.615 -3.92788C178.969 -3.79658 178.395 -3.51967 177.797 -2.89703C177.233 -2.10283 176.696 -1.34339 176.184 -0.618666C175.673 0.106008 175.194 0.763977 174.753 1.39594C174.648 1.53505 174.516 1.70893 174.461 1.8308C174.402 1.93232 174.346 2.05414 174.288 2.15566C174.183 2.36742 174.074 2.55882 173.975 2.73868C174.133 2.45735 174.291 2.17601 174.446 1.87433C174.668 1.53223 174.992 1.10325 175.255 0.755497C175.798 0.03671 176.298 -0.624085 176.619 -1.07336L175.272 0.877601L174.618 1.84008L174.243 2.57691L172.755 5.53293C171.786 7.51437 170.968 9.53705 170.062 11.5303C169.146 13.3696 169.689 11.8312 170.331 10.331C169.215 12.7478 168.659 14.4954 167.114 18.0819C167.283 17.0624 166.981 17.1979 169.092 12.0906L166.722 17.877L164.492 23.6959C164.074 24.418 161.924 29.5514 162.436 28.0071C159.796 34.3912 156.93 43.9918 153.774 52.5538C153.662 53.0155 153.394 53.9242 152.779 55.7732C149.93 63.8568 147.247 70.9732 144.348 80.7132L142.166 86.0585C139.767 93.6439 145.079 78.8064 141.109 91.4342C138.329 100.39 139.699 94.6492 138.563 97.7431C137.311 102.243 135.215 110.077 132.264 118.175C133.056 115.44 133.811 113.333 134.588 110.787L134.574 110.612ZM104.266 203.828C104.822 202.008 105.873 198.376 106.497 197.117C106.099 199.257 105.411 200.795 104.266 203.828ZM88.9596 196.412C88.7277 197.803 88.1938 199.932 87.5485 202.304C87.927 200.55 88.3906 198.587 88.9596 196.412ZM22.8413 246.222C22.8413 246.222 22.8408 246.368 22.8377 246.42C22.3569 250.647 22.5311 249.139 22.8413 246.222ZM23.7806 237.46C23.8246 236.583 23.7808 236.641 23.7068 237.004C23.719 237.614 23.5373 239.59 23.2994 241.832C23.4324 241.223 23.5849 240.081 23.7806 237.46ZM151.95 135.148L151.063 136.682C153.126 132.868 152.547 133.996 151.95 135.148Z" fill="#6C45AA"/>
<path d="M85.5877 212.972C85.4202 213.482 85.3354 213.619 85.2681 213.732C85.1521 214.464 85.1984 214.499 85.5877 212.972Z" fill="#6C45AA"/>
<path d="M153.654 52.6638L153.76 52.3794C153.789 52.2196 153.807 52.1238 153.81 52.0715L153.663 52.6522L153.654 52.6638Z" fill="#6C45AA"/>
<path d="M60.9828 207.471C61.6401 205.782 62.0301 204.857 62.3172 204.236C62.2914 204.125 61.9486 204.868 60.9828 207.471Z" fill="#6C45AA"/>
<path d="M21.0633 226.499L22.8414 221.158C21.9542 223.73 21.5817 224.632 21.0858 225.915C21.1966 225.817 21.6304 224.833 21.0633 226.499Z" fill="#6C45AA"/>
<path d="M3.61509 272.238C3.3622 273.031 3.07709 273.89 2.83297 274.671L3.03704 274.497C4.16251 271.176 4.85136 268.819 3.63544 272.235L3.61509 272.238Z" fill="#6C45AA"/>
<path d="M18.471 231.134C18.1035 231.475 17.0273 234.851 15.7956 238.602C15.8778 238.373 15.9425 238.166 16.0247 237.937C15.965 239.149 17.221 235.125 18.471 231.134Z" fill="#6C45AA"/>
<path d="M15.5221 239.47C15.1225 240.625 14.7258 241.801 14.3525 242.921C14.3362 243.401 14.8547 241.534 15.5221 239.47Z" fill="#6C45AA"/>
<path d="M24.6735 226.35C24.8925 224.493 24.4774 225.163 24.6731 224.109C24.5763 221.996 23.9032 236.551 24.6735 226.35Z" fill="#6C45AA"/>
<path d="M16.7082 233.9L17.4481 232.656L17.9357 230.492L16.7082 233.9Z" fill="#6C45AA"/>
<path d="M26.7007 214.22C26.7305 213.241 26.7574 212.241 26.6478 211.23C26.6226 210.974 26.5771 210.721 26.5228 210.479C26.4509 210.261 26.3417 209.923 26.0684 209.972C25.6144 210.139 25.4004 210.615 25.1432 211.003C25.1661 211.093 24.803 211.839 24.4568 212.707C24.8259 211.929 25.1574 211.105 25.7264 210.497C25.8519 210.355 26.1283 210.254 26.2497 210.455C26.3769 210.624 26.4256 210.825 26.4714 211.005C26.5571 211.398 26.5877 211.767 26.6039 212.107C26.6802 213.476 26.6275 214.365 26.6891 214.212L26.7007 214.22Z" fill="#6C45AA"/>
<path d="M24.4568 212.707C23.7328 214.363 23.1657 216.03 22.8628 216.985C23.1829 216.079 23.8673 214.137 24.4568 212.707Z" fill="#6C45AA"/>
<path d="M19.4299 225.72L20.0903 223.979L21.5794 219.767L19.4299 225.72Z" fill="#6C45AA"/>
<path d="M22.9806 281.465C23.2118 282.605 23.4749 283.751 24.0988 284.806C24.4223 285.342 24.8854 285.837 25.5069 285.979C26.1195 286.133 26.7511 285.9 27.2783 285.588C27.5641 285.33 27.3017 285.533 26.6295 285.771C26.292 285.88 25.8063 285.969 25.3072 285.737C24.811 285.526 24.3973 285.013 24.1001 284.442C23.2627 282.972 22.9324 280.372 22.9894 281.453L22.9806 281.465Z" fill="#6C45AA"/>
<path d="M23.6043 260.661C23.426 262.512 23.3703 262.633 23.2153 263.682L23.569 263.913L23.6159 260.67L23.6043 260.661Z" fill="#6C45AA"/>
<path d="M23.7308 280.593C23.8023 280.884 24.319 283.406 24.9408 284.222C25.1866 284.571 25.3896 284.688 25.242 284.522C25.1552 284.42 25.0568 284.309 24.8752 283.899C24.6705 283.471 24.4261 282.758 24.2119 281.74C23.8711 281.154 23.1784 274.383 23.7395 280.581L23.7308 280.593Z" fill="#6C45AA"/>
<path d="M65.541 197.801L64.9507 199.45L65.5786 199.415L65.541 197.801Z" fill="#6C45AA"/>
<path d="M94.8537 111.156C91.9423 118.792 94.5326 113.099 91.8593 119.986C91.3381 121.833 94.0338 114.362 93.4775 116.255C95.0149 111.57 95.9772 109.164 94.8449 111.168L94.8537 111.156Z" fill="#6C45AA"/>
<path d="M93.4979 116.252C93.2597 117.001 92.998 117.805 92.7304 118.641C93.1743 117.282 93.3656 116.644 93.4979 116.252Z" fill="#6C45AA"/>
<path d="M319.79 -139.261L322.826 -143.542L320.773 -140.85L319.79 -139.261Z" fill="#6C45AA"/>
<path d="M325.071 -147.838L326.083 -148.622L327.595 -151.395C326.932 -150.421 325.661 -148.522 325.083 -147.829L325.071 -147.838Z" fill="#6C45AA"/>
<path d="M98.7344 217.316L98.6864 217.717C99.0524 216.992 99.4839 215.842 100.303 213.529L98.7344 217.316Z" fill="#6C45AA"/>
<path d="M121.584 149.994L121.205 151.147L122.236 149.084L121.584 149.994Z" fill="#6C45AA"/>
<path d="M139.513 93.0152C138.778 95.3375 137.902 98.0633 137.158 100.397C138.734 95.3228 140.128 92.5147 139.513 93.0152Z" fill="#6C45AA"/>
</svg>
