<svg width="100%" height="100%" viewBox="0 0 191 7" fill="none" xmlns="http://www.w3.org/2000/svg">
  <g clip-path="url(#clip0_423_52422)">
    <path d="M190.19 5.33128C190.463 5.38925 190.395 5.24111 190.443 5.22178C189.972 5.1767 190.197 5.36349 190.19 5.33128Z" fill="#CD4D14" />
    <path d="M185.551 4.89445L185.639 4.84937L184.943 4.89445H185.551Z" fill="#CD4D14" />
    <path d="M181.258 4.32092C181.633 4.60433 182.82 4.48839 183.571 4.67519L183.687 4.74604L184.062 4.61078C183.128 4.51416 181.906 4.47551 181.258 4.32736V4.32092Z" fill="#CD4D14" />
    <path d="M179.026 3.57373C179.156 3.67679 178.521 3.59305 179.559 3.65747C179.511 3.63814 179.497 3.6317 179.463 3.62526C179.368 3.61238 179.245 3.5995 179.026 3.57373Z" fill="#CD4D14" />
    <path d="M179.464 3.63138C179.178 3.52188 179.921 3.67647 179.464 3.63138V3.63138Z" fill="#CD4D14" />
    <path d="M177.363 3.45045L177.97 3.43756C177.854 3.37315 177.322 3.3023 177.519 3.28298C176.899 3.25721 177.021 3.32806 177.363 3.45045Z" fill="#CD4D14" />
    <path d="M176.775 3.55378H177.089C177.035 3.52802 176.96 3.50869 176.775 3.55378Z" fill="#CD4D14" />
    <path d="M177.758 3.56091H177.096C177.178 3.606 177.178 3.6833 177.403 3.56735C177.341 3.63177 177.478 3.58024 177.764 3.56091H177.758Z" fill="#CD4D14" />
    <path d="M178.127 3.63135C178.454 3.71508 178.884 3.79882 178.277 3.8117C179.423 3.90188 179.273 3.72797 178.127 3.63135Z" fill="#CD4D14" />
    <path d="M181.006 4.53321L181.443 4.65559L181.839 4.62983C181.641 4.64271 180.986 4.45592 181.006 4.53321Z" fill="#CD4D14" />
    <path d="M173.649 2.97446C173.608 3.01955 173.84 3.12261 173.875 3.18702L174.325 3.16769C174.1 3.11616 173.677 3.04531 173.649 2.96802V2.97446Z" fill="#CD4D14" />
    <path d="M173.876 3.18689L173.207 3.21265C173.794 3.27707 173.91 3.24486 173.876 3.18689Z" fill="#CD4D14" />
    <path d="M176.638 3.79869L177.744 3.74072L176.434 3.77937L176.638 3.79869Z" fill="#CD4D14" />
    <path d="M171.118 2.74206L171.507 2.65833L170.824 2.76783L171.118 2.74206Z" fill="#CD4D14" />
    <path d="M169.44 2.62074C169.727 2.54988 169.072 2.43394 169.372 2.40174C168.915 2.38241 168.519 2.43394 168.164 2.48547C168.539 2.47259 168.935 2.51124 169.44 2.62718V2.62074Z" fill="#CD4D14" />
    <path d="M167.562 2.54207C167.754 2.53563 167.945 2.50987 168.163 2.47766C167.965 2.4841 167.767 2.50343 167.562 2.54207Z" fill="#CD4D14" />
    <path d="M172.079 3.08352C172.031 3.05132 171.943 2.96114 171.574 2.89673L171.82 3.05776C171.902 3.0642 171.99 3.07708 172.079 3.08352Z" fill="#CD4D14" />
    <path d="M171.828 3.06368H171.821C171.541 3.03147 171.344 3.01215 171.262 2.99927C171.337 3.00571 171.507 3.02503 171.835 3.06368H171.828Z" fill="#CD4D14" />
    <path d="M172.147 3.09009C172.147 3.09009 172.107 3.09009 172.08 3.09009C172.1 3.10297 172.12 3.10941 172.147 3.09009Z" fill="#CD4D14" />
    <path d="M174.927 3.50916C174.531 3.5478 173.712 3.56068 174.483 3.74748C174.77 3.67663 174.333 3.57357 174.927 3.50916Z" fill="#CD4D14" />
    <path d="M172.448 3.2898L173.144 3.38642C173.137 3.34777 173.015 3.28336 173.206 3.26404L172.441 3.2898H172.448Z" fill="#CD4D14" />
    <path d="M172.102 3.30229L172.45 3.28941L172.19 3.2572L172.102 3.30229Z" fill="#CD4D14" />
    <path d="M168.757 2.76196C168.45 2.80061 168.116 2.78129 167.74 2.76196C168.143 2.81993 168.552 2.86502 168.948 2.89079C169.009 2.85214 169.187 2.78773 168.757 2.76196Z" fill="#CD4D14" />
    <path d="M170.251 2.90942C170.251 2.90942 170.204 2.90942 170.184 2.90942C170.224 2.92231 170.257 2.92875 170.251 2.90942Z" fill="#CD4D14" />
    <path d="M164.049 2.48547L164.102 2.51124L164.122 2.49191L164.049 2.48547Z" fill="#CD4D14" />
    <path d="M169.016 2.9221C169.317 2.97363 169.501 2.94786 169.678 2.9221C169.453 2.9221 169.207 2.90922 168.955 2.88989C168.928 2.90922 168.921 2.9221 169.023 2.9221H169.016Z" fill="#CD4D14" />
    <path d="M166.533 2.52934C166.69 2.56799 166.868 2.60664 167.052 2.64529C166.902 2.58732 166.595 2.49714 166.533 2.52934Z" fill="#CD4D14" />
    <path d="M170.081 2.86448H170.128C170.034 2.82583 170.041 2.83871 170.081 2.86448Z" fill="#CD4D14" />
    <path d="M170.081 2.86548C169.924 2.87192 169.802 2.89768 169.672 2.91701C169.856 2.91701 170.027 2.91701 170.177 2.91057C170.143 2.89768 170.102 2.87836 170.081 2.86548Z" fill="#CD4D14" />
    <path d="M162.862 3.29571C162.923 3.17333 163.728 3.09603 164.404 3.28283C165.086 3.23774 164.677 2.78686 164.103 2.50989C164.076 2.56142 164.076 2.61295 163.373 2.64515C163.612 2.72245 164.902 2.90924 164.308 2.98653C163.387 2.98653 163.558 2.89636 163.114 2.79974C163.483 2.98009 161.927 2.96077 162.111 3.20553L162.923 3.17333C162.937 3.21197 162.636 3.25062 162.862 3.29571Z" fill="#CD4D14" />
    <path d="M165.427 2.62712H165.714C165.393 2.58847 165.161 2.51762 164.738 2.38879C164.26 2.41456 164.158 2.45321 164.117 2.49829L165.523 2.62068L165.421 2.63356L165.427 2.62712Z" fill="#CD4D14" />
    <path d="M166.997 2.72272C166.765 2.8451 166.069 2.85154 166.478 3.03189C167.317 3.08342 167.072 2.96104 167.584 2.93527C166.226 2.87086 167.979 2.89019 167.01 2.7356C167.277 2.7356 167.515 2.74204 167.747 2.75492C167.502 2.72272 167.27 2.68407 167.051 2.63898C167.065 2.63898 167.072 2.64542 167.079 2.65186C167.133 2.67119 167.154 2.68407 167.092 2.67119C167.092 2.67119 167.072 2.67119 167.065 2.67119C167.051 2.69051 167.031 2.70339 166.997 2.71627C166.608 2.6583 166.935 2.67763 167.065 2.67119C167.065 2.66475 167.079 2.6583 167.085 2.65186L165.721 2.6261C166.007 2.66475 166.369 2.69051 167.004 2.72272H166.997Z" fill="#CD4D14" />
    <path d="M173.725 3.97946C173.684 3.96661 173.684 3.95376 173.684 3.94092C173.595 3.94734 173.561 3.96019 173.725 3.97946Z" fill="#CD4D14" />
    <path d="M173.18 3.84445C173.282 3.83157 173.371 3.78648 173.685 3.83157C173.958 3.89598 173.678 3.89598 173.685 3.94107C173.883 3.92174 174.367 3.90242 173.773 3.78004L173.678 3.79292C173.139 3.6963 172.456 3.46442 172.552 3.45154C172.695 3.59324 172.832 3.68986 173.18 3.84445Z" fill="#CD4D14" />
    <path d="M170.055 3.28962L168.922 3.27673L169.488 3.43776L169.468 3.36691C170.109 3.4442 169.973 3.34114 170.061 3.29606L170.055 3.28962Z" fill="#CD4D14" />
    <path d="M163.926 2.40785L164.083 2.27258L163.414 2.44005L163.926 2.40785Z" fill="#CD4D14" />
    <path d="M162.453 2.33625L162.521 2.21387L162.125 2.2654L162.453 2.33625Z" fill="#CD4D14" />
    <path d="M79.5492 2.34973L79.2148 2.38838C79.3718 2.3755 79.4741 2.36261 79.5492 2.34973Z" fill="#CD4D14" />
    <path d="M81.9519 2.329L82.0135 2.26477C81.904 2.30331 81.856 2.329 81.9519 2.329Z" fill="#CD4D14" />
    <path d="M126.368 0.945527C125.884 0.816703 125.352 0.623468 125.406 0.765174L125.55 0.90688C125.891 0.887556 126.15 0.90688 126.368 0.945527Z" fill="#CD4D14" />
    <path d="M101.645 1.51877C101.692 1.53165 101.74 1.54453 101.788 1.56385C101.904 1.51877 102.013 1.47368 102.115 1.42859C101.972 1.45435 101.815 1.48656 101.645 1.51877Z" fill="#CD4D14" />
    <path d="M101.303 2.09897L100.668 2.00879C100.811 2.04099 101.016 2.0732 101.303 2.09897Z" fill="#CD4D14" />
    <path d="M66.4271 2.67786L66.0449 2.826C66.6522 2.81312 66.3793 2.74871 66.4271 2.67786Z" fill="#CD4D14" />
    <path d="M147.412 1.60917C146.996 1.53832 146.668 1.49967 146.375 1.48035C146.873 1.58341 147.276 1.71867 147.412 1.60917Z" fill="#CD4D14" />
    <path d="M80.478 0.855103C80.2733 0.880867 80.1914 0.913073 80.1914 0.945279C80.4029 0.919514 80.519 0.89375 80.478 0.855103Z" fill="#CD4D14" />
    <path d="M145.166 1.4342C145.241 1.44709 145.309 1.45997 145.384 1.47285C145.691 1.45997 145.999 1.45353 146.374 1.47929C146.005 1.402 145.582 1.35047 145.166 1.42776V1.4342Z" fill="#CD4D14" />
    <path d="M18.8583 4.1785C18.824 4.1785 18.7829 4.17207 18.7487 4.16565C18.7418 4.18492 18.7898 4.18492 18.8583 4.1785Z" fill="#CD4D14" />
    <path d="M4.9043 3.85122C5.04077 3.82546 5.26596 3.79969 5.47067 3.77393C5.36832 3.77393 5.19772 3.79325 4.9043 3.85122Z" fill="#CD4D14" />
    <path d="M156.549 1.92347C156.597 1.91062 156.864 1.92989 156.549 1.92347V1.92347Z" fill="#CD4D14" />
    <path d="M158.03 2.55579C157.962 2.56863 157.914 2.58148 157.9 2.61359C157.928 2.58148 157.976 2.56221 158.03 2.55579Z" fill="#CD4D14" />
    <path d="M142.027 2.18848C142.027 2.18848 142.013 2.18848 142 2.18848C142.087 2.22068 142.074 2.21424 142.027 2.18848Z" fill="#CD4D14" />
    <path d="M157.013 2.00777C156.897 1.98201 156.76 1.96268 156.617 1.94336C156.679 1.95624 156.801 1.97557 157.013 2.00777Z" fill="#CD4D14" />
    <path d="M156.959 1.94362C157.068 1.95651 157.15 1.96295 157.232 1.96939C157.273 1.95007 157.239 1.93074 156.959 1.94362Z" fill="#CD4D14" />
    <path d="M156.111 1.91113C156.289 1.91757 156.453 1.93046 156.616 1.94978C156.555 1.9369 156.528 1.93046 156.548 1.92402C156.459 1.92402 156.33 1.91757 156.111 1.91113Z" fill="#CD4D14" />
    <path d="M44.3171 2.72992C44.3171 2.72992 44.2762 2.72348 44.2489 2.71704C43.935 2.78789 44.0715 2.76857 44.3171 2.72992Z" fill="#CD4D14" />
    <path d="M118.234 2.26477C118.234 2.26477 118.253 2.26477 118.267 2.26477C118.253 2.26477 118.234 2.26477 118.221 2.26477L118.234 2.27754V2.26477Z" fill="#CD4D14" />
    <path d="M117.115 2.35651C117.593 2.18904 117.866 2.2148 118.228 2.25345L117.866 1.84766L117.122 2.35651H117.115Z" fill="#CD4D14" />
    <path d="M73.7899 2.45916L74.5746 2.5751C73.633 2.7941 72.9438 2.73613 73.6807 2.89716C73.7831 2.45272 76.731 2.81343 76.8333 2.37543L77.3519 2.45916C77.2018 2.45916 77.1813 2.48493 77.0312 2.47848C78.0411 2.67816 77.775 2.15643 79.0715 2.20151C79.5219 2.22728 79.8426 2.29169 79.5356 2.34322L80.5387 2.22084C80.8321 2.22084 80.7638 2.30457 80.4704 2.29813L82.0058 2.2466L81.9921 2.25948C82.2105 2.18863 82.7086 2.07913 82.9475 2.0276C83.3364 2.08557 82.7496 2.07269 82.8519 2.13066L83.7049 2.02116C84.0529 2.13066 83.3501 2.2466 82.7632 2.23372C83.5616 2.66528 83.4661 2.11778 85.1857 2.36254L84.3805 2.42051C84.8991 2.66528 85.5269 2.56866 86.4344 2.71681C86.2161 2.63951 84.6125 2.33678 85.5337 2.22728C85.793 2.25949 86.1342 2.27237 86.6323 2.18219C86.6323 2.33678 87.1236 2.29813 87.7309 2.28525L87.69 2.49137C88.3451 2.42696 88.2973 2.3239 88.6795 2.22728C89.4164 2.24016 89.5666 2.40119 89.7372 2.53646C90.9109 2.56222 88.9251 2.28525 90.3172 2.24016C91.293 2.31746 91.9822 2.23372 93.1491 2.1049C93.8314 2.17575 93.0331 2.23372 93.2787 2.29169L93.886 2.12422C94.0362 2.12422 93.9884 2.17575 93.9611 2.20151C94.4729 2.1371 94.002 1.9954 94.8072 1.93743C95.0256 1.71199 96.4586 2.26593 97.4481 2.00828C97.6937 2.06625 97.3321 2.1371 97.4071 2.2144C98.7719 2.04049 98.574 2.09201 99.6931 1.86657L100.648 2.00184C99.9456 1.84725 100.846 1.6669 101.631 1.51875C101.385 1.44146 101.167 1.37705 101.031 1.34484L102.286 1.23534C102.436 1.26755 102.313 1.3384 102.109 1.42857C102.191 1.40925 102.272 1.39637 102.341 1.37705C102.791 1.45434 102.559 1.57028 102.232 1.68622C102.081 1.64113 101.931 1.60249 101.781 1.5574C101.474 1.67978 101.181 1.82149 101.249 1.93743C101.331 1.91166 101.488 1.89234 101.658 1.8859C101.576 1.9181 101.529 1.95031 101.563 1.96963C101.604 1.98896 101.733 1.94387 101.938 1.89234L102.225 2.12422L102.293 2.03404L103.931 2.18219C105.104 1.95031 106.121 1.61537 107.984 1.53807C107.52 1.70554 107.882 1.81504 107.854 2.01472C107.349 1.80216 106.415 2.09201 105.452 2.04693C105.957 2.07269 105.841 2.16287 105.719 2.19507L107.438 2.01472C107.397 2.17575 107.8 2.1371 108.25 2.20796C107.916 1.8859 109.533 2.00184 110.236 1.91166C110.277 2.02116 110.113 2.13066 109.26 2.09846C110.202 2.34966 110.482 1.73131 111.403 1.94387C111.191 1.94387 111.082 1.92454 111 1.98251C111.485 1.89234 112.679 1.97607 112.399 2.06625H112.194C113.58 2.11134 116.405 2.11778 116.616 1.84725C116.63 1.8859 116.432 2.17575 116.343 2.22728L118.827 1.3384C118.609 1.57028 119.434 2.14354 118.281 2.25948C118.609 2.29813 119.018 2.34322 119.714 2.26593C119.489 2.22728 119.161 1.9181 119.468 1.89878C120.308 2.16931 120.049 2.04693 121.086 2.28525C120.751 2.23372 121.133 1.86657 121.659 1.8859C121.577 1.93743 121.7 2.25304 121.502 2.28525L122.833 1.95031C122.498 2.00828 122.771 2.25304 123.065 2.36254C122.928 2.29169 124.211 2.38831 124.566 2.36254L124.006 2.26593C125.501 2.34966 125.494 1.78284 126.975 1.83437C126.79 1.90522 126.517 2.28525 127.275 2.34322C127.623 2.16931 128.824 1.47366 130.141 1.3706L130.393 1.4801L131.403 1.38349C130.769 1.64757 128.995 2.18219 128.026 2.40119C128.585 2.49781 128.176 2.53001 129.015 2.53646C129.308 2.63951 128.558 2.67816 128.305 2.67816L130.25 2.78766C130.168 2.56866 131.745 2.60731 131.676 2.42696L129.554 2.60087C129.472 2.38187 130.796 2.01472 132.174 2.09201C132.522 2.18863 131.901 2.47204 131.929 2.5429C132.113 2.47204 133.246 2.4334 133.369 2.49137L132.782 2.59443C133.546 2.69748 134.044 2.33678 134.965 2.56866C135.286 2.58798 135.907 2.8714 135.968 2.74257C135.457 2.48493 135.375 1.71843 135.73 1.53807C135.839 1.5574 137.401 1.82149 137.756 1.95675C138.275 2.16931 136.951 2.39475 137.395 2.5751C137.415 2.51713 137.709 2.45272 137.831 2.4334C138.166 2.49781 137.688 2.61375 138.418 2.60731C138.548 2.39475 139.899 2.67172 138.766 2.4334C139.483 2.39475 139.524 2.50425 140.356 2.52357C140.097 2.37543 141.127 2.06625 141.844 2.0276C141.803 2.07913 141.96 2.16287 142.035 2.19507C143.495 2.25949 144.273 2.38831 145.638 2.44628C145.761 2.50425 146.416 2.59443 146.129 2.67816C146.327 2.64596 146.511 2.58154 146.928 2.59443C147.733 2.81987 145.993 2.58798 146.6 2.83919C146.661 2.71681 147.692 2.71037 148.292 2.6524C148.115 2.44628 146.914 2.55578 146.313 2.61375C146.32 2.34322 147.378 2.09846 148.811 2.03404C149.944 2.01472 149.295 2.22728 149.493 2.20151C151.615 2.33034 151.329 1.8086 153.083 2.09201C153.772 2.29813 153.096 2.43984 153.246 2.56866C152.325 2.58798 151.841 2.38831 151.213 2.36254L151.977 2.48493C151.684 2.53001 151.063 2.5429 150.735 2.47204C151.315 2.6524 154.318 2.6846 155.949 2.9036C156.242 2.85851 156.747 2.82631 156.515 2.74257H155.996C155.525 2.5751 156.986 2.59443 156.331 2.49781C157.034 2.4334 157.825 2.31746 158.794 2.45916L158.965 2.66528C158.944 2.60731 158.33 2.51069 158.05 2.54934C158.467 2.48493 159.531 2.91004 159.995 2.67816L159.32 2.49781C160.022 2.43984 160.903 2.28525 161.762 2.40119C161.38 2.18219 161.558 2.41407 160.957 2.14354C161.476 2.45916 158.74 1.9954 159.579 2.34322C158.965 2.04049 158.494 2.16287 157.675 1.8859C157.695 1.95675 157.962 2.02116 157.231 1.95675C157.197 1.97607 157.115 1.9954 157.068 2.00828C157.047 2.00828 157.04 2.00828 157.02 2.00184L157.061 2.01472C157.061 2.01472 157.027 2.0276 157.075 2.01472C157.245 2.05337 157.388 2.09201 157.443 2.13066C157.075 2.25949 155.914 2.20151 155.519 2.25948C155.089 2.20796 155.703 2.19507 155.471 2.11134L154.877 2.19507C154.829 2.04693 153.744 1.89878 154.768 1.86657L153.854 1.81504C153.321 1.70554 152.578 1.63469 152.114 1.67334C151.684 1.62181 151.015 1.7764 151.397 1.68622L149.95 1.71199L149.937 1.67334C148.517 1.59604 147.003 1.79572 145.392 1.46722C144.914 1.48655 144.416 1.50587 143.618 1.43502L143.468 1.30619C142.854 1.33196 141.632 1.1194 141.359 1.24178C140.711 0.881075 138.384 1.07431 137.306 0.977693L137.258 1.13872C136.514 1.10008 135.798 1.13872 134.877 1.17737L134.931 1.32552C134.133 1.42213 132.891 1.17093 131.629 1.1516C131.717 1.10008 132.031 1.1194 132.256 1.15805C130.762 0.79734 129.076 1.31263 127.725 1.04855C127.384 1.09363 127.138 1.07431 126.9 1.02922C126.934 1.02922 126.961 1.02922 126.982 1.02922C126.947 1.02922 126.893 1.02922 126.845 1.02922C126.695 1.00346 126.538 0.971252 126.374 0.945487C126.517 0.984134 126.654 1.01634 126.77 1.02922C126.511 1.02922 126.108 1.03566 125.719 1.06787L125.555 0.90684C125.555 0.90684 125.501 0.90684 125.467 0.90684C125.084 0.842428 125.16 0.977693 125.357 1.09363C125.16 1.11296 124.982 1.14516 124.839 1.17737C124.532 0.919722 123.815 1.24178 123.399 0.964811C123.133 1.09363 121.441 1.02278 121.229 1.29975C121.215 1.2611 121.099 1.24822 121.311 1.24822C120.874 1.20957 120.444 1.17737 120.055 1.24822L119.871 1.04855L118.916 1.29975C118.343 1.17093 118.104 1.10008 118.677 0.951928C117.292 1.17093 117.558 1.02278 116.377 1.24178L116.439 1.11296C116.016 1.11296 115.347 1.27399 115.094 1.16449C114.16 0.900399 110.447 1.08719 108.039 0.842428C108.503 1.22246 106.92 0.668517 106.824 0.958369C106.687 0.868193 106.346 0.816664 106.742 0.73937C105.514 0.816664 104.893 0.591223 104.047 0.835987C103.903 0.745811 104.313 0.707164 104.183 0.655635C104.088 0.674958 103.794 0.732929 103.665 0.681399C103.542 0.62987 103.842 0.610546 104.04 0.571899C102.784 0.584782 102.655 0.855311 102.566 1.11296C101.931 0.990575 101.611 1.00346 101.153 1.17093C100.935 1.08719 100.56 0.997016 101.344 0.971252C100.908 0.958369 98.6627 0.842428 98.6149 1.04855C98.4784 0.997016 98.0008 1.02922 97.8848 1.05499C96.9022 1.0421 96.8134 1.02922 95.8445 1.04855L96.1106 1.08075C95.7285 1.33196 95.3054 1.13872 94.5275 1.17093L94.5479 1.14516C92.7601 0.971252 93.7768 1.23534 92.0095 1.02922L92.105 1.18381C91.9412 1.51875 90.5424 0.990575 89.5188 1.12584L89.8873 1.20957C89.3277 1.32552 88.3246 0.765134 87.7582 0.732929C87.6354 0.707164 87.9493 0.68784 88.1199 0.662076C86.646 0.475282 87.9288 0.868193 86.837 0.919722C86.6323 0.810223 87.0963 0.642752 86.3594 0.623429C85.9909 0.539694 84.2235 0.990575 83.2136 0.790899C83.4388 0.874634 83.6571 0.958369 83.1453 1.02278C82.3674 1.05499 81.03 0.726487 80.3339 0.997016C80.2316 0.977693 80.1975 0.951928 80.1906 0.932605C79.597 1.0099 78.2527 1.06787 77.8978 1.21602C77.3383 0.68784 74.1925 1.51875 74.1993 1.02922L72.3637 1.08075L72.4115 1.02922C71.2378 1.01634 70.8284 1.13872 70.4189 1.2611C70.146 1.2289 70.3439 1.18381 70.3644 1.15805C68.6516 1.08719 68.481 1.10652 67.048 1.37705L66.8979 1.22246C66.5089 1.32552 64.414 1.02278 62.7422 1.23534C62.7558 1.21602 62.7899 1.18381 62.9264 1.15805C61.043 1.37705 58.3886 0.810223 57.713 1.40925L56.4711 1.58316C58.0883 1.5896 56.2391 1.84081 56.901 1.92454C56.2664 1.97607 55.2564 1.78928 56.0344 1.73775L56.1572 1.76352C56.437 1.45434 54.151 1.70554 54.1851 1.49299C51.012 1.5896 47.9072 1.50587 44.932 1.58316L45.28 1.8086L44.2428 1.82793C43.9699 1.78284 43.8675 1.65402 44.6113 1.64113C44.2155 1.51875 43.3762 1.79572 43.3557 1.84725C41.9022 1.79572 43.9153 1.5574 43.4649 1.56384L42.8644 1.60249L43.0009 1.62825C42.5164 1.73775 42.4754 1.84081 41.5883 1.86013C41.022 1.82793 41.2949 1.72487 41.0697 1.72487C41.0697 1.70554 40.9947 1.70554 40.7285 1.72487L39.4184 1.75063L39.9506 1.9181C39.3774 2.0276 38.7223 1.95031 39.3297 2.14354C38.4289 1.85369 34.4506 2.20796 33.9047 2.12422C33.0995 2.29169 32.3011 2.3239 31.3049 2.34966C31.5505 2.37543 31.7075 2.58154 30.8545 2.58798C31.1479 2.14354 29.2782 2.4656 28.5753 2.18863C29.2031 2.36254 26.1461 2.34966 27.1287 2.60087C26.4122 2.60087 27.0741 2.43984 26.5282 2.36898C24.8359 2.62019 22.7751 2.4334 20.6802 2.61375C20.6529 2.67172 21.0077 2.73613 20.5642 2.84563L19.4383 2.62663C19.022 2.67816 19.0766 2.97445 18.3055 2.81987C18.4147 2.85851 18.5785 2.92293 18.3055 2.95513C14.1703 2.92937 9.93269 3.69587 5.6951 3.61857C6.27513 3.66366 5.89982 3.71519 5.46992 3.76672C5.75652 3.76672 5.48356 3.90842 5.54498 3.97928C4.95131 3.97928 4.36446 3.95995 3.76396 3.97284C3.47054 4.24981 1.88742 4.24336 1.73047 4.53966C1.91471 4.48169 2.10578 4.41728 2.2832 4.38507C1.60082 4.73289 3.41595 4.75222 3.34771 5.07428C4.10515 4.66204 5.53815 5.20954 6.82786 4.66848C7.1281 4.70713 6.58902 4.79086 6.75279 4.84883C7.08034 4.68781 7.48977 4.62339 8.25403 4.61051L8.17215 4.64916C10.308 4.41728 11.2429 4.50101 13.6585 4.40439L13.4674 4.26269C13.986 4.24981 14.102 4.28845 14.3477 4.31422C14.9277 4.04369 12.8874 4.39795 13.4128 4.1081C14.1225 4.37219 17.0772 3.88266 17.5617 4.20472C18.3601 4.15963 17.3161 4.04369 18.1144 3.9986L18.3328 4.08234L18.5239 3.94707C19.0493 3.94063 19.3223 4.04369 19.3427 4.12098C19.2131 4.12098 18.9811 4.16607 18.8446 4.17895C19.5338 4.25625 20.7553 4.03725 20.9941 4.05657L20.223 4.03725C22.3998 3.81825 25.0679 3.82469 27.1696 3.52839L27.0059 3.46398C28.6095 3.25142 28.3024 3.48331 30.0629 3.34804L30.0015 3.36737C30.3495 3.28363 30.8204 3.22566 31.3049 3.21278C30.8613 3.31584 32.151 3.3416 31.571 3.45754C33.3111 3.23854 32.4308 3.3094 33.5704 2.99378L33.8433 3.10328C34.2323 2.9809 34.2596 2.92293 35.1467 2.85851C34.4233 2.98734 35.7199 3.01954 34.9147 3.18701C36.7776 3.38025 37.6578 2.81987 38.5245 3.17413C39.3638 2.81343 36.914 3.05175 37.3849 2.96157C36.9823 2.8714 38.0809 2.69104 38.6609 2.69748C39.2546 2.6846 39.6845 3.07751 41.1721 3.02598C41.022 3.02598 41.0151 3.05175 40.865 3.05819C41.4246 3.1226 41.9568 2.91004 42.6392 3.02598C43.0145 2.81343 43.5263 3.00666 43.6287 2.74901L42.2639 2.85207C43.035 2.7619 43.7515 2.43984 45.0344 2.5429C44.9388 2.59443 44.5567 2.67816 44.2974 2.72325C44.6727 2.78766 45.0139 2.6524 45.4029 2.71681C45.3005 2.97445 43.7447 2.82631 42.919 3.04531C43.3216 3.14192 44.4816 2.81343 44.0722 3.09684C44.6591 2.72969 45.5393 3.09684 46.5424 2.7941L46.481 2.94869C46.638 2.92293 46.9655 2.83919 47.2658 2.83275L46.7403 3.04531C47.5524 2.85207 48.3234 3.14837 49.1014 3.03887C47.4636 3.0904 48.7261 2.86495 48.03 2.77478C50.0499 2.51713 49.2037 3.14192 51.4692 3.00666C51.1622 3.03887 50.316 2.94869 50.7937 2.86495C51.2236 2.88428 51.7968 2.92937 52.0629 3.00022C53.5641 2.92937 51.8309 2.85207 52.4655 2.73613C52.9841 2.91004 53.2025 2.63951 53.8576 2.56222V2.71681C55.5772 2.77478 54.3079 2.38187 55.8569 2.4656L55.2087 2.69748L56.0071 2.62019L55.8433 2.80054C56.7167 2.64596 56.9897 2.67816 57.8427 2.70393C57.6379 2.60087 57.945 2.42051 58.7025 2.39475C59.2211 2.47204 58.4159 2.54934 59.4872 2.50425C59.2484 2.60731 58.9822 2.73613 58.5114 2.60087C58.4636 2.6524 58.2726 2.70393 58.2248 2.75545C58.7843 2.84563 59.6237 2.74901 60.0126 2.73613C59.8625 2.73613 59.6851 2.72969 59.5896 2.71037L61.1386 2.45916C61.3842 2.51069 61.1932 2.56222 61.0021 2.61375C61.316 2.58798 61.5343 2.51713 61.9984 2.49137C61.8824 2.62019 61.9096 2.74901 61.2546 2.81987L62.7353 2.6524C62.8377 2.70393 63.4996 2.78766 63.3085 2.83919C64.1342 2.89716 65.3216 2.55578 66.4134 2.63307C66.468 2.60731 66.584 2.58154 66.816 2.56222C67.8395 2.56866 68.7539 2.71681 69.9617 2.52357L70.6578 2.74257C71.6063 2.67816 69.7161 2.47204 71.306 2.36254C72.4251 2.27237 71.7291 2.54934 72.1249 2.60731C72.6776 2.48493 73.6466 2.24016 74.6838 2.40763C74.3426 2.45272 74.0765 2.42696 73.7558 2.44628L73.7899 2.45916ZM85.5269 2.24016C85.3017 2.27237 84.8445 2.37543 84.6807 2.28525C84.94 2.1049 85.1379 2.18863 85.5269 2.24016ZM103.371 1.82793C103.201 1.87946 102.941 1.85369 102.648 1.79572C102.859 1.78284 103.105 1.79572 103.371 1.82793ZM153.124 1.8859C153.124 1.8859 153.11 1.8859 153.096 1.8859C152.591 1.80216 152.769 1.83437 153.124 1.8859ZM154.174 2.00828C154.284 1.9954 154.277 1.96963 154.229 1.94387C154.154 1.98251 153.915 1.96963 153.649 1.94387C153.724 1.98896 153.854 2.02116 154.174 2.00184V2.00828ZM40.9537 1.80216L41.1584 1.83437C40.6944 1.89234 40.8241 1.84725 40.9537 1.80216Z" fill="#CD4D14" />
    <path d="M101.351 2.0337C101.289 2.008 101.269 1.97589 101.255 1.9502C101.166 1.97589 101.166 2.008 101.351 2.0337Z" fill="#CD4D14" />
    <path d="M66.4947 2.65247H66.4612C66.4612 2.65247 66.4344 2.67179 66.4277 2.67823L66.4947 2.65247Z" fill="#CD4D14" />
    <path d="M137.804 2.6651C137.586 2.63289 137.47 2.60069 137.388 2.56848C137.374 2.60713 137.47 2.63933 137.804 2.6651Z" fill="#CD4D14" />
    <path d="M159.777 2.04053H159.102C159.429 2.05342 159.545 2.09206 159.709 2.13071C159.695 2.09206 159.572 2.03409 159.784 2.04053H159.777Z" fill="#CD4D14" />
    <path d="M165.563 3.37916C165.665 3.36628 165.775 3.39204 165.87 3.37916L165.85 3.30831C165.433 3.28254 165.133 3.32119 165.563 3.37916Z" fill="#CD4D14" />
    <path d="M160.371 2.5945C160.419 2.72976 160.842 2.71044 161.313 2.71688H161.231C161.381 2.53652 160.876 2.56873 160.371 2.5945Z" fill="#CD4D14" />
    <path d="M161.422 2.71751C161.565 2.71751 161.715 2.72395 161.859 2.74327C161.92 2.67242 161.681 2.71751 161.422 2.71751Z" fill="#CD4D14" />
    <path d="M155.519 1.98149C155.744 2.02658 155.669 1.82046 155.792 1.87843C156.051 1.72384 154.284 2.00725 155.519 1.98149Z" fill="#CD4D14" />
    <path d="M160.719 3.04564L160.562 2.87817L160.289 2.98767L160.719 3.04564Z" fill="#CD4D14" />
    <path d="M157 2.70381L157.751 2.78754C157.751 2.78754 157.84 2.74889 157.956 2.74245C157.492 2.70381 156.987 2.65228 157 2.69737V2.70381Z" fill="#CD4D14" />
    <path d="M157.961 2.74863C158.2 2.76795 158.432 2.77439 158.568 2.76151C158.439 2.76151 158.152 2.74219 157.961 2.74863Z" fill="#CD4D14" />
    <path d="M159.688 3.03183L159.47 2.98674L158.938 2.94165L159.688 3.03183Z" fill="#CD4D14" />
    <path d="M148.886 2.28528L148.061 2.29816C147.972 2.34969 148.197 2.39478 148.504 2.3819C148.702 2.34969 149.009 2.34325 148.886 2.28528Z" fill="#CD4D14" />
    <path d="M151.356 2.83226C151.137 2.78717 151.124 2.74852 151.001 2.69055L150.967 2.89023L151.356 2.83226Z" fill="#CD4D14" />
    <path d="M148.955 2.77466C148.873 2.82619 147.754 2.88416 148.798 2.91636C148.887 2.86483 149.713 2.85195 148.955 2.77466Z" fill="#CD4D14" />
    <path d="M136.549 2.07935H136.76L136.74 1.75085L136.549 2.07935Z" fill="#CD4D14" />
    <path d="M125.583 2.60661C126.559 2.70323 125.822 2.40693 126.702 2.52287C126.934 2.45202 125.986 2.42626 126.218 2.36829C125.624 2.43914 125.317 2.38761 125.583 2.60661Z" fill="#CD4D14" />
    <path d="M126.217 2.36943C126.312 2.35655 126.415 2.34366 126.517 2.32434C126.346 2.34366 126.265 2.35655 126.217 2.36943Z" fill="#CD4D14" />
    <path d="M2.55743 3.99268C2.33907 4.00556 2.12753 4.00556 1.90234 4.03132C2.05929 4.03132 2.19577 4.05709 2.34589 4.06997L2.56425 3.99268H2.55743Z" fill="#CD4D14" />
    <path d="M1.36229 4.48195L1.1371 4.32092L0.802734 4.59789C0.946034 4.5528 1.23263 4.46263 1.36229 4.47551V4.48195Z" fill="#CD4D14" />
    <path d="M87.2745 2.64536L87.3223 2.59383C87.2268 2.5423 87.0766 2.53586 86.7832 2.52942L87.2745 2.64536Z" fill="#CD4D14" />
    <path d="M78.7586 2.56094H78.9019L78.6289 2.37415L78.7586 2.56094Z" fill="#CD4D14" />
    <path d="M71.6127 2.89629C71.9061 2.89629 72.2473 2.8512 72.5407 2.85764C71.9061 2.90273 71.5308 2.66441 71.6127 2.89629Z" fill="#CD4D14" />
  </g>
  <defs>
    <clipPath id="clip0_423_52422">
      <rect width="189.634" height="5.71331" fill="white" transform="translate(0.802734 0.578125)" />
    </clipPath>
  </defs>
</svg>
