<svg width="73" height="122" viewBox="0 0 73 122" fill="none" xmlns="http://www.w3.org/2000/svg">
<path d="M120.571 121.614C120.847 122.06 120.965 121.736 121.044 121.774C120.515 121.085 120.522 121.68 120.571 121.614Z" fill="#6C45AA"/>
<path d="M115.22 114.887L115.396 114.942L114.456 114.066L115.22 114.887Z" fill="#6C45AA"/>
<path d="M110.623 108.294C110.685 109.2 112.354 110.634 113.046 111.905L113.095 112.164L113.775 112.462C112.726 111.076 111.224 109.381 110.623 108.294Z" fill="#6C45AA"/>
<path d="M108.94 104.192C108.943 104.522 108.271 103.539 109.474 105.04C109.437 104.949 109.431 104.918 109.407 104.866C109.301 104.728 109.168 104.533 108.94 104.192Z" fill="#6C45AA"/>
<path d="M109.407 104.866C109.205 104.321 109.912 105.545 109.407 104.866V104.866Z" fill="#6C45AA"/>
<path d="M107.037 101.759L107.822 102.563C107.776 102.308 107.203 101.497 107.488 101.738C106.739 100.871 106.798 101.122 107.037 101.759Z" fill="#6C45AA"/>
<path d="M106.14 101.112L106.533 101.537C106.514 101.425 106.432 101.297 106.14 101.112Z" fill="#6C45AA"/>
<path d="M107.376 102.439L106.533 101.537C106.57 101.715 106.454 101.825 106.906 101.958C106.74 101.958 106.992 102.069 107.372 102.434L107.376 102.439Z" fill="#6C45AA"/>
<path d="M107.726 103.046C108.011 103.612 108.429 104.309 107.645 103.505C108.942 105.194 109.027 104.74 107.726 103.046Z" fill="#6C45AA"/>
<path d="M109.992 108.255L110.365 109.022L110.91 109.515C110.639 109.271 110.088 108.118 109.992 108.255Z" fill="#6C45AA"/>
<path d="M103.113 96.0205C102.988 96.0316 103.121 96.4876 103.064 96.6304L103.65 97.2196C103.457 96.8377 103.021 96.1616 103.113 96.0205Z" fill="#6C45AA"/>
<path d="M103.078 96.6268L102.201 95.7453C102.839 96.641 103.025 96.7527 103.078 96.6268Z" fill="#6C45AA"/>
<path d="M105.611 101.27L107.085 102.69L105.372 100.959L105.611 101.27Z" fill="#6C45AA"/>
<path d="M100.3 92.2498L100.905 92.6686L99.874 91.891L100.3 92.2498Z" fill="#6C45AA"/>
<path d="M98.3658 89.7974C98.8374 90.0856 98.1977 89.0357 98.6234 89.3945C98.0762 88.7473 97.5097 88.2704 96.9842 87.8469C97.4673 88.3454 97.9076 88.9404 98.3624 89.7929L98.3658 89.7974Z" fill="#6C45AA"/>
<path d="M96.1538 87.1132C96.4075 87.3567 96.689 87.5929 96.9981 87.8433C96.7412 87.574 96.4702 87.3297 96.1538 87.1132Z" fill="#6C45AA"/>
<path d="M100.986 94.0341C100.981 93.9182 100.994 93.6748 100.626 93.0876L100.689 93.6473C100.778 93.7629 100.881 93.8963 100.983 94.0296L100.986 94.0341Z" fill="#6C45AA"/>
<path d="M100.689 93.6687L100.679 93.6553C100.379 93.2213 100.157 92.9322 100.061 92.8077C100.143 92.9145 100.327 93.176 100.689 93.6687Z" fill="#6C45AA"/>
<path d="M101.048 94.1355C101.02 94.0999 101 94.0733 100.973 94.0377C100.979 94.0894 100.986 94.1197 101.048 94.1355Z" fill="#6C45AA"/>
<path d="M103.896 98.5159C103.34 98.031 102.305 96.9236 102.984 98.2407C103.448 98.5414 103.055 97.7903 103.896 98.5159Z" fill="#6C45AA"/>
<path d="M101.133 94.8333L101.866 95.9176C101.912 95.847 101.853 95.5958 102.134 95.832L101.13 94.8288L101.133 94.8333Z" fill="#6C45AA"/>
<path d="M100.678 94.3703L101.133 94.8333L100.857 94.4303L100.678 94.3703Z" fill="#6C45AA"/>
<path d="M97.3102 89.0529C96.8708 88.6763 96.4846 88.1953 96.0367 87.6556C96.449 88.2792 96.8994 88.9089 97.3502 89.4958C97.4851 89.5195 97.8091 89.6806 97.3102 89.0529Z" fill="#6C45AA"/>
<path d="M98.9413 91.3066C98.9174 91.2755 98.8867 91.2354 98.8557 91.2168C98.8825 91.2952 98.9201 91.3441 98.9413 91.3066Z" fill="#6C45AA"/>
<path d="M91.7864 82.2529C91.7998 82.292 91.8098 82.3268 91.8127 82.374C91.83 82.3749 91.844 82.3712 91.8718 82.364L91.7864 82.2529Z" fill="#6C45AA"/>
<path d="M97.3834 89.6259C97.683 90.1027 97.9404 90.3292 98.2085 90.5263C97.9313 90.2089 97.6405 89.8738 97.3468 89.4914C97.288 89.48 97.2602 89.4872 97.38 89.6214L97.3834 89.6259Z" fill="#6C45AA"/>
<path d="M94.8598 85.6893C95.0094 85.9491 95.1689 86.2437 95.3387 86.5516C95.238 86.2684 94.9876 85.7254 94.8598 85.6893Z" fill="#6C45AA"/>
<path d="M98.7991 91.0128C98.8162 91.0351 98.8332 91.0573 98.8503 91.0795C98.7901 90.8925 98.7723 90.9345 98.7991 91.0128Z" fill="#6C45AA"/>
<path d="M98.7991 91.0128C98.59 90.8058 98.4009 90.6683 98.2085 90.5263C98.4378 90.7814 98.6535 91.0187 98.8523 91.2124C98.8323 91.1429 98.8088 91.069 98.7991 91.0128Z" fill="#6C45AA"/>
<path d="M89.0541 81.7359C89.3219 81.6503 90.4439 82.6549 91.0128 83.8298C91.9562 84.6888 92.1255 83.5195 91.8127 82.374C91.6944 82.4154 91.6105 82.4799 90.6886 81.562C90.8603 82.0027 92.217 84.0077 91.3517 83.2938C90.1736 82.0424 90.5503 82.1419 90.1358 81.4069C90.3143 82.1605 88.4014 79.996 88.2526 80.584L89.3253 81.6547C89.2795 81.7253 88.8538 81.3666 89.0575 81.7403L89.0541 81.7359Z" fill="#6C45AA"/>
<path d="M93.3226 84.3179L93.6786 84.7161C93.3412 84.2117 93.1587 83.8004 92.8205 83.0563C92.1655 82.4424 91.9689 82.3601 91.8718 82.364L93.4668 84.4404L93.326 84.3223L93.3226 84.3179Z" fill="#6C45AA"/>
<path d="M95.1545 86.5941C94.671 86.4423 93.7874 85.5092 94.0243 86.317C95.0053 87.5289 94.8896 87.0309 95.5615 87.6884C93.9545 85.7484 96.1384 88.1572 95.1333 86.6316C95.4758 86.9906 95.77 87.3302 96.0262 87.6637C95.781 87.2794 95.5461 86.9084 95.3282 86.5596C95.3419 86.5774 95.3521 86.5908 95.3519 86.6122L95.3587 86.6211C95.3922 86.7297 95.4056 86.7689 95.3409 86.663C95.3341 86.6541 95.317 86.6319 95.3102 86.623C95.2685 86.6338 95.2097 86.6224 95.1579 86.5985C94.7559 85.9883 95.1421 86.4693 95.3102 86.623C95.3241 86.6194 95.3482 86.6291 95.3587 86.6211C95.3587 86.6211 95.3553 86.6166 95.3519 86.6122L93.6681 84.7242C93.9611 85.1707 94.3919 85.6882 95.144 86.6022L95.1545 86.5941Z" fill="#6C45AA"/>
<path d="M101.702 97.5282C101.675 97.4498 101.7 97.4382 101.707 97.4257C101.587 97.3128 101.528 97.28 101.702 97.5282Z" fill="#6C45AA"/>
<path d="M101.217 96.5928C101.362 96.7154 101.538 96.771 101.868 97.2664C102.109 97.7319 101.763 97.347 101.704 97.4212C101.975 97.6655 102.615 98.3044 102.055 97.314L101.914 97.1959C101.39 96.3186 100.888 95.057 101.029 95.1751C101 95.5719 101.021 95.8812 101.224 96.5803L101.217 96.5928Z" fill="#6C45AA"/>
<path d="M98.117 91.558L96.7208 89.9793L97.1844 90.9736L97.2656 90.8405C97.9511 91.8198 97.9409 91.5024 98.117 91.558Z" fill="#6C45AA"/>
<path d="M91.7444 81.9811L92.1669 82.01L91.0691 81.3191L91.7444 81.9811Z" fill="#6C45AA"/>
<path d="M90.0076 79.8722L90.2789 79.791L89.702 79.3222L90.0076 79.8722Z" fill="#6C45AA"/>
<path d="M37.1933 21.5412L37.7719 21.8602C37.5138 21.698 37.3277 21.6076 37.1933 21.5412Z" fill="#6C45AA"/>
<path d="M33.4146 18.8586L33.2272 18.8753C33.4551 18.9548 33.5658 18.9687 33.4146 18.8586Z" fill="#6C45AA"/>
<path d="M43.549 31.0745C43.0411 30.3264 42.5559 29.4125 42.4107 29.6795L42.4066 30.0432C42.9326 30.424 43.2787 30.766 43.549 31.0745Z" fill="#6C45AA"/>
<path d="M3.35557 4.65515C3.4068 4.72184 3.46145 4.79298 3.51609 4.86412C3.77883 4.92388 4.03474 4.97475 4.26992 5.02033C3.99034 4.91695 3.67637 4.79049 3.35557 4.65515Z" fill="#6C45AA"/>
<path d="M1.90551 5.06911C1.60715 4.78927 1.3122 4.51388 1.04896 4.19291C1.20925 4.42328 1.47639 4.7059 1.90551 5.06911Z" fill="#6C45AA"/>
<path d="M58.0118 36.0488L58.8373 36.2983C57.8849 35.623 58.1889 36.0188 58.0118 36.0488Z" fill="#6C45AA"/>
<path d="M71.6844 58.6898C71.2411 58.0476 70.8654 57.5585 70.5026 57.1514C71.01 57.9422 71.3243 58.6553 71.6844 58.6898Z" fill="#6C45AA"/>
<path d="M33.4118 22.4594C33.7735 22.6481 33.9531 22.7081 33.9882 22.667C33.6196 22.4694 33.392 22.3685 33.4118 22.4594Z" fill="#6C45AA"/>
<path d="M68.972 55.5062C69.0574 55.6174 69.1254 55.7277 69.2003 55.8469C69.6292 56.2315 70.051 56.6287 70.5026 57.1514C70.1349 56.5642 69.6395 55.9409 68.9686 55.5018L68.972 55.5062Z" fill="#6C45AA"/>
<path d="M49.1398 22.849C49.0988 22.7956 49.0544 22.7378 49.0063 22.697C48.9646 22.7078 49.0297 22.7709 49.1398 22.849Z" fill="#6C45AA"/>
<path d="M30.2111 4.91721C30.4277 5.06894 30.7924 5.30488 31.1225 5.53916C30.9749 5.41216 30.7102 5.21957 30.2111 4.91721Z" fill="#6C45AA"/>
<path d="M83.1035 71.3187C83.1896 71.3656 83.4972 71.7444 83.1035 71.3187V71.3187Z" fill="#6C45AA"/>
<path d="M84.0277 74.172C83.9211 74.0983 83.8315 74.0469 83.7722 74.0783C83.852 74.0736 83.9452 74.1081 84.0277 74.172Z" fill="#6C45AA"/>
<path d="M63.5827 52.4207C63.5827 52.4207 63.5656 52.3984 63.552 52.3806C63.6264 52.5427 63.6198 52.5124 63.5827 52.4207Z" fill="#6C45AA"/>
<path d="M83.5629 72.0687C83.4507 71.8792 83.3074 71.671 83.154 71.4495C83.2291 71.5474 83.3448 71.7413 83.5629 72.0687Z" fill="#6C45AA"/>
<path d="M83.596 71.8947C83.719 72.0548 83.8146 72.1793 83.9034 72.2949C83.9898 72.3205 83.9698 72.251 83.596 71.8947Z" fill="#6C45AA"/>
<path d="M82.5697 70.7106C82.7922 70.9568 82.98 71.2014 83.1506 71.4451C83.0928 71.3481 83.0725 71.3 83.1035 71.3187C83.001 71.1853 82.8332 71.0102 82.5697 70.7106Z" fill="#6C45AA"/>
<path d="M85.7973 54.1975C85.7734 54.1664 85.746 54.1308 85.7326 54.0916C85.2444 53.7384 85.4296 53.9143 85.7973 54.1975Z" fill="#6C45AA"/>
<path d="M29.3336 23.252C29.3336 23.252 29.368 23.2751 29.3956 23.2892C29.3785 23.267 29.358 23.2403 29.3443 23.2225L29.358 23.2403L29.3336 23.252Z" fill="#6C45AA"/>
<path d="M27.4646 22.1001C28.4592 22.4177 28.8401 22.7615 29.3304 23.2261L29.3933 22.2658L27.4646 22.1001Z" fill="#6C45AA"/>
<path d="M46.2883 27.931L45.25 26.8833C47.0573 27.6726 48.0214 28.5369 47.1392 27.4753C46.2883 27.931 42.2869 24.1116 41.4394 24.5717L40.768 23.8714C40.9983 24.0409 41.0747 24.0318 41.2911 24.2049C40.0315 22.804 39.6217 23.7905 37.6773 22.2582C37.0215 21.7085 36.621 21.2739 37.1828 21.5493L35.4297 20.5699C34.983 20.2273 35.205 20.2123 35.6622 20.5469L33.1855 18.8861L33.2167 18.8834C32.7644 18.7288 31.8159 18.3192 31.3573 18.113C30.8294 17.5994 31.7403 18.2642 31.6661 18.0808L30.1502 17.2798C29.775 16.7479 31.0606 17.3794 31.975 18.0485C31.3885 16.5902 30.6859 17.4127 28.3544 15.1809L29.7142 15.9957C29.2738 15.0968 28.1331 14.5237 26.9233 13.3179C27.1412 13.6667 29.2239 15.8351 27.5874 14.9641C27.2202 14.6381 26.6979 14.2405 25.767 13.8103C26.0016 13.5946 25.1649 13.1133 24.1671 12.4658L24.5545 12.2318C23.4005 11.5982 23.3291 11.7874 22.556 11.4976C21.4076 10.6758 21.4015 10.2987 21.3225 9.93526C19.4657 8.62551 22.2515 11.1446 19.9283 9.70538C18.4579 8.55127 17.2033 7.93847 15.0767 6.88548C14.0425 6.08207 15.4724 6.83603 15.1503 6.50367L13.8864 6.09595C13.6456 5.93449 13.8017 5.92061 13.8781 5.91144C12.923 5.47151 13.4907 6.1454 12.0538 5.40394C11.3388 5.49366 9.74861 3.29331 7.54349 2.74605C7.1795 2.44592 7.94625 2.68411 7.92746 2.50765C6.55374 2.00045 5.92848 1.81618 5.35835 1.66026C5.06805 1.58633 4.78457 1.52129 4.40058 1.45569C3.98171 1.40982 3.57406 1.2917 2.63386 1.37057C2.48822 1.37639 2.35307 1.37416 2.11668 1.43556C2.01592 1.4564 1.80003 1.54447 1.60121 1.65478C1.32896 1.8215 1.07354 2.03184 0.911805 2.23385C0.729089 2.45197 0.714454 2.51978 0.64005 2.66177C0.597363 2.75819 0.572236 2.83405 0.550525 2.91436C0.52467 3.05441 0.508575 3.25059 0.535412 3.32896C0.634957 3.7191 0.829882 3.95115 1.03164 4.19208C0.653495 3.61295 0.882813 3.56406 1.32047 3.78639C1.7896 3.98454 2.58978 4.33138 3.32775 4.66237C3.04427 4.29333 2.78786 3.98126 2.61685 3.78034C3.32262 4.1997 4.07743 4.57432 4.83565 4.95339C5.03789 5.15153 4.71587 5.12317 4.24211 5.02755C4.40776 5.0912 4.56999 5.15039 4.70465 5.19542C5.34651 5.74871 4.77541 5.67838 4.05647 5.50244C3.87179 5.28374 3.67662 5.0731 3.49877 4.86329C2.79691 4.70958 2.11213 4.57811 2.03675 4.80569C2.2024 4.86933 2.49198 5.00745 2.78814 5.17587C2.60493 5.13278 2.47685 5.11805 2.50028 5.19197C2.54102 5.26672 2.82791 5.33621 3.24557 5.48906L3.3739 6.0904L3.63103 6.03428L6.19577 7.87482C8.53239 8.74526 10.7929 9.29947 14.0166 11.1075C12.99 10.8568 13.4347 11.3707 13.0888 11.6152C12.5782 10.7985 10.5534 10.247 8.99153 9.21268C9.80684 9.75292 9.47043 9.77097 9.20452 9.68537L12.3762 11.1869C12.0622 11.3645 12.7929 11.7294 13.4382 12.2871C13.3674 11.5001 15.8802 13.3382 17.159 13.9607C17.0597 14.1572 16.627 14.1149 15.272 13.1761C16.4389 14.4997 17.8418 13.9593 19.0058 15.2357C18.6686 15.0139 18.5108 14.8736 18.2961 14.8547C19.231 15.2466 21.0104 16.6511 20.4232 16.4729L20.0861 16.2511C22.2556 17.7943 26.6978 20.9499 27.427 20.8352C27.3916 20.8977 26.6376 21.0669 26.4195 21.0435L31.6243 22.673C30.9339 22.7297 31.3165 24.4436 29.3748 23.2839C29.8205 23.7122 30.376 24.2399 31.55 24.943C31.2623 24.6337 31.2367 23.8404 31.739 24.1686C32.5868 25.511 32.405 25.0356 33.5868 26.574C33.1623 26.1082 34.2996 26.0688 35.0652 26.718C34.8575 26.6866 34.5565 27.2501 34.2155 27.0667L36.7365 28.1772C36.1474 27.8663 36.1713 28.5054 36.4394 29.0064C36.3557 28.7455 38.0976 30.4051 38.6687 30.7794L37.9915 29.9846C40.0773 31.8749 40.9317 31.1197 43.0248 32.976C42.6484 32.8551 41.6655 33.0304 42.6628 34.0247C43.4545 34.2084 46.2487 34.7627 48.3046 36.2447L48.49 36.7032L50.0855 37.8248C48.7803 37.3852 45.3898 35.9244 43.667 35.0279C44.3232 35.8388 43.6907 35.3844 44.8885 36.4227C45.1427 36.9273 44.0124 36.0422 43.6519 35.7465L46.2849 38.284C46.5147 37.8883 48.7033 39.8905 48.8768 39.5735L45.5835 37.1755C45.8029 36.7878 48.2717 37.9173 50.1087 39.7442C50.4559 40.3047 49.1329 39.9069 49.0656 40.0364C49.4315 40.1654 51.097 41.5302 51.181 41.7697L50.1966 41.1614C51.1095 42.2629 52.3695 42.405 53.2851 43.8792C53.6891 44.3183 54.13 45.4784 54.4083 45.3848C54.0973 44.3936 55.1811 43.2641 55.9447 43.4764C56.0711 43.6409 57.8157 45.9771 58.1065 46.6163C58.4978 47.56 56.3161 46.1746 56.6501 46.9786C56.7755 46.9247 57.2678 47.2181 57.4673 47.3476C57.836 47.8492 56.9919 47.4018 58.0004 48.3239C58.5078 48.2027 59.9258 50.3091 58.7501 48.5398C59.7835 49.4074 59.6808 49.5994 60.7947 50.7021C60.6796 50.1613 62.5441 51.0904 63.581 51.9624C63.4387 51.9727 63.5288 52.2853 63.5756 52.4332C65.428 54.4321 66.2846 55.6123 68.0138 57.4725C68.0838 57.7156 68.8179 58.693 68.3148 58.429C68.6313 58.6454 68.9691 58.803 69.5068 59.3727C70.2297 60.7263 68.2802 58.1233 68.6935 59.2693C68.9613 59.1837 70.3497 60.5351 71.2253 61.2624C71.3073 60.7611 69.5456 59.3146 68.6596 58.5954C69.0899 58.2437 70.8732 59.3058 72.8491 61.118C74.3711 62.6 73.175 62.02 73.4809 62.2445C76.0533 65.2458 76.4885 64.162 78.3431 66.8804C78.9186 68.0856 77.8281 67.3608 77.8169 67.7371C76.5863 66.526 76.257 65.6195 75.4766 64.7556L76.2951 65.9296C75.8379 65.5951 75.0152 64.7847 74.6781 64.2589C75.1553 65.271 79.0572 69.3083 80.7789 71.8318C81.2221 72.17 81.9289 72.8078 81.7535 72.384L81.0926 71.6756C80.7383 70.8236 82.5839 72.8136 81.8918 71.804C82.8871 72.6655 84.076 73.5834 85.1126 75.0849L85.0096 75.6023C85.0801 75.4986 84.4395 74.5344 84.0133 74.2184C84.6422 74.6897 85.3714 76.703 86.3141 77.0181L85.7242 75.8594C86.7229 76.7253 88.0669 77.7149 88.9911 79.0482C88.8478 78.2321 88.7237 78.787 88.3697 77.6096C88.5475 78.7314 85.7685 74.3972 86.3048 76.0072C85.9827 74.7629 85.1769 74.3001 84.5629 72.8276C84.4887 72.9482 84.7193 73.4003 83.8927 72.3243C83.8237 72.2996 83.6929 72.2162 83.6068 72.1693C83.5829 72.1382 83.5726 72.1248 83.5521 72.0981C83.5692 72.1204 83.5795 72.1337 83.5965 72.1559C83.5414 72.1276 83.538 72.1231 83.6136 72.1782C83.7802 72.4602 83.8849 72.705 83.8974 72.8298C83.2148 72.5058 81.8298 70.8548 81.2284 70.3977C80.7576 69.7413 81.5697 70.5597 81.3943 70.1359L80.5009 69.4506C80.6634 69.1844 79.4899 67.5265 80.8646 68.8601L79.7634 67.5568C79.2359 66.6965 78.3818 65.6063 77.7192 65.0477C77.2274 64.4075 76.1157 63.7202 76.7629 64.1068L74.8434 62.216L74.8788 62.1534C73.1442 60.156 70.8417 58.418 69.1896 55.8764C68.5136 55.2786 67.8276 54.6461 66.8595 53.5162L66.8568 53.1436C65.9957 52.3699 64.6756 50.4994 64.1162 50.3141C63.7985 48.9886 60.336 46.2399 58.9769 44.7529L58.6631 44.909C57.6971 43.9119 56.6532 43.0524 55.3072 41.93L55.1552 42.1881C53.8932 41.3052 52.5388 39.4117 50.7822 37.8199C50.9933 37.8557 51.4043 38.2823 51.6605 38.6158C50.1172 36.2593 46.8816 34.8916 45.3344 32.8775C44.763 32.5246 44.4444 32.1966 44.1641 31.8534C44.1982 31.8979 44.2534 31.9262 44.3017 31.9457C44.2607 31.8923 44.1816 31.8329 44.1026 31.7734C43.9318 31.5511 43.7576 31.3243 43.5559 31.0834C43.7059 31.3004 43.8525 31.513 44.0067 31.6703C43.6257 31.3479 43.0348 30.8827 42.4159 30.4462L42.4205 30.0396C42.3758 30.0032 42.3346 29.9713 42.2865 29.9304C41.8318 29.3818 41.7352 29.6469 41.845 30.0504C41.5215 29.8464 41.2151 29.6647 40.9531 29.5407C40.8952 28.8358 39.3334 28.4094 39.1353 27.5435C38.5513 27.3912 36.1036 25.3123 35.364 25.4351C35.3993 25.3725 35.2591 25.2116 35.5682 25.462C34.9714 24.9023 34.3781 24.3471 33.6716 23.9919L33.7048 23.514L31.8661 22.7489C31.1788 21.9194 30.9371 21.5395 32.0339 22.0119C29.5704 20.7158 30.2 20.8189 28.0352 19.7812L28.3206 19.6751C27.6709 19.1985 26.3599 18.6643 26.1325 18.238C25.0601 16.8419 18.8681 13.0154 15.1912 10.2264C15.3983 11.2126 13.5884 8.83473 12.9819 9.13092C12.8809 8.86915 12.3969 8.45619 13.17 8.74606C10.9751 7.60414 10.2647 6.67931 8.45792 6.15125C8.35691 5.88948 9.10855 6.23826 8.97217 6.03901C8.77896 5.96119 8.18517 5.75275 8.04879 5.5535C7.91583 5.3587 8.46376 5.63772 8.85385 5.7764C6.69823 4.53361 6.0681 4.77728 5.52799 5.02957C4.63949 4.22033 4.08839 3.91547 3.10719 3.63698C2.89641 3.27573 2.46215 2.75384 3.71098 3.57616C3.54606 3.44832 3.20574 3.20071 2.83516 2.87029C2.65683 2.70328 2.46141 2.51403 2.33894 2.31118C2.30137 2.26227 2.29845 2.21502 2.27819 2.16695C2.2577 2.14027 2.28551 2.13305 2.27868 2.12416C2.26478 2.12777 2.32064 2.09193 2.23355 2.13055L2.12206 2.18084C2.19525 2.14583 1.9513 2.26252 2.26843 2.11082L2.27551 2.09831L2.26526 2.08497C2.26526 2.08497 2.29673 2.0608 2.26892 2.06803C2.22013 2.09136 2.17134 2.1147 2.11913 2.1336C2.02863 2.16777 1.93129 2.19305 1.85493 2.20222C1.76126 2.21055 1.7715 2.22389 1.72295 2.22583C1.71612 2.21694 1.6988 2.21611 1.68148 2.21527C1.68148 2.21527 1.68831 2.22416 1.69173 2.22861C1.70539 2.2464 1.68831 2.22416 1.68417 2.28391C1.68637 2.39534 1.61269 2.47314 1.50243 2.72045C1.50243 2.72045 1.7176 2.69656 1.863 2.71213C2.0223 2.72409 2.17794 2.753 2.33017 2.77746C2.62756 2.83888 2.90054 2.91198 3.14255 2.96646C3.61607 3.08347 3.94102 3.15907 4.04226 3.09544C4.23791 3.26329 5.18373 3.6043 5.4255 3.68017C7.19346 4.57032 7.31349 4.68315 9.01534 5.59579L8.59939 5.29316C9.62839 5.32989 10.0748 5.99794 11.4354 6.74857L11.359 6.75773C14.0841 8.82864 12.7899 7.42611 15.3966 9.53842L15.4763 9.22969C16.2523 8.9588 17.7422 11.1372 19.5824 12.0779L19.1204 11.5632C20.2001 12.0135 20.9452 13.852 21.7869 14.5134C21.9374 14.6876 21.4073 14.3666 21.1006 14.2063C23.1591 16.061 21.7183 14.1418 23.539 15.2743C23.6907 15.6455 22.6922 15.3662 23.8439 16.1924C24.2921 16.7107 27.7982 18.0614 29.0683 19.4542C28.8436 19.0965 28.6223 18.7433 29.5355 19.2155C30.8189 20.0395 32.374 21.9769 33.9011 22.4016C34.0138 22.5484 34.0478 22.6142 34.0231 22.6473C35.0634 23.2198 37.248 24.6524 38.0289 24.8655C38.0763 26.1866 44.2489 28.6634 43.4582 29.3061L46.3745 31.322L46.2184 31.3359C47.9983 32.6976 48.8336 33.0033 49.6655 33.3045C50.0359 33.6564 49.6599 33.4927 49.5836 33.5018C52.1112 35.5547 52.4074 35.7231 55.0409 37.0017L55.0297 37.378C55.7853 37.6884 58.5193 40.4877 61.4505 42.1104C61.3915 42.1204 61.291 42.1198 61.0497 42.0011C64.3109 43.8581 67.5124 47.6133 69.509 47.6067L71.7173 48.7878C69.2113 46.9587 72.4945 48.7139 71.5753 47.8647C72.6423 48.5155 73.93 49.8878 72.6394 49.0763L72.4994 48.894C71.5589 48.9943 75.5438 51.2286 75.1634 51.4501C77.7506 53.1461 80.2439 54.8719 82.8462 56.4573C84.1787 57.2366 85.4105 58.0367 87.096 58.5589C87.338 58.6134 87.5243 58.6823 87.9752 58.6612C88.0098 58.6629 88.1313 58.6473 88.2425 58.6184C88.2911 58.6165 88.6007 58.5201 88.8483 58.3864C89.0156 58.3003 89.2986 58.1041 89.4982 57.9296C89.7082 57.747 89.7997 57.6273 89.9229 57.462C89.9721 57.3958 90.0322 57.3002 90.05 57.2583L90.0927 57.1619C90.1246 57.0949 90.1427 57.0315 90.1607 56.9682C90.2232 56.6586 90.1861 56.5669 90.1668 56.4333C90.047 55.995 89.8667 55.6952 89.6762 55.382C89.2914 54.7726 88.854 54.2249 88.4095 53.6896L88.4352 54.483C88.0424 53.9717 87.6181 53.4845 87.1939 52.9974C86.9355 52.5525 87.036 52.249 87.9426 53.2989C87.684 52.5714 86.1892 51.733 86.0814 51.7663C84.3512 49.6877 87.2622 52.1743 86.6832 51.5727L85.8743 50.7801L86.007 50.9963C85.2124 50.4613 85.0002 50.5325 83.8248 49.3498C83.1441 48.5505 83.6718 48.7815 83.3876 48.4766C83.419 48.4525 83.3232 48.3494 82.9387 48.0226L81.187 46.3068L81.6064 47.2219C80.6708 46.5902 79.9331 45.6298 80.4342 46.673C79.7555 45.0946 73.8412 40.3267 73.2159 39.5345C71.8563 38.6982 70.7204 37.6973 69.3274 36.4484C69.618 36.8049 69.5018 37.2618 68.315 36.1727C69.4435 35.9916 66.3606 33.9976 65.848 32.7441C66.4187 33.7692 62.2452 29.8345 63.1979 31.4004C62.2135 30.488 63.3916 31.1314 62.7663 30.3391C60.0388 28.4822 57.4785 25.6485 54.2863 23.2083C54.1472 23.2444 54.5363 23.7727 53.73 23.3527L52.5292 21.6593C51.8759 21.1996 51.4551 21.6289 50.633 20.4718C50.714 20.6641 50.8459 20.9445 50.3953 20.6402C44.705 15.3821 37.4411 11.0287 31.6931 5.65228C32.4087 6.43177 31.7997 6.02993 31.112 5.54721C31.5136 5.89625 30.8813 5.72449 30.8552 5.88593L28.4126 3.66165C27.5885 3.58769 25.3856 1.63186 24.7642 1.71324L25.7181 2.26016C24.1534 1.78657 26.5569 4.09033 25.9019 4.38846C27.6461 4.92208 28.735 7.31663 31.4444 8.32492C31.814 8.74093 30.8916 8.16984 31.034 8.44217C31.7664 8.65728 32.4617 9.0847 33.5566 10.0323L33.3665 9.98035C36.7427 12.3995 37.9486 13.6436 41.4748 16.5838L41.4414 16.1711C42.1967 16.807 42.2811 17.0037 42.5892 17.3397C43.8568 17.7304 40.408 15.6075 41.6246 15.9102C42.1896 17.1235 47.1315 20.2346 47.2759 21.2477C48.4608 22.204 47.202 20.7389 48.3974 21.6871L48.5699 22.0637L49.0646 22.1432C49.8128 22.7915 50.0153 23.2722 49.9239 23.392C49.7489 23.2294 49.3496 22.9918 49.1329 22.8401C49.9678 23.7966 52.0363 25.078 52.3237 25.4087L51.2744 24.4119C54.6428 26.9077 58.3581 30.2894 61.7144 32.6177L61.5929 32.3293C64.1374 34.1217 63.3346 34.0102 65.9796 36.1073L65.8554 36.0542C66.4719 36.4007 67.2145 36.9332 67.8974 37.5398C67.126 37.1002 68.8432 38.7928 67.8623 38.189C70.5814 40.1654 69.2728 39.1133 71.3296 40.2057L71.5216 40.6945C72.2455 41.0505 72.3845 41.0144 73.686 42.079C72.506 41.3029 74.1952 43.0241 72.8322 42.1835C75.0306 44.8498 77.1049 45.3137 77.6726 46.8996C79.3774 47.5555 75.7473 44.6104 76.5143 45.1311C76.1335 44.4834 77.8873 45.7025 78.6304 46.4962C79.4257 47.271 79.3547 48.3294 81.3708 50.2591C81.172 50.0654 81.1198 50.0843 80.921 49.8906C81.5319 50.7293 82.5701 51.169 83.2545 52.2552C84.08 52.5048 84.395 53.4577 84.9412 53.2785L83.0617 51.5266C84.1844 52.467 85.6406 53.0382 86.949 55.0237C86.7524 54.9414 86.1786 54.4984 85.7904 54.1886C86.13 54.8044 86.7572 55.1215 87.079 55.7792C86.5714 55.9218 84.9976 53.5038 83.5721 52.6687C83.932 53.3326 85.8729 54.5565 84.9049 54.3386C85.5648 54.5245 85.999 55.0464 86.4599 55.6681C86.9034 56.2889 87.4326 56.9994 88.0005 57.6519L87.7051 57.7233C87.7427 57.7722 87.78 57.8425 87.8241 57.9217C87.8446 57.9484 87.8512 57.9787 87.8646 58.0179C87.8681 58.0223 87.8749 58.0312 87.8681 58.0223C87.9378 57.9829 88.1749 57.8573 88.3142 57.7998C88.5862 57.6545 88.8087 57.5967 88.8573 57.5947C88.8709 57.6125 88.8573 57.5947 88.868 57.5653C88.8687 57.5011 88.8968 57.4725 88.9571 57.3555C89.0173 57.2385 89.0915 57.1179 89.1934 56.9901L89.2286 56.9489C89.4398 56.6594 89.2849 56.8703 89.3342 56.8042L89.3308 56.7997C89.3308 56.7997 89.2093 56.8153 89.1434 56.8164C88.9875 56.8089 88.8319 56.78 88.6972 56.735C88.9121 56.7325 89.1478 56.7353 89.332 56.6927C89.3805 56.6908 89.4154 56.6711 89.4398 56.6594C89.4398 56.6594 89.394 56.73 89.3727 56.7675L89.3518 56.7836L89.2354 56.9578L89.2073 56.9865L89.1651 57.0401C89.0527 57.176 88.9673 57.3688 88.9144 57.4519C88.8146 57.6911 88.9758 57.5319 88.7182 57.6308C88.5653 57.6706 88.4953 57.7314 88.2306 57.8428C88.032 57.9317 87.7458 58.1021 87.6168 58.1729C87.7773 58.0779 88.1018 57.8923 88.3281 57.7962C88.4674 57.7386 88.506 57.702 88.5965 57.6678C88.6697 57.6328 88.7773 57.6208 88.7982 57.6047C88.8226 57.5931 88.8746 57.5956 88.878 57.6C88.8712 57.5911 88.8712 57.5911 88.8748 57.5742C88.8653 57.4966 88.939 57.4188 89.0383 57.2224C89.0912 57.1393 89.1546 57.0482 89.2249 56.9659L89.2459 56.9498L89.3727 56.7675L89.4679 56.6308C89.5313 56.5397 89.4925 56.5977 89.4996 56.5852L89.4718 56.5924C89.4718 56.5924 89.3886 56.5927 89.3539 56.591C89.1739 56.5738 88.9629 56.538 88.7765 56.469C88.3967 56.3437 88.059 56.1647 87.7424 55.9696C87.0951 55.5831 86.5004 55.1562 85.7553 54.8377C88.6601 56.3393 86.1159 55.4374 87.2059 56.205C85.2179 55.4626 84.8973 55.0019 84.5214 54.5342C84.1525 54.054 83.7529 53.5338 81.8108 52.4169C82.3516 52.7084 83.5843 53.7269 82.6773 53.3278C82.0035 52.8415 81.155 52.1712 80.8405 51.7835C78.3348 50.237 80.974 52.2396 79.7844 51.6898C79.2284 50.9009 78.4612 51.0095 77.3107 50.3804L77.5454 50.1647C74.9406 48.1852 76.3051 50.1135 74.0246 48.2738L75.3993 48.6955L74.0219 47.9012L74.5632 47.8459C72.9638 47.0667 72.583 46.7229 71.2947 45.7189C71.443 46.0857 70.6853 45.9678 69.4677 45.1427C68.7858 44.4505 70.149 45.2698 68.4223 44.1076C68.9614 44.2449 69.563 44.3766 70.0888 45.0827C70.2449 45.0689 70.6245 45.2156 70.7806 45.2017C70.0648 44.4436 68.6011 43.6238 67.9856 43.1917C68.2159 43.3612 68.4803 43.5751 68.5967 43.7049L65.8056 42.2645C65.5045 41.916 65.8875 42.0672 66.2601 42.2265C65.7404 41.8974 65.2776 41.751 64.5277 41.2524C64.9163 41.2155 65.0642 41.0171 66.1937 41.6624L63.6351 40.1989C63.5609 40.0155 62.6765 39.1465 63.0456 39.3013C61.8649 38.2854 59.4941 37.3704 57.9393 36.0196C57.8149 35.9879 57.5941 35.8959 57.2087 35.6547C55.6451 34.4661 54.4597 33.2487 52.2856 32.112L51.5595 31.0366C49.9904 30.0361 52.5761 32.4685 49.9609 30.8011C48.0956 29.6323 49.6018 30.0731 49.0843 29.5515C48.036 29.0771 46.1525 28.297 44.827 26.8972C45.4264 27.2215 45.7933 27.5689 46.3164 27.9024L46.2883 27.931ZM27.6181 15.0041C28.0282 15.2123 28.9079 15.5758 29.0292 15.8856C28.3434 15.8398 28.1531 15.5052 27.6181 15.0041ZM5.80566 6.82413C5.4429 6.72102 5.03378 6.42728 4.62563 6.04795C5.01157 6.24638 5.40728 6.50094 5.80566 6.82413ZM78.758 66.6606C78.758 66.6606 78.741 66.6384 78.7202 66.6331C78.1989 65.8458 78.3794 66.1243 78.758 66.6606ZM79.9325 68.2329C80.094 68.3563 80.1291 68.3152 80.1093 68.2243C79.9539 68.174 79.6631 67.8389 79.3487 67.4512C79.3711 67.6107 79.4933 67.835 79.943 68.2248L79.9325 68.2329ZM83.118 48.408L83.3293 48.7264C82.6389 48.1751 82.8696 48.3018 83.118 48.408Z" fill="#6C45AA"/>
<path d="M2.08628 5.02216C2.01114 4.92434 2.0431 4.85737 2.05407 4.80652C1.8711 4.74205 1.81865 4.78234 2.08628 5.02216Z" fill="#6C45AA"/>
<path d="M57.8598 36.0029L57.9008 36.0563C57.9632 36.0507 57.9874 36.0604 58.0118 36.0488L57.8598 36.0029Z" fill="#6C45AA"/>
<path d="M57.0865 47.6119C56.8406 47.2917 56.7145 47.1058 56.6537 46.9616C56.5771 46.9922 56.6584 47.1631 57.0865 47.6119Z" fill="#6C45AA"/>
<path d="M87.0693 75.83L86.1994 74.9146C86.5997 75.3706 86.6805 75.5843 86.8369 75.853C86.8827 75.7824 86.8093 75.5348 87.0693 75.83Z" fill="#6C45AA"/>
<path d="M92.3454 85.521C92.4895 85.6436 92.581 85.8278 92.7357 85.9423L92.8204 85.8137C92.3351 85.2037 91.8955 84.8485 92.3454 85.521Z" fill="#6C45AA"/>
<path d="M86.965 77.3878C86.8167 77.629 87.3892 78.1789 87.9779 78.8367C87.9472 78.7967 87.9164 78.7566 87.8823 78.7122C88.3436 78.683 87.6473 78.0372 86.965 77.3878Z" fill="#6C45AA"/>
<path d="M88.1218 78.9806C88.3068 79.1779 88.488 79.3922 88.6381 79.6092C88.8254 79.5926 88.4575 79.3308 88.1218 78.9806Z" fill="#6C45AA"/>
<path d="M81.6939 70.0048C81.9047 70.366 82.1342 69.9917 82.2042 70.2349C82.778 70.3738 80.0835 68.3644 81.6939 70.0048Z" fill="#6C45AA"/>
<path d="M86.7169 78.4762L86.7774 78.0338L86.2565 77.8118L86.7169 78.4762Z" fill="#6C45AA"/>
<path d="M82.4814 72.9842L83.3178 74.1164C83.3178 74.1164 83.4868 74.1845 83.6515 74.3337C83.115 73.657 82.5449 72.8931 82.4954 72.9806L82.4814 72.9842Z" fill="#6C45AA"/>
<path d="M83.6376 74.3373C83.9108 74.693 84.2053 75.0112 84.408 75.1665C84.2612 74.9753 83.9086 74.5816 83.6376 74.3373Z" fill="#6C45AA"/>
<path d="M85.4229 77.0523L85.2121 76.691L84.5971 75.9121L85.4229 77.0523Z" fill="#6C45AA"/>
<path d="M72.5841 61.5548L71.4734 60.4779C71.2729 60.434 71.508 60.7836 71.9298 61.1807C72.2358 61.4053 72.6542 61.7979 72.5841 61.5548Z" fill="#6C45AA"/>
<path d="M74.9716 65.5747C74.7503 65.2215 74.7962 65.1509 74.7262 64.9078L74.3771 65.1265L74.9821 65.5667L74.9716 65.5747Z" fill="#6C45AA"/>
<path d="M71.9067 62.3014C71.7096 62.2619 70.159 60.8513 71.4876 62.2769C71.6742 62.3245 72.7884 63.4057 71.9067 62.3014Z" fill="#6C45AA"/>
<path d="M56.2609 45.2343L56.549 45.5008L57.0291 45.0401L56.2609 45.2343Z" fill="#6C45AA"/>
<path d="M39.8434 32.3303C41.1144 33.6375 40.5053 32.3451 41.6075 33.5628C42.0629 33.7432 40.7073 32.5646 41.1486 32.77C40.1747 32.1536 39.8019 31.7118 39.8539 32.3223L39.8434 32.3303Z" fill="#6C45AA"/>
<path d="M41.1381 32.7781C41.2964 32.8756 41.4721 32.974 41.6441 33.0893C41.3689 32.9048 41.2276 32.8295 41.1381 32.7781Z" fill="#6C45AA"/>
<path d="M26.8147 2.14601L25.8945 1.38235L26.3904 1.96287L26.8147 2.14601Z" fill="#6C45AA"/>
<path d="M24.4722 1.18109L24.5534 0.743986L23.64 0.597217C23.8916 0.729224 24.3668 1.00046 24.4722 1.18109Z" fill="#6C45AA"/>
<path d="M25.48 12.5248L25.3239 12.5387C25.3947 12.7176 25.625 12.8871 26.0821 13.2217L25.48 12.5248Z" fill="#6C45AA"/>
<path d="M38.7495 22.1557L38.5331 21.9826L38.6653 22.5455L38.7495 22.1557Z" fill="#6C45AA"/>
<path d="M50.3427 29.8433C49.8679 29.5293 49.3175 29.1602 48.8499 28.8337C49.8994 29.5051 50.099 30.2426 50.3427 29.8433Z" fill="#6C45AA"/>
</svg>
