<svg width="24" height="24" viewBox="0 0 24 24" fill="none" xmlns="http://www.w3.org/2000/svg">
  <rect width="24" height="24" rx="4" fill="#6C45AA"/>
  <path d="M19.2304 4.26293L19.378 4.252L19.1517 4.2848L19.2304 4.26293Z" fill="white"/>
  <path d="M19.1421 4.51279C19.2602 4.51279 19.3093 4.63307 19.388 4.6112C19.3487 4.6768 19.2405 4.69867 19.1421 4.72054C19.2011 4.6768 19.211 4.6112 19.1421 4.50186V4.51279Z" fill="white"/>
  <path d="M18.9844 4.77606C18.9844 4.77606 19.073 4.74326 19.132 4.73233C19.0926 4.7542 19.0533 4.76513 18.9844 4.77606Z" fill="white"/>
  <path d="M18.9742 4.01093C18.9742 4.01093 19.0923 4.07654 19.112 4.14214L18.9644 4.04374V4L18.9742 4.01093Z" fill="white"/>
  <path d="M18.9559 4.05339C18.9559 4.05339 18.9452 4.12921 18.9452 4.14005C18.9452 4.12921 18.9452 4.09672 18.9559 4.05339Z" fill="white"/>
  <path d="M18.8959 4.53551C18.8172 4.55738 18.7975 4.60112 18.768 4.65579C18.7582 4.59018 18.7582 4.51365 18.768 4.45898C18.8172 4.45898 18.9156 4.46991 18.8959 4.53551Z" fill="white"/>
  <path d="M18.9057 4.29496H18.8959C18.8959 4.29496 18.8861 4.29496 18.9057 4.29496Z" fill="white"/>
  <path d="M18.5816 5.20284L18.5619 5.18097L18.5914 5.1919L18.5816 5.20284Z" fill="white"/>
  <path d="M18.7383 4.43745C18.7186 4.38278 18.7678 4.37184 18.8268 4.36091C18.7973 4.39371 18.7779 4.42617 18.768 4.45898C18.7484 4.45898 18.7284 4.45932 18.7383 4.43745Z" fill="white"/>
  <path d="M18.8669 4.90804C18.8669 4.90804 18.8177 4.8315 18.8078 4.7987C18.8472 4.84244 18.916 4.91898 18.8669 4.90804Z" fill="white"/>
  <path d="M18.9355 4.33819C18.9355 4.33819 18.8568 4.36006 18.8174 4.36006C18.8371 4.33819 18.8666 4.31632 18.8961 4.30539C18.906 4.30539 18.9256 4.32725 18.9355 4.33819Z" fill="white"/>
  <path d="M17.5188 4.95101C17.6663 5.00568 17.8434 4.95101 17.7155 4.787C17.8532 4.73233 18.316 4.98415 18.5619 5.18097C18.4931 5.1591 18.4336 5.13689 18.3155 5.20249C18.2467 5.13689 18.1975 4.90727 18.0401 4.92914C17.9221 5.02755 18.0598 5.06035 18.109 5.15876C17.9417 5.02755 17.7942 5.21343 17.5286 5.07129L17.6565 4.99475C17.6565 4.99475 17.5384 4.99475 17.5089 4.94008L17.5188 4.95101Z" fill="white"/>
  <path d="M18.6106 4.98313L18.6401 4.95033C18.65 5.005 18.6992 5.0706 18.7877 5.17994C18.6893 5.22368 18.6303 5.21274 18.5811 5.20181L18.6303 4.98313H18.6008H18.6106Z" fill="white"/>
  <path d="M18.6996 4.76411C18.5324 4.7313 18.4242 4.80784 18.2766 4.67663C18.3258 4.55636 18.434 4.64383 18.5324 4.60009C18.4242 4.78597 18.6406 4.57823 18.6898 4.75317C18.7291 4.72037 18.7488 4.68757 18.7684 4.6657C18.7684 4.70943 18.7881 4.75317 18.8078 4.79691C18.8078 4.79691 18.7783 4.77504 18.7881 4.79691C18.7881 4.79691 18.7488 4.79691 18.7291 4.79691C18.7389 4.86251 18.7684 4.81878 18.7881 4.80784H18.8176L18.6701 4.97185C18.6701 4.97185 18.6799 4.87345 18.7291 4.78597L18.6996 4.76411Z" fill="white"/>
  <path d="M18.4438 4.16376L18.3159 4.30591L18.1978 4.1747L18.2765 4.2075C18.2765 4.09816 18.3651 4.16376 18.4339 4.1747L18.4438 4.16376Z" fill="white"/>
  <path d="M18.6603 5.25785L18.8373 5.30158H18.5619L18.6603 5.25785Z" fill="white"/>
  <path d="M18.5713 5.46491L18.7188 5.51958L18.6106 5.54145L18.5713 5.46491Z" fill="white"/>
  <path d="M11.1935 15.0537H11.1344C11.1344 15.0537 11.1738 15.0537 11.1935 15.0537Z" fill="white"/>
  <path d="M11.3909 14.7697L11.4598 14.8134C11.4598 14.8134 11.3909 14.7806 11.3909 14.7697Z" fill="white"/>
  <path d="M16.358 10.4837C16.4466 10.6258 16.6039 10.8336 16.4564 10.7242L16.3187 10.6039C16.3679 10.5711 16.3679 10.5274 16.358 10.4837Z" fill="white"/>
  <path d="M13.6827 13.0305L13.6532 12.9758C13.7122 12.9976 13.7614 13.0195 13.8106 13.0414C13.7712 13.0414 13.7319 13.0414 13.6827 13.0305Z" fill="white"/>
  <path d="M13.0826 12.6149L13.1219 12.7679C13.1219 12.7679 13.0826 12.6805 13.0826 12.6149Z" fill="white"/>
  <path d="M9.99404 16.3547L9.83665 16.2563C9.88584 16.1907 9.92518 16.2891 9.99404 16.3547Z" fill="white"/>
  <path d="M17.6864 7.59693C17.7258 7.6844 17.7258 7.75001 17.716 7.79374C17.6569 7.67347 17.5487 7.55319 17.6864 7.59693Z" fill="white"/>
  <path d="M12.6893 16.2013C12.6893 16.2013 12.6106 16.2013 12.5811 16.1685C12.6205 16.1685 12.6598 16.1685 12.6893 16.2013Z" fill="white"/>
  <path d="M17.6469 7.95703C17.6469 7.95703 17.6371 7.92423 17.6272 7.90236C17.6764 7.86956 17.7158 7.83676 17.7256 7.78208C17.7649 7.86956 17.7846 7.9461 17.6469 7.9461V7.95703Z" fill="white"/>
  <path d="M8.25306 14.0588C8.25306 14.0588 8.24323 14.0588 8.23339 14.0478C8.25306 14.0478 8.2629 14.0478 8.25306 14.0588Z" fill="white"/>
  <path d="M6.32501 12.2326C6.32501 12.2326 6.32501 12.2868 6.32501 12.3193C6.31428 12.3084 6.31428 12.2759 6.32501 12.2326Z" fill="white"/>
  <path d="M17.7847 5.85845C17.7847 5.85845 17.7355 5.85845 17.706 5.83659C17.7454 5.84752 17.7749 5.85845 17.7847 5.85845Z" fill="white"/>
  <path d="M18.2862 6.25302C18.2862 6.25302 18.3059 6.30769 18.3157 6.32956C18.3157 6.31863 18.2961 6.28582 18.2862 6.25302Z" fill="white"/>
  <path d="M18.3544 6.29676C18.3544 6.29676 18.3544 6.26396 18.3544 6.25302C18.3839 6.25302 18.3938 6.27489 18.3544 6.29676Z" fill="white"/>
  <path d="M18.2958 6.41712C18.2958 6.41712 18.3057 6.36245 18.3057 6.34058C18.3057 6.35151 18.3253 6.36245 18.3253 6.36245C18.3253 6.37338 18.3057 6.39525 18.2958 6.41712Z" fill="white"/>
  <path d="M8.75427 17.3495C8.75427 17.3495 8.75427 17.3495 8.74444 17.3495C8.77395 17.262 8.77395 17.2838 8.75427 17.3495Z" fill="white"/>
  <path d="M14.2824 10.5156H14.2931V10.5264L14.2824 10.5156Z" fill="white"/>
  <path d="M14.096 10.5831C14.3124 10.6487 14.3026 10.605 14.2928 10.5284L14.6862 10.8674L14.096 10.5831Z" fill="white"/>
  <path d="M10.6924 15.6671L10.6334 15.4703C10.3678 15.3938 10.3776 15.525 10.2694 15.2953C10.6826 15.6671 10.5547 15.0111 10.9777 15.3719L10.9285 15.2297C10.9285 15.2297 10.8891 15.2297 10.8891 15.2516C10.7711 14.9564 11.2531 15.4375 11.3023 15.2297C11.3023 15.1532 11.2728 15.0548 11.1941 15.0548L11.381 15.0329C11.381 15.0329 11.322 14.9345 11.3023 14.9783L11.4597 14.8252H11.4498C11.5285 14.847 11.6761 14.8799 11.7351 14.8908C11.7056 14.7924 11.6761 14.8799 11.6269 14.8142H11.7941C11.7154 14.6721 11.5482 14.6612 11.5187 14.7377C11.1646 14.2785 11.6859 14.7377 11.5777 14.3331L11.4597 14.3769C11.2629 14.1145 11.4006 14.1145 11.322 13.8848C11.381 13.9723 11.5482 14.4206 11.7351 14.3988C11.7253 14.3441 11.7351 14.2894 11.863 14.3003C11.7154 14.1691 11.7941 14.1473 11.8433 14.0817L11.6367 13.9177C11.7449 13.8848 11.8433 13.9833 11.9613 14.0161C12.0007 13.9177 11.8531 13.7646 11.7351 13.6334C11.7941 13.4694 11.922 13.9395 12.0695 13.8083C12.0695 13.6334 12.2073 13.6115 12.4138 13.5787C12.3942 13.4366 12.2761 13.4912 12.2466 13.4147L12.4532 13.4803C12.4532 13.4803 12.404 13.4256 12.3843 13.4037C12.4827 13.4037 12.5909 13.5678 12.7089 13.5131C12.9548 13.6662 12.5122 13.0539 12.8466 13.1413C12.8073 13.0648 12.7089 13.0539 12.6401 12.9883C12.9155 12.9555 12.8565 12.9445 13.1713 12.9883L13.1122 12.7696C13.2106 12.9773 13.4664 13.0101 13.6729 13.032C13.7319 13.1195 13.7811 13.196 13.8008 13.2397L14.0074 13.1741C14.0074 13.1741 13.909 13.0867 13.8008 13.0539H13.8697C13.8303 12.9445 13.6926 12.8898 13.5549 12.8352C13.5844 12.8898 13.6139 12.9336 13.6434 12.9883C13.4959 12.9336 13.3385 12.857 13.2204 12.7586C13.2499 12.7586 13.2795 12.7586 13.309 12.7586C13.2696 12.7368 13.2303 12.7258 13.2204 12.704C13.2008 12.6821 13.2598 12.704 13.3286 12.7149L13.1221 12.5072L13.2204 12.5728L13.2008 12.2666C13.5254 12.2994 13.9385 12.4415 14.1844 12.2775C13.9779 12.2119 13.8992 12.0807 13.6926 11.9386C13.8697 12.1573 13.4959 12.0479 13.4664 12.201C13.486 12.1245 13.3778 12.0589 13.3385 12.0589L13.6631 11.9933C13.4959 11.873 13.5647 11.8511 13.5352 11.7527C13.8401 12.037 13.85 11.7527 13.9975 11.7527C13.8893 11.6652 13.7713 11.6106 13.7319 11.7308C13.5549 11.4356 14.2041 11.862 14.0664 11.5996C14.0467 11.6215 14.0664 11.6543 13.9975 11.6215C14.1352 11.6324 14.1352 11.4247 14.0172 11.3919L13.9975 11.4137C14.0566 11.2169 14.2926 10.8889 14.5976 11.0639C14.5582 11.0311 14.2435 10.8452 14.1844 10.8124L15.3157 11.1623C15.0599 11.0201 14.5287 10.5171 14.3123 10.5609C14.3025 10.4953 14.2926 10.4187 14.4205 10.3859C14.4402 10.4406 14.7353 10.703 14.7746 10.6702C14.5582 10.375 14.6763 10.4953 14.509 10.211C14.5386 10.2875 14.9517 10.5062 14.9714 10.4297C14.9123 10.3969 14.5976 10.1673 14.5386 10.1673L15.0107 10.2547C14.9222 10.2547 14.6861 10.047 14.5976 9.93764C14.6664 10.0032 14.6664 9.78456 14.7255 9.77363L14.7746 9.90484C14.814 9.67522 15.414 10.0689 15.4927 9.8611C15.4042 9.8283 14.9714 9.59868 14.9812 9.47841C15.1976 9.56588 16.0337 9.88297 16.2698 9.80643L16.1714 9.69709L16.3682 9.64242C16.0337 9.54401 15.2861 9.38 14.9812 9.3472C14.932 9.21599 14.8632 9.23786 14.9222 9.13945C14.8337 9.03011 14.7353 9.09572 14.7058 9.11758L14.7648 8.8333C14.991 8.98637 15.0894 8.78956 15.2763 8.90984L14.9025 9.03011C15.1288 9.18319 15.6304 9.2816 15.6796 9.07385C15.6108 8.97544 15.2468 8.85517 15.1779 8.8005C15.2665 8.82236 15.414 8.72396 15.3648 8.66929H15.2074C15.1681 8.51621 15.5911 8.69115 15.4337 8.43967C15.4337 8.385 15.1976 8.13352 15.3353 8.21005C15.5714 8.43967 16.3879 8.94264 16.6043 9.00824C16.5944 8.98637 16.4567 8.63648 16.3485 8.50527C16.1714 8.31939 15.7977 8.31939 15.6501 8.15538C15.719 8.18819 15.8173 8.19912 15.8468 8.19912C15.8173 8.12258 15.6403 8.10071 15.719 8.02417C15.9649 8.14445 15.7878 7.81643 15.9452 8.10071C16.0534 8.04604 15.9452 7.9695 16.0042 7.8711C16.1419 7.99137 16.5747 8.06791 16.683 8.01324C16.6239 7.98044 16.5452 7.91483 16.5157 7.89297C16.5846 7.68522 16.5157 7.52121 16.5944 7.33533C16.5452 7.29159 16.5157 7.16038 16.3879 7.14945C16.4469 7.14945 16.5354 7.17131 16.5649 7.11664C16.3977 6.89796 16.4764 7.22599 16.26 7.0073C16.4075 7.07291 16.5157 6.96357 16.6338 6.93077C16.8403 7.07291 16.6043 7.13851 16.4764 7.17131C16.7813 7.33533 17.1551 7.35719 17.3715 7.22599C17.5092 7.10571 17.2043 7.06197 17.2535 7.05104C17.3223 6.73395 17.883 7.06197 17.765 6.71208C17.6076 6.51527 17.3814 6.5262 17.2535 6.4278C17.1256 6.51527 17.3027 6.67928 17.2535 6.76675L17.2043 6.61368C17.1256 6.61368 17.0371 6.67928 17.0764 6.75582C16.9289 6.59181 17.2535 6.25285 17.1649 5.9467C17.2436 5.9467 17.342 5.90296 17.401 5.96856L17.3518 6.02323C17.4896 6.16538 17.6174 5.99043 17.6568 6.11071C17.8043 6.06697 18.0207 6.03417 17.9814 5.84829L17.765 5.72801C17.8338 5.76082 17.8634 5.88109 17.7847 5.88109C17.9027 5.87016 17.5584 5.5312 17.8732 5.59681L17.9912 5.76082C18.1388 5.70615 18.424 5.69521 18.3945 5.5312C18.6011 5.68428 18.3552 5.55307 18.5913 5.74988C18.2962 5.5312 18.4831 6.0779 18.1978 5.80455C18.4634 6.02323 18.2667 6.02324 18.4831 6.25285C18.4142 6.22005 18.3552 6.14351 18.3552 6.26378C18.3355 6.26378 18.2962 6.26378 18.2863 6.26378C18.2667 6.26378 18.2765 6.26378 18.2863 6.26378C18.2667 6.22005 18.2273 6.18725 18.1978 6.15444C18.0109 6.13258 17.9519 6.29659 17.8437 6.30752C17.8535 6.38406 17.942 6.31846 18.0011 6.39499L17.8437 6.41686C18.0011 6.50433 18.0503 6.71208 18.1978 6.61368L18.1486 6.74488C18.2076 6.86516 18.1978 6.98543 18.1093 7.01824C18.1093 7.09478 17.8634 7.08384 18.0109 7.09478L17.824 7.24785L17.8634 7.26972C17.8043 7.47747 17.4305 7.54307 17.6174 7.92577C17.5486 7.9695 17.4699 8.01324 17.46 8.14445L17.5879 8.24286C17.4994 8.29753 17.6076 8.57088 17.4502 8.53808C17.7748 8.8333 17.342 8.99731 17.3322 9.18319L17.1551 9.08478C17.1158 9.19412 17.0174 9.25973 16.8895 9.3472L16.742 9.24879C16.5649 9.28159 16.7223 9.58775 16.6141 9.75176C16.683 9.77363 16.683 9.71896 16.6633 9.67522C16.9092 10.1017 16.201 9.94858 16.3583 10.2875C16.2796 10.2875 16.2796 10.3422 16.2993 10.3969C16.2993 10.3969 16.2993 10.3969 16.3092 10.3969C16.3092 10.3969 16.3092 10.4078 16.3092 10.4187C16.3288 10.4515 16.3387 10.4953 16.3583 10.5281C16.3288 10.4843 16.3092 10.4515 16.3092 10.4187C16.2895 10.4515 16.2403 10.4953 16.1714 10.5171L16.319 10.6484C16.319 10.6484 16.319 10.6484 16.3092 10.6484C16.3387 10.7358 16.2108 10.6484 16.1026 10.5281C16.0632 10.5281 16.0141 10.5281 15.9649 10.5281C16.2108 10.7468 15.8075 10.6046 16.0534 10.8452C15.896 10.7905 15.8173 11.0311 15.5124 10.867C15.5517 10.8889 15.5616 10.9217 15.5714 10.8998C15.5714 10.9764 15.5714 11.0529 15.473 11.0529L15.6599 11.2169L15.3157 11.1513C15.3943 11.3153 15.4534 11.3919 15.6501 11.4247C15.3058 11.4247 15.473 11.5012 15.1484 11.4903L15.2861 11.5778C15.2861 11.5778 15.0206 11.5887 15.1189 11.698C15.296 11.9933 14.8238 12.3213 14.8533 12.7914C14.509 12.4525 14.932 13.0648 14.6369 12.8461C14.7156 12.9336 14.7451 13.0101 14.8533 13.0211C14.6664 13.1085 14.8533 13.36 14.5386 13.2835C14.6172 13.3709 14.6861 13.3491 14.7353 13.4037C14.7058 13.4037 14.6271 13.4037 14.6664 13.4475C14.7058 13.5022 14.755 13.4803 14.814 13.4912C14.6959 13.6443 14.4205 13.4475 14.1549 13.2507C14.2238 13.4256 14.1844 13.4475 13.9779 13.3819C14.0467 13.4803 14.1057 13.5896 14.1943 13.5131C14.1746 13.5787 14.1057 13.9505 13.8992 13.7864C13.9385 13.8411 13.8598 13.8739 13.8303 13.8739C13.7615 14.0051 13.7713 14.027 13.6729 14.1363V14.0817C13.3877 13.9286 13.545 14.1363 13.4467 14.2019L13.4762 14.2238C13.5057 14.5846 13.3286 14.2457 13.3877 14.6284L13.2401 14.4862C12.9057 14.2347 13.309 14.8361 13.1024 14.858L13.0434 14.7377C12.886 14.7158 13.3582 15.2953 13.3483 15.4047C13.368 15.4484 13.4073 15.4156 13.4467 15.4047C13.5155 15.7436 13.2303 15.2625 13.0926 15.35C13.1811 15.4594 13.3877 15.5468 13.3385 15.6562C13.3877 15.7764 12.8171 15.6124 12.9253 15.9077C12.8663 15.8092 12.7975 15.7108 12.6991 15.7218C12.6007 15.7874 12.827 16.2357 12.5122 16.1045C12.522 16.1373 12.5417 16.1591 12.5614 16.181C12.4433 16.1919 12.286 16.3122 12.1187 16.2357C12.5811 16.7605 11.558 16.4544 12.0204 16.8808L11.8236 17.0776L11.8728 17.1213C11.7941 17.2963 11.6466 17.2307 11.5089 17.176C11.5089 17.2416 11.5777 17.2526 11.5974 17.2744C11.5285 17.5696 11.4892 17.5696 11.1449 17.515L11.2728 17.679C11.1547 17.6352 11.2728 18.2148 10.9482 18.2366C10.9678 18.2476 10.9973 18.2804 11.0269 18.2804C10.8301 18.3132 10.7613 18.6302 10.6334 18.838C10.5055 19.0457 10.358 19.1988 10.1711 18.838L9.92515 18.7724C10.1416 18.5646 9.80711 18.4553 9.86613 18.2694C9.79727 18.2804 9.6989 18.6193 9.81694 18.6084V18.5646C9.95466 18.9583 9.55135 18.8489 9.57102 19.1004C9.01033 19.2426 8.38079 19.1441 7.93814 18.6959L8.15454 18.4772C8.15454 18.4772 8.06601 18.3897 8.01683 18.335C7.94797 18.3569 7.82993 18.4662 7.9283 18.5865C7.77091 18.6631 7.85944 18.2585 7.89879 18.2038C7.65287 18.0507 7.73156 18.5756 7.68238 18.51C7.66271 18.4662 7.6332 18.4225 7.62336 18.3788H7.66271C7.69222 18.1929 7.78075 18.0945 7.67254 17.9414C7.56434 17.8867 7.50532 18.007 7.46597 17.9742C7.4463 17.9851 7.43646 17.9742 7.42663 17.9086L7.26924 17.6571L7.51516 17.6352C7.5545 17.4603 7.40695 17.4384 7.67254 17.3947C7.24957 17.4494 7.24957 16.7168 7.12169 16.684C7.23973 16.4981 7.20038 16.3778 7.14136 16.2357C7.20038 16.2575 7.4463 16.1919 7.37744 16.0826C6.88561 16.3013 7.10202 15.9186 6.70855 15.9295C6.97414 15.9514 6.67904 15.5359 7.06267 15.5906C6.99381 15.4922 6.86594 15.6343 6.72822 15.5906C6.86594 15.2735 6.47247 15.0439 6.49214 14.7049C6.561 14.683 6.6692 14.7158 6.75773 14.6284L6.38394 14.53C6.40361 14.4534 6.76757 14.3878 6.51182 14.3222C6.57084 14.3222 6.65937 14.3331 6.67904 14.2894C6.24622 13.7099 6.77741 12.9773 6.10851 12.3759C6.24622 12.4525 6.25606 12.3978 6.25606 12.3213C6.28557 12.365 6.42328 12.3103 6.52165 12.3103L6.24622 12.0479C6.50198 11.9823 6.24622 11.7418 6.50198 11.709L6.46263 11.7964C6.75773 11.6762 7.12169 11.9386 7.49548 11.8948C7.16104 12.037 7.99716 12.1682 7.53483 12.3978C7.61352 12.4306 7.65287 12.3541 7.7414 12.365C7.58401 12.4306 7.5545 12.4962 7.6332 12.5946L7.67254 12.5728C7.66271 12.8898 7.82993 12.9992 7.97748 13.3272H7.79058C7.82009 13.4037 7.87912 13.4037 7.93814 13.4366C7.67254 13.5678 7.89879 13.2288 7.59385 13.3491C7.97748 13.3928 7.67254 13.8739 8.10536 13.863C8.12503 13.9723 7.88895 13.863 7.90862 13.9833H8.02667L7.87912 14.0489C7.91846 14.1145 8.06601 14.1254 8.16438 14.1145C8.15454 14.1035 8.18405 14.0598 8.18405 14.0379C8.3316 14.1035 8.18405 14.3113 8.23324 14.3331L8.14471 14.2457C8.08569 14.5737 8.31193 14.9017 8.14471 15.2516H8.05618C7.94797 15.525 8.19389 15.4047 8.18405 15.6671H8.20373C8.13487 15.7218 8.10536 15.8093 8.13487 15.8639C8.21356 15.7655 8.36111 15.9077 8.43981 15.7983C8.34144 16.0826 8.34144 15.9623 8.07585 16.2247L8.2234 16.2029C8.1152 16.3013 8.05618 16.3341 8.05618 16.4653C8.14471 16.3232 8.29226 16.4544 8.4103 16.2794C8.78409 16.3778 8.24307 16.7715 8.7054 16.6402C8.38079 16.9355 8.42997 16.5637 8.37095 16.6621C8.23324 16.6621 8.13487 16.8808 8.19389 16.9355C8.23324 17.012 8.7054 16.8043 8.73491 16.8808C8.73491 16.8808 8.75458 16.848 8.74474 16.848C8.84311 16.8043 8.67589 17.0229 8.82344 16.9355C8.65621 17.1541 8.86278 16.9792 8.65621 17.2526C8.65621 17.1979 8.64638 17.1432 8.64638 17.0885C8.60703 17.1979 8.4103 17.6024 8.61687 17.5587C8.64638 17.4931 8.67589 17.3728 8.69556 17.3072C8.77425 17.2526 8.69556 17.4275 8.77425 17.3619C8.96115 17.0448 8.72507 17.176 8.86278 16.9245C8.96115 16.8261 8.76442 17.2088 8.98082 16.8808C8.72507 17.3182 9.05952 16.8808 8.91197 17.2854L9.01033 17.0776C9.01033 17.0776 8.97099 17.2307 8.99066 17.2416C9.02017 17.1432 9.04968 17.0448 9.08903 16.9464C9.02017 17.2197 9.22674 16.7824 9.19723 16.9355C9.13821 16.8917 9.09887 17.1979 9.01033 17.34C9.04968 17.7337 9.25625 16.7824 9.2956 16.9136C9.2956 16.8808 9.22674 17.0557 9.22674 17.1651C9.25625 17.1213 9.2956 17.0339 9.31527 16.9027C9.37429 16.9464 9.28576 17.1541 9.31527 17.3072C9.35462 17.0011 9.35462 17.4275 9.41364 17.515V17.2635C9.4825 17.0776 9.48249 17.7665 9.57102 17.5259C9.53168 17.4275 9.50217 17.3291 9.47266 17.2197L9.53168 17.2854L9.47266 17.0229C9.55135 17.1979 9.56119 17.1323 9.57102 17.0339C9.61037 17.1869 9.70874 17.4275 9.75792 17.3838C9.73825 17.2307 9.65955 17.2088 9.72841 17.176C9.65955 17.0667 9.58086 16.9136 9.63988 17.1213L9.55135 16.9355C9.512 16.7715 9.58086 16.8589 9.60054 16.848C9.60054 16.8589 9.60054 16.8699 9.60054 16.9027C9.65956 16.9792 9.72841 17.0339 9.80711 17.0885C9.7776 17.012 9.72841 16.9683 9.68906 16.9245C9.70874 16.9245 9.7776 17.0011 9.80711 16.9901C9.6989 16.8589 9.60054 16.7277 9.54152 16.673C9.5907 16.7168 9.63988 16.7496 9.68906 16.7715C9.64972 16.7058 9.62021 16.5418 9.57102 16.52C9.57102 16.3669 9.94482 16.5418 9.94482 16.3341C9.97433 16.356 10.0038 16.356 10.0334 16.356C10.0924 16.2138 10.0334 15.9842 10.2793 16.0061L10.1317 15.7327C10.2596 15.678 10.3186 16.0935 10.5252 15.9951C10.6826 15.9405 10.3776 15.7764 10.358 15.678C10.5055 15.7218 10.8006 15.8202 10.7121 15.5468C10.6432 15.5468 10.6531 15.6015 10.6137 15.6234L10.6924 15.6671ZM11.7548 14.4097C11.7056 14.4097 11.5679 14.3769 11.6466 14.4753C11.8433 14.5956 11.7744 14.4972 11.7548 14.4097ZM13.5254 12.5837C13.4565 12.5618 13.4664 12.6165 13.5057 12.693C13.5352 12.6712 13.545 12.6384 13.5254 12.5837ZM18.0109 6.77769H18.0011C18.0404 6.88703 18.0207 6.84329 18.0109 6.77769ZM17.9912 6.59181C17.9912 6.59181 18.0503 6.59181 18.0699 6.61368C18.0207 6.61368 18.0011 6.63554 18.0011 6.67928C17.9617 6.64648 17.9322 6.61368 18.0011 6.59181H17.9912ZM7.56434 17.8977H7.62336C7.62336 17.7774 7.59385 17.8321 7.56434 17.8977Z" fill="white"/>
  <path d="M13.1517 12.6704C13.1517 12.6704 13.2009 12.7251 13.2304 12.7469C13.2009 12.7469 13.1714 12.7141 13.1517 12.6704Z" fill="white"/>
  <path d="M15.5811 8.03408C15.5811 8.03408 15.6106 8.11062 15.6401 8.14342C15.6008 8.12156 15.5713 8.08875 15.5811 8.03408Z" fill="white"/>
  <path d="M18.5808 5.92491L18.5021 6.00145C18.5021 6.00145 18.5021 5.92491 18.4726 5.89211C18.5119 5.91398 18.5709 5.95772 18.5808 5.92491Z" fill="white"/>
  <path d="M17.7646 4.62222C17.7646 4.62222 17.7744 4.58942 17.8039 4.58942L17.8826 4.62222C17.8531 4.67689 17.7744 4.69876 17.7646 4.62222Z" fill="white"/>
  <path d="M18.0208 5.57348C17.8732 5.49695 17.9519 5.46414 18.0011 5.40947C18.2175 5.48601 18.1191 5.52975 18.0306 5.57348H18.0208Z" fill="white"/>
  <path d="M18.0105 5.40033C18.0105 5.40033 18.04 5.36753 18.04 5.33473C18.1286 5.36753 18.04 5.36753 18.0105 5.40033Z" fill="white"/>
  <path d="M18.1586 6.44949C18.1586 6.44949 18.3553 6.5151 18.2963 6.47136C18.493 6.52603 17.9914 6.5807 18.1586 6.44949Z" fill="white"/>
  <path d="M17.5581 5.31124L17.7253 5.40964L17.5679 5.38778L17.5581 5.31124Z" fill="white"/>
  <path d="M17.4995 5.89091V5.75971C17.4995 5.75971 17.5388 5.75971 17.5585 5.75971C17.5388 5.82531 17.5585 5.91278 17.4995 5.89091Z" fill="white"/>
  <path d="M17.5585 5.75971C17.5585 5.75971 17.5876 5.69376 17.6171 5.68283C17.6171 5.70469 17.588 5.73784 17.5585 5.75971Z" fill="white"/>
  <path d="M17.4495 5.43296L17.4701 5.4767L17.4598 5.56417L17.4495 5.43296Z" fill="white"/>
  <path d="M17.0955 7.02748L16.9971 7.11496C16.9283 7.09309 16.9086 7.04935 16.948 7.01655C16.9971 7.01655 17.0463 6.98375 17.0955 7.02748Z" fill="white"/>
  <path d="M16.7412 6.43881C16.7412 6.43881 16.8101 6.50442 16.8592 6.55909L16.633 6.44975H16.7412V6.43881Z" fill="white"/>
  <path d="M16.5549 6.74364C16.486 6.72177 16.3089 6.80924 16.3876 6.67803C16.4565 6.6999 16.545 6.61243 16.5549 6.74364Z" fill="white"/>
  <path d="M16.0922 8.54927L16.1118 8.5274L16.466 8.73515L16.0922 8.54927Z" fill="white"/>
  <path d="M14.5477 9.43442C14.528 9.25947 14.7739 9.54376 14.7346 9.36881C14.8329 9.39068 14.7739 9.51095 14.8526 9.53282C14.7247 9.55469 14.7542 9.6203 14.5477 9.43442Z" fill="white"/>
  <path d="M14.8526 9.53282C14.8526 9.53282 14.8923 9.53325 14.9218 9.53325C14.8923 9.53325 14.8624 9.53282 14.8526 9.53282Z" fill="white"/>
  <path d="M6.08853 11.8723L6 11.763L6.13771 11.8286L6.08853 11.8723Z" fill="white"/>
  <path d="M6.38363 11.6645L6.12788 11.6427L6.35412 11.5771C6.35412 11.5771 6.32461 11.6427 6.38363 11.6645Z" fill="white"/>
  <path d="M11.4793 13.862L11.5285 13.8948C11.5777 13.9495 11.5678 13.9714 11.5482 14.0151L11.4793 13.862Z" fill="white"/>
  <path d="M10.9385 14.9773L10.9483 14.9555L11.1057 15.1413L10.9385 14.9773Z" fill="white"/>
  <path d="M10.1412 15.5467C10.1412 15.5467 10.2199 15.5139 10.2395 15.4701C10.1608 15.5029 10.3477 15.7653 10.1412 15.5467Z" fill="white"/>
</svg>
