<svg width="206" height="79" fill="none" xmlns="http://www.w3.org/2000/svg">
  <g clip-path="url(#a)">
    <g clip-path="url(#b)">
      <path d="M17.7551 36.8942c1.9957 16.741 29.6355 21.0059 36.6396 28.3448 4.8668 5.1018 1.3423 12.7497-5.8582 13.1842-5.1823.3122-8.6618-4.3518-10.1875-8.768-3.3572-9.7144-12.5276-12.2379-20.6808-18.9942-7.12-5.8421-10.5512-16.7957-3.7177-24.1925 7.6736-9.5695 24.3309-10.886 31.541-.1255.8723 1.3004 1.8476 3.2864.5826 3.7081-1.0397.3476-7.0653-4.5482-13.4449-5.1823-7.3614-.7339-16.0844 3.869-14.8741 12.0254ZM36.1993 7.9575c.8273 3.7241-1.8958 9.4504-6.3024 7.3839-3.5568-2.06-4.7284-6.9623-3.5407-10.7025.573-1.6287 1.2457-3.2928 3.0386-3.8883 4.1522-1.2264 6.8013 3.8014 6.8045 7.2069ZM15.7231 9.1449c-.0612-.882.1448-2.3015.8401-3.4152.8723-1.3905 2.8132-1.545 4.2231-.8916 2.7649 1.4034 4.3743 4.545 4.384 7.5771.2253 3.0417-2.5075 5.5427-5.4076 3.8142-2.5558-1.487-3.8143-4.0975-4.0428-7.0845h.0032ZM16.9925 16.9794c.5761 3.5729-2.9195 4.6287-5.5525 2.9645-1.2006-.7435-2.134-1.7542-2.81-3.0095-1.8025-2.9098-.9882-7.5578 3.28-6.3411 2.7006.8981 4.9473 3.5246 5.0825 6.3893v-.0032ZM8.473 26.5525c-3.3058.4024-7.8379-5.237-4.5869-7.7766 3.1512-1.5322 7.3357 2.2982 7.0589 5.5331-.0902 1.1169-.647 2.1856-2.472 2.2435ZM2.4938 26.752c2.073-.2704 4.5 1.3744 5.2789 3.1061.8079 1.6223-.425 3.3637-2.1695 3.3379-3.7016.6534-8.6779-5.7198-3.1094-6.4408v-.0032Z" fill="#6C45AA"/>
      <path d="M73.3372 64.4827c-.4699.8917-1.1491 1.3423-2.0311 1.3423-.6051 0-1.1201-.2189-1.5321-.6502-.412-.4313-.6212-.9882-.6212-1.6674 0-.6791.2092-1.2553.6212-1.6769.4216-.4314.9302-.6406 1.5321-.6406.8916 0 1.5418.441 1.9538 1.3229l1.0268-.7371c-.2285-.5279-.6051-.9495-1.1298-1.265-.5182-.3251-1.1201-.4892-1.8121-.4892-.9979 0-1.8315.3251-2.4914.9785-.6598.6405-.9882 1.4839-.9882 2.5107s.3251 1.8862.9689 2.5299c.6405.6406 1.4645.9592 2.4624.9592.6985 0 1.2746-.1351 1.7156-.412.4506-.2768.882-.7467 1.3133-1.3905l-.9882-.7081v-.0065ZM76.9994 66.8584v-2.8358h2.9323v2.8358h1.265v-6.708h-1.265v2.7038h-2.9323v-2.7038h-1.265v6.708h1.265ZM84.2415 66.8584v-6.708h-1.2649v6.708h1.2649ZM90.6521 66.8584v-1.1685h-3.3637v-5.5395h-1.265v6.708h4.6287ZM93.9609 66.8584c1.0911 0 1.9731-.2865 2.6458-.853.6695-.5762 1.0075-1.4098 1.0075-2.501s-.3348-1.9249-1.0075-2.4914c-.6695-.5761-1.5514-.8626-2.6458-.8626h-2.0214v6.708h2.0214Zm-.7565-1.1685v-4.3711h.8434c1.3905 0 2.2821.7661 2.2821 2.1952 0 1.4292-.8916 2.1759-2.2821 2.1759h-.8434ZM104.444 66.8581l-1.619-2.8358c1.027-.3734 1.532-1.0268 1.532-1.9731 0-1.1588-.92-1.8959-2.385-1.8959h-2.8646v6.708h1.2646v-2.7199h1.072l1.552 2.7199h1.448v-.0032Zm-2.472-5.5975c.747 0 1.12.2961 1.12.8819 0 .5859-.373.882-1.12.882h-1.6v-1.7639h1.6ZM110.535 66.8581v-1.1298h-3.393v-1.7736h3.096v-1.1298h-3.096v-1.5418h3.364v-1.1298h-4.629v6.708h4.658v-.0032ZM113.308 66.8581v-4.8186c.039.0966.136.2672.287.5279l2.797 4.2939h1.284v-6.708h-1.226v4.7928c-.039-.0965-.135-.2671-.287-.5279l-2.797-4.2649h-1.284v6.708h1.226v-.0032ZM119.762 61.4344l-.651 1.3036.248.1738 1.178-1.4742v-1.2843h-1.284v1.2843h.509v-.0032ZM122.967 61.8273c0-.4603.499-.6985 1.12-.6985.786 0 1.314.3927 1.581 1.1878l.995-.5762c-.422-1.1491-1.275-1.7253-2.55-1.7253-.698 0-1.274.1738-1.706.5086-.431.3348-.65.7757-.65 1.3326 0 1.0815.805 1.7542 2.099 2.0117 1.158.2382 1.657.5086 1.657 1.1105 0 .5376-.489.9013-1.245.9013-.94 0-1.503-.5375-1.697-1.5998l-1.11.5666c.257 1.3036 1.217 2.1469 2.816 2.1469.757 0 1.362-.2028 1.813-.6051.46-.4024.688-.8916.688-1.4582 0-1.1201-.708-1.7542-2.195-2.06-1.139-.2382-1.619-.5375-1.619-1.0429h.003ZM132.808 66.8581v-4.8186c.038.0966.135.2672.286.5279l2.797 4.2939h1.285v-6.708h-1.227v4.7928c-.038-.0965-.135-.2671-.289-.5279l-2.798-4.2649h-1.284v6.708h1.226l.004-.0032ZM143.603 66.8581v-1.1298h-3.393v-1.7736h3.097v-1.1298h-3.097v-1.5418h3.364v-1.1298h-4.629v6.708h4.658v-.0032ZM146.816 61.3217v5.5396h1.265v-5.5396h2.05v-1.1684h-5.365v1.1684h2.05ZM154.319 66.8584l1.255-4.8669 1.255 4.8669h1.362l1.847-6.708h-1.332l-1.062 4.2359-.165.7275c-.029-.1642-.087-.4024-.161-.7371l-1.091-4.2263h-1.303l-1.095 4.2263-.161.7371c-.029-.1642-.077-.4024-.164-.7275l-1.062-4.2359h-1.333l1.851 6.708h1.359ZM166.692 61.0226c-.65-.6695-1.474-1.0075-2.462-1.0075-.988 0-1.803.3348-2.463.9979-.659.6598-.988 1.4935-.988 2.501 0 1.0075.325 1.8315.988 2.4913.66.6599 1.475.9882 2.463.9882s1.812-.3251 2.462-.9882c.66-.6598.988-1.4935.988-2.4913 0-.9979-.325-1.8315-.988-2.4914Zm-.296 2.4817c0 .7082-.203 1.2747-.615 1.6963-.412.412-.93.6245-1.551.6245-.621 0-1.14-.2092-1.552-.6245-.412-.4216-.611-.9881-.611-1.6866 0-.6985.199-1.2747.611-1.6963.412-.4217.931-.6309 1.552-.6309s1.139.2092 1.551.6309c.412.412.615.9785.615 1.6866ZM174.511 66.8581l-1.619-2.8358c1.023-.3734 1.532-1.0268 1.532-1.9731 0-1.1588-.921-1.8959-2.385-1.8959h-2.865v6.708h1.265v-2.7199h1.072l1.554 2.7199h1.446v-.0032Zm-2.472-5.5975c.746 0 1.12.2961 1.12.8819 0 .5859-.374.882-1.12.882h-1.6v-1.7639h1.6ZM179.608 60.1504l-1.88 1.9924-.527.5955v-2.5879h-1.265v6.708h1.265V64.338l.717-.7564 1.964 3.2768h1.474l-2.53-4.2167 2.376-2.4913h-1.6.006ZM115.98 49.6375V39.1216h-2.134c-.376 0-.627-.251-.627-.6276v-.5343c0-.4088.219-.6921.627-.6921h.033c1.947 0 2.729-1.4742 3.012-3.6405.065-.5343.377-.8175.754-.8175h2.073c.502 0 .721.3154.721.8175v3.6405h4.77c.376 0 .689.3155.689.6921v.5343c0 .3766-.316.6276-.689.6276h-4.738v10.5481c0 1.8218.911 2.7939 2.134 2.7939 1.571 0 2.446-.8788 2.668-1.9474.345-.5955 1.255-.5021 1.255.1899 0 2.5107-1.915 5.0535-5.304 5.0535-3.171 0-5.272-2.0407-5.272-6.0899l.032-.0322h-.004ZM53.0234 54.8491v-.1256c0-.8175 1.4453-1.0042 1.4453-2.4784V31.7477c0-1.5064-1.4453-1.6641-1.4453-2.4784v-.1256c0-.3154.3155-.5021.7532-.5021H70.067c.692 0 1.162.3444 1.0686.9721-.1899 1.1942.2833 3.2317.911 4.0492.3766.47-.19.8788-.6277.8788h-.3444c-1.5064 0-2.3852-3.9849-4.5514-3.9849H60.372c-.7532 0-1.2876.3766-1.2876 1.3809v9.9493h5.9001c1.4452 0 1.8218-2.4785 2.6684-2.4785h.2511c.3444 0 .5665.2511.5665.721v5.3368c0 .4088-.2189.721-.5665.721h-.2511c-.8787 0-1.2553-2.353-2.6684-2.353h-5.9001v8.443c0 1.4742 1.5386 1.6641 1.5386 2.4784v.1256c0 .3444-.3444.5343-.8175.5343H53.841c-.5021 0-.8176-.1899-.8176-.5343v-.0322ZM73.2278 54.7846v-.1578c0-.8175 1.3809-.9721 1.3809-2.4495v-9.8559c0-1.5386-1.3809-1.9152-1.3809-2.6041v-.1255c0-.3154.2511-.441.6921-.692l3.766-1.883c.8787-.4088 1.3486.0322 1.3486.6276v14.5007c0 1.4742 1.5386 1.632 1.5386 2.4495v.1578c0 .3444-.3444.5633-.8175.5633h-5.7134c-.5022 0-.7854-.2189-.7854-.5633l-.0322.0322h.0032Zm.441-23.4458c0-1.6319 1.2553-2.8261 3.1383-2.8261s3.045 1.1942 3.045 2.8261-1.1942 2.8261-3.045 2.8261-3.1383-1.162-3.1383-2.8261ZM96.1972 40.0649c0 1.2875-.5343 2.3851-1.9474 2.3851-2.4495 0-1.3197-2.9517-3.5149-2.9517-1.7575 0-2.604 2.2275-2.604 4.677v8.0663c0 1.4742 1.7252 1.6319 1.7252 2.4495v.1577c0 .3444-.3154.5343-.7854.5343h-5.8389c-.5021 0-.7853-.1899-.7853-.5343v-.1577c0-.8176 1.4452-.9721 1.4452-2.4495V42.1024c0-1.5386-1.6319-1.632-1.6319-2.4496v-.1255c0-.3154.251-.5665.692-.7854l3.7048-1.6963c.7854-.3766 1.0977 0 1.0977.6277v2.9516c.8175-2.4173 2.604-3.7338 4.9923-3.7338 2.2274 0 3.4538 1.4453 3.4538 3.1705l-.0032.0033ZM96.7793 51.3629c0-1.162.7854-1.7253 1.883-1.7253 2.8257 0 1.5707 4.7703 5.9967 4.7703 2.008 0 3.454-.9721 3.454-2.8873 0-5.0857-10.9539-1.7253-10.9539-9.2605 0-3.045 3.0449-5.3368 7.3779-5.3368 4.709 0 7.532 2.2918 7.532 4.487 0 .9432-.754 1.632-1.726 1.632-2.636 0-1.632-4.7381-5.555-4.7381-1.851 0-3.171 1.2875-3.171 2.8873 0 5.1179 10.954 1.8508 10.954 9.2894 0 2.9517-3.045 5.2402-7.909 5.2402-4.8635 0-7.8795-2.2596-7.8795-4.3325v-.0322l-.0032.0065ZM133.371 49.042c0-1.0686.628-1.9151 1.851-1.8829 3.421.1255 2.198 6.7787 9.228 6.7787 3.045 0 5.147-1.8218 5.147-4.5192 0-8.6617-15.663-2.2917-15.663-13.5897 0-4.207 3.515-7.532 9.699-7.532 6.968 0 10.766 3.5149 10.766 6.1221 0 1.162-.627 1.9152-1.947 1.9152-3.547 0-1.757-6.2477-8.945-6.2477-3.325 0-5.021 2.0729-5.021 4.487 0 8.1307 15.662 2.4785 15.662 13.5898 0 4.7703-4.615 7.5642-9.949 7.5642-7.406 0-10.892-4.0171-10.892-6.6855h.064ZM157.203 49.6375V39.1216h-2.134c-.377 0-.628-.251-.628-.6276v-.5343c0-.4088.219-.6921.628-.6921h.032c1.948 0 2.733-1.4742 3.013-3.6405.061-.5343.377-.8175.753-.8175h2.073c.502 0 .721.3154.721.8175v3.6405h4.77c.377 0 .689.3155.689.6921v.5343c0 .3766-.315.6276-.689.6276h-4.738v10.5481c0 1.8218.911 2.7939 2.134 2.7939 1.571 0 2.447-.8788 2.669-1.9474.344-.5955 1.255-.5021 1.255.1899 0 2.5107-1.915 5.0535-5.304 5.0535-3.171 0-5.273-2.0407-5.273-6.0899l.032-.0322h-.003ZM185.059 50.2043c-.344 2.2274-2.855 5.5234-7.629 5.5234-5.053 0-8.912-3.7338-8.912-9.5727 0-5.3689 4.017-9.2605 9.009-9.2605s7.03 2.8873 7.03 5.5235c0 1.4452-.753 2.2274-1.915 2.6362l-9.103 3.3572c.94 2.575 2.855 4.1426 5.523 4.1426 2.386 0 4.082-1.2553 4.835-2.7617.409-.5344 1.288-.3766 1.194.3766l-.032.0322v.0032Zm-12.212-5.7134c0 .8787.064 1.6641.219 2.4173l6.247-2.7005c.689-.3155.973-.8176.973-1.5708 0-1.5386-1.381-4.2682-3.58-4.2682-2.385 0-3.891 2.5107-3.891 6.1512l.032-.0322v.0032ZM205.759 46.0294c0 5.7134-3.956 9.6983-8.694 9.6983-2.073 0-3.737-.721-4.96-2.0085v6.8109c0 1.5064 1.538 1.6642 1.538 2.4785v.1256c0 .3766-.344.5665-.814.5665h-5.713c-.503 0-.818-.1899-.818-.5665v-.1256c0-.8176 1.445-.9721 1.445-2.4785V42.0735c0-1.4452-1.632-1.5064-1.632-2.3851v-.1577c0-.3444.251-.5955.692-.7854l3.454-1.6963c.908-.441 1.255-.0322 1.255.5955v2.0729c1.005-1.8219 3.078-2.8551 5.588-2.8551 4.52 0 8.726 3.3894 8.726 9.1028l-.064.0643h-.003Zm-4.458 1.3809c0-5.3979-2.134-9.0706-5.369-9.0706-1.915 0-3.579 1.5386-3.83 3.6405v6.9687c0 2.7617 2.134 5.3368 4.458 5.3368 2.983 0 4.77-2.4785 4.77-6.8754h-.032.003Z" fill="#190D1A"/>
    </g>
  </g>
  <defs>
    <clipPath id="a">
      <path fill="#fff" transform="translate(0 .5605)" d="M0 0h206v77.877H0z"/>
    </clipPath>
    <clipPath id="b">
      <path fill="#fff" transform="translate(0 .5605)" d="M0 0h205.823v77.8789H0z"/>
    </clipPath>
  </defs>
</svg>

