<svg width="24" height="24" viewBox="0 0 24 24" fill="none" xmlns="http://www.w3.org/2000/svg">
<g id="icon/24/map">
<g id="Vector">
<path d="M11.2 10.9842C11.17 11.0295 11.14 11.1565 11.19 11.1384L11.28 10.9388L11.2 10.9842Z" fill="#CD4D14"/>
<path d="M11.38 11.4105C11.46 11.3198 11.56 11.1565 11.58 10.966C11.48 11.1565 11.49 11.0658 11.37 11.2926C11.32 11.3107 11.31 11.2109 11.34 11.1384C11.31 11.1837 11.29 11.0839 11.22 11.2019C11.22 11.3651 11.3 11.3923 11.42 11.2744C11.42 11.3198 11.39 11.3742 11.38 11.4105Z" fill="#CD4D14"/>
<path d="M15.85 11.0205H15.81C15.81 11.0205 15.84 11.0205 15.85 11.0205Z" fill="#CD4D14"/>
<path d="M17.43 8.7166C17.43 8.7166 17.45 8.75288 17.47 8.75288C17.47 8.73474 17.45 8.7166 17.43 8.7166Z" fill="#CD4D14"/>
<path d="M17.74 8.27216C17.74 8.27216 17.73 8.2903 17.72 8.29937C17.74 8.2903 17.75 8.28123 17.74 8.27216Z" fill="#CD4D14"/>
<path d="M15.85 11.0205H15.96C15.91 10.966 15.89 11.0114 15.85 11.0205Z" fill="#CD4D14"/>
<path d="M12.08 11.0205C12.08 11.0205 12.05 11.0477 12.03 11.0658C12.04 11.0658 12.06 11.0567 12.07 11.0477V11.0114L12.08 11.0205Z" fill="#CD4D14"/>
<path d="M14.78 11.8005H14.76C14.76 11.8005 14.76 11.864 14.77 11.9003V11.8005H14.78Z" fill="#CD4D14"/>
<path d="M13.76 12.0726C13.76 12.0726 13.76 11.9003 13.76 11.8186C13.76 11.8912 13.75 11.9275 13.73 11.9456C13.73 11.9819 13.74 12.0182 13.76 12.0726Z" fill="#CD4D14"/>
<path d="M15.49 11.5375C15.49 11.5375 15.52 11.5737 15.54 11.5919C15.53 11.5737 15.51 11.5556 15.49 11.5375Z" fill="#CD4D14"/>
<path d="M12.52 12.2994C12.52 12.2994 12.52 12.3175 12.52 12.3266C12.52 12.3084 12.53 12.2994 12.52 12.2994Z" fill="#CD4D14"/>
<path d="M13.43 13.3062L13.41 13.3152L13.4 13.415L13.43 13.3062Z" fill="#CD4D14"/>
<path d="M10.76 3.63724C10.92 3.76422 10.68 3.87306 10.89 4.00005C10.85 3.93656 10.92 3.70073 10.76 3.63724Z" fill="#CD4D14"/>
<path d="M12.09 11.0481C12.09 11.0481 12.11 11.0481 12.13 11.0481C12.11 11.0481 12.1 11.0381 12.09 11.0481Z" fill="#CD4D14"/>
<path d="M17.08 5.31524C17.08 5.31524 17.04 5.36059 17.02 5.37873C17.04 5.36966 17.05 5.35152 17.08 5.31524Z" fill="#CD4D14"/>
<path d="M17.5 6.85719V6.81184C17.5 6.81184 17.5 6.83905 17.5 6.85719Z" fill="#CD4D14"/>
<path d="M16.29 4.82545C16.29 4.82545 16.29 4.78009 16.26 4.77102C16.26 4.77102 16.26 4.78916 16.25 4.78916C16.28 4.78009 16.3 4.78916 16.29 4.81637V4.82545Z" fill="#CD4D14"/>
<path d="M15.57 4.29937C15.57 4.29937 15.57 4.32658 15.57 4.33565H15.6L15.58 4.29937H15.57Z" fill="#CD4D14"/>
<path d="M10.46 11.737C10.45 11.7914 10.42 11.8368 10.4 11.8912C10.46 11.7733 10.57 11.7824 10.46 11.737Z" fill="#CD4D14"/>
<path d="M12.06 11.1202C12.06 11.1202 12.08 11.0572 12.09 11.0481L12.06 11.0477C12.06 11.0477 12.05 11.1021 12.06 11.1202Z" fill="#CD4D14"/>
<path d="M15.16 5.79597L15.12 5.71433C15.12 5.71433 15.14 5.77783 15.16 5.79597Z" fill="#CD4D14"/>
<path d="M8.51 8.08168L8.53 8.10889C8.53 8.10889 8.53 8.09075 8.51 8.08168Z" fill="#CD4D14"/>
<path d="M14.88 5.57828C14.91 5.52386 14.92 5.47851 14.92 5.4513C14.91 5.4513 14.9 5.46944 14.88 5.47851V5.57828Z" fill="#CD4D14"/>
<path d="M11.25 11.8096C11.15 11.7733 11.11 12.0091 11.03 12.127C10.88 12.1542 11.04 11.9547 11.06 11.8277C10.97 11.8549 10.82 12.0182 10.77 11.9819C10.78 11.9456 10.78 11.9275 10.82 11.8912C10.66 12.0182 10.6 11.7914 10.39 11.9547C10.39 11.9366 10.4 11.9184 10.41 11.9003C10.36 12.0091 10.3 12.118 10.25 12.1905C10.2 12.1724 10.08 12.2722 10.15 12.1361C10.18 12.1542 10.21 12.0998 10.25 12.0635L10.17 12.0998C10.25 11.8912 10.28 12.0635 10.37 11.9275C10.24 11.9456 10.03 12.0454 9.99 11.9638C10.11 11.7733 10.19 11.9819 10.22 11.7733L10.28 11.8912C10.4 11.5647 10.33 11.9456 10.47 11.5919C10.38 11.474 10.26 11.6191 10.17 11.4921C10.07 11.5737 10.07 11.6463 9.96 11.7189C9.65 11.7552 10.2 11.1837 9.89 11.3198C9.76 11.4105 9.55 11.601 9.57 11.4286L9.78 11.2654C9.69 11.1656 9.46 11.474 9.46 11.2654C9.56 11.2109 9.61 11.2744 9.61 11.2381C9.68 11.0386 9.45 11.3016 9.39 11.2472L9.55 11.0839C9.39 11.0386 9.2 10.9932 9.05 10.8935C9.11 10.8663 9.19 10.8391 9.22 10.7756C9.01 10.6849 8.95 10.449 9.02 10.2223L8.81 10.2404C8.81 10.2404 8.88 10.1769 8.92 10.1769C8.96 10.0862 8.8 10.2223 8.71 10.2223C8.68 10.186 8.79 10.1316 8.86 10.1316C8.66 10.0862 8.32 9.93202 8.51 9.73247H8.57C8.63 9.62363 8.14 9.73247 8.3 9.57828H8.34C8.38 9.35152 8.1 9.10662 8.44 8.91615C8.14 8.88894 8.57 8.68939 8.16 8.68032C8.36 8.54427 8.44 8.58962 8.57 8.41728C8.59 8.37193 8.33 8.32658 8.3 8.26309L8.51 8.28123L8.3 8.17238H8.56L8.52 8.09982C8.5 8.11796 8.41 8.1361 8.35 8.11796C8.27 8.00912 8.54 7.92749 8.65 7.94563L8.51 7.70073C8.59 7.72794 8.62 7.76422 8.66 7.80957C8.47 7.65538 8.88 7.84585 8.71 7.70073C8.66 7.70073 8.59 7.66445 8.55 7.64631C8.7 7.62817 8.74 7.52839 8.72 7.42862L8.85 7.49211C8.95 7.36513 8.89 7.16558 8.98 7.01139C8.88 7.0386 8.66 6.92068 8.67 6.86626L8.89 6.93882C8.78 6.84812 8.78 6.94789 8.67 6.82091C8.73 6.77556 8.93 6.89347 8.97 6.94789L8.95 6.84812C9.01 6.87533 9.03 6.90254 9.11 6.94789C9 6.85719 9.38 6.93882 9.2 6.78463L9.26 6.81184C9.36 6.67579 9.33 6.56694 9.4 6.43996C9.24 6.33111 9.32 6.31297 9.22 6.19506C9.35 6.14971 9.55 6.14971 9.63 6.04993C9.63 5.92295 9.53 5.92295 9.47 5.82318C9.61 5.93202 9.68 5.82318 9.73 5.95923C9.81 5.82318 9.85 5.80504 9.92 5.57828C9.85 5.542 9.81 5.53293 9.78 5.47851C9.79 5.43315 9.9 5.47851 9.95 5.542V5.56014C10 5.22454 10.66 5.62363 10.64 5.2971V5.31524L10.72 5.07941C10.82 5.07034 10.73 5.2064 10.84 5.26989C10.9 4.94336 11.14 5.16105 11.23 4.95243C11.52 5.37873 11.68 4.81637 11.93 5.07034L11.9 4.9615C11.92 4.84359 11.97 5.01592 12 5.03406C11.98 4.95243 11.93 4.94336 11.95 4.87987C12.13 4.76195 12.35 4.83452 12.56 4.87987C12.77 4.95243 12.97 5.00685 13.14 5.10662C13.27 5.16105 13.3 4.5352 13.44 4.83452L13.35 5.03406C13.51 4.93429 13.66 4.95243 13.81 4.97964C13.95 5.01592 14.06 5.08848 14.24 5.03406C14.2 5.07034 14.18 5.13383 14.15 5.12476C14.14 5.28803 14.34 5.19733 14.4 5.08848C14.43 5.11569 14.36 5.19733 14.35 5.26082C14.35 5.36059 14.58 5.13383 14.53 5.27896C14.53 5.30617 14.49 5.31524 14.47 5.32431C14.54 5.26989 14.59 5.43315 14.67 5.26082C14.7 5.3878 14.88 5.2971 14.88 5.43315C15.06 5.30617 14.96 5.59642 15.17 5.3878C14.97 5.59642 15.14 5.65084 15.28 5.61456C15.2 5.65991 15.25 5.71433 15.14 5.7869C15.19 5.83225 15.27 5.84132 15.39 5.73247C15.19 6.04086 15.82 5.75061 15.48 6.06808C15.73 6.14064 15.93 6.27669 16.11 6.41275C15.82 6.53066 15.97 6.24041 15.68 6.38554C15.88 6.46717 16.2 6.46717 16.18 6.67579C16.15 6.73021 16.04 6.69393 15.99 6.69393C16.17 6.82998 16.08 7.02046 16.3 7.13837C16.27 7.13837 16.24 7.13837 16.21 7.12023C16.23 7.14744 16.18 7.20186 16.32 7.17465L16.28 7.14744C16.48 7.05674 16.72 7.20186 16.83 7.20186C16.42 7.20186 16.75 7.39234 16.22 7.36513C16.25 7.38327 16.32 7.40141 16.41 7.38327C16.39 7.41955 16.33 7.43769 16.22 7.41955C16.31 7.51932 16.46 7.4649 16.47 7.57374C16.4 7.57374 16.37 7.5556 16.29 7.5556C16.43 7.59188 16.58 7.64631 16.53 7.73701C16.49 7.73701 16.43 7.73701 16.43 7.71887C16.46 7.86399 16.78 7.99098 16.64 8.17238C16.34 8.09982 16.54 8.22681 16.28 8.20866L16.35 8.30844L16.48 8.28123C16.47 8.36286 16.67 8.46263 16.55 8.51705L16.46 8.44449V8.59869L16.59 8.52612C16.7 8.63497 16.92 8.57148 16.81 8.67125C16.79 8.64404 16.78 8.76195 16.62 8.77102C16.69 8.82544 16.76 8.89801 16.68 8.94336C16.6 8.94336 16.41 8.86173 16.35 8.85266C16.55 8.94336 16.35 9.0522 16.56 9.17919C16.51 9.1429 16.38 9.10662 16.36 9.09755L16.51 9.18826C16.44 9.2064 16.41 9.2064 16.31 9.16105C16.22 9.25175 16.64 9.23361 16.44 9.31524C16.44 9.2971 16.41 9.2971 16.39 9.26989C16.25 9.36966 16.36 9.56014 16.22 9.64177C15.97 9.56014 16.22 9.51479 16 9.46037C15.98 9.64177 16.07 9.93202 15.89 10.0409H15.94C16.22 10.2586 15.7 10.0409 15.78 10.2041C15.78 10.1678 15.64 10.059 15.67 10.0862C15.55 10.1497 15.58 10.3311 15.49 10.5216L15.45 10.44C15.33 10.4309 15.26 10.5216 15.17 10.5397C15.21 10.6214 15.17 10.6395 15.27 10.7211C15.01 10.6032 14.97 10.7211 14.89 10.8209C14.82 10.9298 14.75 11.0658 14.55 10.9207C14.57 10.9116 14.57 10.83 14.55 10.83L14.41 10.9842C14.48 11.1112 14.47 11.0567 14.56 11.1474C14.57 11.2381 14.54 11.3288 14.5 11.347C14.55 11.22 14.41 11.1293 14.34 11.0658C14.36 11.1021 14.37 11.1565 14.39 11.2019C14.2 10.9932 14.48 11.4921 14.27 11.3561L14.25 11.2835C14.21 11.3288 14.19 11.4377 14.12 11.4286C14.05 11.2654 14.16 11.3379 14.12 11.2019C14.05 11.2291 14.04 11.5465 13.92 11.3923C13.94 11.3379 14 11.3288 14.02 11.2744C13.89 11.093 13.89 11.1474 13.83 11.1293L13.68 11.0658L13.72 11.1112C13.7 11.5647 13.53 11.2381 13.43 11.5465C13.54 11.2563 13.43 11.3833 13.43 11.1928C13.39 11.1474 13.33 11.0839 13.34 11.0295C13.29 11.1837 13.23 10.9025 13.15 11.1293C13.15 11.0658 13.08 11.1293 13.09 10.966C13.01 11.0114 13.11 11.0749 13.11 11.1474C12.98 11.3561 12.81 10.8844 12.62 11.1747C12.45 11.2835 12.39 11.5193 12.22 11.5828C12.18 11.474 12.29 11.3651 12.29 11.3651C12.22 11.2563 12.15 11.2654 12.06 11.3198C12.08 11.2654 12.08 11.22 12.06 11.1474C12 11.1474 11.98 11.3651 11.91 11.2563C11.94 11.1928 11.98 11.0839 12.02 11.0205C11.94 11.0658 11.84 11.1656 11.75 11.2019C11.75 11.093 11.83 11.0477 11.87 10.9842C11.78 11.0205 11.63 11.0386 11.56 11.2019L11.6 11.2744C11.6 11.2744 11.62 11.1293 11.65 11.1021C11.75 10.9842 11.74 11.1837 11.73 11.2381L11.67 11.2654C11.65 11.6282 11.91 11.2472 12.01 11.2926L11.92 11.5465L12.07 11.347C12.08 11.4195 12.07 11.5647 12.02 11.601C12.08 11.7461 12.11 11.5193 12.16 11.6826C12.16 11.7098 12.16 11.7189 12.16 11.7279L12.25 11.6644C12.23 11.7189 12.25 11.8549 12.19 11.8096C12.32 12 12.46 11.6282 12.5 11.8368V11.8549C12.71 11.7642 12.52 11.6644 12.69 11.4377L12.78 11.9184L12.81 11.7279C12.81 11.7279 12.87 11.7461 12.87 11.8277C12.95 11.6917 12.86 11.7461 12.9 11.6191C13.01 11.8005 13.18 11.5375 13.22 11.8459C13.25 11.7007 13.11 11.7279 13.22 11.6282C13.27 11.9638 13.34 11.5737 13.45 11.7279C13.44 11.9003 13.33 11.8096 13.45 11.9638C13.48 11.6826 13.65 12 13.73 11.9275C13.7 11.7007 13.89 11.8005 14.01 11.7007C14.01 11.7824 14.3 11.7733 14.46 11.8277V11.864C14.42 11.6372 14.56 11.6554 14.63 11.5647C14.68 11.7007 14.69 11.7551 14.66 11.8368L14.75 11.8005C14.75 11.7189 14.75 11.6735 14.8 11.6282L14.85 11.8005C14.97 11.737 14.99 11.5103 15.2 11.5556C15.12 11.4105 14.86 11.2019 14.94 11.0477C14.99 11.1202 15.08 11.2563 15.06 11.3016C15.06 11.2835 15.06 11.22 15.11 11.2381L15.13 11.3923C15.23 11.4195 15.1 11.2654 15.16 11.2563C15.23 11.3651 15.25 11.3198 15.29 11.4105C15.29 11.4286 15.22 11.3833 15.22 11.4377C15.29 11.4377 15.41 11.4649 15.49 11.5284C15.44 11.474 15.39 11.3833 15.43 11.347C15.53 11.2744 15.55 11.4468 15.66 11.4649C15.63 11.3742 15.75 11.4014 15.64 11.2472C15.67 11.2291 15.73 11.2926 15.78 11.3288C15.78 11.22 16.01 11.1293 15.81 11.0205L15.79 11.0205C15.79 11.0205 15.79 11.0205 15.79 11.0114C15.81 10.7483 16.22 10.8481 16.28 10.6304L16.33 10.6758C16.35 10.5397 16.47 10.449 16.4 10.3039C16.42 10.2767 16.56 10.3039 16.61 10.3674C16.63 10.2676 16.57 10.2223 16.75 10.1769C16.79 10.3039 16.86 10.2041 16.76 10.2948C16.89 10.2313 17 10.2586 16.89 10.059C17.02 10.1769 17.13 10.0771 17.11 10.0046L16.96 10.0227C16.96 9.95923 17.01 9.91388 17.05 9.86853L17.24 9.98644C17.61 9.85039 17.03 9.42408 17.51 9.39687C17.37 9.28803 17.36 9.48758 17.2 9.37873C17.26 9.28803 17.61 9.26082 17.62 9.22454C17.79 9.09755 17.33 9.00685 17.46 8.8708C17.37 8.8708 17.15 8.84359 17.11 8.72567C17.17 8.63497 17.49 8.65311 17.53 8.72567C17.53 8.75288 17.5 8.76195 17.47 8.75288C17.49 8.78916 17.51 8.84359 17.61 8.81637L17.53 8.78916C17.63 8.75288 17.66 8.59869 17.78 8.65311C17.71 8.55334 17.65 8.59869 17.6 8.65311C17.74 8.52612 17.62 8.43542 17.72 8.2903C17.67 8.30844 17.57 8.32658 17.58 8.29937C17.7 8.09075 17.43 8.19959 17.4 8.05447C17.53 7.98191 17.7 8.09075 17.6 7.94563C17.69 7.85492 17.82 7.92749 17.89 7.96377C17.74 7.82771 18.01 7.70073 18.02 7.6191L18.1 7.69166C18.1 7.69166 18.05 7.61003 18.05 7.57374L17.89 7.62817C17.89 7.62817 17.91 7.54653 17.98 7.54653C17.87 7.51025 17.71 7.59188 17.55 7.51932C17.63 7.45583 17.44 7.36513 17.66 7.31978C17.61 7.50118 17.88 7.27442 17.93 7.42862C17.9 7.40141 17.9 7.36513 17.92 7.31978C17.94 7.31071 17.97 7.31978 17.98 7.32885C18.15 7.1293 17.72 7.27442 17.7 7.10209C17.83 7.10209 17.93 7.02953 17.9 7.00232C17.9 7.07488 17.7 7.06581 17.6 7.02046C17.68 6.89347 17.51 6.91161 17.51 6.85719L17.49 6.92975C17.36 6.92975 17.36 6.87533 17.3 6.81184C17.39 6.78463 17.39 6.86626 17.42 6.82998C17.18 6.80277 17.58 6.59415 17.39 6.51252C17.45 6.43996 17.61 6.43996 17.65 6.37647C17.45 6.29483 17.76 6.17692 17.58 6.07715C17.44 6.17692 17.48 6.16785 17.29 6.1225L17.48 6.3039L17.2 6.24041C17.22 6.3039 17.35 6.34925 17.33 6.39461C17.18 6.3674 17.22 6.36739 17.1 6.43996C17.3 6.27669 16.9 6.31297 17.03 6.15878L17.41 6.01365C17.49 5.7869 17.06 5.82318 17.04 5.59642L17.02 5.68712C16.86 5.73247 16.93 5.57828 16.83 5.55107C16.95 5.48758 16.97 5.42408 17.03 5.36059C16.95 5.41501 16.95 5.2064 16.71 5.34245L16.79 5.17012C16.72 4.98871 16.34 5.24268 16.26 5.09755C16.41 5.04313 16.43 4.92522 16.59 4.95243C16.55 4.90708 16.53 4.85266 16.46 4.90708C16.5 4.82544 16.21 4.90708 16.27 4.78916C16.21 4.8073 16.1 4.89801 16.07 4.84359C16.08 4.81637 16.12 4.79823 16.12 4.79823C16.07 4.84359 15.99 4.79823 15.92 4.93429C16.07 4.52613 15.5 4.68939 15.59 4.33565C15.45 4.29937 15.31 4.24495 15.19 4.20866C15.22 4.18145 15.22 4.15424 15.24 4.17238C15.15 4.00912 14.97 4.45356 14.86 4.28123C14.86 4.06354 15 4.21774 14.98 4.12703C15.15 3.74608 14.74 4.09982 14.73 3.83678H14.77C14.73 3.65538 14.48 3.8912 14.35 3.80957C14.35 3.80957 14.37 3.77329 14.37 3.74608C14.2 3.90027 13.99 3.96377 13.84 3.99098C13.92 3.83678 13.92 3.91842 13.93 3.75515C13.86 3.76422 13.89 4.01819 13.75 4.0454C13.73 3.9547 13.65 3.86399 13.67 3.69166H13.8C13.78 3.4649 13.63 3.69166 13.57 3.63724L13.59 3.53746C13.39 3.53746 13.36 3.79143 13.16 3.74608L13.18 3.82771C13.06 4.05447 13.1 3.68259 12.98 3.86399L12.96 3.61003C12.88 3.67352 12.7 3.86399 12.57 3.90934C12.63 3.71887 12.79 3.6191 12.89 3.51025C12.81 3.51025 12.63 3.53746 12.6 3.66445C12.63 3.63724 12.67 3.57374 12.7 3.61003C12.61 3.80957 12.5 3.90934 12.36 3.90934C12.34 3.42862 11.97 3.79143 11.81 3.44676C11.58 3.68259 11.26 3.49211 10.95 3.59188C11.18 3.92749 10.86 3.62817 11.02 3.99098C10.96 4.02726 10.93 4.02726 10.92 4.00912C10.82 3.94563 10.73 3.90027 10.63 3.86399C10.54 3.78236 10.66 3.75515 10.62 3.67352C10.46 3.7098 10.49 3.54653 10.34 3.50118C10.42 3.6191 10.37 3.7098 10.26 3.70073L10.46 3.80957C10.35 4.09075 10.13 3.59188 10.01 3.87306V3.73701C9.94 3.85492 9.6 3.92749 9.68 4.23588C9.64 4.20866 9.55 4.1361 9.58 4.08168C9.31 4.20866 9.29 4.69846 8.99 4.67125L8.94 4.58962C8.92 4.64404 9 4.78009 8.88 4.74381C8.85 4.7166 8.83 4.66218 8.8 4.67125C8.8 4.7166 8.81 4.8708 8.73 4.87987L8.69 4.76195C8.4 4.86173 8.61 5.23361 8.52 5.42408C8.29 5.24268 8.06 5.33338 7.95 5.3878L7.92 5.36059C7.69 5.58735 7.83 5.92295 7.79 6.19506C7.38 6.18599 7.38 6.63043 7.11 6.82998C7.18 6.81184 7.33 6.91161 7.34 6.96603C7.26 7.01139 7.48 7.18372 7.21 7.10209V7.08395C6.94 7.04767 6.96 7.20186 6.92 7.29256L7.27 7.39234C6.69 7.54653 7.33 8.09075 6.83 8.16331C6.91 8.23588 6.89 8.31751 6.99 8.381L6.79 8.36286C6.74 8.54427 6.71 8.63497 6.77 8.86173L6.63 8.81637C6.62 8.95243 7.2 8.9615 7.22 9.06127L6.93 9.11569C6.93 9.32431 6.76 9.58735 7.06 9.75969C7.02 9.75969 6.93 9.77783 6.91 9.74154C6.92 9.84132 6.81 10.186 7.19 10.0499C6.93 10.1134 7.21 10.2858 7.39 10.3402L7.2 10.3855C7.48 10.4037 7.54 10.3855 7.66 10.4762C7.66 10.5125 7.53 10.5579 7.56 10.5034C7.51 10.6395 7.77 10.5034 7.73 10.6667H7.6C7.64 10.7756 7.69 10.7393 7.85 10.7393C7.95 10.7665 7.9 10.9388 7.75 11.0386C7.85 11.0023 8 10.9932 8 11.0658C7.95 11.1021 7.9 11.1021 7.87 11.1021C7.87 11.3107 8.23 11.2019 8.15 11.4014C8.1 11.4377 8.08 11.4649 8.07 11.483C7.98 11.3651 7.91 11.2654 7.93 11.2654C7.78 11.3561 7.83 11.4649 7.56 11.5103C7.74 11.5284 8.09 11.5103 8.1 11.6463C8.09 11.6644 8.08 11.6735 8.06 11.6917H8.04C8.04 11.6917 8.07 11.737 8.11 11.737C8.11 11.7824 8.11 11.8186 8.13 11.8459C8.02 11.9456 8.16 12.0091 8.2 12.0635C8.34 11.9366 8.37 12.0182 8.44 11.864C8.44 11.8821 8.42 11.864 8.38 11.8459C8.37 11.8459 8.36 11.8368 8.35 11.8459H8.37C8.37 11.8459 8.3 11.7733 8.26 11.7279C8.37 11.7098 8.46 11.6917 8.42 11.8096C8.53 11.7552 8.65 11.7007 8.71 11.6826C8.56 11.9093 8.59 12.0998 8.49 12.2268C8.72 12.2722 8.9 12.4626 9.22 12.2722C9.29 12.2722 9.2 12.381 9.18 12.4354C9.13 12.4354 9.11 12.4173 9.06 12.4354C9.2 12.4354 9.33 12.5987 9.5 12.4264C9.55 12.5805 9.3 12.5715 9.48 12.6259L9.41 12.6713C9.53 13.161 10.26 12.4173 10.36 13.0069C10.35 12.9706 10.34 12.9524 10.36 12.9161C10.68 13.3152 11.3 13.0069 11.61 13.4694C11.71 13.5692 11.77 13.4332 11.87 13.3425L11.85 13.5329L12.03 13.3334C12.24 13.1973 12.25 13.8413 12.54 13.5692V13.4422C12.61 13.4785 12.81 13.3969 12.77 13.542C12.78 13.5239 12.82 13.415 12.84 13.4876V13.5873L13.05 13.4422C13.2 13.5329 12.98 13.8322 13.21 13.8867C13.3 13.8595 13.48 13.6236 13.46 13.5601C13.43 13.5511 13.38 13.4876 13.38 13.3878L13.46 13.3425C13.5 13.0522 13.57 12.7529 13.42 12.5261L13.28 12.6894L13.26 12.5443H13.36C13.32 12.4082 13.27 12.5171 13.22 12.5987C13.22 12.5171 13.21 12.4626 13.19 12.4354L13.04 12.6985C13.04 12.5805 13.12 12.4808 13.05 12.4082C12.98 12.5352 13.07 12.6713 12.96 12.7438C12.92 12.5987 12.96 12.4989 12.87 12.5987C12.87 12.5261 12.89 12.4717 12.93 12.4445C12.86 12.5261 12.77 12.4626 12.71 12.6168C12.68 12.4445 12.5 12.635 12.56 12.3629C12.53 12.4264 12.41 12.5624 12.35 12.5715C12.52 12.254 12.15 12.5261 12.26 12.1815C12.11 12.4717 11.98 12.2449 11.81 12.3719C11.82 12.3538 11.85 12.3084 11.86 12.3266C11.8 12.2812 11.81 12.1905 11.78 12.118C11.69 12.3538 11.57 12.3719 11.45 12.508C11.45 12.254 11.6 12.2449 11.66 12.0182C11.6 12.2087 11.45 12.1633 11.41 12.3356C11.4 12.1724 11.38 12.254 11.42 12.0454C11.29 12.3356 11.34 12.0817 11.21 12.2449C11.18 12.0726 11.3 11.9638 11.16 12.0273C11.16 11.9275 11.29 11.8459 11.29 11.8459L11.25 11.8096ZM8.98 10.9479C8.98 10.9479 9.01 10.966 9.02 10.9751C9.02 10.9751 9 10.957 8.98 10.9479ZM8.85 10.7937C8.85 10.7937 8.88 10.839 8.9 10.8663C8.85 10.9116 8.79 10.9388 8.78 10.9207C8.82 10.9025 8.83 10.8481 8.85 10.7937ZM8.08 11.9275C8.08 11.9275 8.05 11.8731 8.08 11.8459C8.1 11.8549 8.12 11.8731 8.15 11.8912H8.17C8.17 11.8912 8.11 11.9184 8.08 11.9275Z" fill="#CD4D14"/>
<path d="M8.33 11.8277H8.35C8.35 11.8096 8.36 11.7914 8.37 11.7824L8.31 11.8096L8.33 11.8277Z" fill="#CD4D14"/>
<path d="M15.8 11.0214C15.8 11.0214 15.78 11.0214 15.77 11.0114H15.79L15.8 11.0214Z" fill="#CD4D14"/>
<path d="M8.56 8.2903H8.51L8.55 8.30844L8.56 8.2903Z" fill="#CD4D14"/>
<path d="M14.35 11.093C14.35 11.093 14.33 11.0658 14.32 11.0567C14.32 11.0658 14.34 11.0839 14.35 11.093Z" fill="#CD4D14"/>
<path d="M13.83 11.1565L13.75 11.1112C13.75 11.1112 13.81 11.1565 13.83 11.1565Z" fill="#CD4D14"/>
<path d="M13.43 11.1474C13.43 11.1474 13.43 11.2019 13.43 11.2291V11.1474Z" fill="#CD4D14"/>
<path d="M16.23 7.14744C16.23 7.14744 16.23 7.14744 16.22 7.13837C16.17 7.12023 16.19 7.13837 16.23 7.14744Z" fill="#CD4D14"/>
<path d="M16.64 8.8073C16.64 8.8073 16.58 8.75288 16.56 8.73474C16.54 8.76195 16.53 8.78009 16.64 8.8073Z" fill="#CD4D14"/>
<path d="M16.59 8.65311C16.59 8.65311 16.54 8.69846 16.56 8.72567C16.58 8.70753 16.61 8.68032 16.59 8.65311Z" fill="#CD4D14"/>
<path d="M11.71 10.9388C11.71 10.9388 11.71 10.9479 11.71 10.957L11.74 10.9388H11.71Z" fill="#CD4D14"/>
<path d="M11.7 10.957L11.67 10.9751C11.67 10.9751 11.69 10.9751 11.7 10.957Z" fill="#CD4D14"/>
<path d="M11.62 11.0114L11.68 10.9751C11.68 10.9751 11.65 10.966 11.62 11.0114Z" fill="#CD4D14"/>
<path d="M12.24 11.1202L12.26 11.0567C12.26 11.0567 12.25 11.093 12.24 11.1202Z" fill="#CD4D14"/>
<path d="M12.4 11.1293C12.4 11.1293 12.32 10.9751 12.26 11.0023V11.0567C12.29 10.966 12.35 11.2291 12.4 11.1293Z" fill="#CD4D14"/>
<path d="M13.09 11.9275L12.93 11.8731C12.96 11.9456 13 12.0363 12.93 12.0545C13.14 12.2631 12.89 11.9003 13.09 11.9275Z" fill="#CD4D14"/>
<path d="M13.59 12.0182C13.51 12.0635 13.6 12.118 13.6 12.1542C13.65 12.0817 13.66 12.0635 13.59 12.0182Z" fill="#CD4D14"/>
<path d="M16.68 10.3674L16.82 10.4672C16.84 10.4037 16.76 10.4309 16.68 10.3674Z" fill="#CD4D14"/>
<path d="M16.2 9.45129L16.07 9.44222L16.21 9.53293L16.2 9.45129Z" fill="#CD4D14"/>
<path d="M17.54 9.57828V9.61456C17.54 9.61456 17.54 9.53293 17.54 9.49665C17.54 9.52386 17.54 9.56014 17.54 9.58735V9.57828Z" fill="#CD4D14"/>
<path d="M15.81 4.25402L15.7 4.42635C15.76 4.42635 15.92 4.24495 15.81 4.25402Z" fill="#CD4D14"/>
<path d="M13.17 3.62817C13.15 3.51932 13.08 3.44676 13.03 3.5556C13.09 3.5556 13.14 3.64631 13.17 3.62817Z" fill="#CD4D14"/>
<path d="M6.94 7.43769L6.88 7.3742L6.92 7.48304L6.94 7.43769Z" fill="#CD4D14"/>
<path d="M12.68 23.2835V23.0386V23.0749C12.68 23.093 12.68 23.1112 12.68 23.1293V23.2654V23.2563C12.68 23.2381 12.68 23.22 12.68 23.2019C12.68 23.1384 12.68 23.1747 12.68 23.1565C12.66 23.0839 12.63 23.0295 12.59 22.966C12.59 22.966 12.6 22.966 12.61 22.9751C12.63 23.0023 12.64 23.0295 12.65 23.0658C12.67 23.1293 12.68 23.1928 12.67 23.2654L12.68 23.2835Z" fill="#CD4D14"/>
<path d="M13.19 23.1293C13.19 22.9842 13.13 22.7846 12.93 22.6939C13.02 22.8935 12.94 22.8572 13.04 23.1021C12.99 23.1747 12.88 23.1384 12.84 23.0658C12.84 23.1384 12.73 23.0839 12.77 23.2109C12.94 23.3107 13.09 23.2109 13.09 23.0205C13.15 23.0295 13.17 23.093 13.19 23.1293Z" fill="#CD4D14"/>
<path d="M18.24 16.127L18.19 16.1633C18.19 16.1633 18.23 16.1452 18.24 16.127Z" fill="#CD4D14"/>
<path d="M20.26 11.22C20.26 11.22 20.27 11.2835 20.29 11.2835C20.29 11.2472 20.28 11.2109 20.26 11.22Z" fill="#CD4D14"/>
<path d="M20.72 10.3855C20.72 10.3855 20.7 10.4218 20.69 10.44C20.72 10.4218 20.73 10.4037 20.72 10.3855Z" fill="#CD4D14"/>
<path d="M18.24 16.127L18.37 16.0273C18.31 15.991 18.29 16.0726 18.24 16.127Z" fill="#CD4D14"/>
<path d="M13.57 21.9502C13.57 21.9502 13.57 22.0137 13.57 22.0409L13.6 21.9683L13.57 21.9411V21.9502Z" fill="#CD4D14"/>
<path d="M17.32 18.2858L17.3 18.322C17.3 18.322 17.34 18.3674 17.37 18.3946L17.32 18.2858Z" fill="#CD4D14"/>
<path d="M16.42 19.864C16.42 19.864 16.29 19.737 16.22 19.6826C16.28 19.737 16.3 19.7824 16.29 19.8186C16.32 19.8368 16.36 19.8549 16.42 19.864Z" fill="#CD4D14"/>
<path d="M14.46 22.0681V22.1225C14.46 22.1225 14.46 22.0862 14.46 22.0681Z" fill="#CD4D14"/>
<path d="M17.97 17.161C17.97 17.161 18.02 17.171 18.04 17.171C18.02 17.161 17.99 17.161 17.97 17.161Z" fill="#CD4D14"/>
<path d="M11.36 21.8867C11.36 21.8867 11.34 21.9048 11.34 21.9139C11.36 21.9139 11.37 21.8957 11.36 21.8867Z" fill="#CD4D14"/>
<path d="M12.68 23.5012L12.65 23.5103L12.64 23.61L12.68 23.5012Z" fill="#CD4D14"/>
<path d="M21.24 8.74381C21.26 8.77102 21.26 8.79823 21.24 8.74381V8.74381Z" fill="#CD4D14"/>
<path d="M9.39 0.299368C9.63 0.399141 9.15 0.589617 9.49 0.67125C9.44 0.607758 9.66 0.326579 9.39 0.299368Z" fill="#CD4D14"/>
<path d="M13.62 21.932C13.62 21.932 13.65 21.8957 13.66 21.8776C13.63 21.8957 13.62 21.9139 13.62 21.932Z" fill="#CD4D14"/>
<path d="M9.49 0.67125H9.52C9.51 0.67125 9.5 0.67125 9.49 0.67125Z" fill="#CD4D14"/>
<path d="M20.72 4.7166C20.72 4.7166 20.67 4.76195 20.66 4.78009C20.68 4.78009 20.7 4.75288 20.72 4.7166Z" fill="#CD4D14"/>
<path d="M20.91 7.71887L20.94 7.64631C20.94 7.64631 20.91 7.70073 20.91 7.71887Z" fill="#CD4D14"/>
<path d="M19.67 3.40141C19.67 3.40141 19.67 3.33792 19.61 3.30164C19.61 3.31071 19.61 3.31978 19.61 3.32885C19.64 3.32885 19.67 3.34699 19.67 3.40141Z" fill="#CD4D14"/>
<path d="M18.49 2.18599V2.23134L18.53 2.25855L18.49 2.18599Z" fill="#CD4D14"/>
<path d="M8.35 18.5488C8.32 18.6032 8.28 18.6486 8.24 18.6939C8.35 18.6123 8.51 18.7665 8.35 18.5488Z" fill="#CD4D14"/>
<path d="M13.66 22.0137C13.66 22.0137 13.61 21.9592 13.62 21.932L13.6 21.9774C13.6 21.9774 13.64 22.0137 13.66 22.0137Z" fill="#CD4D14"/>
<path d="M18.35 4.15424L18.25 3.97284C18.27 4.02726 18.31 4.09982 18.35 4.15424Z" fill="#CD4D14"/>
<path d="M4.74 8.8073L4.76 8.86173C4.76 8.86173 4.76 8.82545 4.74 8.8073Z" fill="#CD4D14"/>
<path d="M17.79 3.52839C17.81 3.45583 17.81 3.40141 17.79 3.35606C17.77 3.35606 17.76 3.35606 17.74 3.3742L17.79 3.52839Z" fill="#CD4D14"/>
<path d="M9.54 19.7189C9.4 19.5375 9.27 19.7733 9.12 19.8096C8.9 19.6282 9.2 19.61 9.25 19.4649C9.09 19.3651 8.82 19.3833 8.75 19.2744C8.78 19.2472 8.78 19.22 8.84 19.2109C8.57 19.1656 8.52 18.7846 8.19 18.7302C8.2 18.703 8.21 18.6939 8.23 18.6758C8.14 18.7665 8.03 18.83 7.95 18.8753C7.89 18.7937 7.7 18.7937 7.83 18.6849C7.86 18.7393 7.92 18.7121 7.98 18.7121L7.86 18.6576C8.01 18.4672 8.01 18.7393 8.17 18.6576C7.98 18.5216 7.68 18.4127 7.65 18.2404C7.84 18.1044 7.92 18.5216 7.99 18.2404L8.05 18.4853C8.27 18.1497 8.11 18.6214 8.36 18.2948C8.24 17.9955 8.06 18.0499 7.95 17.7415C7.8 17.7415 7.79 17.8504 7.64 17.8413C7.19 17.5511 7.98 17.2699 7.53 17.1157C7.35 17.1157 7.06 17.2064 7.09 16.9252L7.37 16.8889C7.24 16.6078 6.94 16.8889 6.94 16.5261C7.06 16.5352 7.14 16.7075 7.14 16.6531C7.23 16.381 6.93 16.5805 6.85 16.4354L7.05 16.3084C6.86 16.0273 6.54 15.7642 6.34 15.4468C6.41 15.4468 6.51 15.4649 6.54 15.3651C6.23 14.9932 6.16 14.4581 6.13 14.0046L5.88 13.9139C5.88 13.9139 5.94 13.8141 5.99 13.8413C6 13.6599 5.86 13.8685 5.76 13.8232C5.71 13.7325 5.83 13.669 5.91 13.7053C5.63 13.4785 5.26 12.9887 5.37 12.635L5.45 12.6803C5.45 12.4264 4.96 12.5171 5.08 12.2449L5.13 12.2812C5.06 11.7461 4.75 11.1928 4.98 10.7483C4.68 10.7121 5.02 10.2132 4.61 10.2313C4.78 9.90481 4.86 9.98644 4.95 9.56014C4.96 9.45129 4.68 9.41501 4.63 9.26989L4.85 9.25175L4.61 9.07034L4.86 8.9615L4.8 8.83451C4.79 8.88894 4.7 8.94336 4.64 8.94336C4.54 8.74381 4.79 8.44449 4.9 8.44449C4.84 8.2903 4.79 8.12703 4.74 7.96377C4.83 7.98191 4.85 8.06354 4.9 8.12703C4.69 7.86399 5.13 8.09075 4.94 7.85492C4.89 7.88213 4.81 7.82771 4.77 7.81864C4.91 7.7098 4.95 7.45583 4.92 7.25628L5.06 7.31071C5.13 6.9751 5.13 6.59415 5.23 6.2132C5.12 6.33111 4.88 6.24041 4.89 6.1225H5.12C5.01 6.03179 5 6.23134 4.88 6.04086C4.95 5.90481 5.16 6.01365 5.21 6.11343L5.19 5.92295C5.26 5.92295 5.28 5.97737 5.36 6.01365C5.25 5.90481 5.67 5.79597 5.47 5.6327H5.54C5.71 5.30617 5.68 5.10662 5.84 4.84359C5.67 4.75288 5.77 4.67125 5.68 4.51706C5.85 4.32658 6.15 4.20866 6.3 3.97284C6.35 3.76422 6.2 3.83678 6.17 3.70073C6.32 3.79143 6.5 3.56467 6.5 3.75515C6.7 3.48304 6.76 3.41955 6.99 3.02953C6.9 3.01139 6.84 3.02953 6.82 2.96603C6.86 2.89347 7.01 2.89347 7.06 2.95696V2.98417C7.3 2.46717 8.29 2.69393 8.45 2.24948V2.27669L8.73 1.93202C8.93 1.88667 8.68 2.08622 8.86 2.1225C9.16 1.70526 9.54 1.90481 9.84 1.6327C10.26 2.00458 10.85 1.36966 11.31 1.6327L11.27 1.52386C11.36 1.40594 11.4 1.57828 11.48 1.59642C11.46 1.50572 11.36 1.50572 11.41 1.44222C12.28 1.22454 13.24 1.56921 14.05 1.83225C14.35 1.92295 14.38 1.28803 14.71 1.65991L14.54 1.83225C15.26 1.74154 15.79 2.22227 16.45 2.32204C16.39 2.34925 16.36 2.40368 16.3 2.37647C16.34 2.56694 16.72 2.60322 16.8 2.50345C16.87 2.56694 16.75 2.61229 16.76 2.69393C16.81 2.83905 17.16 2.703 17.12 2.86626C17.12 2.89347 17.06 2.8844 17.03 2.8844C17.15 2.86626 17.33 3.1293 17.39 2.93882C17.52 3.1293 17.79 3.14744 17.85 3.34699C18.1 3.28349 18.05 3.67352 18.3 3.51932C18.05 3.70073 18.38 3.93656 18.57 3.98191C18.46 3.99098 18.57 4.12703 18.42 4.15424C18.51 4.27216 18.65 4.36286 18.77 4.26309C18.58 4.67125 19.36 4.63497 18.97 4.97964C19.32 5.32431 19.56 5.71433 19.7 6.14064C19.39 6.17692 19.58 5.67805 19.25 5.76876C19.47 6.11343 19.78 6.32204 19.74 6.73928C19.71 6.84812 19.6 6.68486 19.54 6.65764C19.72 7.05674 19.56 7.44676 19.72 7.81864C19.69 7.81864 19.66 7.77329 19.64 7.73701C19.64 7.80957 19.59 7.90935 19.73 7.90027L19.69 7.82771C19.9 7.7098 20.11 8.1361 20.22 8.16331C19.82 8.00912 20.09 8.53519 19.59 8.29937C19.61 8.35379 19.67 8.41728 19.77 8.40821C19.73 8.48077 19.68 8.49891 19.58 8.40821C19.63 8.68032 19.79 8.59869 19.76 8.84359C19.69 8.84359 19.67 8.78009 19.59 8.75288C19.72 8.88894 19.83 9.02499 19.74 9.22454C19.7 9.2064 19.64 9.22454 19.65 9.16105C19.62 9.51479 19.91 9.81411 19.7 10.1769C19.43 10.0137 19.58 10.2948 19.31 10.2586L19.34 10.4762L19.48 10.4218C19.43 10.6032 19.58 10.8028 19.45 10.9388L19.38 10.7846L19.34 11.1293L19.49 10.957C19.57 11.1656 19.82 11.0114 19.68 11.2381C19.67 11.1837 19.62 11.4195 19.45 11.483C19.5 11.5919 19.56 11.7007 19.46 11.8277C19.37 11.8459 19.19 11.7279 19.13 11.737C19.31 11.8821 19.05 12.1724 19.24 12.3447C19.2 12.2903 19.07 12.254 19.04 12.2631L19.19 12.381C19.11 12.4536 19.08 12.4536 18.98 12.4082C18.86 12.644 19.33 12.4173 19.08 12.6713C19.08 12.644 19.05 12.644 19.04 12.5896C18.86 12.8617 18.95 13.1973 18.75 13.4422C18.47 13.4422 18.78 13.1883 18.54 13.2155C18.44 13.6146 18.52 14.1134 18.3 14.4672L18.36 14.4037C18.68 14.576 18.07 14.6214 18.15 14.8663C18.15 14.8118 17.99 14.7393 18.02 14.7665C17.85 14.9932 17.88 15.3107 17.8 15.737L17.73 15.6554C17.58 15.7733 17.5 16.0273 17.38 16.1724C17.44 16.254 17.38 16.3356 17.54 16.3356C16.8 16.6168 17.32 17.3787 16.68 17.6236C16.71 17.5692 16.68 17.4694 16.65 17.5057L16.53 17.9048C16.69 17.9411 16.64 17.9048 16.8 17.8776C16.86 17.9592 16.87 18.0953 16.82 18.186C16.82 17.9774 16.59 18.0771 16.47 18.1134C16.52 18.1225 16.56 18.1678 16.6 18.186C16.24 18.2495 16.87 18.3583 16.55 18.5307L16.48 18.4853C16.46 18.6032 16.51 18.7393 16.43 18.83C16.24 18.7937 16.41 18.6939 16.28 18.6214C16.21 18.7756 16.42 19.0567 16.18 19.1112C16.18 19.0295 16.23 18.9388 16.22 18.8572C15.94 18.9025 15.98 18.9479 15.88 19.0295H15.89L15.66 19.22L15.75 19.1837C16.07 19.5828 15.6 19.5828 15.72 19.9728C15.61 19.601 15.59 19.8549 15.42 19.737C15.33 19.7733 15.21 19.8368 15.18 19.7824C15.25 19.9728 14.94 19.9003 15.05 20.1815C14.99 20.1542 14.96 20.2994 14.84 20.1905C14.79 20.3629 14.96 20.2087 15.03 20.2631C15.08 20.5987 14.44 20.644 14.48 21.1157C14.39 21.4513 14.54 21.6146 14.44 21.923C14.29 21.9502 14.29 21.7234 14.29 21.7234C14.11 21.805 14.04 21.9139 14 22.0771C13.97 22.0227 13.91 22.0227 13.82 22.0137C13.75 22.1225 13.97 22.2223 13.77 22.2858C13.73 22.2223 13.66 22.1225 13.64 22.0409C13.59 22.186 13.6 22.3674 13.54 22.5216C13.42 22.4853 13.46 22.3493 13.44 22.2586C13.37 22.4218 13.22 22.6395 13.32 22.7937L13.45 22.7574C13.41 22.8118 13.31 22.6849 13.31 22.6304C13.3 22.44 13.51 22.5216 13.57 22.5488L13.53 22.6576C13.92 22.8118 13.78 22.2858 13.94 22.1316L14.11 22.3674L14.06 22.059C14.15 22.059 14.3 22.1225 14.27 22.2313C14.49 22.1769 14.27 22.0681 14.5 22.0409C14.53 22.0409 14.54 22.059 14.54 22.0681L14.57 21.8957C14.6 21.9502 14.75 21.9864 14.66 22.0409C14.98 21.8957 14.76 21.5601 15.01 21.5873V21.6146C15.16 21.2427 14.86 21.4785 14.82 21.1066L15.38 21.2064L15.22 21.0703C15.22 21.0703 15.31 20.9796 15.37 21.0341C15.33 20.8345 15.28 21.0069 15.21 20.8708C15.49 20.8073 15.44 20.381 15.75 20.508C15.65 20.3719 15.54 20.6078 15.56 20.381C15.91 20.4989 15.64 20.1542 15.88 20.0817C16.01 20.2177 15.83 20.3084 16.08 20.2359C15.86 20 16.33 19.9728 16.36 19.8186C16.14 19.7007 16.44 19.4921 16.5 19.2381C16.57 19.2926 16.87 18.8935 17.07 18.7302L17.1 18.7574C16.9 18.6123 17.06 18.4218 17.1 18.2404C17.23 18.313 17.27 18.3674 17.29 18.4762L17.37 18.3311C17.32 18.2586 17.3 18.1951 17.33 18.0953L17.48 18.2132C17.58 18.0137 17.5 17.7325 17.74 17.5329C17.59 17.4513 17.19 17.5329 17.22 17.2245C17.31 17.2517 17.47 17.3062 17.47 17.3969C17.47 17.3697 17.44 17.288 17.5 17.2517L17.59 17.4241C17.72 17.3425 17.5 17.3152 17.56 17.2245C17.68 17.279 17.68 17.1973 17.78 17.2517C17.78 17.279 17.69 17.3062 17.72 17.3606C17.8 17.2699 17.94 17.1792 18.05 17.1701C17.97 17.152 17.88 17.0976 17.9 17.0159C17.99 16.8164 18.08 17.0159 18.21 16.9252C18.15 16.8436 18.3 16.7529 18.12 16.6712C18.15 16.6168 18.24 16.644 18.31 16.635C18.28 16.4989 18.52 16.1452 18.26 16.1815L18.23 16.1996V16.1815C18.21 15.7733 18.67 15.5284 18.74 15.1565L18.8 15.1837C18.82 14.957 18.95 14.7211 18.88 14.5216C18.91 14.4581 19.06 14.4218 19.12 14.4762C19.14 14.3039 19.07 14.2676 19.27 14.0681C19.32 14.2676 19.39 14.0499 19.29 14.2586C19.43 14.0771 19.55 14.059 19.46 13.7869C19.6 13.9139 19.73 13.6962 19.72 13.5873L19.54 13.6962C19.56 13.5783 19.61 13.4876 19.66 13.3969L19.86 13.5148C20.29 13.1701 19.68 12.6168 20.23 12.4173C20.11 12.2631 20.04 12.6168 19.89 12.4717C19.98 12.2812 20.37 12.1633 20.39 12.0998C20.6 11.8549 20.14 11.7642 20.3 11.5012C20.21 11.5193 19.98 11.5012 19.97 11.2744C20.06 11.0839 20.37 11.1021 20.41 11.2472C20.41 11.2926 20.37 11.3107 20.34 11.3016C20.35 11.3742 20.36 11.4649 20.47 11.4014L20.4 11.3561C20.51 11.2744 20.57 10.9932 20.69 11.0839C20.65 10.9116 20.57 10.9932 20.5 11.093C20.68 10.8572 20.61 10.6939 20.75 10.4309C20.7 10.4672 20.59 10.4853 20.6 10.449C20.78 10.0681 20.48 10.2495 20.5 9.97737C20.66 9.85039 20.79 10.0771 20.74 9.79597C20.85 9.64177 20.97 9.79597 21.02 9.86853C20.91 9.59642 21.2 9.41501 21.25 9.26989L21.3 9.41501C21.27 9.33338 21.28 9.26082 21.3 9.19733L21.12 9.25175C21.16 9.17919 21.17 9.10662 21.24 9.11569C21.14 9.02499 20.96 9.14291 20.83 8.97057C20.92 8.8708 20.77 8.65311 21 8.63497C20.89 8.95243 21.22 8.61683 21.23 8.89801C21.21 8.84359 21.22 8.77102 21.25 8.69846C21.28 8.68939 21.29 8.7166 21.3 8.73474C21.53 8.42635 21.07 8.57148 21.1 8.24495C21.22 8.2903 21.34 8.18145 21.31 8.12703C21.31 8.26309 21.1 8.18145 21.01 8.05447C21.12 7.84585 20.95 7.82771 20.96 7.71887L20.91 7.84585C20.79 7.8005 20.81 7.70073 20.77 7.5556C20.87 7.54653 20.83 7.69166 20.88 7.63724C20.66 7.47397 21.1 7.26535 20.95 7.04767C21.03 6.93882 21.18 7.02953 21.24 6.92975C21.06 6.67579 21.38 6.63043 21.22 6.36739C21.06 6.46717 21.1 6.46717 20.92 6.29483L21.08 6.73021L20.81 6.46717C20.82 6.59415 20.94 6.73928 20.92 6.82091C20.77 6.69393 20.81 6.71207 20.68 6.77556C20.91 6.57601 20.5 6.43996 20.64 6.2132L21.05 6.16785C21.16 5.81411 20.75 5.6327 20.71 5.19733L20.68 5.34245C20.5 5.32431 20.58 5.09755 20.48 4.97964C20.62 4.95243 20.64 4.85266 20.69 4.77102C20.6 4.8073 20.57 4.4717 20.3 4.52612L20.39 4.28123C20.29 3.93656 19.84 4.09075 19.72 3.79143C19.9 3.80957 19.91 3.62817 20.12 3.77329C20.06 3.67352 20.03 3.57374 19.95 3.6191C19.98 3.51932 19.61 3.45583 19.65 3.31071C19.57 3.31071 19.44 3.36513 19.38 3.26535C19.39 3.23814 19.44 3.22907 19.44 3.22907C19.39 3.26535 19.24 3.13837 19.19 3.30164C19.25 3.05674 19.08 2.87533 18.9 2.72114C18.71 2.57601 18.53 2.43996 18.54 2.2132C18.31 2.09529 18.04 1.94109 17.85 1.83225C17.89 1.80504 17.89 1.77783 17.92 1.81411C17.73 1.55107 17.53 2.00458 17.32 1.7234C17.29 1.46037 17.54 1.7234 17.49 1.60549C17.69 1.22454 17.08 1.44222 17 1.12476H17.07C16.98 0.916148 16.58 1.07034 16.31 0.934288C16.31 0.934288 16.34 0.907077 16.34 0.879867C16.06 0.97964 15.66 0.934288 15.37 0.898007C15.51 0.771023 15.52 0.861726 15.53 0.68939C15.4 0.67125 15.47 0.943359 15.21 0.925218C15.16 0.816374 15 0.698461 15.03 0.526125L15.27 0.580547C15.22 0.335649 14.95 0.507984 14.84 0.435422L14.88 0.344719C14.49 0.290297 14.43 0.544266 14.04 0.444492L14.07 0.526125C13.81 0.725672 13.91 0.36286 13.66 0.517055L13.63 0.263086C13.47 0.299368 13.09 0.444492 12.83 0.489844C12.99 0.308438 13.3 0.226805 13.51 0.154243C13.36 0.127032 13 0.127032 12.92 0.254016C12.98 0.235876 13.06 0.172383 13.12 0.217735C12.92 0.408211 12.69 0.480774 12.41 0.480774C12.46 -0.00902244 11.66 0.36286 11.42 0.0181885C10.92 0.235876 10.36 0.0544697 9.76 0.226805C10.08 0.544266 9.59 0.281227 9.74 0.644039C9.61 0.698461 9.56 0.707531 9.54 0.68939L9.05 0.589617C8.91 0.517055 9.15 0.471703 9.11 0.390071C8.8 0.453563 8.92 0.272157 8.68 0.244946C8.77 0.36286 8.65 0.471703 8.46 0.489844L8.77 0.562406C8.45 0.916148 8.27 0.399141 7.95 0.761953L8.02 0.589617C7.85 0.752882 7.23 0.952429 7.24 1.35152C7.18 1.33338 7.07 1.26989 7.14 1.19733C6.62 1.44222 6.36 2.11343 5.93 2.24948L5.89 2.15878C5.84 2.24948 5.9 2.40368 5.73 2.41275C5.7 2.38554 5.68 2.32204 5.65 2.34925C5.63 2.40368 5.59 2.6395 5.46 2.703V2.5488C4.98 2.84812 5.14 3.30164 4.97 3.66445C4.71 3.50118 4.39 3.79143 4.26 3.94563L4.23 3.91842C3.88 4.41728 3.99 4.90708 3.92 5.42408C3.48 5.6327 3.46 6.43996 3.19 6.92068C3.26 6.84812 3.43 6.96603 3.44 7.05674C3.36 7.16558 3.61 7.41048 3.33 7.35606V7.31071C3.06 7.3742 3.08 7.62817 3.07 7.82771L3.44 7.88213C2.86 8.37193 3.62 9.17919 3.16 9.46037C3.26 9.57828 3.27 9.7234 3.38 9.83225H3.11C3.11 10.1769 3.09 10.3493 3.21 10.7483L3.06 10.6849C3.09 10.9207 3.67 10.8935 3.72 11.093L3.44 11.2019C3.52 11.5919 3.37 12.0454 3.73 12.3719C3.69 12.3719 3.6 12.381 3.57 12.3175C3.6 12.508 3.58 13.0703 3.95 12.9071C3.69 12.9796 4.05 13.3062 4.23 13.4785L4.03 13.4966C4.33 13.6055 4.39 13.5873 4.54 13.805C4.54 13.8685 4.41 13.8957 4.43 13.805C4.4 14.0227 4.66 13.8957 4.65 14.1497L4.5 14.1044C4.56 14.3039 4.62 14.2676 4.79 14.322C4.91 14.4218 4.89 14.6939 4.74 14.7846C4.85 14.7846 5.03 14.83 5.03 14.957C4.97 14.9932 4.92 14.966 4.89 14.957C4.89 15.3198 5.31 15.347 5.23 15.6282C5.17 15.6554 5.15 15.6826 5.14 15.7098C5.03 15.4558 4.95 15.2563 4.97 15.2654C4.8 15.3288 4.87 15.5375 4.56 15.4649C4.76 15.5828 5.15 15.7552 5.17 15.9819C5.16 16 5.15 16.0091 5.13 16.0273H5.1C5.1 16.0273 5.14 16.0998 5.19 16.127C5.19 16.1996 5.19 16.2449 5.22 16.3084C5.1 16.3901 5.26 16.5715 5.3 16.6712C5.47 16.5896 5.51 16.7257 5.6 16.5443C5.6 16.5624 5.57 16.5352 5.53 16.4717C5.52 16.4626 5.51 16.4445 5.49 16.4354H5.51C5.47 16.3719 5.43 16.2903 5.38 16.1905C5.51 16.2359 5.63 16.2812 5.58 16.4354C5.72 16.4354 5.87 16.4354 5.94 16.4536C5.76 16.6894 5.76 17.0069 5.63 17.1157C5.89 17.3697 6.08 17.7869 6.52 17.8141C6.61 17.8776 6.48 17.9502 6.45 18.0137C6.39 17.9864 6.36 17.923 6.3 17.923C6.48 18.0499 6.62 18.3946 6.88 18.322C6.91 18.576 6.6 18.313 6.82 18.576H6.73C6.73 19.3288 7.88 19.1565 7.85 20C7.85 19.9456 7.85 19.9184 7.87 19.8821C8.18 20.6803 9.09 21.1157 9.4 21.932C9.51 22.1497 9.66 22.0681 9.85 22.0953L9.73 22.2586L10.09 22.2767C10.47 22.3946 10.2 23.0386 10.81 23.093L10.85 22.957C10.96 23.0839 11.34 23.1928 11.22 23.3016C11.25 23.2926 11.35 23.22 11.37 23.3016L11.31 23.3923C11.48 23.4105 11.63 23.4377 11.79 23.4377C12.09 23.6282 11.52 23.7914 12.08 23.991C12.32 24.0363 12.8 23.7914 12.69 23.7279C12.6 23.7189 12.48 23.6463 12.49 23.5465L12.66 23.5103C12.72 23.22 12.71 22.9116 12.59 22.6939C12.53 22.7393 12.46 22.7846 12.38 22.8209V22.6667C12.43 22.6849 12.47 22.6849 12.51 22.6939C12.49 22.5488 12.41 22.6486 12.3 22.6939C12.32 22.6214 12.32 22.5579 12.3 22.5216C12.2 22.5851 12.09 22.6395 11.97 22.6849C12.01 22.576 12.18 22.5307 12.09 22.4127C11.93 22.4762 12.03 22.6849 11.83 22.6758C11.81 22.5125 11.91 22.4309 11.73 22.4581C11.76 22.3855 11.82 22.3583 11.88 22.3583C11.73 22.3765 11.61 22.2313 11.46 22.313C11.48 22.1134 11.11 22.1044 11.33 21.9048C11.25 21.932 11.01 21.932 10.92 21.8685C11.32 21.7597 10.63 21.5783 10.95 21.3606C10.6 21.4785 10.46 21.0794 10.14 20.9978C10.17 20.9978 10.23 20.9796 10.23 21.0069C10.15 20.8799 10.2 20.7892 10.18 20.6894C9.96 20.8345 9.75 20.6894 9.53 20.6894C9.62 20.3991 9.86 20.5896 10.02 20.4082C9.85 20.5443 9.64 20.2903 9.53 20.4445C9.57 20.2449 9.51 20.3084 9.65 20.127C9.36 20.2903 9.52 20.0545 9.28 20.0817C9.28 19.8368 9.51 19.8731 9.28 19.7552C9.3 19.6191 9.52 19.7098 9.52 19.7098L9.54 19.7189ZM6.26 15.4921C6.26 15.4921 6.31 15.5647 6.32 15.5828C6.31 15.5647 6.29 15.5375 6.26 15.4921ZM6.07 15.093C6.09 15.1474 6.11 15.2109 6.14 15.2744C6.08 15.3107 6.01 15.3198 6 15.2744C6.05 15.2744 6.04 15.1747 6.07 15.093ZM5.23 16.4536C5.17 16.3991 5.2 16.3629 5.23 16.3356C5.25 16.3629 5.27 16.3991 5.31 16.4445H5.34C5.34 16.4445 5.27 16.4536 5.24 16.4536H5.23Z" fill="#CD4D14"/>
<path d="M5.53 16.4808C5.53 16.4808 5.55 16.4898 5.56 16.4989C5.56 16.4808 5.57 16.4626 5.58 16.4445H5.51L5.53 16.4808Z" fill="#CD4D14"/>
<path d="M18.18 16.1815C18.18 16.1815 18.16 16.1815 18.15 16.1815C18.16 16.1815 18.17 16.1815 18.18 16.1815Z" fill="#CD4D14"/>
<path d="M4.85 9.26989H4.8L4.85 9.30617V9.26989Z" fill="#CD4D14"/>
<path d="M16.4 18.1225C16.4 18.1225 16.36 18.1225 16.34 18.1225C16.35 18.1225 16.38 18.1225 16.4 18.1225Z" fill="#CD4D14"/>
<path d="M15.81 19.0295L15.67 19.1293C15.74 19.093 15.78 19.0567 15.81 19.0295Z" fill="#CD4D14"/>
<path d="M15.29 19.6917C15.29 19.6917 15.33 19.7279 15.35 19.7461L15.28 19.6917H15.29Z" fill="#CD4D14"/>
<path d="M19.59 7.74608C19.59 7.74608 19.59 7.72794 19.59 7.71887C19.55 7.64631 19.57 7.69166 19.59 7.74608Z" fill="#CD4D14"/>
<path d="M19.4 11.5012C19.38 11.4558 19.35 11.4105 19.34 11.3651C19.31 11.4286 19.29 11.474 19.4 11.5012Z" fill="#CD4D14"/>
<path d="M18.36 4.17238H18.37L18.35 4.15424L18.36 4.17238Z" fill="#CD4D14"/>
<path d="M19.4 11.1928C19.34 11.2472 19.34 11.3016 19.35 11.3651C19.38 11.3107 19.42 11.2563 19.4 11.1928Z" fill="#CD4D14"/>
<path d="M13.08 22.4762L13.05 22.4944L13.07 22.5125V22.4672L13.08 22.4762Z" fill="#CD4D14"/>
<path d="M13.06 22.5216V22.5669C13.06 22.5669 13.07 22.5397 13.06 22.5216Z" fill="#CD4D14"/>
<path d="M13.03 22.6576L13.06 22.5669C13.06 22.5669 13.01 22.6123 13.03 22.6576Z" fill="#CD4D14"/>
<path d="M13.85 21.7234L13.8 21.6781C13.8 21.6781 13.82 21.7053 13.85 21.7234Z" fill="#CD4D14"/>
<path d="M14.04 21.4422C13.98 21.4966 13.79 21.5148 13.76 21.6327L13.8 21.669C13.74 21.5692 14.09 21.5692 14.04 21.4422Z" fill="#CD4D14"/>
<path d="M15.6 20.7438L15.39 20.9524C15.48 20.9524 15.61 20.9434 15.55 21.0613C15.95 20.8708 15.36 21.0431 15.6 20.7438Z" fill="#CD4D14"/>
<path d="M16.18 20.0545C16.13 20.1996 16.28 20.0998 16.31 20.127C16.31 20.0091 16.31 19.9819 16.18 20.0545Z" fill="#CD4D14"/>
<path d="M19.14 14.4309L19.3 14.5034C19.32 14.3855 19.24 14.4762 19.14 14.4309Z" fill="#CD4D14"/>
<path d="M18.71 13.0431L18.56 13.1157L18.7 13.2064L18.71 13.0431Z" fill="#CD4D14"/>
<path d="M20.16 12.7257L20.17 12.7892L20.16 12.5805V12.7257Z" fill="#CD4D14"/>
<path d="M18.84 2.26762L18.72 2.43996C18.81 2.47624 19 2.32204 18.84 2.26762Z" fill="#CD4D14"/>
<path d="M14.06 0.344719C14.03 0.235876 13.89 0.145173 13.78 0.235876C13.89 0.263086 14 0.353789 14.06 0.344719Z" fill="#CD4D14"/>
<path d="M3.08 8.09982L3 8.00005L3.06 8.18145L3.08 8.09982Z" fill="#CD4D14"/>
</g>
</g>
</svg>
