<svg width="60" height="55" viewBox="0 0 60 55" fill="none" xmlns="http://www.w3.org/2000/svg">
<g clip-path="url(#clip0_243_2891)">
<path d="M31.9644 6.4243C32.0951 6.4249 32.0371 6.23241 32.0569 6.18731C31.8422 6.2666 31.98 6.47766 31.9644 6.4243Z" fill="#CD4D14"/>
<path d="M29.8551 7.21621L29.8838 7.13338L29.5919 7.38363L29.8551 7.21621Z" fill="#CD4D14"/>
<path d="M27.8458 7.53411C28.0924 7.84009 28.5588 7.36198 28.9356 7.42979L29.0044 7.49553L29.13 7.19663C28.7027 7.30598 28.1627 7.57804 27.8458 7.53411Z" fill="#CD4D14"/>
<path d="M26.658 7.05853C26.7446 7.16818 26.4501 7.2289 26.9171 7.02935C26.8905 7.02316 26.8817 7.0211 26.8639 7.01697C26.8241 7.02758 26.7643 7.0435 26.658 7.05853Z" fill="#CD4D14"/>
<path d="M26.8639 7.01703C26.7043 6.94009 27.0743 6.95661 26.8639 7.01703V7.01703Z" fill="#CD4D14"/>
<path d="M25.909 7.34195L26.1678 7.1536C26.0968 7.09729 25.8443 7.13796 25.9283 7.05808C25.6539 7.19308 25.7316 7.26088 25.9178 7.34401L25.909 7.34195Z" fill="#CD4D14"/>
<path d="M25.6963 7.65975L25.829 7.57132C25.829 7.57132 25.7603 7.54538 25.6963 7.65975Z" fill="#CD4D14"/>
<path d="M26.115 7.38926L25.8296 7.57142C25.8851 7.61416 25.9075 7.71881 25.9602 7.49242C25.9538 7.60031 25.9978 7.49125 26.1084 7.37776L26.115 7.38926Z" fill="#CD4D14"/>
<path d="M26.2915 7.39086C26.4599 7.43007 26.6681 7.41887 26.4182 7.60929C26.9384 7.42212 26.8205 7.20576 26.2915 7.39086Z" fill="#CD4D14"/>
<path d="M27.8104 7.89345L28.0276 7.96391L28.1913 7.82301C28.1095 7.89346 27.777 7.79618 27.8082 7.90289L27.8104 7.89345Z" fill="#CD4D14"/>
<path d="M24.1309 7.63379C24.131 7.71338 24.2708 7.79562 24.3153 7.88553L24.4966 7.74876C24.3814 7.72193 24.1732 7.73313 24.1309 7.63379Z" fill="#CD4D14"/>
<path d="M24.3174 7.8763L24.0364 8.07939C24.311 8.02398 24.3463 7.95265 24.3174 7.8763Z" fill="#CD4D14"/>
<path d="M25.7181 8.04294L26.1736 7.65179L25.6273 8.07153L25.7181 8.04294Z" fill="#CD4D14"/>
<path d="M22.9641 7.98867L23.0921 7.75994L22.8492 8.12102L22.9641 7.98867Z" fill="#CD4D14"/>
<path d="M22.2092 8.30046C22.2975 8.12213 21.9652 8.14423 22.0801 8.01188C21.8788 8.11416 21.7329 8.29898 21.6114 8.45962C21.7618 8.33553 21.9522 8.28041 22.2181 8.30253L22.2092 8.30046Z" fill="#CD4D14"/>
<path d="M21.3873 8.70534C21.458 8.64226 21.5265 8.54882 21.6038 8.45745C21.5242 8.51846 21.4491 8.6004 21.3873 8.70534Z" fill="#CD4D14"/>
<path d="M23.5072 8.18482C23.5072 8.18482 23.3962 8.05954 23.2145 8.07692L23.3854 8.22608C23.3854 8.22608 23.4673 8.19543 23.5072 8.18482Z" fill="#CD4D14"/>
<path d="M23.3955 8.22811C23.2649 8.26731 23.1741 8.2959 23.1431 8.30857C23.1741 8.2959 23.2538 8.27467 23.4043 8.23017L23.3955 8.22811Z" fill="#CD4D14"/>
<path d="M23.5367 8.18181L23.5098 8.17554C23.5098 8.17554 23.5301 8.2105 23.5367 8.18181Z" fill="#CD4D14"/>
<path d="M24.8909 8.06915C24.7406 8.23304 24.3932 8.44054 24.7855 8.52191C24.8805 8.35507 24.6477 8.31085 24.8909 8.06915Z" fill="#CD4D14"/>
<path d="M23.7523 8.38079L24.0889 8.33983C24.0889 8.33983 23.9934 8.22811 24.0686 8.14616L23.7544 8.37136L23.7523 8.38079Z" fill="#CD4D14"/>
<path d="M23.6148 8.48812L23.752 8.38083L23.6257 8.40117L23.6148 8.48812Z" fill="#CD4D14"/>
<path d="M21.9891 8.68658C21.8831 8.82099 21.7281 8.88436 21.5688 8.9666C21.7637 8.93241 21.9519 8.88673 22.1356 8.82011C22.1421 8.75202 22.1839 8.6126 21.998 8.68864L21.9891 8.68658Z" fill="#CD4D14"/>
<path d="M22.682 8.48001L22.6574 8.50452C22.6574 8.50452 22.7023 8.51498 22.682 8.48001Z" fill="#CD4D14"/>
<path d="M19.9001 9.59233L19.9406 9.62191L19.9383 9.59113L19.9001 9.59233Z" fill="#CD4D14"/>
<path d="M22.1691 8.83769C22.3131 8.82148 22.3861 8.74897 22.4457 8.65346C22.3483 8.71035 22.2421 8.76517 22.1292 8.8085C22.1226 8.8368 22.1271 8.85773 22.1691 8.83769Z" fill="#CD4D14"/>
<path d="M20.9489 8.98128C21.0287 8.99986 21.1217 9.00163 21.2258 8.99603C21.1394 8.96596 20.962 8.92469 20.9489 8.98128Z" fill="#CD4D14"/>
<path d="M22.5917 8.46906L22.6141 8.45412C22.5534 8.42991 22.5691 8.44366 22.5917 8.46906Z" fill="#CD4D14"/>
<path d="M22.5917 8.46875C22.532 8.52446 22.4878 8.59373 22.4458 8.65356C22.5233 8.60198 22.5896 8.55777 22.6493 8.50206C22.6316 8.49793 22.6072 8.4823 22.5828 8.46668L22.5917 8.46875Z" fill="#CD4D14"/>
<path d="M19.8969 11.0531C19.8544 10.8742 20.1084 10.5058 20.4896 10.5945C20.7328 10.3528 20.3374 9.84312 19.9492 9.62351C19.9671 9.70722 19.9916 9.76264 19.7352 10.0211C19.8682 10.0521 20.4993 9.95042 20.2983 10.2119C19.9311 10.4645 19.9507 10.3 19.718 10.2956C19.9665 10.4329 19.3515 10.8665 19.5581 11.1433L19.8499 10.8533C19.8499 10.8533 19.7861 11.0472 19.8991 11.0437L19.8969 11.0531Z" fill="#CD4D14"/>
<path d="M20.5388 9.41304L20.6583 9.34141C20.5033 9.36499 20.3703 9.33404 20.1242 9.26682C19.9451 9.43395 19.9254 9.51884 19.9299 9.57957L20.5697 9.36057L20.5321 9.40154L20.5388 9.41304Z" fill="#CD4D14"/>
<path d="M21.2439 9.11949C21.209 9.35 20.928 9.55309 21.1853 9.69252C21.5483 9.53837 21.3952 9.43313 21.5854 9.25863C20.9967 9.53924 21.7202 9.08118 21.2484 9.14042C21.359 9.06673 21.4652 9.01191 21.5604 8.96445C21.443 8.98685 21.3301 8.99038 21.2171 8.99392L21.2348 8.99804C21.2348 8.99804 21.2836 9.02929 21.2481 9.02104L21.2393 9.01897C21.2393 9.01897 21.2416 9.08913 21.2351 9.11743C21.0424 9.14218 21.1884 9.07675 21.2349 9.03784C21.2371 9.02841 21.2393 9.01897 21.2326 9.00748L20.6573 9.35087C20.7946 9.32316 20.9584 9.26186 21.2329 9.12686L21.2439 9.11949Z" fill="#CD4D14"/>
<path d="M24.5718 9.03933C24.5718 9.03933 24.5493 9.01393 24.5425 9.00227C24.5066 9.03425 24.5 9.06293 24.5718 9.03933Z" fill="#CD4D14"/>
<path d="M24.2847 8.98217C24.2847 8.98217 24.342 8.85631 24.4882 8.83067C24.6301 8.86368 24.5128 8.92588 24.5351 8.99073C24.608 8.91822 24.8027 8.76465 24.508 8.74577L24.4704 8.78674C24.209 8.78556 23.8276 8.61723 23.8541 8.58363C23.9763 8.74134 24.0718 8.85306 24.2737 8.98954L24.2847 8.98217Z" fill="#CD4D14"/>
<path d="M22.768 9.07653L22.2989 9.3651L22.6092 9.43733L22.5669 9.33799C22.8636 9.26784 22.7659 9.16555 22.7768 9.07859L22.768 9.07653Z" fill="#CD4D14"/>
<path d="M19.813 9.52256L19.8014 9.29117C19.7419 9.42647 19.6801 9.5712 19.6273 9.71799L19.813 9.52256Z" fill="#CD4D14"/>
<path d="M19.1809 9.8723L19.1384 9.69338L19.0103 9.88232L19.1809 9.8723Z" fill="#CD4D14"/>
<path d="M7.97026 41.3299L7.89283 41.3815C7.95929 41.377 7.99914 41.3664 7.97026 41.3299Z" fill="#CD4D14"/>
<path d="M6.04599 21.6907C5.77595 21.8069 5.4062 21.9097 5.59247 21.9929L5.79638 22.0403C5.85583 21.8652 5.94424 21.7665 6.04599 21.6907Z" fill="#CD4D14"/>
<path d="M3.68728 33.7106L3.74031 33.6434C3.67817 33.5892 3.61602 33.5349 3.56055 33.4922C3.60057 33.5612 3.62953 33.6375 3.68509 33.72L3.68728 33.7106Z" fill="#CD4D14"/>
<path d="M4.51984 33.8249L4.41412 34.1185C4.45828 34.0492 4.4891 33.957 4.51984 33.8249Z" fill="#CD4D14"/>
<path d="M13.432 43.0388C13.4673 42.9675 13.4981 42.8752 13.5356 42.7945C13.3231 42.8643 13.4296 42.9289 13.432 43.0388Z" fill="#CD4D14"/>
<path d="M12.9702 13.8262C12.7665 13.8981 12.6182 13.9729 12.5054 14.0561C12.7645 13.9871 13.0215 14.0071 12.9702 13.8262Z" fill="#CD4D14"/>
<path d="M7.00842 43.4926C7.10155 43.5341 7.168 43.5297 7.19671 43.4867C7.08146 43.4599 7.02159 43.436 7.00842 43.4926Z" fill="#CD4D14"/>
<path d="M12.0417 14.4451C12.0417 14.4451 12.1125 14.4218 12.1524 14.4112C12.2474 14.2842 12.349 14.1686 12.4972 14.054C12.309 14.0997 12.1076 14.2019 12.0328 14.4431L12.0417 14.4451Z" fill="#CD4D14"/>
<path d="M15.3291 27.7498C15.3291 27.7498 15.3066 27.7244 15.3021 27.7031C15.2864 27.7297 15.2954 27.7318 15.3291 27.7498Z" fill="#CD4D14"/>
<path d="M9.79469 24.2936C9.86334 24.2798 9.96965 24.2648 10.0716 24.2686C10.0184 24.2562 9.93638 24.2471 9.79469 24.2936Z" fill="#CD4D14"/>
<path d="M16.5812 11.1178C16.5879 11.0891 16.7136 11.0377 16.5812 11.1178V11.1178Z" fill="#CD4D14"/>
<path d="M17.5836 11.5094C17.5836 11.5094 17.5571 11.5828 17.5749 11.6267C17.5682 11.5754 17.5681 11.5356 17.5836 11.5094Z" fill="#CD4D14"/>
<path d="M11.6928 16.4223C11.6928 16.4223 11.6928 16.4223 11.6906 16.4319C11.749 16.4253 11.7377 16.4328 11.6928 16.4223Z" fill="#CD4D14"/>
<path d="M16.821 11.0931C16.7545 11.0976 16.6947 11.1135 16.6172 11.1253C16.6527 11.1335 16.7124 11.1176 16.821 11.0931Z" fill="#CD4D14"/>
<path d="M16.754 11.018C16.805 11 16.8448 10.9894 16.8847 10.9788C16.8935 10.941 16.8602 10.9233 16.754 11.018Z" fill="#CD4D14"/>
<path d="M16.4063 11.2349C16.4748 11.1813 16.5479 11.1485 16.6276 11.1273C16.601 11.1211 16.5833 11.117 16.5833 11.117C16.5412 11.137 16.4948 11.176 16.4063 11.2349Z" fill="#CD4D14"/>
<path d="M19.9897 36.9088C19.9897 36.9088 20.003 36.892 20.014 36.8846C19.965 36.734 19.9695 36.7947 19.9897 36.9088Z" fill="#CD4D14"/>
<path d="M6.11899 26.1927L6.11446 26.1715L6.09879 26.1981L6.11899 26.1927Z" fill="#CD4D14"/>
<path d="M6.0761 26.7393C5.9204 26.4445 6.00214 26.3343 6.11039 26.1904L5.5254 26.1338L6.08716 26.7319L6.0761 26.7393Z" fill="#CD4D14"/>
<path d="M10.6897 43.0567L10.4743 42.7779C10.9081 42.6004 11.088 42.7914 10.9255 42.4454C10.8154 42.7578 10.5471 42.6656 10.2745 42.5921C10.0084 42.4904 9.76221 42.3436 9.58336 42.6302L9.47436 42.4158C9.52316 42.4471 9.54748 42.4229 9.59848 42.4447C9.41366 41.994 9.10502 42.7177 8.71425 42.3085C8.59207 42.1508 8.54302 42.0002 8.68926 42.0143C8.5496 41.9719 8.39669 41.9462 8.27028 41.887C8.19032 41.7888 8.28101 41.7204 8.36097 41.8186L7.86828 41.4056L7.87715 41.4077C7.74644 41.4071 7.48494 41.3661 7.36968 41.3393C7.32274 41.1394 7.47607 41.364 7.50909 41.2624C7.38936 41.2146 7.28508 41.1406 7.16754 41.0834C7.2047 40.8435 7.49744 40.9912 7.6463 41.1949C7.88409 40.4945 7.3381 41.0734 7.16578 40.2477L7.43429 40.4594C7.58848 40.0379 7.2981 39.9603 7.2949 39.4922C7.22211 39.6443 7.28365 40.4641 6.9199 40.2601C6.87979 40.1513 6.83074 40.0007 6.6134 39.8905C6.79477 39.7537 6.6416 39.6087 6.48607 39.3935L6.74716 39.2355C6.52965 39.0456 6.41025 39.1571 6.21292 39.0813C6.09708 38.7759 6.26064 38.5952 6.40208 38.4293C6.22384 37.9503 6.23699 38.9377 5.91909 38.4163C5.82512 37.9768 5.58321 37.7713 5.24335 37.3442C5.22715 37.0123 5.42718 37.3174 5.46897 37.1779L5.1607 37.0167C5.1384 36.9518 5.21592 36.9401 5.25358 36.9389C5.08927 36.7614 4.97687 37.0435 4.77018 36.7269C4.39358 36.7387 5.04529 35.8662 4.59271 35.562C4.65004 35.4361 4.77881 35.5655 4.88503 35.5107C4.50735 35.0052 4.64701 35.0476 4.26502 34.6007L4.428 34.1415C4.23598 34.4846 3.94273 34.0981 3.70268 33.7241C3.60769 33.8511 3.51708 33.9593 3.48179 34.0306C3.40825 33.8246 3.34357 33.6206 3.31655 33.4154C3.37178 33.3388 3.46939 33.4013 3.58701 33.4983C3.567 33.4638 3.54031 33.4178 3.5203 33.3833C3.63725 33.1619 3.79701 33.2787 3.95904 33.4258C3.89495 33.5003 3.83086 33.5749 3.76677 33.6495C3.94873 33.7913 4.16388 33.911 4.33216 33.8706C4.29442 33.832 4.26326 33.7651 4.2343 33.6887C4.28311 33.72 4.33411 33.7418 4.35843 33.7176C4.39161 33.6955 4.31173 33.6371 4.2495 33.5431L4.58152 33.4016L4.45739 33.3727L4.6973 32.6231C4.54607 32.3493 4.35499 32.086 4.19482 31.7703C4.06344 31.4514 3.96964 31.0915 3.97311 30.6349C4.17525 30.8907 4.34995 30.7425 4.62919 30.7876C4.30393 30.9804 4.63728 31.4756 4.52742 31.9074C4.58011 31.681 4.71538 31.7423 4.74654 31.8093L4.60081 30.9898C4.82246 31.0414 4.80212 30.8477 4.93021 30.6588C4.46074 30.7484 4.71617 30.0123 4.65564 29.6701C4.81075 29.6863 4.92618 29.7927 4.83616 30.1795C5.22973 29.8137 4.44041 29.5106 4.82511 29.1428C4.80316 29.2371 4.76339 29.2875 4.8344 29.3438C4.76297 29.0885 5.01443 28.5703 5.10782 28.7313L5.08586 28.8256C5.20265 28.5246 5.31462 28.0436 5.38682 27.6129C5.48343 27.1979 5.5048 26.825 5.34504 26.7083C5.39824 26.7207 5.75541 26.9529 5.81536 27.0166C5.54179 26.5055 5.2748 25.966 5.02108 25.4098C5.29406 25.6424 6.15795 25.5849 6.14367 26.1683C6.24753 26.0433 6.34911 25.888 6.36609 25.5339C6.2754 25.6023 5.83227 25.5787 5.85634 25.4352C6.35436 25.2229 6.15728 25.2666 6.65732 24.9653C6.5202 25.0726 6.1339 24.6844 6.25972 24.4651C6.3086 24.5361 6.73206 24.6844 6.7367 24.7849L6.55779 23.9876C6.57147 24.1697 6.93489 24.2146 7.11423 24.1668C6.99906 24.1798 7.35692 23.6863 7.38757 23.5145L7.16862 23.6922C7.5307 23.1003 6.89185 22.713 7.28492 22.1084C7.3295 22.2381 7.72027 22.6473 7.96118 22.3752C7.82102 22.094 7.28933 21.0455 7.4784 20.3537L7.66889 20.3383C7.71061 20.1591 7.77453 20.005 7.83178 19.8393C7.92584 20.3186 8.16992 21.5587 8.19989 22.1126C8.43218 21.9578 8.38607 22.1559 8.57809 21.8128C8.76411 21.7766 8.63854 22.1152 8.58779 22.2128L9.13572 21.5051C8.84737 21.3385 9.30698 20.7693 9.0763 20.6361C8.95512 20.9559 8.84062 21.2872 8.76825 21.6383C8.48437 21.4927 8.36068 20.6187 8.82713 20.1406C9.0264 20.0875 9.18032 20.5907 9.27126 20.6417C9.23555 20.5141 9.48929 20.0262 9.58234 20.028L9.54535 20.3475C9.85508 20.1412 9.59476 19.6133 10.0774 19.4671C10.1857 19.363 10.6377 19.3887 10.5222 19.2425C10.1145 19.1873 9.27561 18.4949 9.19075 18.1768C9.22833 18.1359 9.97418 17.7825 10.2245 17.791C10.5945 17.8075 10.4365 18.5265 10.7512 18.54C10.7001 18.4784 10.713 18.3024 10.7284 18.2364C10.8922 18.1751 10.8706 18.4684 11.0739 18.1975C10.8939 17.9269 11.5691 17.7162 10.9957 17.891C11.1701 17.5835 11.2877 17.6805 11.5529 17.3843C11.3224 17.3306 11.332 16.6069 11.5174 16.2921C11.5552 16.3705 11.6815 16.39 11.7347 16.4024C12.2477 15.9252 12.6507 15.84 13.1328 15.4152C13.2214 15.4359 13.5203 15.3165 13.4963 15.4998C13.5293 15.3982 13.5356 15.2505 13.6772 15.1243C14.1313 15.1007 13.3699 15.4406 13.7799 15.5261C13.6887 15.3557 14.0158 14.9943 14.1748 14.7131C13.9462 14.5307 13.6394 15.0857 13.4916 15.3595C13.2561 15.0462 13.3987 14.3933 13.8272 13.797C14.1985 13.3663 14.1553 13.8733 14.2015 13.7548C15.0844 13.2543 14.5626 12.6854 15.4306 12.4499C15.8338 12.4841 15.6951 12.8794 15.846 12.9941C15.5277 13.3177 15.2018 13.2319 14.9563 13.4035L15.326 13.3006C15.2532 13.4527 15.0454 13.6629 14.8705 13.6918C15.2162 13.7325 16.3152 12.7851 17.0546 12.5396C17.1296 12.378 17.2932 12.1973 17.1447 12.1528C17.0783 12.197 17.0164 12.2622 16.9478 12.3158C16.6641 12.2498 17.2126 11.8206 16.9049 11.8981C17.1302 11.6125 17.3665 11.2399 17.8404 11.1315L18.0402 11.357C17.9913 11.2859 17.699 11.3372 17.6196 11.4778C17.7432 11.2679 18.4172 11.5044 18.4539 11.0655L18.0794 11.028C18.3136 10.7445 18.5652 10.266 18.9815 10.1641C18.6953 9.98808 18.9085 10.2366 18.5094 10.0641C18.9065 10.3256 17.5378 10.544 18.0877 10.7515C17.6508 10.5405 17.5518 10.8455 17.0464 10.7279C17.102 10.8104 17.2571 10.8267 16.9206 10.9472C16.914 10.9755 16.9008 11.0321 16.8942 11.0604C16.8854 11.0583 16.8765 11.0563 16.8654 11.0636L16.8832 11.0678C16.9762 11.0695 17.0582 11.0787 17.1048 11.1194C17.0433 11.3835 16.5499 11.6564 16.4529 11.8725C16.2581 11.9465 16.4769 11.7289 16.3329 11.7053L16.1762 12.0169C16.0563 11.8498 15.5404 12.0181 15.9007 11.6346L15.518 11.8736C15.2367 11.9176 14.9092 12.08 14.7678 12.2857C14.562 12.3671 14.4366 12.7853 14.5114 12.5442L13.9918 13.0497L13.9541 13.0111C13.3611 13.3902 13.0394 14.2102 12.1891 14.41C12.0411 14.6043 11.8909 14.808 11.5524 15.0175L11.3772 14.927C11.165 15.1561 10.5962 15.4314 10.6255 15.6669C10.0758 15.539 9.51105 16.6803 9.07974 17.0075L9.23519 17.1829C8.95215 17.4352 8.79779 17.7771 8.57714 18.203L8.74576 18.3218C8.62923 18.7422 8.00954 19.0355 7.63842 19.5457C7.60279 19.4579 7.71332 19.3444 7.81955 19.2895C6.96503 19.5878 7.17804 20.8008 6.53859 21.179C6.51241 21.3718 6.4262 21.4611 6.31558 21.5348C6.31997 21.5159 6.32217 21.5065 6.32656 21.4876C6.32217 21.5065 6.30005 21.5212 6.28459 21.5474C6.21822 21.5917 6.14299 21.6338 6.06336 21.6948C6.14527 21.6642 6.21164 21.62 6.25808 21.5811C6.19407 21.6954 6.10364 21.8832 6.05086 22.0698L5.82035 22.0161C5.82035 22.0161 5.81156 22.0539 5.80717 22.0727C5.63905 22.1927 5.80979 22.2623 6.00695 22.2584C5.9828 22.3622 5.96971 22.4586 5.98541 22.5517C5.61093 22.5143 5.86466 23.0705 5.44154 23.0814C5.54168 23.2936 5.12454 24.0418 5.4286 24.3015C5.3754 24.2891 5.32896 24.328 5.37971 24.2304C5.24494 24.4079 5.11018 24.5853 5.12613 24.7979L4.83583 24.7601C4.87611 24.9485 4.94745 25.164 4.99659 25.3544C4.74446 25.5542 4.60505 25.6312 4.51125 25.2712C4.5727 26.0512 4.42384 25.8475 4.52938 26.5184L4.3719 26.432C4.30587 26.6354 4.41082 27.0278 4.22708 27.0944C3.95713 27.2503 3.83206 27.8278 3.63405 28.4777C3.53947 28.8037 3.44717 29.1601 3.33267 29.4914C3.25143 29.8404 3.15466 30.1759 3.02234 30.4633C3.58251 30.3053 2.69336 30.9933 3.099 31.0976C2.96398 31.1557 2.8624 31.311 2.78886 31.105C2.79239 31.7323 2.48512 32.0485 2.80952 32.5019C2.68117 32.5715 2.62756 32.3601 2.5568 32.4232C2.58129 32.4786 2.65694 32.6354 2.57731 32.6965C2.49769 32.7575 2.47742 32.6036 2.42845 32.4928C2.41434 33.1557 2.79997 33.2256 3.16558 33.261C2.96909 33.5831 2.99602 33.7485 3.25347 33.9675C3.14294 34.081 3.03038 34.2835 2.96309 33.89C2.95912 34.1078 2.88631 35.304 3.18311 35.2737C3.10796 35.3556 3.19264 35.5941 3.24812 35.6368C3.34665 36.137 3.32461 36.1916 3.46519 36.6718L3.48039 36.5261C3.86602 36.596 3.62519 36.9079 3.81644 37.2507L3.78098 37.2424C3.85163 38.1837 4.02533 37.5579 4.06939 38.4929L4.25296 38.3467C4.69576 38.2111 4.33224 39.1706 4.71406 39.5379L4.74902 39.3074C5.00191 39.4657 4.52743 40.3396 4.64767 40.6262C4.64784 40.7057 4.5368 40.5805 4.46579 40.5242C4.63364 41.3289 4.7647 40.4446 5.11342 40.8738C5.04291 41.0562 4.71048 40.9987 4.89286 41.3395C4.86685 41.6119 5.95077 41.894 6.03402 42.5001C6.05581 42.3261 6.0776 42.1522 6.29941 42.2834C6.57907 42.5275 6.73154 43.3982 7.23876 43.3473C7.25438 43.4006 7.25447 43.4404 7.23901 43.4666C7.54054 43.5766 8.12172 43.9306 8.37411 43.8502C8.2775 44.2652 8.75635 44.4164 9.17085 44.5229C9.59642 44.6219 10.0085 44.6184 9.88738 44.978C10.1822 45.0765 10.486 45.177 10.7984 45.2L10.7542 45.2693C11.3438 45.4264 11.5851 45.3135 11.8062 45.1263C11.9348 45.1762 11.8353 45.2425 11.8154 45.2876C12.2454 45.3678 12.498 45.4067 12.7217 45.3693C12.9409 45.3109 13.1511 45.1709 13.4762 44.9383L13.5831 45.1621C13.6759 45.0842 13.9928 45.1282 14.4003 45.0639C14.6019 45.0412 14.8256 45.0038 15.047 44.936C15.2617 44.8567 15.4608 44.7241 15.6377 44.5664C15.6311 44.5947 15.6379 44.646 15.5959 44.7058C15.7949 44.5334 16.0362 44.4205 16.2929 44.3212C16.5364 44.1988 16.7931 44.0995 17.0344 43.9866C17.5213 43.7818 17.8619 43.4832 17.7325 43.0354L18.0746 42.4488C17.4376 42.9369 17.9254 42.086 17.5978 42.2086C17.7989 41.9869 18.3281 41.8416 18.105 42.1576L18.0275 42.1694C18.2323 42.6148 18.7994 41.5436 18.9992 41.7691C20.0246 40.5361 21.1183 39.1699 21.4738 37.5622L21.1063 37.6556L21.2736 37.1377C21.3863 37.0148 21.5768 36.9995 21.4602 37.38C21.7234 37.2126 21.4255 36.6859 21.3612 36.6808C21.5922 35.9292 21.7076 37.0399 21.7425 36.8094L21.7551 36.4742L21.711 36.5435C21.6084 36.2611 21.4666 36.2281 21.5387 35.7576C21.6356 35.462 21.7688 35.6123 21.7774 35.495C21.804 35.5012 21.815 35.454 21.7837 35.3075L21.791 34.5933L21.5347 34.8916C21.3989 34.5915 21.5355 34.2455 21.2416 34.5847C21.7744 34.0624 21.0347 32.0606 21.0341 31.782C20.7277 31.4522 20.6117 31.0672 20.3892 30.6177C20.3939 30.758 20.1595 30.962 20.008 30.5687C20.6102 30.3907 19.9176 29.7124 20.0516 29.1768C19.9883 29.6095 19.2786 28.2014 19.2335 28.877C19.0667 28.5498 19.4037 28.7078 19.3499 28.3771C18.9772 28.1312 18.6773 27.7731 18.3708 27.3636C18.0642 26.9542 17.6691 26.6037 17.2342 26.3036C17.1723 26.3687 17.2437 26.5842 16.9999 26.5474C16.933 26.313 16.8528 26.0955 16.7615 25.8853C16.5531 25.8169 16.3568 26.2187 16.1697 25.7774C16.1854 25.8706 16.2012 26.0035 16.0726 25.9537C15.8773 25.7889 15.671 25.6315 15.4514 25.4909C15.2273 25.3691 14.9857 25.283 14.7462 25.1875C14.2629 25.0154 13.7818 24.8338 13.2632 24.7727C12.7558 24.7043 12.257 24.5584 11.7606 24.4826C11.2553 24.4048 10.761 24.2798 10.2532 24.0522C10.5283 24.2356 10.34 24.2415 10.1273 24.2317C10.2648 24.2836 10.1167 24.4381 10.1457 24.5542C9.87298 24.441 9.58927 24.375 9.30328 24.2786C9.15999 24.6131 8.39515 24.3655 8.33156 24.6789L8.59282 24.6005C8.27017 24.9828 9.12611 25.361 9.08279 25.8282C9.45407 25.3975 10.0409 26.3296 10.638 25.8123C10.7645 25.9114 10.5208 25.9541 10.5787 26.067C10.7356 25.8748 10.9283 25.8501 11.2497 25.9547L11.2099 26.0051C11.6818 25.9857 12.0121 26.0924 12.3358 26.2274C12.6574 26.3719 13.0076 26.4733 13.4689 26.7L13.4617 26.4497C13.6613 26.5558 13.6881 26.6416 13.7614 26.7283C14.1065 26.4904 13.1805 26.4936 13.5099 26.2024C13.6396 26.7695 15.0242 26.7239 14.9502 27.3629C15.2385 27.5295 14.9806 27.0717 15.2689 27.2383L15.2848 27.411L15.4441 27.289C15.6282 27.4213 15.6353 27.6318 15.5824 27.7388C15.5446 27.7002 15.4316 27.7037 15.3806 27.6819C15.4607 27.8199 15.6381 27.9009 15.811 27.9611C15.9596 28.0454 16.106 28.0993 16.1304 28.1547L15.9327 27.88C16.3165 28.1185 16.7358 28.405 17.1042 28.7493C17.4373 29.1252 17.8545 29.4211 18.1963 29.7194L18.227 29.5874C18.7818 30.0546 18.4984 30.108 18.945 30.719L18.9095 30.7108C19.0692 30.7877 19.2091 30.9495 19.2937 31.1482C19.0963 31.0327 19.2481 31.5851 19.0151 31.4215C19.5347 31.9998 19.3103 31.6791 19.8405 32.0113L19.7146 32.1908C19.9142 32.297 20.0006 32.2872 20.1653 32.6637C19.9188 32.3975 19.9976 32.9826 19.6979 32.704C19.6612 33.143 19.746 33.4212 19.8727 33.6396C19.9795 33.8634 20.084 34.0568 19.8275 34.2755C20.0538 34.4276 20.1421 34.2492 20.1239 34.0461C20.1058 33.843 20.0433 33.6296 20.1144 33.7257C20.2203 33.5117 20.5425 33.9745 20.4943 34.2616C20.4927 34.5496 19.9061 34.781 19.9341 35.4239C19.9317 35.3537 19.894 35.3549 19.9005 35.2868C19.7991 35.5218 20.0123 35.7703 19.798 36.0485C20.0599 36.2487 19.7368 36.432 20.087 36.5334L20.0813 35.9156C20.1153 36.2516 20.5659 36.6847 20.1727 37.2096C20.1127 37.146 20.0724 36.9576 20.0456 36.832C19.893 36.9655 20.0241 37.1651 19.8715 37.2986C19.5389 37.1616 20.0051 36.5641 19.7451 36.1555C19.5704 36.3038 19.9238 36.8733 19.5622 36.6201C19.975 36.9747 19.3352 37.1937 19.5756 37.7269L19.3826 37.6323C19.3939 37.7045 19.4629 37.8896 19.4011 37.9946C19.35 37.8932 19.2899 37.7897 19.221 37.6842C19.3305 38.0975 18.7569 38.1926 18.7598 38.5414C19.0354 37.9194 19.0544 38.5204 19.3265 38.3153C19.1933 39.2488 18.6668 38.5396 18.2364 39.3443C18.2827 39.2258 18.6102 39.0236 18.5863 39.2467C18.4448 39.3729 18.2413 39.5244 18.0973 39.5406C17.7927 40.0862 18.3278 39.5943 18.282 39.9117C17.9696 39.9285 18.1785 40.2357 18.0462 40.5231L17.8842 40.376C17.2803 40.842 18.0801 40.8591 17.4939 41.2497L17.4752 40.8078L17.2965 41.1341L17.1763 40.8874C17.0354 41.2921 16.9069 41.3219 16.5905 41.5167C16.7524 41.5842 16.8062 41.8752 16.5563 42.1054C16.2972 42.1345 16.5381 41.8625 16.1732 42.1454C16.1794 41.958 16.1835 41.7799 16.4494 41.802C16.4204 41.7257 16.4446 41.6219 16.4156 41.5456C16.1609 41.5957 15.9311 41.8604 15.805 41.9603C15.8581 41.9329 15.9312 41.9002 15.9755 41.9105L15.5914 42.5569C15.4651 42.5375 15.4981 42.4358 15.5333 42.3246C15.4427 42.4328 15.4119 42.5649 15.2394 42.6639C15.2013 42.4661 15.1146 42.3167 15.3024 42.1118C15.1699 42.2798 15.0195 42.4039 14.8692 42.5678C14.7982 42.5115 14.5234 42.4873 14.5631 42.3971C14.4059 42.4301 14.26 42.5752 14.0874 42.714C13.9149 42.8528 13.727 43.0179 13.5076 42.9967C13.4988 43.0344 13.4524 43.0733 13.3683 43.1134C13.1711 43.1172 12.9827 43.0833 12.7966 43.0798C12.6105 43.0762 12.42 43.0518 12.1832 43.1856L11.9632 42.846C11.6088 42.8828 12.2721 43.3256 11.6474 43.3592C11.1933 43.3827 11.5338 43.0444 11.4139 42.917C11.2966 42.9792 11.1218 43.0877 10.938 43.1145C10.7586 43.1225 10.5657 43.0676 10.4235 42.8754C10.5675 42.8592 10.6496 42.9479 10.7782 42.958L10.6897 43.0567ZM6.92209 40.2507C7.02409 40.2943 7.25461 40.348 7.19288 40.4927C6.92943 40.5805 6.96676 40.4202 6.92209 40.2507ZM4.15064 32.8837C4.21507 32.9683 4.17766 33.0888 4.08933 33.2274C4.07582 33.1248 4.09331 33.0095 4.15064 32.8837ZM15.2639 12.2023L15.2595 12.2212C15.0115 12.2828 15.1001 12.2636 15.2639 12.2023ZM15.7398 12.0048C15.7707 11.9523 15.7573 11.9294 15.7152 11.9096C15.7087 11.9777 15.618 12.0461 15.5007 12.1083C15.5584 12.1416 15.6337 12.1392 15.7398 12.0048ZM21.6488 35.4452L21.5959 35.5522C21.5311 35.3084 21.5911 35.3721 21.6488 35.4452Z" fill="#CD4D14"/>
<path d="M4.42174 33.8115C4.42174 33.8115 4.34651 33.8537 4.30665 33.8643C4.3444 33.9029 4.39092 33.9038 4.42174 33.8115Z" fill="#CD4D14"/>
<path d="M10.9197 18.4997C10.8245 18.5472 10.7558 18.5611 10.7005 18.5581C10.7382 18.5967 10.8025 18.6017 10.9197 18.4997Z" fill="#CD4D14"/>
<path d="M17.9413 10.2995L17.6692 10.5047C17.8108 10.4183 17.8796 10.4443 17.966 10.4345C17.9393 10.3885 17.8461 10.347 17.9413 10.2995Z" fill="#CD4D14"/>
<path d="M20.9905 10.4126C21.028 10.3716 21.0834 10.3745 21.1121 10.3315L21.0698 10.2322C20.8839 10.3082 20.7889 10.4353 20.9905 10.4126Z" fill="#CD4D14"/>
<path d="M18.5138 10.8505C18.6161 11.0135 18.7642 10.8591 18.9544 10.7244C18.9455 10.7223 18.9323 10.7391 18.9212 10.7465C18.8741 10.467 18.6973 10.6645 18.5138 10.8505Z" fill="#CD4D14"/>
<path d="M18.9979 10.6948C19.0532 10.658 19.1196 10.6138 19.1794 10.5979C19.1592 10.4838 19.0908 10.617 18.9979 10.6948Z" fill="#CD4D14"/>
<path d="M16.2267 11.5215C16.3419 11.5086 16.173 11.2704 16.2595 11.3004C16.25 11.0198 15.7868 11.966 16.2267 11.5215Z" fill="#CD4D14"/>
<path d="M18.9277 11.3549L18.7656 11.168L18.7307 11.3985L18.9277 11.3549Z" fill="#CD4D14"/>
<path d="M17.2926 11.9982L17.6358 11.8892C17.6358 11.8892 17.6534 11.8137 17.6821 11.7707C17.4829 11.8635 17.2437 11.9272 17.286 11.9867L17.2926 11.9982Z" fill="#CD4D14"/>
<path d="M17.69 11.7822C17.794 11.7368 17.8914 11.6799 17.9245 11.618C17.8714 11.6455 17.7519 11.7171 17.69 11.7822Z" fill="#CD4D14"/>
<path d="M18.5261 11.639L18.4131 11.6425L18.1851 11.7386L18.5261 11.639Z" fill="#CD4D14"/>
<path d="M14.0414 14.0852L13.774 14.3909C13.7897 14.4841 13.9004 14.4502 13.9932 14.3326C14.0373 14.2235 14.1301 14.1059 14.0436 14.0758L14.0414 14.0852Z" fill="#CD4D14"/>
<path d="M15.3507 13.9622C15.2355 13.9752 15.2089 13.9292 15.1113 13.9065L15.2581 14.1594L15.3507 13.9622Z" fill="#CD4D14"/>
<path d="M14.4694 14.6523C14.4851 14.7455 14.1736 15.2 14.5296 14.8752C14.5139 14.782 14.7703 14.4837 14.4694 14.6523Z" fill="#CD4D14"/>
<path d="M9.94625 18.3826L10.0125 18.2986L9.66406 17.9888L9.94625 18.3826Z" fill="#CD4D14"/>
<path d="M7.86544 23.2678C8.20151 22.9483 7.67883 23.0255 8.01279 22.7552C7.9726 22.6066 7.73634 22.9792 7.71388 22.8348C7.66355 23.1313 7.53081 23.2197 7.86544 23.2678Z" fill="#CD4D14"/>
<path d="M7.71698 22.8252C7.71698 22.8252 7.73007 22.7288 7.73438 22.6702C7.71461 22.7551 7.7147 22.7949 7.71698 22.8252Z" fill="#CD4D14"/>
<path d="M8.65992 24.1091L8.34961 24.0369L8.55817 24.1848L8.65992 24.1091Z" fill="#CD4D14"/>
<path d="M8.10759 24.5173L8.00948 24.2161L7.85723 24.5088C7.92808 24.4855 8.05651 24.4557 8.11646 24.5194L8.10759 24.5173Z" fill="#CD4D14"/>
<path d="M7.01518 39.2482L6.94433 39.2715C6.89798 39.3502 6.93133 39.4077 6.9803 39.5185L7.01518 39.2482Z" fill="#CD4D14"/>
<path d="M9.11497 41.9543L9.06836 41.9136L9.0003 42.206L9.11497 41.9543Z" fill="#CD4D14"/>
<path d="M11.5994 42.6421C11.5018 42.6194 11.3734 42.6491 11.2781 42.617C11.4952 42.6079 11.5647 42.9919 11.5994 42.6421Z" fill="#CD4D14"/>
<path d="M59.1011 11.866C59.2318 11.8665 59.1738 11.6741 59.1937 11.629C58.9789 11.7082 59.1167 11.9193 59.1011 11.866Z" fill="#CD4D14"/>
<path d="M56.9916 12.6575L57.0224 12.5653L56.7305 12.8155L56.9916 12.6575Z" fill="#CD4D14"/>
<path d="M54.9942 12.9682C55.2408 13.2742 55.7072 12.7961 56.084 12.8639L56.1528 12.9296L56.2785 12.6307C55.8511 12.7401 55.3111 13.0121 54.9942 12.9682Z" fill="#CD4D14"/>
<path d="M53.8045 12.5021C53.8911 12.6118 53.5966 12.6725 54.0636 12.473C54.037 12.4668 54.0281 12.4647 54.0104 12.4606C53.9705 12.4712 53.9108 12.4871 53.8045 12.5021Z" fill="#CD4D14"/>
<path d="M54.0124 12.4511C53.8527 12.3742 54.2227 12.3907 54.0124 12.4511V12.4511Z" fill="#CD4D14"/>
<path d="M53.0457 12.7834L53.3045 12.595C53.2335 12.5387 52.981 12.5794 53.065 12.4995C52.7906 12.6345 52.8683 12.7023 53.0546 12.7854L53.0457 12.7834Z" fill="#CD4D14"/>
<path d="M52.8349 13.0919L52.9677 13.0034C52.9677 13.0034 52.8989 12.9775 52.8349 13.0919Z" fill="#CD4D14"/>
<path d="M53.2518 12.8211L52.9664 13.0033C53.0218 13.046 53.0442 13.1507 53.0969 12.9243C53.0905 13.0322 53.1346 12.9231 53.2451 12.8096L53.2518 12.8211Z" fill="#CD4D14"/>
<path d="M53.436 12.8342C53.6044 12.8734 53.8127 12.8622 53.5627 13.0526C54.0829 12.8655 53.9651 12.6491 53.436 12.8342Z" fill="#CD4D14"/>
<path d="M54.9471 13.3349L55.1644 13.4053L55.328 13.2644C55.2462 13.3349 54.9137 13.2376 54.9449 13.3443L54.9471 13.3349Z" fill="#CD4D14"/>
<path d="M51.2793 13.0679C51.2795 13.1475 51.4192 13.2297 51.4637 13.3196L51.6451 13.1828C51.5298 13.156 51.3216 13.1672 51.2793 13.0679Z" fill="#CD4D14"/>
<path d="M51.456 13.3177L51.1751 13.5208C51.4497 13.4654 51.485 13.3941 51.456 13.3177Z" fill="#CD4D14"/>
<path d="M52.8667 13.4771L53.3112 13.0933L52.7738 13.5151L52.8667 13.4771Z" fill="#CD4D14"/>
<path d="M50.1037 13.4207L50.2317 13.192L49.9976 13.5551L50.1037 13.4207Z" fill="#CD4D14"/>
<path d="M49.346 13.7416C49.4342 13.5633 49.1019 13.5854 49.2169 13.453C49.0155 13.5553 48.8697 13.7401 48.7481 13.9008C48.8985 13.7767 49.0889 13.7216 49.3548 13.7437L49.346 13.7416Z" fill="#CD4D14"/>
<path d="M48.524 14.1467C48.5947 14.0837 48.6632 13.9902 48.7406 13.8989C48.6609 13.9599 48.5858 14.0418 48.524 14.1467Z" fill="#CD4D14"/>
<path d="M50.6556 13.6187C50.6556 13.6187 50.5446 13.4934 50.363 13.5108L50.5339 13.6599C50.5339 13.6599 50.6158 13.6293 50.6556 13.6187Z" fill="#CD4D14"/>
<path d="M50.54 13.6717C50.4094 13.7109 50.3186 13.7395 50.2876 13.7522C50.3186 13.7395 50.3983 13.7183 50.5489 13.6738L50.54 13.6717Z" fill="#CD4D14"/>
<path d="M50.6852 13.6157L50.6582 13.6094C50.6582 13.6094 50.6785 13.6443 50.6852 13.6157Z" fill="#CD4D14"/>
<path d="M52.0277 13.5103C51.8773 13.6742 51.53 13.8817 51.9223 13.9631C52.0172 13.7962 51.7845 13.752 52.0277 13.5103Z" fill="#CD4D14"/>
<path d="M50.8987 13.8241L51.2354 13.7832C51.2354 13.7832 51.1399 13.6715 51.215 13.5895L50.9009 13.8147L50.8987 13.8241Z" fill="#CD4D14"/>
<path d="M50.7525 13.9297L50.8985 13.8244L50.7744 13.8353L50.7525 13.9297Z" fill="#CD4D14"/>
<path d="M49.1278 14.1185C49.0217 14.2529 48.8668 14.3162 48.7075 14.3985C48.9023 14.3643 49.0906 14.3186 49.2743 14.252C49.2808 14.1839 49.3226 14.0445 49.1367 14.1205L49.1278 14.1185Z" fill="#CD4D14"/>
<path d="M49.8188 13.9214L49.7941 13.9459C49.7941 13.9459 49.839 13.9564 49.8188 13.9214Z" fill="#CD4D14"/>
<path d="M47.0463 15.036L47.0868 15.0656L47.0777 15.0231L47.0463 15.036Z" fill="#CD4D14"/>
<path d="M49.3176 14.2718C49.4615 14.2556 49.5345 14.183 49.5941 14.0875C49.4967 14.1444 49.3905 14.1993 49.2776 14.2426C49.271 14.2709 49.2755 14.2918 49.3176 14.2718Z" fill="#CD4D14"/>
<path d="M48.0875 14.4132C48.1673 14.4317 48.2604 14.4335 48.3645 14.4279C48.278 14.3978 48.1007 14.3566 48.0875 14.4132Z" fill="#CD4D14"/>
<path d="M49.7303 13.9009L49.7528 13.886C49.6921 13.8618 49.7078 13.8755 49.7303 13.9009Z" fill="#CD4D14"/>
<path d="M49.7303 13.9006C49.6706 13.9563 49.6265 14.0256 49.5845 14.0854C49.6619 14.0339 49.7283 13.9897 49.788 13.9339C49.7703 13.9298 49.7459 13.9142 49.7215 13.8986L49.7303 13.9006Z" fill="#CD4D14"/>
<path d="M47.0355 16.485C46.9931 16.3061 47.2471 15.9376 47.6283 16.0264C47.8715 15.7847 47.4761 15.275 47.0879 15.0554C47.1058 15.1391 47.1303 15.1945 46.8739 15.453C47.0068 15.484 47.638 15.3823 47.437 15.6438C47.0697 15.8964 47.0893 15.7319 46.8567 15.7275C47.1051 15.8648 46.4902 16.2984 46.6968 16.5752L46.9886 16.2852C46.9886 16.2852 46.9248 16.4791 47.0377 16.4756L47.0355 16.485Z" fill="#CD4D14"/>
<path d="M47.6872 14.8471L47.8067 14.7755C47.6517 14.7991 47.5187 14.7681 47.2727 14.7009C47.0936 14.868 47.0738 14.9529 47.0784 15.0136L47.7181 14.7947L47.6806 14.8356L47.6872 14.8471Z" fill="#CD4D14"/>
<path d="M48.3806 14.5609C48.3457 14.7914 48.0648 14.9945 48.322 15.1339C48.685 14.9798 48.532 14.8745 48.7221 14.7C48.1334 14.9806 48.8569 14.5226 48.3851 14.5818C48.4957 14.5081 48.602 14.4533 48.6971 14.4059C48.5797 14.4283 48.4668 14.4318 48.3538 14.4353L48.3715 14.4395C48.3715 14.4395 48.4203 14.4707 48.3849 14.4624L48.376 14.4604C48.376 14.4604 48.3784 14.5305 48.3718 14.5588C48.1791 14.5836 48.3252 14.5182 48.3716 14.4792C48.3738 14.4698 48.376 14.4604 48.3693 14.4489L47.794 14.7923C47.9313 14.7646 48.0952 14.7033 48.3696 14.5683L48.3806 14.5609Z" fill="#CD4D14"/>
<path d="M51.7085 14.4807C51.7085 14.4807 51.686 14.4553 51.6792 14.4437C51.6434 14.4757 51.6367 14.5043 51.7085 14.4807Z" fill="#CD4D14"/>
<path d="M51.4312 14.4258C51.4312 14.4258 51.4885 14.2999 51.6347 14.2743C51.7765 14.3073 51.6593 14.3695 51.6816 14.4343C51.7545 14.3618 51.9491 14.2082 51.6545 14.1894L51.6169 14.2303C51.3555 14.2292 50.9741 14.0608 51.0006 14.0272C51.1228 14.1849 51.2182 14.2967 51.4201 14.4331L51.4312 14.4258Z" fill="#CD4D14"/>
<path d="M49.9164 14.5106L49.4473 14.7992L49.7576 14.8714L49.7153 14.7721C50.0121 14.7019 49.9144 14.5996 49.9253 14.5127L49.9164 14.5106Z" fill="#CD4D14"/>
<path d="M46.9497 14.9637L46.9381 14.7323C46.8786 14.8676 46.8169 15.0124 46.764 15.1592L46.9497 14.9637Z" fill="#CD4D14"/>
<path d="M46.3262 15.3157L46.2771 15.1253L46.1468 15.3236L46.3262 15.3157Z" fill="#CD4D14"/>
<path d="M35.1167 46.7735L35.0393 46.8251C35.1058 46.8206 35.1456 46.81 35.1167 46.7735Z" fill="#CD4D14"/>
<path d="M33.1925 27.1341C32.9224 27.2502 32.5527 27.3531 32.739 27.4362L32.9429 27.4837C33.0023 27.3086 33.0907 27.2098 33.1925 27.1341Z" fill="#CD4D14"/>
<path d="M30.8357 39.1447L30.8887 39.0775C30.8266 39.0233 30.7645 38.969 30.709 38.9263C30.749 38.9952 30.778 39.0716 30.8335 39.1541L30.8357 39.1447Z" fill="#CD4D14"/>
<path d="M31.6663 39.2683L31.5606 39.5619C31.6048 39.4926 31.6356 39.4003 31.6663 39.2683Z" fill="#CD4D14"/>
<path d="M40.5785 48.4822C40.6138 48.4109 40.6446 48.3186 40.6821 48.2378C40.4696 48.3077 40.5761 48.3722 40.5785 48.4822Z" fill="#CD4D14"/>
<path d="M40.1186 19.2602C39.915 19.3322 39.7667 19.407 39.6539 19.4901C39.9129 19.4212 40.17 19.4412 40.1186 19.2602Z" fill="#CD4D14"/>
<path d="M34.1569 48.9267C34.25 48.9682 34.3164 48.9638 34.3452 48.9208C34.2299 48.8939 34.17 48.8701 34.1569 48.9267Z" fill="#CD4D14"/>
<path d="M39.1882 19.8792C39.1882 19.8792 39.259 19.8559 39.2989 19.8453C39.3938 19.7183 39.4955 19.6027 39.6437 19.4881C39.4555 19.5337 39.2541 19.636 39.1793 19.8771L39.1882 19.8792Z" fill="#CD4D14"/>
<path d="M42.4756 33.1838C42.4756 33.1838 42.4531 33.1584 42.4486 33.1372C42.4329 33.1638 42.4419 33.1659 42.4756 33.1838Z" fill="#CD4D14"/>
<path d="M36.9334 29.7258C37.002 29.7119 37.1083 29.6969 37.2102 29.7007C37.157 29.6883 37.0751 29.6792 36.9334 29.7258Z" fill="#CD4D14"/>
<path d="M43.7219 16.5496C43.7285 16.521 43.8542 16.4696 43.7219 16.5496V16.5496Z" fill="#CD4D14"/>
<path d="M44.732 16.9434C44.732 16.9434 44.7056 17.0168 44.7234 17.0608C44.7166 17.0095 44.7165 16.9697 44.732 16.9434Z" fill="#CD4D14"/>
<path d="M38.8412 21.8564C38.8412 21.8564 38.8412 21.8564 38.839 21.866C38.8974 21.8594 38.8862 21.8669 38.8412 21.8564Z" fill="#CD4D14"/>
<path d="M43.9694 16.5272C43.9029 16.5316 43.8432 16.5476 43.7656 16.5593C43.8011 16.5676 43.8609 16.5517 43.9694 16.5272Z" fill="#CD4D14"/>
<path d="M43.9005 16.4613C43.9515 16.4433 43.9913 16.4327 44.0312 16.4221C44.0399 16.3844 44.0067 16.3667 43.9005 16.4613Z" fill="#CD4D14"/>
<path d="M43.543 16.6763C43.6116 16.6227 43.6846 16.5899 43.7643 16.5687C43.7377 16.5625 43.72 16.5584 43.72 16.5584C43.6779 16.5785 43.6315 16.6174 43.543 16.6763Z" fill="#CD4D14"/>
<path d="M47.1362 42.3522C47.1362 42.3522 47.1495 42.3354 47.1605 42.328C47.1115 42.1774 47.116 42.2381 47.1362 42.3522Z" fill="#CD4D14"/>
<path d="M33.2655 31.6361L33.2609 31.6149L33.2475 31.6319L33.2655 31.6361Z" fill="#CD4D14"/>
<path d="M33.2128 32.1807C33.0571 31.8859 33.1389 31.7757 33.2471 31.6318L32.6621 31.5752L33.2239 32.1733L33.2128 32.1807Z" fill="#CD4D14"/>
<path d="M37.8382 48.4908L37.6227 48.2119C38.0565 48.0345 38.2364 48.2255 38.0739 47.8795C37.9638 48.1919 37.6956 48.0996 37.4229 48.0262C37.1569 47.9245 36.9106 47.7777 36.7318 48.0642L36.6228 47.8499C36.6716 47.8812 36.6959 47.857 36.7469 47.8788C36.5621 47.4281 36.2535 48.1518 35.8627 47.7426C35.7405 47.5849 35.6915 47.4343 35.8377 47.4484C35.698 47.406 35.5451 47.3803 35.4187 47.3211C35.3388 47.2229 35.4294 47.1545 35.5094 47.2527L35.0167 46.8397L35.0256 46.8418C34.8949 46.8412 34.6334 46.8002 34.5181 46.7734C34.4712 46.5735 34.6245 46.7981 34.6575 46.6964C34.5378 46.6487 34.4335 46.5747 34.316 46.5175C34.3531 46.2776 34.6459 46.4252 34.7947 46.6289C35.0325 45.9286 34.4865 46.5075 34.3142 45.6818L34.5827 45.8935C34.7369 45.472 34.4465 45.3944 34.4433 44.9263C34.3706 45.0784 34.4321 45.8982 34.0683 45.6942C34.0282 45.5854 33.9792 45.4348 33.7618 45.3245C33.9432 45.1878 33.79 45.0427 33.6345 44.8276L33.8956 44.6696C33.6781 44.4797 33.5587 44.5911 33.3614 44.5154C33.2455 44.21 33.4091 44.0293 33.5505 43.8634C33.3723 43.3843 33.3854 44.3718 33.0675 43.8504C32.9736 43.4109 32.7316 43.2054 32.3918 42.7783C32.3756 42.4464 32.5756 42.7515 32.6174 42.612L32.3091 42.4508C32.2868 42.3859 32.3644 42.3741 32.402 42.373C32.2377 42.1955 32.1253 42.4776 31.9186 42.161C31.542 42.1728 32.1937 41.3003 31.7411 40.9961C31.7985 40.8702 31.9272 40.9996 32.0335 40.9448C31.6558 40.4392 31.7954 40.4817 31.4157 40.0254L31.5786 39.5661C31.3866 39.9092 31.0934 39.5228 30.8511 39.1581C30.7561 39.2852 30.6655 39.3934 30.6302 39.4647C30.5567 39.2587 30.492 39.0547 30.465 38.8495C30.5202 38.7729 30.6178 38.8354 30.7354 38.9323C30.7154 38.8979 30.6888 38.8519 30.6687 38.8174C30.7857 38.596 30.9454 38.7127 31.1075 38.8598C31.0434 38.9344 30.9793 39.009 30.9152 39.0836C31.0972 39.2254 31.3123 39.345 31.4806 39.3047C31.4429 39.266 31.4117 39.1991 31.3827 39.1228C31.4315 39.154 31.4825 39.1759 31.5069 39.1517C31.54 39.1296 31.4602 39.0712 31.3979 38.9772L31.73 38.8357L31.6058 38.8068L31.8457 38.0572C31.6945 37.7834 31.5034 37.5201 31.3433 37.2044C31.2119 36.8855 31.1181 36.5256 31.1215 36.069C31.3237 36.3248 31.4984 36.1766 31.7776 36.2217C31.4524 36.4144 31.7857 36.9097 31.6759 37.3415C31.7285 37.1151 31.8638 37.1764 31.895 37.2433L31.7493 36.4239C31.9709 36.4755 31.9506 36.2818 32.0786 36.0929C31.6092 36.1825 31.8646 35.4464 31.8041 35.1042C31.9592 35.1204 32.0746 35.2268 31.9846 35.6136C32.3782 35.2478 31.5888 34.9447 31.9736 34.5769C31.9516 34.6712 31.9118 34.7216 31.9828 34.7779C31.9114 34.5226 32.1629 34.0044 32.2563 34.1654L32.2343 34.2597C32.3511 33.9587 32.4631 33.4777 32.5353 33.047C32.6319 32.632 32.6532 32.2591 32.4935 32.1424C32.5467 32.1547 32.9038 32.387 32.9638 32.4507C32.6902 31.9396 32.4232 31.4001 32.1695 30.8439C32.4425 31.0765 33.3064 31.019 33.2921 31.6024C33.396 31.4774 33.4975 31.322 33.5145 30.968C33.4238 31.0364 32.9807 31.0128 33.0048 30.8693C33.5028 30.657 33.3057 30.7007 33.8058 30.3994C33.6686 30.5067 33.2823 30.1185 33.4082 29.8992C33.457 29.9702 33.8805 30.1185 33.8851 30.219L33.7062 29.4217C33.7199 29.6038 34.0833 29.6486 34.2627 29.6009C34.1475 29.6139 34.5054 29.1204 34.536 28.9486L34.3171 29.1263C34.6791 28.5344 34.0403 28.1471 34.4334 27.5425C34.4779 27.6722 34.8687 28.0814 35.1096 27.8093C34.9695 27.5281 34.4378 26.4796 34.6268 25.7877L34.8173 25.7724C34.859 25.5932 34.923 25.439 34.9802 25.2734C35.0743 25.7527 35.3184 26.9928 35.3483 27.5467C35.5806 27.3919 35.5345 27.59 35.7265 27.2469C35.9125 27.2106 35.787 27.5493 35.7362 27.6469L36.2842 26.9392C35.9958 26.7726 36.4554 26.2034 36.2247 26.0702C36.1036 26.39 35.9891 26.7213 35.9167 27.0724C35.6328 26.9268 35.5091 26.0528 35.9756 25.5747C36.1748 25.5216 36.3288 26.0248 36.4197 26.0758C36.384 25.9482 36.6377 25.4603 36.7308 25.4621L36.6938 25.7816C37.0035 25.5753 36.7432 25.0473 37.2258 24.9012C37.3342 24.7971 37.7862 24.8228 37.6707 24.6765C37.2629 24.6214 36.424 23.929 36.3392 23.6109C36.3768 23.5699 37.1226 23.2165 37.373 23.2251C37.743 23.2416 37.585 23.9605 37.8996 23.9741C37.8485 23.9125 37.8614 23.7365 37.8768 23.6705C38.0406 23.6092 38.0191 23.9025 38.2223 23.6316C38.0423 23.361 38.7176 23.1503 38.1441 23.325C38.3185 23.0176 38.4361 23.1146 38.7014 22.8183C38.4708 22.7647 38.4804 22.041 38.6658 21.7262C38.7037 21.8046 38.83 21.8241 38.8832 21.8365C39.3961 21.3592 39.7992 21.2741 40.2812 20.8493C40.3699 20.87 40.6687 20.7506 40.6447 20.9339C40.6777 20.8322 40.6841 20.6846 40.8256 20.5584C41.2797 20.5348 40.5183 20.8747 40.9284 20.9602C40.8372 20.7898 41.1643 20.4284 41.3232 20.1472C41.0946 19.9647 40.7879 20.5198 40.64 20.7936C40.4045 20.4803 40.5471 19.8274 40.9757 19.231C41.347 18.8004 41.3037 19.3074 41.35 19.1889C42.2329 18.6884 41.7111 18.1195 42.579 17.884C42.9823 17.9182 42.8435 18.3135 42.9944 18.4282C42.6761 18.7518 42.3502 18.666 42.1047 18.8376L42.4745 18.7347C42.4017 18.8868 42.1939 19.097 42.0189 19.1258C42.3646 19.1665 43.4637 18.2192 44.2031 17.9737C44.2781 17.8121 44.4416 17.6314 44.2931 17.5869C44.2267 17.6311 44.1648 17.6963 44.0963 17.7499C43.8126 17.6839 44.3611 17.2547 44.0533 17.3322C44.2787 17.0466 44.5149 16.674 44.9888 16.5656L45.1887 16.7911C45.1398 16.72 44.8474 16.7713 44.768 16.9119C44.8916 16.702 45.5656 16.9385 45.6023 16.4995L45.2278 16.4621C45.4621 16.1785 45.7136 15.7001 46.1299 15.5982C45.8438 15.4222 46.057 15.6707 45.6578 15.4982C46.0549 15.7597 44.6863 15.9781 45.2361 16.1856C44.7992 15.9745 44.7002 16.2796 44.1948 16.162C44.2504 16.2445 44.4055 16.2607 44.069 16.3813C44.0624 16.4096 44.0493 16.4662 44.0427 16.4945C44.0338 16.4924 44.0249 16.4904 44.0139 16.4977L44.0316 16.5019C44.1247 16.5036 44.2067 16.5128 44.2533 16.5534C44.1918 16.8176 43.6983 17.0905 43.6013 17.3066C43.4065 17.3805 43.6254 17.163 43.4813 17.1394L43.3247 17.451C43.2047 17.2839 42.6889 17.4522 43.0492 17.0687L42.6664 17.3077C42.3851 17.3516 42.0576 17.514 41.9163 17.7198C41.7104 17.8011 41.585 18.2194 41.6598 17.9783L41.1403 18.4838L41.1025 18.4452C40.5096 18.8243 40.1879 19.6443 39.3376 19.8441C39.1895 20.0384 39.0393 20.2421 38.7008 20.4516L38.5256 20.3611C38.3134 20.5902 37.7446 20.8655 37.7739 21.101C37.2242 20.973 36.6595 22.1144 36.2282 22.4416L36.3836 22.6169C36.1006 22.8693 35.9462 23.2112 35.7256 23.6371L35.8942 23.7559C35.7777 24.1763 35.158 24.4695 34.7869 24.9798C34.7512 24.8919 34.8618 24.7785 34.968 24.7236C34.1135 25.0219 34.3265 26.2349 33.687 26.6131C33.6608 26.8059 33.5746 26.8952 33.464 26.9689C33.4684 26.95 33.4706 26.9406 33.475 26.9217C33.4706 26.9406 33.4485 26.9553 33.433 26.9815C33.3667 27.0257 33.2914 27.0679 33.2118 27.1289C33.2937 27.0983 33.3601 27.054 33.4065 27.0151C33.3425 27.1295 33.2521 27.3173 33.1993 27.5039L32.9688 27.4502C32.9688 27.4502 32.96 27.4879 32.9556 27.5068C32.7875 27.6268 32.9582 27.6963 33.1554 27.6925C33.1312 27.7963 33.1181 27.8927 33.1338 27.9858C32.7594 27.9484 33.0131 28.5046 32.59 28.5155C32.6901 28.7277 32.273 29.4758 32.577 29.7356C32.5238 29.7232 32.4774 29.7621 32.5281 29.6645C32.3934 29.842 32.2586 30.0194 32.2746 30.2319L31.9843 30.1942C32.0245 30.3826 32.0959 30.598 32.145 30.7885C31.8929 30.9883 31.7535 31.0652 31.6597 30.7053C31.7211 31.4853 31.5723 31.2816 31.6778 31.9525L31.5203 31.8661C31.4543 32.0695 31.5593 32.4619 31.3755 32.5285C31.1056 32.6844 30.9805 33.2618 30.7825 33.9118C30.6879 34.2378 30.5956 34.5942 30.4811 34.9255C30.3999 35.2745 30.3031 35.61 30.1708 35.8974C30.7309 35.7394 29.8418 36.4274 30.2474 36.5317C30.1124 36.5898 30.0108 36.7451 29.9373 36.5391C29.9408 37.1664 29.6336 37.4826 29.958 37.936C29.8296 38.0056 29.776 37.7942 29.7052 37.8573C29.7297 37.9127 29.8054 38.0695 29.7257 38.1305C29.6461 38.1916 29.6259 38.0377 29.5769 37.9269C29.5628 38.5898 29.9484 38.6597 30.314 38.695C30.1175 39.0172 30.1445 39.1826 30.4019 39.4016C30.2914 39.5151 30.1788 39.7176 30.1115 39.3241C30.1076 39.5419 30.0347 40.7381 30.3315 40.7077C30.2564 40.7897 30.3411 41.0282 30.3966 41.0709C30.4951 41.5711 30.473 41.6257 30.6136 42.1058L30.6288 41.9602C31.0145 42.0301 30.7736 42.342 30.9649 42.6848L30.9294 42.6765C31.0001 43.6177 31.1738 42.9919 31.2178 43.927L31.4014 43.7808C31.8442 43.6452 31.4807 44.6046 31.8625 44.9719L31.8975 44.7414C32.1503 44.8997 31.6759 45.7737 31.7961 46.0602C31.7963 46.1398 31.6852 46.0145 31.6142 45.9582C31.7821 46.763 31.9131 45.8787 32.2619 46.3079C32.1914 46.4903 31.8589 46.4328 32.0413 46.7736C32.0153 47.046 33.0992 47.3281 33.1825 47.9341C33.2042 47.7602 33.226 47.5863 33.4457 47.7269C33.7253 47.971 33.8778 48.8418 34.385 48.7908C34.4006 48.8441 34.4007 48.8839 34.3853 48.9102C34.6868 49.0201 35.268 49.3741 35.5203 49.2937C35.4237 49.7087 35.9026 49.86 36.3171 49.9664C36.7427 50.0654 37.1547 50.0619 37.0336 50.4215C37.3285 50.52 37.6322 50.6205 37.9446 50.6435L37.9005 50.7128C38.4901 50.8699 38.7313 50.757 38.9525 50.5699C39.0811 50.6197 38.9815 50.686 38.9617 50.7311C39.3916 50.8113 39.6443 50.8502 39.8679 50.8128C40.0871 50.7544 40.2973 50.6144 40.6225 50.3818L40.7293 50.6056C40.8222 50.5278 41.1391 50.5717 41.5466 50.5074C41.7481 50.4847 41.9718 50.4473 42.1932 50.3795C42.4079 50.3002 42.607 50.1676 42.7839 50.0099C42.7773 50.0382 42.7841 50.0895 42.7421 50.1493C42.9412 49.9769 43.1824 49.864 43.4392 49.7647C43.6826 49.6424 43.9394 49.543 44.1806 49.4301C44.6676 49.2253 45.0081 48.9267 44.8787 48.4789L45.2209 47.8923C44.5838 48.3805 45.0717 47.5295 44.744 47.6521C44.9452 47.4304 45.4743 47.2851 45.2513 47.6011L45.1737 47.6129C45.3785 48.0583 45.9456 46.9871 46.1455 47.2126C47.1708 45.9796 48.2646 44.6134 48.6201 43.0057L48.2525 43.0992L48.4198 42.5813C48.5325 42.4583 48.723 42.443 48.6064 42.8236C48.8697 42.6561 48.5717 42.1294 48.5074 42.1244C48.7385 41.3727 48.8538 42.4834 48.8888 42.2529L48.9014 41.9177L48.8572 41.987C48.7547 41.7046 48.6128 41.6716 48.685 41.2011C48.7818 40.9055 48.9151 41.0558 48.9237 40.9385C48.9503 40.9447 48.9612 40.8975 48.9299 40.751L48.9373 40.0368L48.6809 40.3351C48.5451 40.035 48.6818 39.689 48.3878 40.0282C48.9207 39.5059 48.1809 37.5041 48.1803 37.2256C47.8739 36.8957 47.7579 36.5107 47.5354 36.0612C47.5402 36.2015 47.3057 36.4055 47.1543 36.0122C47.7565 35.8342 47.0639 35.1559 47.1979 34.6203C47.1345 35.0531 46.4249 33.6449 46.3798 34.3205C46.2129 33.9933 46.55 34.1513 46.4961 33.8206C46.1234 33.5748 45.8236 33.2166 45.517 32.8072C45.2104 32.3977 44.8153 32.0472 44.3805 31.7471C44.3186 31.8123 44.3899 32.0277 44.1462 31.9909C44.0792 31.7565 43.999 31.539 43.9077 31.3288C43.6993 31.2604 43.503 31.6622 43.316 31.2209C43.3317 31.3141 43.3475 31.447 43.2189 31.3972C43.0236 31.2324 42.8172 31.075 42.5976 30.9344C42.3736 30.8126 42.1319 30.7266 41.8925 30.631C41.4091 30.4589 40.928 30.2773 40.4095 30.2163C39.902 30.1479 39.4032 30.0019 38.9068 29.9262C38.4016 29.8483 37.9073 29.7233 37.3995 29.4958C37.6745 29.6791 37.4863 29.685 37.2736 29.6753C37.411 29.7271 37.2629 29.8816 37.292 29.9977C37.0192 29.8845 36.7355 29.8185 36.4495 29.7221C36.3062 30.0567 35.5414 29.809 35.4778 30.1224L35.7391 30.044C35.4164 30.4263 36.2724 30.8045 36.229 31.2717C36.6003 30.8411 37.1871 31.7731 37.7842 31.2558C37.9107 31.3549 37.6671 31.3976 37.7249 31.5105C37.8818 31.3183 38.0745 31.2936 38.396 31.3982L38.3562 31.4486C38.828 31.4292 39.1583 31.5359 39.4821 31.6709C39.8036 31.8154 40.1539 31.9168 40.6151 32.1435L40.608 31.8932C40.8076 31.9993 40.8343 32.0851 40.9076 32.1718C41.2527 31.9339 40.3267 31.9371 40.6562 31.6459C40.7859 32.213 42.1704 32.1674 42.0964 32.8065C42.3848 32.973 42.1268 32.5152 42.4152 32.6818L42.431 32.8545L42.5903 32.7325C42.7745 32.8648 42.7815 33.0753 42.7286 33.1823C42.6909 33.1437 42.5779 33.1472 42.5269 33.1254C42.6069 33.2634 42.7843 33.3444 42.9573 33.4046C43.1059 33.4889 43.2522 33.5428 43.2767 33.5983L43.0789 33.3235C43.4627 33.562 43.882 33.8485 44.2505 34.1928C44.5836 34.5687 45.0007 34.8646 45.3425 35.163L45.3732 35.0309C45.9281 35.4981 45.6446 35.5515 46.0912 36.1625L46.0557 36.1543C46.2154 36.2312 46.3553 36.3931 46.4399 36.5917C46.2425 36.4762 46.3943 37.0286 46.1614 36.865C46.681 37.4433 46.4565 37.1226 46.9867 37.4548L46.8608 37.6344C47.0604 37.7405 47.1468 37.7308 47.3115 38.1072C47.0651 37.841 47.1438 38.4261 46.8442 38.1476C46.8074 38.5865 46.8922 38.8647 47.019 39.0832C47.1258 39.3069 47.2303 39.5003 46.9738 39.719C47.2001 39.8711 47.2883 39.6928 47.2701 39.4897C47.252 39.2866 47.1895 39.0731 47.2606 39.1692C47.3665 38.9552 47.6887 39.418 47.6406 39.7052C47.639 39.9931 47.0524 40.2245 47.0803 40.8674C47.0779 40.7973 47.0403 40.7984 47.0468 40.7303C46.9454 40.9653 47.1586 41.2138 46.9443 41.492C47.2061 41.6922 46.883 41.8755 47.2333 41.9769L47.2276 41.3591C47.2615 41.6951 47.7121 42.1282 47.3189 42.6531C47.2589 42.5895 47.2187 42.4011 47.1918 42.2755C47.0392 42.4091 47.1704 42.6086 47.0178 42.7422C46.6852 42.6051 47.1514 42.0076 46.8913 41.599C46.7166 41.7473 47.0701 42.3168 46.7084 42.0636C47.1212 42.4182 46.4814 42.6372 46.7218 43.1704L46.5289 43.0758C46.5401 43.148 46.6092 43.3332 46.5474 43.4381C46.4962 43.3367 46.4362 43.2332 46.3673 43.1277C46.4767 43.541 45.9031 43.6362 45.9061 43.9849C46.1817 43.3629 46.2007 43.964 46.4727 43.7588C46.3395 44.6923 45.813 43.9831 45.3827 44.7878C45.429 44.6693 45.7564 44.4671 45.7325 44.6903C45.591 44.8164 45.3875 44.9679 45.2435 44.9841C44.939 45.5297 45.4741 45.0378 45.4282 45.3553C45.1159 45.372 45.3247 45.6792 45.1924 45.9666L45.0304 45.8195C44.4266 46.2855 45.2264 46.3026 44.6401 46.6932L44.6215 46.2513L44.4427 46.5776L44.3225 46.3309C44.1816 46.7356 44.0532 46.7654 43.7368 46.9602C43.8987 47.0277 43.9524 47.3187 43.7026 47.5489C43.4434 47.5781 43.6843 47.306 43.3194 47.589C43.3257 47.4015 43.3297 47.2235 43.5956 47.2456C43.5666 47.1692 43.5908 47.0655 43.5618 46.9891C43.3072 47.0392 43.0773 47.3039 42.9513 47.4038C43.0044 47.3764 43.0774 47.3437 43.1217 47.354L42.7376 48.0004C42.6113 47.981 42.6443 47.8793 42.6795 47.7682C42.5889 47.8763 42.5582 48.0084 42.3856 48.1074C42.3475 47.9096 42.2608 47.7602 42.4487 47.5553C42.3161 47.7233 42.1657 47.8474 42.0154 48.0113C41.9444 47.955 41.6696 47.9308 41.7093 47.8406C41.5521 47.8737 41.4062 48.0187 41.2337 48.1575C41.0612 48.2963 40.8732 48.4614 40.6539 48.4402C40.6451 48.4779 40.5986 48.5168 40.5145 48.5569C40.3174 48.5607 40.129 48.5268 39.9429 48.5233C39.7568 48.5197 39.5662 48.4953 39.3294 48.6291L39.1094 48.2895C38.755 48.3263 39.4183 48.7691 38.7937 48.8027C38.3396 48.8263 38.68 48.4879 38.5601 48.3605C38.4428 48.4227 38.2681 48.5312 38.0842 48.558C37.9048 48.566 37.7119 48.5111 37.5698 48.3189C37.7137 48.3027 37.7959 48.3915 37.9244 48.4015L37.8382 48.4908ZM34.0705 45.6848C34.1725 45.7284 34.403 45.782 34.3413 45.9268C34.0779 46.0146 34.1152 45.8543 34.0705 45.6848ZM31.2991 38.3178C31.3635 38.4024 31.3261 38.5229 31.2378 38.6615C31.2243 38.5589 31.2417 38.4436 31.2991 38.3178ZM42.4123 17.6364L42.4079 17.6552C42.1599 17.7168 42.2485 17.6977 42.4123 17.6364ZM42.8882 17.4389C42.9191 17.3864 42.9058 17.3634 42.8637 17.3437C42.8571 17.4118 42.7665 17.4802 42.6492 17.5424C42.7068 17.5757 42.7822 17.5733 42.8882 17.4389ZM48.7973 40.8793L48.7443 40.9863C48.6796 40.7425 48.7395 40.8062 48.7973 40.8793Z" fill="#CD4D14"/>
<path d="M31.5682 39.2456C31.5682 39.2456 31.493 39.2877 31.4531 39.2984C31.4909 39.337 31.5374 39.3379 31.5682 39.2456Z" fill="#CD4D14"/>
<path d="M38.0681 23.9338C37.9729 23.9813 37.9043 23.9951 37.8489 23.9922C37.8866 24.0308 37.9509 24.0358 38.0681 23.9338Z" fill="#CD4D14"/>
<path d="M45.078 15.7409L44.806 15.9461C44.9476 15.8597 45.0163 15.8857 45.1027 15.8759C45.076 15.83 44.9829 15.7884 45.078 15.7409Z" fill="#CD4D14"/>
<path d="M48.137 15.8466C48.1745 15.8057 48.2299 15.8086 48.2586 15.7656L48.2163 15.6662C48.0304 15.7423 47.9354 15.8693 48.137 15.8466Z" fill="#CD4D14"/>
<path d="M45.6583 16.2941C45.7606 16.4571 45.9087 16.3027 46.0989 16.168C46.0901 16.1659 46.0768 16.1827 46.0658 16.1901C46.0187 15.9106 45.8418 16.1081 45.6583 16.2941Z" fill="#CD4D14"/>
<path d="M46.1444 16.1384C46.1997 16.1016 46.2661 16.0574 46.3258 16.0415C46.3057 15.9274 46.2373 16.0606 46.1444 16.1384Z" fill="#CD4D14"/>
<path d="M43.3732 16.9649C43.4884 16.9519 43.3195 16.7137 43.406 16.7438C43.3965 16.4632 42.9333 17.4094 43.3732 16.9649Z" fill="#CD4D14"/>
<path d="M46.0686 16.7871L45.9043 16.6096L45.8693 16.8401L46.0686 16.7871Z" fill="#CD4D14"/>
<path d="M44.4294 17.4399L44.7725 17.3308C44.7725 17.3308 44.7901 17.2554 44.8188 17.2123C44.6196 17.3052 44.3805 17.3688 44.4227 17.4284L44.4294 17.4399Z" fill="#CD4D14"/>
<path d="M44.8287 17.2141C44.9327 17.1687 45.03 17.1118 45.0631 17.0499C45.01 17.0773 44.8905 17.149 44.8287 17.2141Z" fill="#CD4D14"/>
<path d="M45.6647 17.0709L45.5517 17.0744L45.3216 17.18L45.6647 17.0709Z" fill="#CD4D14"/>
<path d="M41.1859 19.5286L40.9185 19.8343C40.9342 19.9274 41.0449 19.8935 41.1377 19.7759C41.1818 19.6668 41.2746 19.5492 41.1881 19.5192L41.1859 19.5286Z" fill="#CD4D14"/>
<path d="M42.4972 19.3963C42.382 19.4093 42.3553 19.3633 42.2578 19.3406L42.4046 19.5935L42.4972 19.3963Z" fill="#CD4D14"/>
<path d="M41.6061 20.0937C41.6218 20.1869 41.3104 20.6414 41.6664 20.3166C41.6507 20.2234 41.907 19.9251 41.6061 20.0937Z" fill="#CD4D14"/>
<path d="M37.0858 23.8146L37.1588 23.7421L36.8125 23.4229L37.0858 23.8146Z" fill="#CD4D14"/>
<path d="M35.0139 28.7019C35.3499 28.3824 34.8273 28.4596 35.1612 28.1893C35.121 28.0407 34.8848 28.4133 34.8623 28.2689C34.812 28.5654 34.6792 28.6538 35.0139 28.7019Z" fill="#CD4D14"/>
<path d="M34.8615 28.2688C34.8615 28.2688 34.8746 28.1724 34.8789 28.1138C34.8591 28.1987 34.8592 28.2385 34.8615 28.2688Z" fill="#CD4D14"/>
<path d="M35.8072 29.5527L35.4902 29.469L35.6988 29.617L35.8072 29.5527Z" fill="#CD4D14"/>
<path d="M35.2443 29.9587L35.1462 29.6575L34.994 29.9502C35.0648 29.9269 35.1932 29.8971 35.2532 29.9608L35.2443 29.9587Z" fill="#CD4D14"/>
<path d="M34.1617 44.6916L34.0908 44.7148C34.0445 44.7935 34.0778 44.851 34.1268 44.9619L34.1617 44.6916Z" fill="#CD4D14"/>
<path d="M36.2526 47.3863L36.2148 47.3477L36.1446 47.6495L36.2526 47.3863Z" fill="#CD4D14"/>
<path d="M38.7459 48.0854C38.6483 48.0627 38.5199 48.0925 38.4246 48.0603C38.6417 48.0512 38.7111 48.4353 38.7459 48.0854Z" fill="#CD4D14"/>
</g>
<defs>
<clipPath id="clip0_243_2891">
<rect width="51.0675" height="43.7848" fill="white" transform="translate(9.92578 0.161133) rotate(13.103)"/>
</clipPath>
</defs>
</svg>