<svg width="25" height="25" viewBox="0 0 25 25" fill="none" xmlns="http://www.w3.org/2000/svg">
<g id="icon/24/time">
<g id="Vector">
<path d="M13.9473 2.65258C13.9956 2.59995 13.9859 2.45258 13.8895 2.46311L13.793 2.69469L13.957 2.64206L13.9473 2.65258Z" fill="#CD4D14"/>
<path d="M13.3203 2.12627C13.1853 2.23153 13.0406 2.42101 13.0985 2.65258C13.2335 2.43153 13.2528 2.53679 13.4071 2.26311C13.5133 2.24206 13.5711 2.35785 13.5518 2.44206C13.5904 2.3789 13.6965 2.51574 13.7737 2.36837C13.6676 2.16837 13.494 2.13679 13.3107 2.27364C13.2817 2.22101 13.3107 2.15785 13.33 2.11574L13.3203 2.12627Z" fill="#CD4D14"/>
<path d="M3.97306 5.21048L4.04058 5.1789C4.04058 5.1789 3.99235 5.19995 3.97306 5.21048Z" fill="#CD4D14"/>
<path d="M1.42643 11.5368C1.42643 11.4842 1.40714 11.4631 1.38785 11.4526C1.38785 11.5052 1.40714 11.5473 1.42643 11.5368Z" fill="#CD4D14"/>
<path d="M1.14708 12.7368C1.14708 12.7368 1.14708 12.6842 1.15708 12.6631C1.13708 12.6947 1.12708 12.7157 1.14708 12.7368Z" fill="#CD4D14"/>
<path d="M3.97306 5.21048L3.80907 5.30522C3.8573 5.36837 3.90553 5.27364 3.97306 5.21048Z" fill="#CD4D14"/>
<path d="M11.9409 2.63153C11.9409 2.63153 11.9988 2.59995 12.0277 2.56837L11.9506 2.58943V2.63153H11.9409Z" fill="#CD4D14"/>
<path d="M6.04701 3.08416L6.09524 3.05258C6.09524 3.05258 6.09524 2.9789 6.09524 2.94732L6.05666 3.08416H6.04701Z" fill="#CD4D14"/>
<path d="M8.0438 2.05258C7.99557 2.05258 8.0438 2.26311 8.0438 2.35785C8.0438 2.26311 8.07274 2.221 8.10168 2.18943C8.09203 2.14732 8.07274 2.10522 8.03415 2.05258H8.0438Z" fill="#CD4D14"/>
<path d="M11.4682 1.78943L11.5261 1.75785C11.5261 1.75785 11.4875 1.7789 11.4682 1.78943Z" fill="#CD4D14"/>
<path d="M4.73512 4.05258C4.73512 4.05258 4.69653 4.02101 4.67724 4.01048C4.69653 4.03153 4.71582 4.04206 4.73512 4.05258Z" fill="#CD4D14"/>
<path d="M12.7227 1.70522C12.7227 1.70522 12.7227 1.68416 12.7227 1.67364C12.7127 1.69469 12.7027 1.70522 12.7227 1.70522Z" fill="#CD4D14"/>
<path d="M10.3203 0.684163L10.3589 0.673637V0.557847L10.3203 0.684163Z" fill="#CD4D14"/>
<path d="M1.11842 15.021C1.09842 14.9894 1.08842 14.9578 1.11842 15.021Z" fill="#CD4D14"/>
<path d="M16.166 23.3789C15.9055 23.2842 16.4168 23.0315 16.0502 22.9578C16.1081 23.021 15.8766 23.3578 16.166 23.3789Z" fill="#CD4D14"/>
<path d="M11.883 2.61048C11.883 2.61048 11.8251 2.61048 11.7962 2.61048C11.8348 2.61048 11.8637 2.61048 11.883 2.61048Z" fill="#CD4D14"/>
<path d="M16.0502 22.9473H16.0116C16.0309 22.9473 16.0406 22.9473 16.0502 22.9473Z" fill="#CD4D14"/>
<path d="M3.16277 19.7789C3.16277 19.7789 3.19171 19.7157 3.20135 19.6842C3.18206 19.6947 3.17242 19.7263 3.16277 19.7789Z" fill="#CD4D14"/>
<path d="M1.79299 16.2105V16.3052C1.79299 16.3052 1.79299 16.2315 1.79299 16.2105Z" fill="#CD4D14"/>
<path d="M4.61936 21.0736C4.61936 21.0736 4.63865 21.1578 4.70618 21.1789C4.70618 21.1684 4.70618 21.1578 4.70618 21.1473C4.66759 21.1473 4.63865 21.1473 4.61936 21.0736Z" fill="#CD4D14"/>
<path d="M6.15312 22.3052C6.15312 22.3052 6.15312 22.2631 6.14348 22.2526L6.0856 22.2315L6.15312 22.3157V22.3052Z" fill="#CD4D14"/>
<path d="M17.8155 2.65258C17.7962 2.58943 17.7962 2.51574 17.8059 2.45258C17.7866 2.59995 17.5261 2.55785 17.8155 2.65258Z" fill="#CD4D14"/>
<path d="M11.9409 2.51574C11.9409 2.51574 11.912 2.58943 11.8927 2.59995H11.9506C11.9506 2.59995 11.9506 2.52627 11.9506 2.51574H11.9409Z" fill="#CD4D14"/>
<path d="M5.67081 19.9052C5.72869 19.9789 5.77692 20.0526 5.84444 20.1157C5.79621 20.0526 5.73833 19.9684 5.67081 19.9052Z" fill="#CD4D14"/>
<path d="M22.8705 12.8947V12.821C22.8705 12.821 22.8505 12.8736 22.8705 12.8947Z" fill="#CD4D14"/>
<path d="M6.4618 20.6C6.4618 20.6947 6.4811 20.7578 6.51004 20.8105C6.52933 20.8105 6.54862 20.8 6.55827 20.7789C6.51968 20.7263 6.49074 20.6631 6.4618 20.6Z" fill="#CD4D14"/>
<path d="M15.9731 2.36837C16.2142 2.43153 16.1467 2.13679 16.2335 1.99995C16.5518 1.99995 16.33 2.23153 16.3975 2.38943C16.6001 2.36837 16.8026 2.15785 16.9377 2.22101C16.9377 2.26311 16.957 2.29469 16.9087 2.33679C17.1596 2.19995 17.4779 2.53679 17.7866 2.36837C17.7866 2.39995 17.7962 2.42101 17.7866 2.44206C17.7866 2.30522 17.8348 2.16837 17.8734 2.08416C17.9891 2.12627 18.1435 1.99995 18.1242 2.1789C18.0567 2.14732 18.0277 2.21048 17.9795 2.25258L18.1242 2.22101C18.1435 2.50522 17.9313 2.24206 17.8734 2.42101C18.1242 2.42101 18.4522 2.3789 18.5969 2.51574C18.539 2.75785 18.1821 2.39995 18.3171 2.71574L18.0952 2.49469C18.1531 2.95785 17.9506 2.38943 17.9795 2.87364C18.2785 3.10522 18.3846 2.93679 18.6837 3.16837C18.8187 3.08416 18.7415 2.96837 18.8766 2.88416C19.465 2.90522 18.9538 3.65258 19.4264 3.55785C19.5904 3.47364 19.7737 3.22101 19.928 3.52627L19.7062 3.70522C19.9859 3.92627 20.092 3.47364 20.2753 3.88416C20.1596 3.92627 20.0149 3.76837 20.0342 3.83153C20.092 4.16837 20.2464 3.81048 20.3911 3.93679L20.2753 4.15785C20.4296 4.26311 20.6129 4.34732 20.7962 4.45258C20.9698 4.56837 21.1435 4.68416 21.3075 4.83153C21.2399 4.86311 21.1435 4.86311 21.1531 4.98943C21.3846 5.13679 21.5486 5.3789 21.6644 5.64206C21.7898 5.90522 21.8959 6.16837 21.9441 6.44206L22.2046 6.51574C22.2046 6.51574 22.166 6.64206 22.1081 6.61048C22.137 6.83153 22.2239 6.55785 22.3396 6.61048C22.4071 6.70522 22.3107 6.79995 22.2239 6.76837C22.5325 6.98943 22.957 7.5789 22.8509 8.03153L22.7737 7.9789C22.7737 8.29469 23.2464 8.19995 23.1306 8.52627L23.0824 8.48416C23.1403 9.14732 23.3911 9.88416 23.0824 10.4105C23.3814 10.5052 22.957 11.0631 23.3428 11.1263C23.1113 11.4947 23.0631 11.3894 22.8798 11.8947C22.8412 12.0315 23.092 12.1473 23.1017 12.3263L22.8991 12.2947L23.0727 12.5789L22.8123 12.6526L22.8412 12.8315C22.8605 12.7684 22.957 12.7157 23.0149 12.7368C23.0631 13.021 22.7255 13.3263 22.6194 13.2947C22.6194 13.5052 22.6387 13.7263 22.629 13.9473C22.5518 13.9052 22.5615 13.8 22.5229 13.7052C22.6387 14.0947 22.301 13.6842 22.3975 14.0315C22.4554 14.0105 22.5036 14.0947 22.5422 14.1157C22.3782 14.2105 22.2624 14.5263 22.2335 14.7894L22.1178 14.6842C21.9152 15.0736 21.8284 15.5894 21.5776 16.0315C21.7223 15.9052 21.9248 16.0736 21.8669 16.221L21.6451 16.1578C21.7126 16.3157 21.7898 16.0631 21.838 16.3263C21.7223 16.4842 21.5583 16.3052 21.5486 16.1684L21.5004 16.4105C21.4329 16.3894 21.4329 16.3157 21.3653 16.2631C21.4329 16.421 20.9988 16.4842 21.1242 16.7368L21.0663 16.7052C20.7866 17.1157 20.7383 17.3578 20.5068 17.6947C20.6515 17.8315 20.5165 17.9263 20.5647 18.1263C20.3235 18.3157 20.0245 18.4947 19.7833 18.7473C19.6772 19 19.8509 18.9263 19.8509 19.0947C19.7158 18.9789 19.4843 19.2526 19.5229 19.021C19.2528 19.3684 19.166 19.4315 18.8477 19.9157C18.9345 19.9368 19.002 19.9157 19.0213 19.9894C18.9634 20.0842 18.8091 20.0842 18.7705 19.9894V19.9578C18.6354 20.2842 18.2689 20.3789 17.9409 20.4736C17.6129 20.5789 17.3042 20.6421 17.1885 20.9263V20.8947L16.8702 21.3263C16.6579 21.4105 16.928 21.1263 16.7351 21.1157C16.3878 21.6421 15.9731 21.4315 15.6547 21.8105C15.1821 21.3894 14.5551 22.2526 14.0342 21.9684L14.0824 22.0947C13.9956 22.2421 13.9377 22.0526 13.8509 22.0421C13.8798 22.1368 13.9956 22.1263 13.9377 22.221C13.4747 22.4315 12.9538 22.3894 12.4522 22.3789C11.9409 22.2947 11.4393 22.2105 10.9666 22.0947C10.6194 22.021 10.6965 22.7473 10.2721 22.3789L10.4264 22.1473C9.65473 22.3473 8.97949 21.8526 8.24637 21.821C8.30425 21.7789 8.32354 21.7157 8.39107 21.7368C8.2946 21.5368 7.87981 21.5263 7.83158 21.6421C7.73512 21.5789 7.85087 21.5052 7.82193 21.4105C7.72547 21.2526 7.3975 21.4421 7.38785 21.2526C7.38785 21.221 7.44573 21.221 7.47467 21.221C7.34926 21.2631 7.08881 20.9789 7.07917 21.2105C6.89589 20.9789 6.59685 21 6.47145 20.7894C6.23029 20.9052 6.17242 20.4105 5.95055 20.6421C6.15312 20.3789 5.71904 20.1473 5.51647 20.1157C5.61293 20.0842 5.47788 19.9263 5.60328 19.8736C5.46824 19.7368 5.30425 19.6526 5.21743 19.8C5.21743 19.2736 4.51325 19.4421 4.73512 18.9473C4.2528 18.5894 3.84766 18.1684 3.53897 17.6947C3.81872 17.5473 3.83801 18.2315 4.11775 18.021C3.78013 17.6421 3.37499 17.5052 3.24959 16.9789C3.23994 16.8315 3.39428 16.9894 3.4618 17.0105C3.30746 16.7894 3.22065 16.5473 3.13383 16.3157C3.06631 16.0736 2.98914 15.8421 2.84444 15.6421C2.87338 15.6421 2.91196 15.6736 2.95055 15.7157C2.91196 15.6315 2.93126 15.4947 2.79621 15.5473L2.85409 15.621C2.69975 15.8315 2.34283 15.3789 2.24637 15.3789C2.66116 15.4315 2.24637 14.8736 2.78656 15C2.74798 14.9473 2.67081 14.8842 2.58399 14.9157C2.58399 14.821 2.64187 14.7789 2.75762 14.8421C2.62258 14.5263 2.48753 14.6736 2.44894 14.3684C2.51647 14.3578 2.54541 14.4105 2.63222 14.4315C2.48753 14.3052 2.33319 14.1578 2.36213 13.8947C2.40071 13.8947 2.44894 13.8631 2.45859 13.9473C2.37177 13.5052 2.05344 13.2 2.14991 12.6842C2.44894 12.8315 2.23672 12.5157 2.49717 12.4842L2.42965 12.221L2.30425 12.3263C2.31389 12.0947 2.14026 11.8736 2.23672 11.6736L2.33319 11.8526C2.33319 11.7052 2.30425 11.5578 2.31389 11.4105C2.27531 11.4947 2.22708 11.5684 2.19814 11.6526C2.08238 11.4 1.87016 11.6526 1.97627 11.3368C1.99557 11.4105 2.00521 11.0947 2.1692 10.9894C2.10168 10.8631 2.03415 10.7263 2.12097 10.5578C2.20778 10.5263 2.39106 10.6526 2.44894 10.6315C2.25602 10.4736 2.50682 10.0842 2.31389 9.88416C2.35248 9.94732 2.48753 9.9789 2.51647 9.96837L2.37177 9.83153C2.44894 9.73679 2.47788 9.72627 2.57434 9.7789C2.68045 9.46311 2.23672 9.7789 2.46824 9.45258C2.46824 9.48416 2.49717 9.48416 2.50682 9.54732C2.69975 9.19995 2.60328 8.76837 2.82515 8.47364C3.09524 8.47364 2.76727 8.78943 3.00843 8.75785C3.15312 8.27364 3.11454 7.63153 3.41357 7.23153L3.34605 7.29469C3.07595 7.04206 3.65473 7.05258 3.64508 6.75785C3.63544 6.82101 3.77049 6.94732 3.74155 6.90522C3.9827 6.67364 4.01164 6.26311 4.2528 5.78943L4.28174 5.90522C4.46502 5.81048 4.63865 5.53679 4.80264 5.41048C4.78335 5.29469 4.87981 5.22101 4.73512 5.16837C5.14991 5.14732 5.30425 4.87364 5.47788 4.59995C5.66116 4.34732 5.84444 4.07364 6.18206 4.09469C6.13383 4.1368 6.10489 4.27364 6.14348 4.23153C6.24959 4.09469 6.37499 3.99995 6.49074 3.88416C6.37499 3.75785 6.38463 3.83153 6.23994 3.76837C6.23994 3.65258 6.32676 3.50522 6.43287 3.44206C6.29782 3.66311 6.55827 3.67364 6.68367 3.71574C6.64508 3.67364 6.64508 3.61048 6.61615 3.56837C6.96341 3.70522 6.50039 3.24206 6.89589 3.24206L6.91518 3.33679C7.01164 3.23153 7.07917 3.08416 7.21422 3.04206C7.33962 3.19995 7.1274 3.18943 7.17563 3.33679C7.34926 3.24206 7.38785 2.83153 7.61936 2.93679C7.56148 3.02101 7.45537 3.07364 7.3975 3.15785C7.65795 3.28416 7.6483 3.22101 7.79299 3.19995H7.78335C7.88946 3.18943 8.00521 3.16837 8.11132 3.1789L8.01486 3.14732C8.09203 2.58943 8.44894 2.90522 8.68045 2.47364C8.44894 2.88416 8.68045 2.66311 8.70939 2.89469C8.80586 2.92627 8.9409 2.95785 8.92161 3.03153C9.02772 2.79995 9.19171 3.10522 9.34605 2.81048C9.36534 2.88416 9.51004 2.78943 9.50039 2.96837C9.68367 2.87364 9.43287 2.85258 9.43287 2.76837C9.69332 2.46311 10.166 2.90522 10.5615 2.54732C10.928 2.3789 10.9859 2.11574 11.3428 1.9789C11.4682 2.09469 11.256 2.24206 11.256 2.24206C11.4586 2.34732 11.5936 2.32627 11.7866 2.24206C11.748 2.30522 11.7866 2.35785 11.8444 2.44206C11.9891 2.42101 11.9409 2.1789 12.1338 2.28416C12.0952 2.36837 12.0567 2.49469 11.9795 2.56837C12.1531 2.50522 12.3268 2.36837 12.51 2.30522C12.5486 2.43153 12.3943 2.49469 12.3268 2.5789C12.5293 2.51574 12.8477 2.50522 12.9248 2.30522L12.7994 2.22101C12.8766 2.22101 12.8284 2.39995 12.7705 2.42101C12.5872 2.55785 12.5293 2.32627 12.5197 2.25258C12.5679 2.23153 12.6065 2.23153 12.6547 2.22101C12.539 1.7789 12.1338 2.27364 11.883 2.25258L11.9988 1.94732L11.7287 2.19995C11.6708 2.11574 11.6322 1.94732 11.7576 1.90522C11.5647 1.74732 11.5936 2.01048 11.4296 1.84206C11.4104 1.81048 11.42 1.79995 11.4296 1.78943L11.2464 1.88416C11.285 1.82101 11.2078 1.66311 11.3235 1.71574C10.9763 1.55785 10.793 1.98943 10.6579 1.76837L10.6869 1.74732C10.2335 1.89469 10.6579 1.9789 10.3396 2.27364L10.0406 1.74732L10.0213 1.9789C9.97306 1.9789 9.8766 1.9789 9.88624 1.88416C9.7319 2.07364 9.92483 1.9789 9.84766 2.13679C9.58721 1.9789 9.24959 2.35785 9.13383 2.02101C9.0856 2.19995 9.37499 2.10522 9.16277 2.27364C9.01807 1.91574 8.89267 2.38943 8.66116 2.29469C8.67081 2.08416 8.89267 2.11574 8.65152 2.01048C8.61293 2.3789 8.23672 2.07364 8.07274 2.18943C8.14026 2.45258 7.72547 2.39995 7.48431 2.63153C7.47467 2.54732 6.90553 2.73679 6.6065 2.78943V2.74732C6.65473 3.02101 6.38463 3.12627 6.23029 3.29469C6.16277 3.14732 6.16277 3.07364 6.23029 2.94732L6.05666 3.06311C6.05666 3.16837 6.01807 3.24206 5.92161 3.33679L5.86373 3.13679C5.62258 3.28416 5.53576 3.67364 5.17885 3.7789C5.27531 3.93679 5.68045 4.03153 5.46824 4.35785C5.40071 4.28416 5.2946 4.15785 5.34283 4.06311C5.32354 4.09469 5.30425 4.19995 5.22708 4.19995L5.24637 3.96837C5.08238 4.01048 5.26566 4.13679 5.14991 4.19995C5.07274 4.08416 5.01486 4.1789 4.96663 4.07364C4.98592 4.04206 5.09203 4.05258 5.09203 3.9789C4.95698 4.04206 4.78335 4.10522 4.67724 4.06311C4.73512 4.11574 4.79299 4.21048 4.72547 4.30522C4.53254 4.50522 4.55184 4.24206 4.38785 4.30522C4.40714 4.43153 4.20457 4.48416 4.33962 4.64206C4.28174 4.69469 4.20457 4.64206 4.14669 4.62101C4.09846 4.78943 3.7319 5.16837 3.9827 5.18943L4.01164 5.16837V5.18943C3.8573 5.68416 3.32676 5.89469 3.14348 6.35785L3.0856 6.31574C2.97949 6.58943 2.8155 6.90522 2.84444 7.14732C2.80586 7.22101 2.65151 7.26311 2.59364 7.18943C2.53576 7.41048 2.59364 7.46311 2.37177 7.70522C2.35248 7.44206 2.24637 7.72627 2.37177 7.45258C2.21743 7.69469 2.09203 7.70522 2.14026 8.07364C2.02451 7.90522 1.86052 8.18943 1.86052 8.33679L2.0438 8.19995C2.00521 8.34732 1.95698 8.47364 1.8991 8.59995L1.70618 8.44206C1.26245 8.94732 1.84123 9.62101 1.32033 9.94732C1.44573 10.1368 1.49396 9.65258 1.6483 9.84206C1.56148 10.0947 1.18528 10.3157 1.17563 10.4C1.002 10.7578 1.45537 10.8105 1.32033 11.1894C1.40714 11.1473 1.61936 11.1368 1.66759 11.421C1.60971 11.6842 1.31068 11.7263 1.2528 11.5473C1.2528 11.4842 1.28174 11.4526 1.31068 11.4526C1.29139 11.3578 1.27209 11.2421 1.17563 11.3368L1.2528 11.3789C1.14669 11.5052 1.15634 11.8947 1.02129 11.7894C1.08881 12.0105 1.14669 11.8842 1.19492 11.7368C1.06952 12.0842 1.16598 12.2947 1.08881 12.6631C1.1274 12.6 1.22386 12.5473 1.22386 12.6105C1.14669 13.1473 1.38785 12.8421 1.43608 13.2C1.32033 13.4105 1.13705 13.1473 1.26245 13.5052C1.18528 13.7368 1.05023 13.5684 0.982704 13.4842C1.14669 13.8105 0.953766 14.1263 0.934473 14.3263L0.847656 14.1578C0.895888 14.2631 0.905534 14.3473 0.91518 14.4421L1.05987 14.3157C1.04058 14.421 1.05987 14.5157 0.992351 14.5263C1.10811 14.6105 1.24315 14.4 1.41679 14.5894C1.34926 14.7473 1.58078 14.9789 1.3782 15.0736C1.35891 14.6315 1.17563 15.1684 1.06952 14.8105C1.10811 14.8736 1.1274 14.9578 1.11775 15.0736C1.09846 15.0947 1.06952 15.0736 1.05023 15.0421C0.953766 15.5052 1.32997 15.1789 1.40714 15.6C1.28174 15.5789 1.20457 15.7578 1.24315 15.821C1.20457 15.6421 1.41679 15.6842 1.54219 15.821C1.53254 16.1157 1.69653 16.0842 1.72547 16.221V16.0526C1.85087 16.0631 1.87016 16.2 1.96663 16.3684C1.87981 16.421 1.86052 16.2315 1.84123 16.3052C2.10168 16.4315 1.75441 16.8421 2.00521 17.0631C1.97627 17.221 1.80264 17.1684 1.79299 17.3052C2.06309 17.5473 1.7737 17.7157 2.02451 17.9894C2.13061 17.8105 2.08238 17.8315 2.33319 17.9684C2.20778 17.821 2.12097 17.6526 2.00521 17.4947L2.35248 17.7263C2.2946 17.5684 2.13061 17.4421 2.11132 17.3263C2.2946 17.4315 2.25602 17.4315 2.34283 17.2947C2.20778 17.621 2.63222 17.6526 2.61293 17.9684L2.25602 18.1578C2.2946 18.621 2.74798 18.7157 2.95055 19.2105L2.92161 19.021C3.09524 18.9894 3.11454 19.2842 3.25923 19.3789C3.14348 19.4526 3.16277 19.5684 3.13383 19.6842C3.20135 19.621 3.34605 20.0105 3.58721 19.8631V20.1684C3.80907 20.5578 4.16598 20.2842 4.40714 20.5894C4.22386 20.621 4.28174 20.821 4.02129 20.7052C4.11775 20.8 4.18528 20.9052 4.2528 20.8421C4.2528 20.9684 4.63865 20.9684 4.63865 21.1578C4.71582 21.1578 4.82193 21.0526 4.9184 21.1578C4.9184 21.1894 4.87981 21.2105 4.87981 21.2105C4.92804 21.1578 5.11132 21.2842 5.11132 21.0736C5.15955 21.6842 5.96984 21.7578 6.0856 22.2421C6.34605 22.3578 6.64508 22.5052 6.88624 22.6C6.8573 22.6315 6.8573 22.6631 6.81872 22.6315C7.07917 22.9157 7.17563 22.3473 7.46502 22.6631C7.56148 22.9684 7.23351 22.6842 7.31068 22.821C7.19492 23.2947 7.76406 22.9684 7.93769 23.3052H7.87016C8.02451 23.5368 8.40071 23.3052 8.69975 23.4526C8.69975 23.4526 8.67081 23.4947 8.68045 23.5263C8.9602 23.3473 9.38463 23.3578 9.70296 23.3578C9.57756 23.5157 9.54862 23.421 9.57756 23.621C9.72225 23.621 9.58721 23.3157 9.86695 23.3263C9.94412 23.4421 10.1274 23.5473 10.1274 23.7578L9.8573 23.7368C9.95377 24.0105 10.2046 23.7684 10.3396 23.8315L10.3107 23.9473C10.7255 23.9473 10.7544 23.6736 11.1885 23.7368L11.1499 23.6526C11.4007 23.3684 11.3428 23.8105 11.584 23.6L11.6515 23.8947C11.8155 23.821 12.2014 23.621 12.4714 23.5578C12.3268 23.7894 11.9988 23.8842 11.7866 24.0105C11.9409 24.0105 12.3268 23.9894 12.4039 23.8526C12.346 23.8842 12.2689 23.9473 12.2014 23.9052C12.3846 23.6842 12.6258 23.5368 12.9345 23.5157C12.9345 24.0736 13.7544 23.6 14.0342 23.9473C14.5551 23.6315 15.1531 23.8 15.7801 23.5263C15.4329 23.1894 15.9634 23.4526 15.7801 23.0421C15.9152 22.9684 15.9731 22.9578 15.9924 22.9789C16.166 23.0105 16.33 23.021 16.5036 23.0421C16.6483 23.1157 16.4071 23.2 16.4554 23.2842C16.7833 23.1684 16.6483 23.4 16.9087 23.4105C16.8123 23.2842 16.9377 23.1473 17.1403 23.1157L16.8123 23.0421C17.1499 22.621 17.3428 23.2315 17.6708 22.7578L17.5936 22.9684C17.7769 22.7578 18.4039 22.4947 18.4329 22.0526C18.4907 22.0736 18.5969 22.1368 18.5293 22.2315C19.0502 21.9157 19.3975 21.1368 19.8509 20.9789L19.8798 21.0947C19.9473 20.9894 19.8991 20.8105 20.0727 20.8C20.092 20.8421 20.1017 20.9157 20.1499 20.8842C20.1692 20.8105 20.256 20.5473 20.3911 20.4736V20.6631C20.8734 20.3263 20.8251 19.7894 21.076 19.3684C21.2978 19.5894 21.6547 19.2842 21.838 19.1368L21.8669 19.1684C22.3203 18.621 22.3589 18.021 22.5808 17.4105C22.8123 17.3263 23.0052 17.0421 23.1981 16.7263C23.3718 16.3894 23.5261 16.021 23.748 15.7578C23.6612 15.8315 23.5454 15.6421 23.5647 15.5263C23.6708 15.4 23.5165 15.0421 23.7576 15.1789L23.7383 15.2315C24.0277 15.2315 24.0663 14.8947 24.1531 14.6631L23.8251 14.4947C24.5197 14.0315 24.0567 12.8105 24.5486 12.5578C24.4811 12.3789 24.5197 12.1894 24.4522 12.021L24.6451 12.0526C24.7223 11.6105 24.7705 11.3894 24.7512 10.8315L24.8862 10.9473C24.8959 10.621 24.3268 10.5473 24.3075 10.2736L24.5872 10.1789C24.5872 9.64206 24.7223 9.05258 24.4136 8.55785C24.4522 8.55785 24.539 8.55785 24.5583 8.64206C24.5293 8.38943 24.5197 7.61048 24.1724 7.81048C24.4232 7.72627 24.0663 7.25258 23.8444 7.03153L24.0374 6.99995C23.7287 6.86311 23.6708 6.88416 23.4875 6.59995C23.4875 6.51574 23.6033 6.46311 23.5936 6.58943C23.5936 6.29469 23.3525 6.48416 23.3042 6.14732L23.4682 6.18943C23.3621 5.93679 23.3139 5.98943 23.121 5.93679C22.9763 5.83153 22.9377 5.46311 23.0534 5.32627C22.9473 5.35785 22.7448 5.32627 22.7062 5.15785C22.7448 5.10522 22.8123 5.12627 22.8412 5.1368C22.6869 4.68416 22.3107 4.72627 22.2528 4.36837C22.2914 4.31574 22.3107 4.28416 22.301 4.25258C22.5325 4.52627 22.6676 4.78943 22.6387 4.76837C22.7737 4.65258 22.6387 4.38943 22.957 4.42101C22.7255 4.29469 22.2624 4.18943 22.1274 3.92627C22.1274 3.90522 22.1274 3.88416 22.1467 3.85258H22.1756C22.1467 3.79995 22.0985 3.76837 22.0406 3.74732C22.002 3.66311 21.9731 3.59995 21.9248 3.52627C22.002 3.38943 21.7512 3.21048 21.6451 3.11574C21.5293 3.28416 21.4136 3.13679 21.4329 3.3789C21.4329 3.35785 21.4715 3.3789 21.539 3.43153C21.5583 3.43153 21.5776 3.45258 21.5969 3.45258H21.5776C21.6451 3.51574 21.7319 3.61048 21.8284 3.71574C21.6837 3.71574 21.5583 3.68416 21.5197 3.49469C21.3846 3.54732 21.2399 3.59995 21.1724 3.62101C21.211 3.28416 21.0181 2.91574 21.076 2.73679C20.6997 2.51574 20.2078 2.21048 19.8219 2.38943C19.7062 2.36837 19.7641 2.22101 19.7544 2.13679C19.8316 2.13679 19.8991 2.18943 19.9473 2.16837C19.7062 2.10522 19.33 1.84206 19.166 2.06311C18.9538 1.82101 19.4168 1.91574 19.0406 1.76837L19.1178 1.71574C18.5486 0.915742 17.719 1.84206 17.0824 1.01048C17.1306 1.06311 17.1499 1.09469 17.1499 1.13679C16.7158 0.873637 16.2046 0.821005 15.7126 0.726268C15.211 0.66311 14.7287 0.631531 14.2657 0.357847C14.0052 0.242058 13.957 0.399952 13.7833 0.526268L13.7448 0.305216L13.4457 0.547321C13.0406 0.715742 12.7801 -0.0421528 12.2592 0.284163L12.3171 0.442058C12.1338 0.399952 11.7383 0.536795 11.7769 0.357847C11.7576 0.389426 11.719 0.515742 11.6419 0.442058V0.326268L11.1885 0.536795C10.8412 0.46311 11.2367 0.0736367 10.7255 0.0631104C10.5325 0.115742 10.2046 0.410479 10.2721 0.484163C10.3493 0.484163 10.465 0.557847 10.4747 0.673637L10.3107 0.736795C10.2914 1.08416 10.1853 1.43153 10.6001 1.66311L10.8798 1.45258L10.9763 1.62101H10.7351C10.8702 1.78943 10.957 1.65258 11.0534 1.55785C11.0824 1.64206 11.121 1.70522 11.1788 1.73679L11.4489 1.39995C11.4875 1.53679 11.3235 1.67364 11.5165 1.73679C11.6419 1.5789 11.3911 1.44206 11.6033 1.33679C11.7383 1.49469 11.6997 1.62101 11.8541 1.48416C11.8734 1.56837 11.8444 1.63153 11.7769 1.67364C11.9216 1.56837 12.1531 1.62101 12.2206 1.44206C12.3557 1.64206 12.6933 1.42101 12.674 1.74732C12.7223 1.67364 12.9345 1.50522 13.0599 1.50522C12.7994 1.87364 13.5422 1.55785 13.4457 1.96837C13.6483 1.62101 14.0727 1.86311 14.4007 1.72627C14.3814 1.74732 14.3428 1.79995 14.3139 1.7789C14.4779 1.83153 14.5165 1.94732 14.6129 2.03153C14.6708 1.74732 14.9505 1.72627 15.1242 1.56837C15.2882 1.87364 14.9409 1.88416 14.9698 2.15785C14.9891 1.92627 15.3653 1.9789 15.3268 1.7789C15.4522 1.9789 15.4522 1.89469 15.4907 2.14732C15.5776 1.79995 15.6451 2.12627 15.8187 1.93679C16.0116 2.16837 15.8091 2.28416 16.0792 2.23153C16.1756 2.36837 15.9248 2.44206 15.9248 2.44206L15.9731 2.36837ZM21.3653 4.79995C21.3653 4.79995 21.2978 4.73679 21.2689 4.71574C21.2882 4.73679 21.3171 4.75785 21.3653 4.79995ZM21.703 5.19995C21.674 5.13679 21.6354 5.07364 21.5679 5.01048C21.6065 4.94732 21.674 4.91574 21.703 4.95785C21.6547 4.95785 21.703 5.09469 21.703 5.19995ZM21.8766 3.30522C21.9634 3.35785 21.9538 3.41048 21.9345 3.45258C21.9055 3.42101 21.8573 3.38943 21.8091 3.34732H21.7898C21.7898 3.34732 21.8477 3.31574 21.8766 3.30522Z" fill="#CD4D14"/>
<path d="M21.5969 3.39995C21.5969 3.39995 21.5776 3.39995 21.5583 3.38943C21.5583 3.41048 21.5583 3.44206 21.5679 3.46311L21.6354 3.43153L21.5969 3.39995Z" fill="#CD4D14"/>
<path d="M4.05023 5.16837H4.04058C4.04058 5.16837 4.05987 5.16837 4.07917 5.16837C4.06952 5.16837 4.05987 5.16837 4.05023 5.16837Z" fill="#CD4D14"/>
<path d="M22.8798 12.2842L22.928 12.2947L22.8991 12.2421L22.8798 12.2842Z" fill="#CD4D14"/>
<path d="M6.72225 3.73679C6.72225 3.73679 6.75119 3.75785 6.78013 3.76837C6.78013 3.75785 6.75119 3.74732 6.72225 3.73679Z" fill="#CD4D14"/>
<path d="M7.84123 3.21025H8.02451C7.94733 3.20025 7.88946 3.21025 7.84123 3.21025Z" fill="#CD4D14"/>
<path d="M8.75762 2.98943C8.75762 2.98943 8.75762 2.92627 8.75762 2.89469V2.98943Z" fill="#CD4D14"/>
<path d="M2.98914 15.7263C2.98914 15.7263 2.99878 15.7473 3.00843 15.7578C3.06631 15.8315 3.03737 15.7789 2.98914 15.7263Z" fill="#CD4D14"/>
<path d="M2.20778 11.021C2.23672 11.0736 2.26566 11.1368 2.27531 11.1894C2.30425 11.1052 2.31389 11.0421 2.20778 11.021Z" fill="#CD4D14"/>
<path d="M2.24637 11.4105C2.2946 11.3263 2.2946 11.2526 2.27531 11.1894C2.25602 11.2631 2.22708 11.3368 2.24637 11.4105Z" fill="#CD4D14"/>
<path d="M12.7705 2.68416H12.8187C12.8187 2.68416 12.8187 2.67364 12.8187 2.66311L12.7705 2.68416Z" fill="#CD4D14"/>
<path d="M12.8284 2.66311L12.8766 2.64206C12.8766 2.64206 12.838 2.64206 12.8284 2.66311Z" fill="#CD4D14"/>
<path d="M12.9924 2.59995L12.8862 2.64206C12.8862 2.64206 12.9634 2.66311 12.9924 2.59995Z" fill="#CD4D14"/>
<path d="M11.5358 2.55785V2.63153C11.5358 2.63153 11.5358 2.58943 11.5358 2.55785Z" fill="#CD4D14"/>
<path d="M11.1596 2.58943C11.2464 2.58943 11.3911 2.72627 11.5165 2.68416V2.62101C11.4682 2.72627 11.2464 2.44206 11.1596 2.5789V2.58943Z" fill="#CD4D14"/>
<path d="M9.44251 1.89469H9.78013C9.71261 1.82101 9.61615 1.72627 9.77049 1.67364C9.30746 1.52627 9.88624 1.83153 9.44251 1.89469Z" fill="#CD4D14"/>
<path d="M8.39107 2.04206C8.55505 1.94732 8.36213 1.92627 8.35248 1.88416C8.25602 1.98943 8.23672 2.02101 8.39107 2.04206Z" fill="#CD4D14"/>
<path d="M2.5647 7.22101L2.42 7.11574C2.37177 7.26311 2.47788 7.14732 2.5647 7.22101Z" fill="#CD4D14"/>
<path d="M2.82515 9.01048L2.96984 8.92627L2.83479 8.79995L2.82515 9.01048Z" fill="#CD4D14"/>
<path d="M1.4075 9.50522L1.3975 9.43153V9.71574L1.4075 9.50522Z" fill="#CD4D14"/>
<path d="M5.76727 22.2631L5.84444 22.0421C5.73833 22.021 5.59364 22.2315 5.76727 22.2631Z" fill="#CD4D14"/>
<path d="M11.1788 23.8526C11.2367 23.9684 11.3911 24.0421 11.4875 23.9263C11.3621 23.9052 11.2367 23.821 11.1788 23.8526Z" fill="#CD4D14"/>
<path d="M24.211 14.2315L24.2399 14.3789L24.2496 14.1263L24.211 14.2315Z" fill="#CD4D14"/>
<path d="M12.4618 1.86311C12.4618 1.86311 12.6837 1.82101 12.7223 1.81048C12.674 1.86311 12.3943 1.87364 12.4618 1.86311Z" fill="#CD4D14"/>
<path d="M11.9698 2.41048L12.0663 2.38943L11.8348 2.49469L11.9698 2.41048Z" fill="#CD4D14"/>
<path d="M12.0181 2.86311C11.6033 2.86311 12.0663 2.69469 11.912 2.63153H11.8155L12.1435 2.55785C12.1049 2.66311 11.8927 2.81048 12.0181 2.87364V2.86311Z" fill="#CD4D14"/>
<path d="M12.9345 2.98943C12.7705 2.98943 12.7994 3.06311 12.8766 2.93679C12.8959 2.93679 12.9055 2.93679 12.9152 2.93679C12.9152 2.93679 12.9152 2.95785 12.9248 2.9789L12.9345 2.98943Z" fill="#CD4D14"/>
<path d="M12.8477 3.16837L12.9827 3.08416C13.0792 3.08416 13.1081 3.13679 13.1756 3.10522C13.1081 3.1789 13.0116 3.1789 12.8477 3.15785V3.16837Z" fill="#CD4D14"/>
<path d="M12.5583 3.26311L12.6161 3.22101C12.6161 3.22101 12.674 3.22101 12.5583 3.26311Z" fill="#CD4D14"/>
<path d="M12.7319 3.14732L12.6161 3.23153C12.5486 3.23153 12.4136 3.24206 12.6547 3.18943C12.5293 3.21048 12.6547 3.18943 12.7319 3.14732Z" fill="#CD4D14"/>
<path d="M12.6644 3.11574C12.5679 3.09469 12.51 3.05258 12.375 3.13679C12.4232 3.01048 12.7126 2.98943 12.6644 3.11574Z" fill="#CD4D14"/>
<path d="M11.6033 2.93679L11.4779 2.90522L11.6129 2.85258C11.5454 2.88416 11.7287 2.92627 11.6129 2.93679H11.6033Z" fill="#CD4D14"/>
<path d="M13.1081 3.53679C13.0213 3.54732 12.8766 3.53679 12.7608 3.55785L12.8573 3.49469C12.9152 3.51574 12.9827 3.54732 13.1081 3.53679Z" fill="#CD4D14"/>
<path d="M12.7608 3.54732L12.6161 3.63153C12.5969 3.56837 12.6644 3.54732 12.7608 3.54732Z" fill="#CD4D14"/>
<path d="M12.1049 3.33679L12.4039 3.1789L12.1049 3.35785V3.33679Z" fill="#CD4D14"/>
<path d="M13.1467 3.78943L13.3396 3.72627L13.0406 3.83153L13.1467 3.78943Z" fill="#CD4D14"/>
<path d="M13.1274 3.96837C13.2914 3.91574 13.4168 3.96837 13.5133 3.92627C13.4843 3.9789 13.3493 4.03153 13.2239 4.08416C13.2914 4.03153 13.2721 3.99995 13.1274 3.95785V3.96837Z" fill="#CD4D14"/>
<path d="M13.0406 4.1789C13.0406 4.1789 13.1467 4.12627 13.2239 4.09469C13.1853 4.11574 13.137 4.14732 13.0406 4.1789Z" fill="#CD4D14"/>
<path d="M12.6644 3.74732C12.7223 3.74732 12.8573 3.74732 12.9152 3.76837H12.6644V3.74732Z" fill="#CD4D14"/>
<path d="M12.6644 3.7789L12.6837 3.83153C12.6837 3.83153 12.674 3.81048 12.6547 3.7789H12.6644Z" fill="#CD4D14"/>
<path d="M12.346 3.48416C12.211 3.53679 12.076 3.64206 11.8541 3.58943C12.0181 3.53679 12.1435 3.56837 12.346 3.48416Z" fill="#CD4D14"/>
<path d="M12.3557 3.74732L12.2882 3.68416C12.3557 3.68416 12.4522 3.68416 12.5197 3.65258L12.3557 3.74732Z" fill="#CD4D14"/>
<path d="M12.2785 3.78943L12.3557 3.74732L12.3846 3.76837L12.2785 3.78943Z" fill="#CD4D14"/>
<path d="M12.7994 4.08416C12.6933 4.12627 12.6933 4.16837 12.674 4.21048C12.6258 4.1789 12.5872 4.13679 12.5872 4.09469C12.6644 4.08416 12.7994 4.04206 12.7994 4.09469V4.08416Z" fill="#CD4D14"/>
<path d="M12.7133 3.93679H12.7033C12.7033 3.93679 12.6733 3.93679 12.7133 3.93679Z" fill="#CD4D14"/>
<path d="M12.7126 4.5889H12.674L12.7126 4.5789V4.5889Z" fill="#CD4D14"/>
<path d="M12.539 4.08416C12.4907 4.06311 12.539 4.03153 12.6161 3.99995C12.5969 4.03153 12.5776 4.05258 12.5776 4.08416C12.539 4.08416 12.5197 4.08416 12.5293 4.08416H12.539Z" fill="#CD4D14"/>
<path d="M12.9345 4.29469C12.8766 4.29469 12.838 4.27364 12.7898 4.25258C12.8669 4.25258 12.9924 4.27364 12.9345 4.29469Z" fill="#CD4D14"/>
<path d="M12.7705 3.94732H12.7801C12.838 3.94732 12.8091 3.94732 12.7705 3.94732Z" fill="#CD4D14"/>
<path d="M12.7705 3.94732C12.7705 3.94732 12.674 3.98943 12.6258 4.01048C12.6451 3.98943 12.6644 3.96837 12.703 3.94732C12.7223 3.94732 12.7512 3.94732 12.7705 3.94732Z" fill="#CD4D14"/>
<path d="M11.1499 4.89469C11.3814 4.86311 11.5743 4.74732 11.3235 4.71574C11.4875 4.62101 12.2399 4.5789 12.6644 4.58943C12.5679 4.59995 12.4715 4.61048 12.346 4.70522C12.2206 4.70522 12.0374 4.5789 11.8348 4.66311C11.7287 4.76837 11.9216 4.72627 12.047 4.75785C11.7576 4.75785 11.6515 4.92627 11.2271 4.95785L11.3621 4.85258C11.2946 4.85258 11.1981 4.90522 11.1306 4.88416L11.1499 4.89469Z" fill="#CD4D14"/>
<path d="M12.6354 4.45258L12.6644 4.421C12.6644 4.421 12.7994 4.46311 12.9827 4.48416C12.8766 4.54732 12.7898 4.56837 12.7223 4.5789L12.674 4.43153H12.6451L12.6354 4.45258Z" fill="#CD4D14"/>
<path d="M12.6451 4.28416C12.4039 4.3368 12.2978 4.42101 12.0277 4.41048C12.0277 4.32627 12.2303 4.32627 12.3268 4.26311C12.2785 4.41048 12.4618 4.21048 12.6161 4.29469C12.6547 4.26311 12.6644 4.23153 12.674 4.21048C12.703 4.23153 12.7512 4.25258 12.7994 4.27364H12.7801C12.7801 4.27364 12.7319 4.27364 12.7512 4.27364C12.7512 4.27364 12.6837 4.29469 12.6547 4.29469C12.7126 4.32627 12.7223 4.29469 12.7512 4.27364H12.7898L12.6644 4.43153C12.6644 4.43153 12.6258 4.36837 12.6547 4.29469L12.6451 4.28416Z" fill="#CD4D14"/>
<path d="M11.3332 3.73679C11.3332 3.73679 11.3718 3.73679 11.3911 3.73679C11.3621 3.74679 11.3428 3.75679 11.3332 3.73679Z" fill="#CD4D14"/>
<path d="M11.4875 3.76837C11.4875 3.76837 11.6226 3.73679 11.5936 3.70522C11.5165 3.68416 11.4779 3.71574 11.3911 3.72627C11.4586 3.69469 11.5647 3.63153 11.6901 3.68416H11.6612C11.748 3.74732 12.0663 3.7789 12.1049 3.76837C11.883 3.7789 11.719 3.78943 11.4972 3.76837H11.4875Z" fill="#CD4D14"/>
<path d="M11.9988 4.04206L11.8927 4.1789L11.6708 4.14732H11.7962C11.7383 4.07364 11.9023 4.07364 11.9988 4.05258V4.04206Z" fill="#CD4D14"/>
<path d="M12.838 4.58943L13.0985 4.53679L12.7415 4.65258L12.838 4.58943Z" fill="#CD4D14"/>
<path d="M12.8284 4.73679L13.0502 4.70522L12.9248 4.76837L12.8284 4.73679Z" fill="#CD4D14"/>
<path d="M12.5872 14.0842V14.1578C12.5872 14.1578 12.5872 14.1052 12.5872 14.0842Z" fill="#CD4D14"/>
<path d="M12.375 13.9684L12.4329 13.8631C12.4136 13.9263 12.3943 13.9684 12.375 13.9684Z" fill="#CD4D14"/>
<path d="M13.1949 8.48416C13.4168 8.50522 13.7448 8.52627 13.494 8.54732L13.2432 8.56837C13.2432 8.56837 13.2528 8.50522 13.1949 8.48416Z" fill="#CD4D14"/>
<path d="M11.9698 11.2421H11.8927C11.9795 11.2105 12.047 11.1789 12.1242 11.1473C12.076 11.1789 12.0277 11.2105 11.9698 11.2421Z" fill="#CD4D14"/>
<path d="M10.9666 11.6105L11.1306 11.6526C11.0727 11.6526 11.0149 11.6421 10.9666 11.6105Z" fill="#CD4D14"/>
<path d="M13.5229 15.0421L13.4264 15.3052C13.3782 15.2736 13.465 15.1684 13.5229 15.0421Z" fill="#CD4D14"/>
<path d="M12.8959 6.31574C13.002 6.34732 13.0406 6.3789 13.0599 6.39995C12.9152 6.36837 12.6933 6.34732 12.8959 6.31574Z" fill="#CD4D14"/>
<path d="M13.8798 11.5368C13.8798 11.5894 13.8509 11.6421 13.8219 11.6947C13.8219 11.6421 13.8412 11.5894 13.8798 11.5368Z" fill="#CD4D14"/>
<path d="M13.0695 6.52627C13.0695 6.52627 13.0309 6.52627 13.0116 6.51574C13.0502 6.47364 13.0792 6.44206 13.0599 6.41048C13.166 6.43153 13.2432 6.47364 13.0695 6.53679V6.52627Z" fill="#CD4D14"/>
<path d="M17.5261 17.4105C17.5261 17.4105 17.5358 17.4 17.5551 17.3894C17.5358 17.421 17.5358 17.421 17.5261 17.4105Z" fill="#CD4D14"/>
<path d="M19.9763 15.7894C19.9763 15.7894 19.957 15.7578 19.9377 15.7368C19.957 15.7263 19.9666 15.7368 19.9763 15.7894Z" fill="#CD4D14"/>
<path d="M11.9988 5.30522C11.9988 5.30522 11.9409 5.32627 11.883 5.3368C11.9409 5.3368 11.9795 5.31574 11.9988 5.30522Z" fill="#CD4D14"/>
<path d="M11.5551 7.04206C11.5165 7.04206 11.5068 7.04206 11.5551 7.04206Z" fill="#CD4D14"/>
<path d="M12.8766 5.30522C12.8766 5.30522 12.9345 5.32627 12.9538 5.3368C12.9345 5.3368 12.9055 5.32627 12.8766 5.30522Z" fill="#CD4D14"/>
<path d="M13.002 5.29469C13.002 5.29469 12.9827 5.27364 12.9731 5.27364C13.0116 5.27364 13.0406 5.27364 13.002 5.29469Z" fill="#CD4D14"/>
<path d="M12.9924 5.38943C12.9924 5.38943 12.9827 5.35785 12.9634 5.33679C12.9827 5.33679 12.9924 5.33679 13.002 5.33679C13.002 5.33679 13.002 5.35785 13.002 5.3789L12.9924 5.38943Z" fill="#CD4D14"/>
<path d="M15.79 15.4105C15.79 15.4105 15.8 15.4105 15.81 15.3894C15.78 15.5052 15.78 15.4842 15.79 15.4105Z" fill="#CD4D14"/>
<path d="M10.5133 9.78943C10.8219 9.70522 10.7737 9.67364 10.7062 9.65259L11.4297 9.59995L10.5133 9.78943Z" fill="#CD4D14"/>
<path d="M13.0213 14.4631L12.838 14.6315C12.7223 15.0315 12.838 14.9473 12.6258 15.2C13.0213 14.4631 12.4136 14.9578 12.8187 14.221L12.6933 14.3473C12.6933 14.3473 12.6933 14.3894 12.703 14.3894C12.4232 14.6842 12.9345 13.821 12.7705 13.8526C12.703 13.8842 12.6161 13.9789 12.5969 14.0736L12.6161 13.8421C12.6161 13.8421 12.5197 13.9684 12.5486 13.9789L12.4522 13.8421V13.8631C12.4907 13.7368 12.539 13.5263 12.5486 13.4315C12.4425 13.5052 12.5293 13.5263 12.4618 13.6105V13.3684C12.3075 13.5263 12.2882 13.7578 12.375 13.7894C11.8444 14.4421 12.3943 13.5578 11.9023 13.8105L11.9506 13.9684C11.6129 14.3157 11.6129 14.1052 11.285 14.2526C11.4296 14.1578 11.9988 13.8315 11.9891 13.5789C11.9216 13.6105 11.8541 13.6 11.8927 13.4315C11.7094 13.6631 11.6805 13.5684 11.6129 13.4947L11.3525 13.8C11.3332 13.6526 11.4779 13.5052 11.5551 13.3368C11.4296 13.3052 11.1885 13.5052 10.9763 13.6736C10.7641 13.6105 11.4489 13.4 11.3139 13.221C11.0727 13.2421 11.092 13.0631 11.1499 12.821C10.9473 12.8526 10.957 12.9789 10.8316 13.0315L11.0245 12.7789C11.0245 12.7789 11.0149 12.7789 11.0052 12.7789C10.9763 12.7789 10.9184 12.8315 10.8798 12.8631C10.9763 12.7052 11.2271 12.6105 11.3042 12.4315C11.6901 12.1684 10.7158 12.5263 11.1403 12.1263C11.0342 12.1368 10.928 12.2526 10.7833 12.3157C11.0534 11.9473 10.9763 12.021 11.3525 11.6947L11.1017 11.6526C11.3814 11.6526 11.6901 11.4 11.9409 11.2421C12.076 11.221 12.1917 11.2105 12.2496 11.2L12.4329 11.0315C12.375 11.0315 12.2496 11.0736 12.0952 11.1473C12.1242 11.1263 12.1531 11.1157 12.1821 11.1052C12.047 11.1052 11.8348 11.1684 11.6419 11.2631C11.719 11.2631 11.7962 11.2631 11.8734 11.2526C11.6612 11.3473 11.42 11.4736 11.2078 11.5368C11.2464 11.5157 11.285 11.4736 11.2946 11.4526C11.2367 11.4842 11.1885 11.5052 11.1499 11.5157C11.1113 11.5157 11.1885 11.4736 11.2753 11.421L10.8702 11.4947L11.0342 11.4421C10.9377 11.3789 10.8509 11.3157 10.7544 11.2526C11.1403 10.9684 11.7383 10.8105 11.8927 10.6C11.5936 10.6842 11.4007 10.6736 11.0438 10.7157C11.4296 10.7157 10.8991 10.8842 10.9859 10.9789C10.9377 10.9368 10.7737 10.9684 10.7158 10.9789L11.0438 10.7578C10.7544 10.8 10.8219 10.7473 10.6965 10.7157C11.2753 10.6842 11.0631 10.5368 11.2367 10.4421C11.0438 10.4631 10.8509 10.5052 10.8991 10.5894C10.4554 10.5473 11.5647 10.3789 11.1885 10.3263C11.1885 10.3473 11.2174 10.3578 11.121 10.3789C11.285 10.3052 11.1403 10.2 10.9763 10.2526V10.2736C10.8895 10.1368 10.928 9.84206 11.4104 9.75785C11.3428 9.75785 10.8219 9.85258 10.7255 9.87364L12.346 9.41048C11.9313 9.48416 10.9184 9.52627 10.6965 9.67364C10.629 9.64206 10.5615 9.61048 10.6965 9.52627C10.7544 9.54732 11.3139 9.50522 11.3428 9.47364C10.8702 9.44206 11.0824 9.44206 10.6772 9.38943C10.7737 9.41048 11.4296 9.29469 11.4007 9.24206C11.3042 9.26311 10.7544 9.31574 10.6869 9.34732L11.3235 9.12627C11.2078 9.1789 10.7737 9.19995 10.5904 9.18943C10.7158 9.18943 10.5711 9.07364 10.629 9.03153L10.7833 9.07364C10.6676 8.92627 11.6805 8.81048 11.6226 8.65258C11.4875 8.68416 10.8026 8.79995 10.7158 8.7368C11.0438 8.66311 12.2882 8.3789 12.5293 8.21048H12.3364L12.539 8.07364C12.047 8.19995 11.0149 8.51574 10.6194 8.66311C10.465 8.621 10.3975 8.67364 10.4071 8.58943C10.2239 8.58943 10.1467 8.67364 10.137 8.69469L10.002 8.50522C10.3878 8.46311 10.3782 8.30522 10.6965 8.27364L10.3203 8.54732C10.7062 8.50522 11.4007 8.28416 11.3235 8.14732C11.1692 8.12627 10.6387 8.26311 10.5133 8.27364C10.6483 8.24206 10.7544 8.10522 10.6579 8.10522L10.4554 8.18943C10.301 8.12627 10.957 7.99995 10.5711 7.94732C10.5422 7.91574 10.0599 7.91574 10.2914 7.87364C10.7351 7.87364 12.1049 7.71574 12.4329 7.63153C12.4039 7.63153 11.9891 7.50522 11.7673 7.49469C11.42 7.48416 10.9473 7.68416 10.6483 7.67364C10.7544 7.66311 10.8798 7.61048 10.9184 7.58943C10.8219 7.56837 10.5904 7.64206 10.629 7.56837C11.0149 7.50522 10.5808 7.42101 10.957 7.49469C11.0631 7.41048 10.8702 7.43153 10.8798 7.33679C11.1403 7.33679 11.7287 7.14732 11.8348 7.06311C11.7383 7.08416 11.6033 7.08416 11.5454 7.07364C11.4972 6.92627 11.3042 6.86311 11.285 6.72627C11.1885 6.72627 11.0631 6.67364 10.8991 6.72627C10.9666 6.69469 11.1017 6.66311 11.1017 6.62101C10.7544 6.5789 11.0631 6.72627 10.6483 6.71574C10.8798 6.68416 10.9473 6.56837 11.0824 6.48416C11.4393 6.46311 11.1692 6.62101 11.0342 6.69469C11.5165 6.63153 12.0181 6.46311 12.2206 6.28416C12.3268 6.14732 11.9023 6.27364 11.9698 6.24206C11.8637 6.03153 12.7994 5.94732 12.4232 5.81048C12.1049 5.7789 11.8059 5.88416 11.584 5.89469C11.4779 5.99995 11.7962 6.02101 11.7866 6.08416L11.6322 6.02101C11.5358 6.06311 11.4586 6.13679 11.5551 6.15785C11.2753 6.13679 11.4586 5.78943 11.1885 5.65258C11.285 5.61048 11.3911 5.54732 11.5165 5.55785L11.4779 5.62101C11.7287 5.64206 11.8155 5.47364 11.9313 5.52627C12.0952 5.43153 12.3653 5.31574 12.211 5.23153L11.8541 5.25258C11.9602 5.24206 12.0663 5.29469 11.9698 5.33679C12.1242 5.27364 11.4779 5.24206 11.9313 5.13679L12.1821 5.1789C12.3557 5.08416 12.7126 4.94732 12.5969 4.87364C12.9538 4.87364 12.5583 4.89469 12.9731 4.91574C12.4618 4.91574 13.0213 5.14732 12.4811 5.11574C12.9634 5.11574 12.6933 5.19995 13.1081 5.24206C12.9924 5.25258 12.8862 5.24206 12.9441 5.30522C12.9152 5.30522 12.8669 5.32627 12.8477 5.33679H12.838C12.8187 5.33679 12.8187 5.33679 12.838 5.33679C12.7801 5.32627 12.7223 5.31574 12.6547 5.31574C12.3943 5.38943 12.4136 5.50522 12.2785 5.56837C12.3364 5.61048 12.4136 5.5368 12.539 5.5368L12.3364 5.62101C12.5969 5.59995 12.7801 5.68416 12.9152 5.55785L12.9345 5.65258C13.0888 5.69469 13.1467 5.75785 13.0502 5.82101C13.1081 5.86311 12.7801 5.96837 12.9731 5.90522L12.8284 6.07364H12.8959C12.9441 6.21048 12.5004 6.42101 12.9827 6.53679C12.9248 6.58943 12.8477 6.65258 12.9345 6.72627H13.1563C13.0888 6.78943 13.3975 6.87364 13.166 6.93679C13.7737 6.93679 13.33 7.23153 13.4457 7.32627L13.1563 7.36837C13.1853 7.44206 13.1081 7.52627 13.002 7.64206L12.7415 7.66311C12.539 7.76837 12.9441 7.85258 12.9345 7.98943C13.0309 7.96837 13.002 7.93679 12.9345 7.92627C13.5325 8.01048 12.5486 8.30522 12.9827 8.39995C12.8959 8.44206 12.9248 8.46311 12.9924 8.48416C12.9924 8.48416 12.9924 8.48416 13.002 8.48416C13.002 8.48416 13.002 8.48416 13.002 8.49469C13.0502 8.49469 13.0985 8.51574 13.1467 8.52627C13.0792 8.52627 13.0309 8.51574 13.002 8.50522C13.002 8.53679 12.9731 8.5789 12.9152 8.63153L13.1949 8.61048C13.301 8.64206 13.0695 8.66311 12.8573 8.66311C12.8187 8.68416 12.7608 8.71574 12.6933 8.7368C13.1467 8.71574 12.5583 8.86311 13.0309 8.84206C12.7994 8.89469 12.8766 9.06311 12.3943 9.14732C12.4618 9.14732 12.4907 9.14732 12.4907 9.12627C12.5486 9.16837 12.6161 9.19995 12.4811 9.26311L12.838 9.24206L12.375 9.39995C12.5969 9.43153 12.7223 9.44206 12.9924 9.34732C12.5872 9.54732 12.8477 9.48416 12.4522 9.65258L12.6837 9.62101C12.6837 9.62101 12.3846 9.76837 12.5679 9.7789C13.0116 9.82101 12.674 10.2526 13.1081 10.4526C12.4329 10.4842 13.4168 10.5263 12.9055 10.6105C13.0695 10.6105 13.1563 10.6315 13.2914 10.5684C13.1563 10.7368 13.5615 10.6842 13.1274 10.8C13.2817 10.7684 13.3589 10.7473 13.4554 10.7368C13.4168 10.7368 13.3203 10.7789 13.4168 10.7684C13.5133 10.7578 13.5518 10.7368 13.6194 10.7157C13.6001 10.7473 13.1178 10.8842 12.6644 11.0105C12.8862 11 12.8573 11.0105 12.5679 11.1473C12.7126 11.1157 12.8766 11.0842 12.9152 11.021C12.9441 11.0526 13.1467 11.0842 12.7898 11.2526C12.8766 11.221 12.8187 11.2842 12.7898 11.3052C12.8187 11.3578 12.8477 11.3473 12.8284 11.4315H12.7705C12.346 11.7263 12.6837 11.5684 12.6354 11.6526L12.674 11.621C12.674 11.621 12.7415 11.6105 12.7608 11.6C12.9248 11.5578 12.6161 11.7473 12.9731 11.5894L12.7223 11.7789C12.2303 12.2105 13.1178 11.5894 12.9827 11.7894L12.838 11.8947C12.7223 12.0842 13.5422 11.3263 13.6001 11.2631C13.6387 11.221 13.6579 11.1894 13.6772 11.1578C13.9666 10.8947 13.4264 11.4526 13.4071 11.5473C13.5422 11.3894 13.7351 11.1263 13.7833 11.1157C13.8798 10.9789 13.4554 11.7157 13.7158 11.4C13.629 11.5368 13.5325 11.6631 13.494 11.7789C13.494 11.8421 13.9473 11.3473 13.7544 11.8315C13.7833 11.8 13.8123 11.7684 13.8316 11.7263C13.8123 11.8736 13.8895 12.021 13.7833 12.2842C14.3235 11.421 13.8412 12.9157 14.3042 12.0947L14.4297 12.2421L14.4682 12.1578C14.5936 12.1578 14.5165 12.3894 14.4393 12.6105C14.4972 12.5684 14.5165 12.4842 14.5454 12.4315C14.7769 12.3578 14.7769 12.4 14.6612 12.8947L14.8251 12.6315C14.7673 12.8105 15.2592 12.3473 15.2206 12.7473C15.2399 12.7157 15.2592 12.6631 15.2689 12.621C15.2496 13.0421 16.0502 12.1263 15.5679 13.1368L15.539 13.4421C15.3653 13.4315 15.3268 13.8736 15.1821 14C15.2014 14.0947 15.4811 13.7894 15.4425 13.7052L15.4039 13.7473C15.6644 13.221 15.6644 13.6736 15.8573 13.3263C16.0985 13.5263 16.5133 13.4105 16.7641 13.5473L16.5133 13.9263L16.6097 13.9578C16.6869 13.8842 16.8123 13.6631 16.7448 13.6421C16.8991 13.4421 16.7448 13.8947 16.6965 13.9789C16.8991 13.8947 16.9088 13.4842 16.9473 13.5052L16.9763 13.5684L16.9377 13.6105C16.8895 13.8 16.793 13.9684 16.8798 14C16.9666 13.9473 17.0342 13.7684 17.0631 13.7684C17.0824 13.7368 17.092 13.7263 17.1017 13.7684L17.2271 13.8105L17.0149 14.0947C16.9763 14.2842 17.121 14.1473 16.8798 14.4631C17.256 13.9684 17.3911 14.5263 17.5261 14.3894C17.4682 14.6631 17.5261 14.6947 17.6322 14.7263C17.5743 14.7789 17.3718 15.1263 17.4682 15.1263C17.8444 14.3894 17.7673 14.8947 18.1145 14.4105C17.8734 14.7263 18.2689 14.6315 17.912 15.0631C17.9988 15.0421 18.0663 14.7894 18.2014 14.6526C18.1821 15.021 18.6065 14.6736 18.7319 14.8842C18.6837 14.9789 18.5776 15.1052 18.5293 15.2736L18.8862 14.8526C18.8862 14.9263 18.6161 15.421 18.8573 15.1368C18.8091 15.2105 18.7223 15.3263 18.7319 15.3684C19.3203 15.1263 19.2142 16.2 20.0342 15.5578C19.8895 15.7157 19.9087 15.7473 19.9377 15.7789C19.8895 15.8105 19.8123 16.0105 19.7351 16.1368L20.0727 15.8736C19.8991 16.2526 20.2174 16 20.0342 16.3473V16.2526C19.8605 16.6947 19.4457 17.0947 19.166 17.621C19.3493 17.1157 18.6161 18.1789 18.8669 17.4526C18.7801 17.5473 18.7994 17.6315 18.7126 17.7473C18.8091 17.5052 18.7994 17.4421 18.6837 17.4947L18.6644 17.5578C18.5197 17.3894 18.3171 17.5578 18.0374 17.5684L18.1917 17.3263C18.1338 17.3263 18.076 17.4105 18.0181 17.4631C18.1821 17.0421 18.1531 17.5157 18.346 17.0631C17.9988 17.5473 18.0374 16.8736 17.6708 17.4421C17.6033 17.4 17.8541 17.1578 17.7866 17.1157L17.6805 17.2631L17.7769 17.0421C17.719 17.0421 17.584 17.2315 17.5068 17.3684C17.5261 17.3684 17.5068 17.421 17.5165 17.4421C17.3525 17.5894 17.3911 17.2736 17.3428 17.3263L17.4586 17.2736C17.3621 17.0105 17.0245 17.0736 17.0342 16.6315L17.1113 16.5157C17.1113 16.2 16.928 16.5789 16.8412 16.3789V16.4105C16.8702 16.2736 16.8605 16.1894 16.8123 16.1684C16.7737 16.3368 16.5904 16.4 16.5518 16.5894C16.5422 16.2526 16.5808 16.3578 16.7351 15.8421L16.6001 16.0315C16.6676 15.8315 16.7158 15.7263 16.6772 15.6315C16.6387 15.8421 16.465 15.9052 16.4071 16.1789C16.0116 16.5157 16.4264 15.5894 16.002 16.1789C16.2432 15.5789 16.301 15.9578 16.33 15.8105C16.465 15.6526 16.5036 15.3578 16.4264 15.3789C16.3686 15.3578 15.9538 16.0315 15.838 15.9473C15.8477 15.9473 15.838 16 15.838 16C15.7126 16.1157 15.8573 15.7473 15.674 15.9473C15.8284 15.5894 15.5872 15.9157 15.8187 15.4842L15.8766 15.6526C15.8766 15.4947 16.0888 14.9578 15.8573 15.1368C15.8187 15.2315 15.7898 15.3578 15.7705 15.4421C15.674 15.5473 15.7608 15.3157 15.6547 15.4315C15.4232 15.8631 15.7415 15.6105 15.6258 15.9894C15.4907 16.1473 15.6644 15.5894 15.4425 16.0842C15.7223 15.4631 15.2785 16.0842 15.4425 15.5789L15.3075 15.8421C15.3075 15.8421 15.3557 15.6526 15.3268 15.6421L15.1821 16C15.2689 15.6736 14.912 16.1684 14.9409 15.9684C15.076 16.0631 15.1435 15.6736 15.2978 15.5263C15.3171 15.0736 14.8348 16.1368 14.7094 15.8947C14.7094 15.9473 14.8927 15.8 14.912 15.6631C14.8444 15.6947 14.748 15.7578 14.6515 15.8842C14.5551 15.7473 14.8155 15.6315 14.8541 15.4421C14.6419 15.7263 14.8637 15.2736 14.8637 15.1368L14.719 15.4C14.4875 15.4736 14.9795 14.8315 14.748 14.9473L14.6033 15.3473V15.2105L14.4393 15.5157C14.4875 15.2526 14.4393 15.2947 14.3235 15.3263C14.4393 15.1578 14.5743 14.8421 14.5165 14.8C14.3911 14.9263 14.4007 15.0631 14.3332 14.9684C14.2657 15.1473 14.1692 15.3684 14.3332 15.1473C14.2946 15.2421 14.256 15.3263 14.2174 15.4105C14.0727 15.5578 14.0824 15.3789 14.0534 15.3473C14.0727 15.3473 14.092 15.3473 14.121 15.3052L14.1981 14.8631C14.121 14.9473 14.092 15.0421 14.0727 15.1263C14.0631 15.0842 14.1113 14.9473 14.0824 14.9052C13.9763 15.1263 13.8509 15.3368 13.8509 15.4736V15.1578C13.8026 15.2421 13.6579 15.3684 13.629 15.4631C13.494 15.5473 13.6869 14.9473 13.5133 15.0526C13.5325 15.0105 13.5422 14.9578 13.5422 14.9157C13.4361 14.9157 13.2142 15.1157 13.2721 14.7684L13.002 15.1157C12.9731 14.9789 13.3396 14.6842 13.2914 14.4631C13.2624 14.2842 13.0792 14.7684 12.9827 14.8526C13.0406 14.6315 13.1756 14.1894 12.9248 14.4421C12.9152 14.5368 12.9634 14.4947 12.9731 14.5368L13.0213 14.4631ZM12.0084 13.5684C12.0084 13.6421 11.9505 13.8315 12.076 13.7052C12.2303 13.4 12.1242 13.5263 12.0084 13.5684ZM11.4296 11.1789C11.3428 11.221 11.3911 11.2526 11.4972 11.2631C11.5165 11.2315 11.4972 11.2 11.4296 11.1789ZM12.8187 5.72627C12.8187 5.72627 12.8187 5.72627 12.8091 5.72627C12.9248 5.76837 12.8766 5.74732 12.8187 5.72627ZM12.6837 5.63153C12.6837 5.63153 12.7608 5.61048 12.7994 5.61048C12.7319 5.63153 12.7319 5.65258 12.7512 5.67364C12.674 5.67364 12.6258 5.67364 12.6837 5.63153ZM17.0342 13.8315L16.9763 13.8842C16.9763 13.9894 16.9956 13.9052 17.0342 13.8315Z" fill="#CD4D14"/>
<path d="M11.0824 11.5578C11.0824 11.5578 11.1788 11.5368 11.2271 11.5263C11.1788 11.5578 11.1306 11.5684 11.0824 11.5578Z" fill="#CD4D14"/>
<path d="M10.5036 7.61048C10.5036 7.61048 10.6001 7.63153 10.6483 7.63153C10.5808 7.63153 10.5229 7.63153 10.5036 7.61048Z" fill="#CD4D14"/>
<path d="M13.0888 4.98943L13.0213 5.06311C13.0213 5.06311 12.9731 5.02101 12.9248 5.01048C12.9924 5.01048 13.0888 5.01048 13.0888 4.9789V4.98943Z" fill="#CD4D14"/>
<path d="M11.3139 4.59995C11.3139 4.59995 11.3139 4.5789 11.3525 4.56837H11.4779C11.4779 4.56837 11.3718 4.64206 11.3139 4.59995Z" fill="#CD4D14"/>
<path d="M12.1628 5.04206C11.9313 5.06311 11.9988 5.01048 12.0374 4.95785C12.3653 4.91574 12.2592 4.9789 12.1531 5.04206H12.1628Z" fill="#CD4D14"/>
<path d="M12.047 4.94732C12.047 4.94732 12.0567 4.91574 12.047 4.90522C12.1724 4.88416 12.076 4.91574 12.047 4.94732Z" fill="#CD4D14"/>
<path d="M12.8187 5.47364C12.7608 5.46311 13.1178 5.42101 13.0213 5.42101C13.3107 5.35785 12.674 5.62101 12.8187 5.47364Z" fill="#CD4D14"/>
<path d="M11.3911 5.09469L11.6805 5.07364L11.4489 5.1368L11.3911 5.09469Z" fill="#CD4D14"/>
<path d="M11.6419 5.45258L11.5551 5.38943C11.6033 5.38943 11.6322 5.36837 11.6515 5.35785C11.6708 5.39995 11.7287 5.45258 11.6515 5.46311L11.6419 5.45258Z" fill="#CD4D14"/>
<path d="M11.6515 5.35785C11.6515 5.35785 11.6515 5.30522 11.6901 5.28416C11.6901 5.29469 11.6901 5.32627 11.6515 5.35785Z" fill="#CD4D14"/>
<path d="M11.3139 5.21048L11.3718 5.23153L11.4007 5.28416L11.3139 5.21048Z" fill="#CD4D14"/>
<path d="M11.7866 6.29469L11.7094 6.38943C11.6129 6.41048 11.5454 6.38943 11.584 6.35785C11.6515 6.32627 11.6901 6.29469 11.7866 6.29469Z" fill="#CD4D14"/>
<path d="M10.9666 6.13679C11.0245 6.14732 11.092 6.13679 11.1885 6.13679L10.8316 6.1789L10.9666 6.12627V6.13679Z" fill="#CD4D14"/>
<path d="M10.9087 6.38943C10.8123 6.41048 10.6387 6.54732 10.6483 6.44206C10.7448 6.42101 10.8219 6.32627 10.9087 6.38943Z" fill="#CD4D14"/>
<path d="M11.4972 7.62101V7.59995L12.0856 7.52627L11.4972 7.62101Z" fill="#CD4D14"/>
<path d="M10.2142 8.9368C10.0599 8.85258 10.5711 8.86311 10.3878 8.79995C10.5229 8.75785 10.5422 8.85258 10.6579 8.82101C10.5133 8.90522 10.6001 8.92627 10.2142 8.94732V8.9368Z" fill="#CD4D14"/>
<path d="M10.6579 8.81048C10.6579 8.81048 10.7062 8.78943 10.7448 8.76837C10.7062 8.78943 10.6869 8.79995 10.6579 8.81048Z" fill="#CD4D14"/>
<path d="M20.3235 15.621L20.4393 15.5368L20.3042 15.6947L20.3235 15.621Z" fill="#CD4D14"/>
<path d="M20.1981 16.0947L20.4007 15.7473L20.256 16.0842C20.256 16.0842 20.256 16.021 20.1981 16.0842V16.0947Z" fill="#CD4D14"/>
<path d="M11.256 14.0315L11.3139 13.9578C11.4007 13.8842 11.42 13.8947 11.4779 13.9157L11.256 14.0421V14.0315Z" fill="#CD4D14"/>
<path d="M12.4618 14.4631H12.4425L12.6451 14.1684L12.4618 14.4631Z" fill="#CD4D14"/>
<path d="M12.8187 15.2526C12.8187 15.2526 12.7994 15.1578 12.7705 15.1578C12.7898 15.2526 13.0502 14.8631 12.8187 15.2526Z" fill="#CD4D14"/>
</g>
</g>
</svg>
