<svg width="100%" height="100%" viewBox="0 0 159 9" fill="none" xmlns="http://www.w3.org/2000/svg">
  <g clip-path="url(#clip0_423_52529)">
    <path d="M158.794 7.48818C159.023 7.5795 158.966 7.34613 159.006 7.31569C158.611 7.24467 158.8 7.53892 158.794 7.48818Z" fill="#CD4D14"/>
    <path d="M154.904 6.7982L154.978 6.72717L154.395 6.7982H154.904Z" fill="#CD4D14"/>
    <path d="M151.305 5.89514C151.619 6.34159 152.615 6.15895 153.244 6.4532L153.342 6.56481L153.656 6.35174C152.872 6.19954 151.848 6.13866 151.305 5.90529V5.89514Z" fill="#CD4D14"/>
    <path d="M149.434 4.71814C149.543 4.88048 149.011 4.74858 149.88 4.85005C149.84 4.81961 149.829 4.80946 149.8 4.79931C149.72 4.77902 149.617 4.75873 149.434 4.71814Z" fill="#CD4D14"/>
    <path d="M149.799 4.80946C149.559 4.63697 150.182 4.88048 149.799 4.80946V4.80946Z" fill="#CD4D14"/>
    <path d="M148.038 4.5254L148.547 4.50511C148.45 4.40364 148.003 4.29203 148.169 4.26159C147.649 4.221 147.752 4.33262 148.038 4.5254Z" fill="#CD4D14"/>
    <path d="M147.545 4.68775H147.808C147.762 4.64716 147.699 4.61672 147.545 4.68775Z" fill="#CD4D14"/>
    <path d="M148.369 4.69788H147.814C147.883 4.7689 147.883 4.89066 148.072 4.70802C148.02 4.80949 148.135 4.72832 148.375 4.69788H148.369Z" fill="#CD4D14"/>
    <path d="M148.678 4.80945C148.952 4.94135 149.313 5.07326 148.804 5.09355C149.765 5.2356 149.639 4.96165 148.678 4.80945Z" fill="#CD4D14"/>
    <path d="M151.092 6.22994L151.458 6.42273L151.79 6.38214C151.624 6.40243 151.075 6.10818 151.092 6.22994Z" fill="#CD4D14"/>
    <path d="M144.926 3.77455C144.892 3.84558 145.086 4.00792 145.115 4.10939L145.492 4.07895C145.304 3.99778 144.949 3.88616 144.926 3.7644V3.77455Z" fill="#CD4D14"/>
    <path d="M145.113 4.10938L144.553 4.14996C145.045 4.25143 145.142 4.20069 145.113 4.10938Z" fill="#CD4D14"/>
    <path d="M147.431 5.07325L148.358 4.98193L147.26 5.04281L147.431 5.07325Z" fill="#CD4D14"/>
    <path d="M142.803 3.40925L143.129 3.27734L142.557 3.44984L142.803 3.40925Z" fill="#CD4D14"/>
    <path d="M141.394 3.21652C141.634 3.1049 141.085 2.92227 141.337 2.87153C140.954 2.84109 140.622 2.92227 140.324 3.00344C140.639 2.98315 140.971 3.04402 141.394 3.22666V3.21652Z" fill="#CD4D14"/>
    <path d="M139.822 3.09475C139.982 3.08461 140.143 3.04402 140.326 2.99329C140.16 3.00343 139.994 3.03387 139.822 3.09475Z" fill="#CD4D14"/>
    <path d="M143.609 3.94696C143.569 3.89623 143.495 3.75418 143.186 3.65271L143.392 3.90637C143.46 3.91652 143.535 3.93681 143.609 3.94696Z" fill="#CD4D14"/>
    <path d="M143.397 3.91653H143.391C143.156 3.8658 142.991 3.83536 142.922 3.81506C142.985 3.82521 143.128 3.85565 143.402 3.91653H143.397Z" fill="#CD4D14"/>
    <path d="M143.667 3.95715C143.667 3.95715 143.632 3.95715 143.609 3.95715C143.627 3.97745 143.644 3.98759 143.667 3.95715Z" fill="#CD4D14"/>
    <path d="M145.995 4.6167C145.663 4.67758 144.976 4.69787 145.623 4.99212C145.863 4.88051 145.497 4.71816 145.995 4.6167Z" fill="#CD4D14"/>
    <path d="M143.918 4.27167L144.501 4.42386C144.496 4.36298 144.393 4.26152 144.553 4.23108L143.912 4.27167H143.918Z" fill="#CD4D14"/>
    <path d="M143.627 4.29197L143.919 4.27168L143.701 4.22095L143.627 4.29197Z" fill="#CD4D14"/>
    <path d="M140.823 3.4397C140.566 3.50058 140.285 3.47014 139.971 3.4397C140.308 3.53102 140.652 3.60204 140.983 3.64263C141.035 3.58175 141.184 3.48028 140.823 3.4397Z" fill="#CD4D14"/>
    <path d="M142.077 3.6731C142.077 3.6731 142.037 3.6731 142.02 3.6731C142.054 3.69339 142.083 3.70354 142.077 3.6731Z" fill="#CD4D14"/>
    <path d="M136.875 3.00342L136.921 3.044L136.938 3.01356L136.875 3.00342Z" fill="#CD4D14"/>
    <path d="M141.041 3.69331C141.292 3.77448 141.447 3.7339 141.596 3.69331C141.407 3.69331 141.201 3.67302 140.989 3.64258C140.966 3.67302 140.961 3.69331 141.046 3.69331H141.041Z" fill="#CD4D14"/>
    <path d="M138.957 3.07437C139.089 3.13525 139.237 3.19613 139.392 3.25701C139.266 3.16569 139.009 3.02364 138.957 3.07437Z" fill="#CD4D14"/>
    <path d="M141.932 3.60202H141.972C141.892 3.54114 141.898 3.56144 141.932 3.60202Z" fill="#CD4D14"/>
    <path d="M141.933 3.60205C141.802 3.6122 141.699 3.65278 141.59 3.68322C141.744 3.68322 141.887 3.68322 142.013 3.67308C141.985 3.65278 141.95 3.62234 141.933 3.60205Z" fill="#CD4D14"/>
    <path d="M135.88 4.28183C135.932 4.08904 136.607 3.96728 137.173 4.26153C137.746 4.19051 137.402 3.48025 136.922 3.04395C136.899 3.12512 136.899 3.20629 136.31 3.25702C136.51 3.37878 137.591 3.67303 137.093 3.79479C136.321 3.79479 136.464 3.65274 136.092 3.50054C136.401 3.78464 135.097 3.7542 135.251 4.13977L135.932 4.08904C135.943 4.14992 135.692 4.2108 135.88 4.28183Z" fill="#CD4D14"/>
    <path d="M138.03 3.22662H138.27C138.002 3.16574 137.807 3.05413 137.452 2.8512C137.052 2.89178 136.966 2.95266 136.932 3.02369L138.11 3.21647L138.024 3.23677L138.03 3.22662Z" fill="#CD4D14"/>
    <path d="M139.347 3.37876C139.153 3.57155 138.569 3.58169 138.912 3.8658C139.616 3.94697 139.41 3.75418 139.839 3.7136C138.701 3.61213 140.171 3.64257 139.359 3.39905C139.582 3.39905 139.782 3.4092 139.977 3.42949C139.771 3.37876 139.576 3.31788 139.393 3.24686C139.404 3.24686 139.41 3.257 139.416 3.26715C139.462 3.29759 139.479 3.31788 139.427 3.29759C139.427 3.29759 139.41 3.29759 139.404 3.29759C139.393 3.32803 139.376 3.34832 139.347 3.36861C139.021 3.2773 139.296 3.30773 139.404 3.29759C139.404 3.28744 139.416 3.2773 139.422 3.26715L138.277 3.22656C138.518 3.28744 138.821 3.32803 139.353 3.37876H139.347Z" fill="#CD4D14"/>
    <path d="M144.987 5.35739C144.953 5.3371 144.953 5.3168 144.953 5.29651C144.878 5.30666 144.85 5.32695 144.987 5.35739Z" fill="#CD4D14"/>
    <path d="M144.53 5.14433C144.616 5.12404 144.69 5.05301 144.953 5.12404C145.182 5.2255 144.948 5.2255 144.953 5.29653C145.119 5.26609 145.526 5.23565 145.028 5.04287L144.948 5.06316C144.496 4.91096 143.924 4.54568 144.004 4.52539C144.124 4.74861 144.238 4.90081 144.53 5.14433Z" fill="#CD4D14"/>
    <path d="M141.911 4.27176L140.961 4.25146L141.436 4.50513L141.419 4.39352C141.956 4.51528 141.842 4.35293 141.916 4.2819L141.911 4.27176Z" fill="#CD4D14"/>
    <path d="M136.773 2.88166L136.904 2.66858L136.344 2.93239L136.773 2.88166Z" fill="#CD4D14"/>
    <path d="M135.536 2.77006L135.594 2.57727L135.262 2.65844L135.536 2.77006Z" fill="#CD4D14"/>
    <path d="M66.0264 2.79028L65.7461 2.85116C65.8777 2.83087 65.9635 2.81058 66.0264 2.79028Z" fill="#CD4D14"/>
    <path d="M68.0391 2.75991L68.0906 2.65845C67.9991 2.71933 67.959 2.75991 68.0391 2.75991Z" fill="#CD4D14"/>
    <path d="M105.281 0.578368C104.874 0.375437 104.428 0.07104 104.474 0.294264L104.594 0.517489C104.88 0.487049 105.098 0.517489 105.281 0.578368Z" fill="#CD4D14"/>
    <path d="M84.5527 1.48141C84.5928 1.5017 84.6328 1.52199 84.6729 1.55243C84.7702 1.48141 84.8617 1.41038 84.9475 1.33936C84.8274 1.37994 84.6958 1.43067 84.5527 1.48141Z" fill="#CD4D14"/>
    <path d="M84.2665 2.39462L83.7344 2.25256C83.8545 2.3033 84.0262 2.35403 84.2665 2.39462Z" fill="#CD4D14"/>
    <path d="M55.0235 3.30774L54.7031 3.54111C55.2123 3.52082 54.9835 3.41935 55.0235 3.30774Z" fill="#CD4D14"/>
    <path d="M122.926 1.62346C122.577 1.51185 122.303 1.45097 122.057 1.42053C122.474 1.58288 122.812 1.79596 122.926 1.62346Z" fill="#CD4D14"/>
    <path d="M66.8048 0.436279C66.6331 0.476866 66.5645 0.527598 66.5645 0.578331C66.7418 0.537745 66.8391 0.497159 66.8048 0.436279Z" fill="#CD4D14"/>
    <path d="M121.043 1.34955C121.106 1.36985 121.163 1.39014 121.226 1.41043C121.484 1.39014 121.741 1.37999 122.056 1.42058C121.747 1.29882 121.392 1.21765 121.043 1.33941V1.34955Z" fill="#CD4D14"/>
    <path d="M15.139 5.6719C15.1104 5.6719 15.076 5.66176 15.0474 5.65161C15.0417 5.68205 15.0817 5.68205 15.139 5.6719Z" fill="#CD4D14"/>
    <path d="M3.43945 5.15447C3.55388 5.11389 3.74269 5.0733 3.91434 5.03271C3.82851 5.03271 3.68548 5.06315 3.43945 5.15447Z" fill="#CD4D14"/>
    <path d="M130.588 2.12067C130.628 2.10038 130.851 2.13082 130.588 2.12067V2.12067Z" fill="#CD4D14"/>
    <path d="M131.829 3.11499C131.772 3.13528 131.732 3.15558 131.721 3.20631C131.744 3.15558 131.784 3.12514 131.829 3.11499Z" fill="#CD4D14"/>
    <path d="M118.412 2.53662C118.412 2.53662 118.4 2.53662 118.389 2.53662C118.463 2.58735 118.452 2.57721 118.412 2.53662Z" fill="#CD4D14"/>
    <path d="M130.976 2.25259C130.879 2.212 130.765 2.18156 130.645 2.15112C130.696 2.17142 130.799 2.20186 130.976 2.25259Z" fill="#CD4D14"/>
    <path d="M130.93 2.1511C131.021 2.1714 131.09 2.18154 131.159 2.19169C131.193 2.16125 131.164 2.13081 130.93 2.1511Z" fill="#CD4D14"/>
    <path d="M130.221 2.10034C130.369 2.11049 130.507 2.13078 130.644 2.16122C130.593 2.14093 130.57 2.13078 130.587 2.12063C130.512 2.12063 130.404 2.11049 130.221 2.10034Z" fill="#CD4D14"/>
    <path d="M36.4856 3.38895C36.4856 3.38895 36.4513 3.3788 36.4284 3.36865C36.1652 3.48026 36.2796 3.44982 36.4856 3.38895Z" fill="#CD4D14"/>
    <path d="M98.4607 2.65845C98.4607 2.65845 98.478 2.65845 98.4896 2.65845C98.478 2.65845 98.4608 2.65845 98.4492 2.65845L98.4607 2.67874V2.65845Z" fill="#CD4D14"/>
    <path d="M97.5234 2.80048C97.9239 2.53667 98.1528 2.57726 98.456 2.63813L98.1528 1.9989L97.5292 2.80048H97.5234Z" fill="#CD4D14"/>
    <path d="M61.1962 2.96281L61.8542 3.14545C61.0646 3.49043 60.4867 3.39911 61.1047 3.65278C61.1905 2.95266 63.6622 3.52087 63.748 2.83091L64.1828 2.96281C64.0569 2.96281 64.0398 3.0034 63.9139 2.99325C64.7607 3.30779 64.5376 2.48592 65.6246 2.55695C66.0023 2.59753 66.2712 2.699 66.0137 2.78017L66.8548 2.58739C67.1008 2.58739 67.0436 2.71929 66.7975 2.70915L68.0849 2.62797L68.0734 2.64827C68.2565 2.53666 68.6742 2.36416 68.8744 2.28299C69.2006 2.37431 68.7085 2.35402 68.7943 2.44534L69.5095 2.27284C69.8013 2.44534 69.212 2.62797 68.72 2.60768C69.3894 3.2875 69.3093 2.42504 70.7511 2.81061L70.076 2.90193C70.5108 3.2875 71.0372 3.1353 71.7981 3.36867C71.615 3.24691 70.2705 2.77003 71.0429 2.59753C71.2603 2.64827 71.5464 2.66856 71.964 2.52651C71.964 2.77003 72.376 2.70915 72.8852 2.68885L72.8509 3.01354C73.4001 2.91208 73.3601 2.74973 73.6805 2.59753C74.2984 2.61783 74.4243 2.87149 74.5673 3.08457C75.5514 3.12516 73.8865 2.68885 75.0536 2.61783C75.8718 2.73959 76.4497 2.60768 77.4281 2.40475C78.0002 2.51636 77.3308 2.60768 77.5368 2.699L78.046 2.43519C78.1719 2.43519 78.1318 2.51636 78.1089 2.55695C78.538 2.45548 78.1432 2.23226 78.8184 2.14094C79.0015 1.78581 80.203 2.65841 81.0326 2.25255C81.2386 2.34387 80.9353 2.45548 80.9983 2.57724C82.1426 2.30328 81.9766 2.38446 82.915 2.02933L83.716 2.2424C83.1267 1.99889 83.8819 1.71478 84.5399 1.48141C84.3339 1.35965 84.1508 1.25819 84.0364 1.20746L85.0891 1.03496C85.215 1.0857 85.112 1.19731 84.9404 1.33936C85.009 1.30892 85.0777 1.28863 85.1349 1.25819C85.5125 1.37995 85.318 1.56259 85.0434 1.74522C84.9175 1.6742 84.7916 1.61332 84.6657 1.54229C84.4083 1.73508 84.1622 1.9583 84.2195 2.14094C84.2881 2.10035 84.4197 2.06991 84.5627 2.05977C84.4941 2.1105 84.454 2.16123 84.4826 2.19167C84.517 2.22211 84.6257 2.15109 84.7973 2.06991L85.0376 2.43519L85.0948 2.29314L86.468 2.52651C87.4521 2.16123 88.3046 1.63361 89.8666 1.51185C89.4775 1.77566 89.7807 1.94815 89.7579 2.2627C89.3345 1.92786 88.5506 2.38446 87.7439 2.31343C88.1673 2.35402 88.07 2.49607 87.967 2.5468L89.4088 2.2627C89.3745 2.51636 89.7121 2.45548 90.0897 2.56709C89.8093 2.05977 91.1653 2.2424 91.7546 2.10035C91.789 2.27284 91.6517 2.44534 90.9365 2.3946C91.726 2.79032 91.9606 1.81625 92.733 2.15109C92.5557 2.15109 92.4641 2.12065 92.3955 2.21197C92.8017 2.06991 93.8029 2.20182 93.5684 2.34387H93.3967C94.5582 2.4149 96.9269 2.42504 97.1042 1.99889C97.1157 2.05977 96.9498 2.51636 96.8754 2.59753L98.958 1.19731C98.7749 1.56259 99.4672 2.46563 98.5003 2.64827C98.7749 2.70915 99.1182 2.78017 99.7018 2.65841C99.513 2.59753 99.2383 2.1105 99.4958 2.08006C100.2 2.50622 99.9821 2.31343 100.852 2.68885C100.571 2.60768 100.892 2.02933 101.332 2.05977C101.264 2.14094 101.367 2.63812 101.201 2.68885L102.317 2.16123C102.036 2.25255 102.265 2.63812 102.511 2.81061C102.397 2.699 103.472 2.8512 103.77 2.81061L103.301 2.65841C104.554 2.79032 104.548 1.89742 105.789 1.97859C105.635 2.09021 105.406 2.68885 106.041 2.78017C106.333 2.50622 107.34 1.41039 108.444 1.24804L108.656 1.42053L109.503 1.26833C108.971 1.68434 107.483 2.52651 106.671 2.87149C107.14 3.02369 106.796 3.07442 107.5 3.08457C107.746 3.24691 107.117 3.30779 106.905 3.30779L108.536 3.48029C108.467 3.1353 109.789 3.19618 109.732 2.91208L107.952 3.18604C107.884 2.84105 108.993 2.2627 110.149 2.38446C110.441 2.53666 109.92 2.9831 109.943 3.09472C110.098 2.9831 111.047 2.92222 111.15 3.01354L110.658 3.17589C111.299 3.33823 111.717 2.77003 112.489 3.1353C112.758 3.16574 113.279 3.61219 113.33 3.40926C112.901 3.0034 112.833 1.79596 113.13 1.51185C113.222 1.54229 114.532 1.9583 114.829 2.17138C115.264 2.50622 114.154 2.86135 114.526 3.14545C114.543 3.05413 114.789 2.95266 114.892 2.92222C115.173 3.02369 114.772 3.20633 115.384 3.19618C115.493 2.86135 116.626 3.29765 115.676 2.92222C116.277 2.86135 116.311 3.03384 117.009 3.06428C116.792 2.83091 117.656 2.34387 118.257 2.28299C118.222 2.36416 118.354 2.49607 118.417 2.5468C119.641 2.64827 120.293 2.8512 121.438 2.94252C121.541 3.03384 122.09 3.17589 121.85 3.30779C122.016 3.25706 122.17 3.1556 122.519 3.17589C123.194 3.53102 121.735 3.16574 122.244 3.56146C122.296 3.36867 123.16 3.35853 123.663 3.26721C123.515 2.94252 122.508 3.11501 122.004 3.20633C122.01 2.78017 122.897 2.3946 124.098 2.29314C125.048 2.2627 124.504 2.59753 124.67 2.55695C126.45 2.75988 126.209 1.93801 127.68 2.38446C128.258 2.70915 127.691 2.93237 127.817 3.1353C127.045 3.16574 126.639 2.8512 126.112 2.81061L126.753 3.0034C126.507 3.07442 125.986 3.09472 125.712 2.9831C126.198 3.26721 128.715 3.31794 130.083 3.66292C130.329 3.5919 130.752 3.54116 130.558 3.40926H130.123C129.728 3.14545 130.953 3.17589 130.403 3.02369C130.993 2.92222 131.656 2.73959 132.469 2.96281L132.612 3.2875C132.595 3.19618 132.08 3.04398 131.845 3.10486C132.194 3.0034 133.087 3.67307 133.476 3.30779L132.909 3.02369C133.499 2.93237 134.237 2.68885 134.958 2.87149C134.637 2.52651 134.786 2.89178 134.282 2.46563C134.717 2.96281 132.423 2.23226 133.127 2.78017C132.612 2.30328 132.217 2.49607 131.53 2.05977C131.548 2.17138 131.771 2.27284 131.159 2.17138C131.13 2.20182 131.061 2.23226 131.021 2.25255C131.004 2.25255 130.998 2.25255 130.981 2.2424L131.015 2.2627C131.015 2.2627 130.987 2.28299 131.027 2.2627C131.17 2.32358 131.29 2.38446 131.336 2.44534C131.027 2.64827 130.054 2.55695 129.722 2.64827C129.362 2.56709 129.877 2.5468 129.682 2.4149L129.185 2.5468C129.145 2.31343 128.235 2.08006 129.093 2.02933L128.326 1.94815C127.88 1.77566 127.256 1.66405 126.867 1.72493C126.507 1.64376 125.946 1.88728 126.267 1.74522L125.054 1.78581L125.042 1.72493C123.852 1.60317 122.582 1.91771 121.232 1.40024C120.831 1.43068 120.414 1.46112 119.744 1.34951L119.618 1.14658C119.103 1.18716 118.079 0.852326 117.85 1.04511C117.307 0.476903 115.356 0.7813 114.452 0.629102L114.412 0.882766C113.788 0.821886 113.187 0.882766 112.415 0.943645L112.461 1.17702C111.791 1.32921 110.75 0.933498 109.691 0.903059C109.766 0.821886 110.029 0.852326 110.218 0.913205C108.965 0.344998 107.552 1.15672 106.419 0.740714C106.133 0.81174 105.927 0.7813 105.727 0.710274C105.755 0.710274 105.778 0.710274 105.795 0.710274C105.767 0.710274 105.721 0.710274 105.681 0.710274C105.555 0.669688 105.423 0.618955 105.286 0.578369C105.406 0.639248 105.521 0.689981 105.618 0.710274C105.4 0.710274 105.063 0.720421 104.737 0.771153L104.599 0.517489C104.599 0.517489 104.554 0.517489 104.525 0.517489C104.205 0.416024 104.268 0.629102 104.433 0.81174C104.268 0.842179 104.119 0.892912 103.999 0.943645C103.741 0.537782 103.14 1.04511 102.791 0.608808C102.568 0.81174 101.149 0.700127 100.972 1.13643C100.961 1.07555 100.863 1.05526 101.041 1.05526C100.674 0.994378 100.314 0.943645 99.9879 1.05526L99.8334 0.740714L99.0324 1.13643C98.5518 0.933498 98.3515 0.821886 98.8321 0.588515C97.6707 0.933498 97.8938 0.700127 96.904 1.04511L96.9555 0.842179C96.6007 0.842179 96.04 1.09584 95.8283 0.923352C95.0445 0.507343 91.932 0.801593 89.9123 0.416024C90.3014 1.01467 88.974 0.142067 88.8939 0.598662C88.7795 0.45661 88.4934 0.375437 88.8252 0.253679C87.7954 0.375437 87.2747 0.0203079 86.5653 0.405877C86.4451 0.263825 86.7884 0.202946 86.6797 0.121773C86.5996 0.152213 86.3536 0.243532 86.2449 0.16236C86.1419 0.0811872 86.3936 0.0507475 86.5595 -0.0101318C85.5068 0.0101613 85.3981 0.436317 85.3237 0.842179C84.7916 0.649395 84.5227 0.669688 84.1394 0.933498C83.9563 0.801593 83.6416 0.659541 84.2996 0.618955C83.9334 0.598662 82.051 0.416024 82.011 0.740714C81.8965 0.659541 81.496 0.710274 81.3988 0.75086C80.5749 0.730567 80.5005 0.710274 79.688 0.740714L79.9112 0.791447C79.5908 1.18716 79.236 0.882766 78.5838 0.933498L78.601 0.892912C77.1019 0.618955 77.9544 1.03496 76.4726 0.710274L76.5527 0.953791C76.4154 1.48141 75.2424 0.649395 74.3842 0.862472L74.6932 0.994378C74.224 1.17702 73.383 0.294265 72.9081 0.243532C72.8051 0.202946 73.0683 0.172506 73.2113 0.13192C71.9755 -0.16233 73.0511 0.45661 72.1357 0.537782C71.964 0.365291 72.3531 0.10148 71.7352 0.0710407C71.4262 -0.0608646 69.9444 0.649395 69.0976 0.334851C69.2864 0.466757 69.4695 0.598662 69.0404 0.700127C68.3881 0.75086 67.2667 0.233386 66.6831 0.659541C66.5973 0.629102 66.5687 0.588515 66.563 0.558076C66.0652 0.679834 64.9381 0.771153 64.6405 1.00452C64.1714 0.172506 61.5338 1.48141 61.5395 0.710274L60.0004 0.791447L60.0405 0.710274C59.0564 0.689981 58.7131 0.882766 58.3698 1.07555C58.1409 1.02482 58.3069 0.953791 58.324 0.913205C56.8879 0.801593 56.7449 0.832033 55.5434 1.25819L55.4175 1.01467C55.0914 1.17702 53.3349 0.700127 51.9331 1.03496C51.9446 1.00452 51.9732 0.953791 52.0876 0.913205C50.5085 1.25819 48.2828 0.365291 47.7164 1.30892L46.6751 1.58288C48.0311 1.59302 46.4806 1.98874 47.0355 2.12065C46.5034 2.20182 45.6567 1.90757 46.3089 1.8264L46.4119 1.86698C46.6465 1.37995 44.7298 1.77566 44.7584 1.44083C42.0979 1.59302 39.4946 1.46112 37.0001 1.58288L37.2919 1.93801L36.4222 1.96845C36.1933 1.89742 36.1075 1.69449 36.7311 1.6742C36.3993 1.48141 35.6956 1.91771 35.6784 1.99889C34.4597 1.91771 36.1476 1.54229 35.7699 1.55244L35.2664 1.61332L35.3809 1.6539C34.9746 1.8264 34.9403 1.98874 34.1965 2.01918C33.7216 1.96845 33.9505 1.8061 33.7617 1.8061C33.7617 1.77566 33.6988 1.77566 33.4756 1.8061L32.3771 1.84669L32.8234 2.1105C32.3428 2.28299 31.7935 2.16123 32.3027 2.46563C31.5475 2.00903 28.2119 2.5671 27.7541 2.43519C27.079 2.699 26.4096 2.74973 25.5743 2.79032C25.7802 2.83091 25.9118 3.1556 25.1966 3.16574C25.4427 2.46563 23.875 2.97296 23.2857 2.53666C23.812 2.81061 21.2488 2.79032 22.0727 3.18604C21.4719 3.18604 22.0269 2.93237 21.5692 2.82076C20.1503 3.21647 18.4224 2.92222 16.6659 3.20633C16.643 3.29765 16.9405 3.39911 16.5686 3.5716L15.6246 3.22662C15.2756 3.30779 15.3214 3.77454 14.6748 3.53102C14.7664 3.5919 14.9037 3.69336 14.6748 3.7441C11.2076 3.70351 7.65457 4.91095 4.10153 4.78919C4.58785 4.86022 4.27317 4.94139 3.91272 5.02256C4.15302 5.02256 3.92416 5.24579 3.97565 5.3574C3.47788 5.3574 2.98584 5.32696 2.48235 5.34725C2.23632 5.78356 0.908938 5.77341 0.777344 6.24015C0.931824 6.14883 1.09203 6.04737 1.24078 5.99663C0.668636 6.54455 2.19055 6.57499 2.13334 7.08231C2.76842 6.43294 3.96993 7.29539 5.05129 6.44308C5.30304 6.50396 4.85104 6.63587 4.98836 6.72719C5.26299 6.47352 5.60628 6.37206 6.24708 6.35176L6.17842 6.41264C7.96925 6.04737 8.75309 6.17927 10.7785 6.02707L10.6183 5.80385C11.0531 5.78356 11.1504 5.84443 11.3564 5.88502C11.8427 5.45887 10.132 6.01693 10.5725 5.56033C11.1676 5.97634 13.645 5.2052 14.0512 5.71253C14.7206 5.6415 13.8452 5.45887 14.5146 5.38784L14.6977 5.51974L14.8579 5.30667C15.2985 5.29652 15.5273 5.45887 15.5445 5.58062C15.4358 5.58062 15.2413 5.65165 15.1268 5.67194C15.7047 5.7937 16.7288 5.44872 16.9291 5.47916L16.2826 5.44872C18.1077 5.10374 20.3448 5.11388 22.107 4.64714L21.9697 4.54567C23.3143 4.21084 23.0568 4.57611 24.5329 4.36304L24.4814 4.39348C24.7732 4.26157 25.168 4.17025 25.5743 4.14996C25.2024 4.3123 26.2837 4.35289 25.7974 4.53553C27.2564 4.19054 26.5183 4.30216 27.4738 3.80498L27.7026 3.97747C28.0288 3.78468 28.0517 3.69336 28.7954 3.5919C28.189 3.79483 29.2761 3.84556 28.6009 4.10937C30.1629 4.41377 30.901 3.53102 31.6276 4.08908C32.3313 3.52087 30.2773 3.89629 30.6721 3.75424C30.3345 3.61219 31.2557 3.32809 31.742 3.33823C32.2398 3.31794 32.6002 3.93688 33.8475 3.85571C33.7216 3.85571 33.7159 3.89629 33.59 3.90644C34.0592 4.00791 34.5055 3.67307 35.0776 3.85571C35.3923 3.52087 35.8214 3.82527 35.9072 3.41941L34.763 3.58175C35.4095 3.4397 36.0102 2.93237 37.0859 3.09472C37.0058 3.17589 36.6854 3.30779 36.468 3.37882C36.7826 3.48029 37.0687 3.26721 37.3948 3.36867C37.309 3.77454 36.0045 3.54116 35.3122 3.88615C35.6498 4.03835 36.6224 3.52087 36.2791 3.96732C36.7712 3.38897 37.5093 3.96732 38.3503 3.49043L38.2988 3.73395C38.4304 3.69336 38.7051 3.56146 38.9568 3.55131L38.5162 3.88615C39.1971 3.58175 39.8436 4.04849 40.4959 3.876C39.1227 3.95717 40.1812 3.60204 39.5976 3.45999C41.2912 3.05413 40.5817 4.03835 42.4812 3.82527C42.2238 3.876 41.5143 3.73395 41.9148 3.60204C42.2753 3.63248 42.7559 3.70351 42.979 3.81512C44.2377 3.70351 42.7845 3.58175 43.3166 3.39911C43.7514 3.67307 43.9345 3.24691 44.4838 3.12516V3.36867C45.9256 3.45999 44.8614 2.84105 46.1601 2.97296L45.6166 3.33823L46.286 3.21648L46.1487 3.50058C46.8811 3.25706 47.1099 3.30779 47.8251 3.34838C47.6535 3.18604 47.9109 2.90193 48.546 2.86135C48.9808 2.9831 48.3057 3.10486 49.204 3.03384C49.0037 3.19618 48.7806 3.39911 48.3858 3.18604C48.3458 3.26721 48.1856 3.34838 48.1455 3.42955C48.6147 3.5716 49.3184 3.41941 49.6445 3.39911C49.5187 3.39911 49.3699 3.38897 49.2898 3.35853L50.5886 2.96281C50.7945 3.04398 50.6343 3.12516 50.4741 3.20633C50.7373 3.16574 50.9204 3.05413 51.3095 3.01354C51.2122 3.21647 51.2351 3.41941 50.6858 3.53102L51.9274 3.26721C52.0132 3.34838 52.5682 3.48029 52.408 3.56146C53.1003 3.65278 54.0958 3.11501 55.0113 3.23677C55.0571 3.19618 55.1543 3.1556 55.3489 3.12516C56.2071 3.1353 56.9738 3.36867 57.9865 3.06428L58.57 3.40926C59.3653 3.30779 57.7805 2.9831 59.1136 2.81061C60.0519 2.66856 59.4683 3.10486 59.8002 3.19618C60.2636 3.0034 61.0761 2.61783 61.9457 2.88164C61.6596 2.95266 61.4365 2.91208 61.1676 2.94252L61.1962 2.96281ZM71.0372 2.61783C70.8484 2.66856 70.465 2.83091 70.3277 2.68885C70.5451 2.40475 70.711 2.53666 71.0372 2.61783ZM85.9988 1.96845C85.8558 2.04962 85.6384 2.00903 85.3924 1.91771C85.5697 1.89742 85.7757 1.91771 85.9988 1.96845ZM127.714 2.05977C127.714 2.05977 127.703 2.05977 127.691 2.05977C127.268 1.92786 127.417 1.97859 127.714 2.05977ZM128.595 2.25255C128.687 2.23226 128.681 2.19167 128.641 2.15109C128.578 2.21197 128.378 2.19167 128.155 2.15109C128.218 2.22211 128.326 2.27284 128.595 2.2424V2.25255ZM33.6644 1.92786L33.8361 1.97859C33.447 2.06991 33.5557 1.99889 33.6644 1.92786Z" fill="#CD4D14"/>
    <path d="M84.3063 2.29316C84.2548 2.25257 84.2376 2.20184 84.2262 2.16125C84.1518 2.20184 84.1518 2.25257 84.3063 2.29316Z" fill="#CD4D14"/>
    <path d="M55.0809 3.26721H55.0522C55.0522 3.26721 55.0292 3.29765 55.0234 3.3078L55.0809 3.26721Z" fill="#CD4D14"/>
    <path d="M114.87 3.28745C114.687 3.23672 114.589 3.18599 114.521 3.13525C114.509 3.19613 114.589 3.24687 114.87 3.28745Z" fill="#CD4D14"/>
    <path d="M133.293 2.30327H132.727C133.001 2.32356 133.098 2.38444 133.236 2.44532C133.224 2.38444 133.121 2.29312 133.299 2.30327H133.293Z" fill="#CD4D14"/>
    <path d="M138.144 4.41373C138.23 4.39344 138.322 4.43403 138.402 4.41373L138.385 4.30212C138.036 4.26153 137.784 4.32241 138.144 4.41373Z" fill="#CD4D14"/>
    <path d="M133.791 3.17591C133.831 3.38899 134.186 3.35855 134.581 3.3687H134.512C134.638 3.08459 134.214 3.13533 133.791 3.17591Z" fill="#CD4D14"/>
    <path d="M134.672 3.36871C134.792 3.36871 134.918 3.37886 135.038 3.4093C135.09 3.29768 134.889 3.36871 134.672 3.36871Z" fill="#CD4D14"/>
    <path d="M129.723 2.212C129.912 2.28302 129.849 1.95833 129.952 2.04965C130.169 1.80613 128.687 2.25258 129.723 2.212Z" fill="#CD4D14"/>
    <path d="M134.083 3.88613L133.952 3.62231L133.723 3.79481L134.083 3.88613Z" fill="#CD4D14"/>
    <path d="M130.965 3.34835L131.594 3.48025C131.594 3.48025 131.669 3.41937 131.766 3.40923C131.377 3.34835 130.954 3.26718 130.965 3.3382V3.34835Z" fill="#CD4D14"/>
    <path d="M131.771 3.41943C131.972 3.44987 132.166 3.46002 132.281 3.43972C132.172 3.43972 131.932 3.40928 131.771 3.41943Z" fill="#CD4D14"/>
    <path d="M133.219 3.86581L133.036 3.79478L132.59 3.72375L133.219 3.86581Z" fill="#CD4D14"/>
    <path d="M124.162 2.68884L123.469 2.70914C123.395 2.79031 123.584 2.86133 123.841 2.84104C124.007 2.79031 124.265 2.78016 124.162 2.68884Z" fill="#CD4D14"/>
    <path d="M126.232 3.55135C126.049 3.48032 126.038 3.41944 125.935 3.32812L125.906 3.64267L126.232 3.55135Z" fill="#CD4D14"/>
    <path d="M124.22 3.45996C124.151 3.54113 123.213 3.63245 124.088 3.68319C124.162 3.60201 124.855 3.58172 124.22 3.45996Z" fill="#CD4D14"/>
    <path d="M113.818 2.36415H113.996L113.979 1.84668L113.818 2.36415Z" fill="#CD4D14"/>
    <path d="M104.624 3.19622C105.442 3.34842 104.824 2.88168 105.562 3.06432C105.757 2.95271 104.962 2.91212 105.156 2.8208C104.658 2.93241 104.401 2.85124 104.624 3.19622Z" fill="#CD4D14"/>
    <path d="M105.154 2.82078C105.234 2.80049 105.32 2.7802 105.406 2.74976C105.263 2.7802 105.194 2.80049 105.154 2.82078Z" fill="#CD4D14"/>
    <path d="M1.47114 5.37769C1.28805 5.39798 1.11068 5.39798 0.921875 5.43856C1.05347 5.43856 1.1679 5.47915 1.29377 5.49944L1.47686 5.37769H1.47114Z" fill="#CD4D14"/>
    <path d="M0.469162 6.14881L0.280353 5.89514L0 6.33144C0.120151 6.26042 0.360453 6.11837 0.469162 6.13866V6.14881Z" fill="#CD4D14"/>
    <path d="M72.5018 3.2571L72.5418 3.17593C72.4617 3.09476 72.3359 3.08461 72.0898 3.07446L72.5018 3.2571Z" fill="#CD4D14"/>
    <path d="M65.3626 3.12518H65.4828L65.2539 2.83093L65.3626 3.12518Z" fill="#CD4D14"/>
    <path d="M59.3726 3.65273C59.6187 3.65273 59.9047 3.5817 60.1507 3.59185C59.6187 3.66287 59.304 3.28745 59.3726 3.65273Z" fill="#CD4D14"/>
  </g>
  <defs>
    <clipPath id="clip0_423_52529">
      <rect width="159" height="9" fill="white"/>
    </clipPath>
  </defs>
</svg>
