<svg width="100%" height="100%" viewBox="0 0 227 18" fill="none" xmlns="http://www.w3.org/2000/svg">
  <path d="M222.771 16.6541L223.96 16.5986L221.852 16.6577L222.771 16.6541Z" fill="#CD4D14"/>
  <path d="M217.534 16.2172C218.411 16.153 216.37 15.877 217.29 15.8734C215.868 15.7755 214.645 15.7806 213.535 15.7957C214.697 15.842 215.937 15.9616 217.524 16.2164L217.534 16.2172Z" fill="#CD4D14"/>
  <path d="M211.698 15.7833C212.284 15.7975 212.89 15.7945 213.545 15.7863C212.922 15.7594 212.316 15.753 211.698 15.7833Z" fill="#CD4D14"/>
  <path d="M225.809 17.3114C225.654 17.2502 225.353 17.1098 224.201 16.9601L224.991 17.2387C225.236 17.2604 225.518 17.2855 225.8 17.3105L225.809 17.3114Z" fill="#CD4D14"/>
  <path d="M225.02 17.2511L224.991 17.2486C224.109 17.1513 223.498 17.097 223.235 17.0736C223.461 17.0937 223.996 17.1507 225.02 17.2511Z" fill="#CD4D14"/>
  <path d="M226.007 17.3387C225.932 17.332 225.876 17.327 225.801 17.3203C225.874 17.3458 225.92 17.3594 226.007 17.3387Z" fill="#CD4D14"/>
  <path d="M225.914 17.6441L227 17.6837L226.184 17.5923L225.914 17.6441Z" fill="#CD4D14"/>
  <path d="M215.441 16.3042C214.484 16.3044 213.449 16.222 212.272 16.1364C213.519 16.2851 214.815 16.4191 216.055 16.5293C216.23 16.4786 216.786 16.4142 215.441 16.3042Z" fill="#CD4D14"/>
  <path d="M220.098 16.7759C220.032 16.77 219.948 16.7625 219.89 16.7669C220.02 16.7974 220.124 16.8066 220.098 16.7759Z" fill="#CD4D14"/>
  <path d="M200.743 15.1695C200.808 15.1847 200.864 15.1991 200.928 15.2238C200.947 15.2161 200.958 15.2075 200.978 15.1904L200.743 15.1695Z" fill="#CD4D14"/>
  <path d="M216.26 16.586C217.196 16.7071 217.765 16.7102 218.306 16.692C217.6 16.6481 216.855 16.601 216.047 16.5292C215.969 16.5507 215.949 16.5678 216.25 16.5851L216.26 16.586Z" fill="#CD4D14"/>
  <path d="M208.473 15.6098C208.969 15.6823 209.52 15.7691 210.1 15.8585C209.626 15.7501 208.657 15.5693 208.473 15.6098Z" fill="#CD4D14"/>
  <path d="M219.566 16.6822C219.613 16.6863 219.66 16.6905 219.707 16.6947C219.401 16.6201 219.436 16.6517 219.566 16.6822Z" fill="#CD4D14"/>
  <path d="M219.566 16.6822C219.075 16.6669 218.694 16.6803 218.305 16.6931C218.88 16.7252 219.417 16.754 219.88 16.7667C219.769 16.7379 219.649 16.7085 219.566 16.6822Z" fill="#CD4D14"/>
  <path d="M197.148 16.1777C197.324 16.0039 199.823 16.0269 201.95 16.4053C204.069 16.4325 202.741 15.7082 200.927 15.2249C200.854 15.3037 200.847 15.3789 198.674 15.309C199.427 15.4707 203.47 15.934 201.621 15.9497C198.743 15.8173 199.275 15.694 197.882 15.485C199.046 15.8158 194.202 15.5276 194.802 15.9219L197.333 16.0047C197.375 16.0653 196.456 16.0689 197.157 16.1785L197.148 16.1777Z" fill="#CD4D14"/>
  <path d="M205.055 15.5803L205.951 15.6314C204.938 15.513 204.212 15.3727 202.888 15.1225C201.394 15.094 201.077 15.1423 200.978 15.1904L205.368 15.5796L205.065 15.5811L205.055 15.5803Z" fill="#CD4D14"/>
  <path d="M209.956 15.9701C209.242 16.1151 207.091 16.0187 208.388 16.3518C211.003 16.5557 210.237 16.336 211.805 16.3806C207.579 16.0715 213.029 16.3661 209.982 16.0008C210.813 16.0366 211.566 16.0846 212.271 16.1473C211.512 16.0514 210.782 15.9581 210.098 15.8689C210.136 15.8723 210.164 15.8748 210.191 15.8867L210.21 15.8884C210.386 15.9324 210.451 15.9477 210.245 15.9199C210.226 15.9182 210.179 15.9141 210.16 15.9124C210.13 15.9381 210.052 15.9596 209.966 15.9709C208.747 15.8247 209.782 15.9072 210.16 15.9124C210.171 15.9038 210.209 15.8978 210.21 15.8884C210.21 15.8884 210.201 15.8875 210.191 15.8867L205.949 15.6425C206.84 15.7501 207.97 15.8315 209.956 15.9795L209.956 15.9701Z" fill="#CD4D14"/>
  <path d="M219.539 17.3051L216.004 17.0954L217.785 17.4241L217.7 17.3124C219.699 17.5278 219.278 17.3578 219.539 17.3051Z" fill="#CD4D14"/>
  <path d="M200.348 15.0393L200.838 14.8554L198.77 14.9938L200.348 15.0393Z" fill="#CD4D14"/>
  <path d="M195.764 14.6998L195.95 14.5268L194.726 14.5413L195.764 14.6998Z" fill="#CD4D14"/>
  <path d="M63.8661 7.52991L64.898 7.43209C64.4119 7.46471 64.0959 7.50295 63.8661 7.52991Z" fill="#CD4D14"/>
  <path d="M56.3547 7.8396L56.1755 7.93737C56.5222 7.87343 56.6588 7.82872 56.3547 7.8396Z" fill="#CD4D14"/>
  <path d="M82.9844 9.77889C81.4743 9.60685 79.7744 9.33268 79.9636 9.54845L80.4288 9.75084C81.4839 9.71192 82.2965 9.73673 82.9844 9.77889Z" fill="#CD4D14"/>
  <path d="M5.81067 14.2248C5.95167 14.2373 6.10207 14.2506 6.25247 14.264C6.61112 14.1727 6.95097 14.0797 7.26179 13.9936C6.82877 14.0689 6.32912 14.1476 5.81067 14.2248Z" fill="#CD4D14"/>
  <path d="M4.79149 15.1396C4.11052 15.1265 3.43895 15.1142 2.74251 15.0618C3.21168 15.113 3.86278 15.1424 4.79149 15.1396Z" fill="#CD4D14"/>
  <path d="M104.903 5.68188L106.109 5.42906C104.217 5.50729 105.054 5.58161 104.903 5.68188Z" fill="#CD4D14"/>
  <path d="M148.783 11.6929C147.479 11.5486 146.445 11.4567 145.531 11.404C147.095 11.5998 148.353 11.8441 148.783 11.6929Z" fill="#CD4D14"/>
  <path d="M61.0001 9.82421C61.6314 9.75712 61.9012 9.7053 61.8858 9.66603C61.2357 9.73145 60.8616 9.78348 61.0001 9.82421Z" fill="#CD4D14"/>
  <path d="M141.767 11.2202C142.002 11.241 142.217 11.2696 142.452 11.2999C143.408 11.3091 144.372 11.3284 145.531 11.4029C144.379 11.2532 143.043 11.1441 141.758 11.2193L141.767 11.2202Z" fill="#CD4D14"/>
  <path d="M78.3536 2.60257C78.2408 2.59255 78.1186 2.58169 78.0144 2.58191C77.9837 2.6076 78.1349 2.61156 78.3536 2.60257Z" fill="#CD4D14"/>
  <path d="M34.9211 1.67225C35.3491 1.65342 36.0445 1.61098 36.7006 1.58399C36.3785 1.5838 35.8462 1.60284 34.9211 1.67225Z" fill="#CD4D14"/>
  <path d="M177.322 13.2508C177.475 13.2359 178.293 13.2992 177.322 13.2508V13.2508Z" fill="#CD4D14"/>
  <path d="M181.997 14.3867C181.788 14.3966 181.625 14.4106 181.602 14.4559C181.682 14.4156 181.826 14.3905 181.997 14.3867Z" fill="#CD4D14"/>
  <path d="M132.009 12.0694C132.009 12.0694 131.962 12.0653 131.924 12.0619C132.213 12.116 132.167 12.1024 132.009 12.0694Z" fill="#CD4D14"/>
  <path d="M178.783 13.446C178.418 13.3946 177.996 13.3477 177.545 13.2982C177.752 13.3166 178.127 13.3688 178.783 13.446Z" fill="#CD4D14"/>
  <path d="M178.595 13.3357C178.933 13.3657 179.196 13.3891 179.441 13.4108C179.566 13.3841 179.455 13.3552 178.595 13.3357Z" fill="#CD4D14"/>
  <path d="M175.965 13.1698C176.522 13.2002 177.039 13.2462 177.536 13.2998C177.349 13.2737 177.265 13.2568 177.322 13.2524C177.04 13.2274 176.634 13.2103 175.965 13.1698Z" fill="#CD4D14"/>
  <path d="M158.103 2.54207C158.037 2.53623 157.962 2.52955 157.897 2.5143C156.918 2.5505 157.343 2.55987 158.103 2.54207Z" fill="#CD4D14"/>
  <path d="M57.6548 12.1883C57.6548 12.1883 57.7214 12.1847 57.7692 12.1795C57.7222 12.1753 57.6658 12.1703 57.6282 12.167L57.6658 12.1703L57.6548 12.1883Z" fill="#CD4D14"/>
  <path d="M54.165 12.4393C55.6408 12.144 56.4926 12.1534 57.6179 12.1775L56.4454 11.6186L54.165 12.4393Z" fill="#CD4D14"/>
  <path d="M81.8602 6.75164L79.3951 6.6653C82.3504 6.24568 84.4992 6.26603 82.1835 6.09822C81.8602 6.75164 72.6418 6.53911 72.3279 7.19336L70.7044 7.12494C71.17 7.10946 71.24 7.0683 71.6953 7.06138C68.5372 6.88506 69.3717 7.62238 65.3101 7.6974C63.8978 7.70458 62.9075 7.65451 63.865 7.54061L60.7223 7.82989C59.8013 7.8523 60.0198 7.73907 60.9417 7.70726L56.1439 7.96322L56.1738 7.94692C55.4897 8.07564 53.9446 8.2984 53.187 8.40164C51.9583 8.36829 53.7925 8.30384 53.4763 8.23785L50.818 8.51332C49.7293 8.39766 51.9219 8.13768 53.7656 8.07407C51.2543 7.54782 51.5635 8.33322 46.184 8.2059L48.6929 8.01191C47.0605 7.72478 45.0984 7.94841 42.2454 7.85604C42.9291 7.94519 47.9602 8.15525 45.0824 8.44911C44.2681 8.4431 43.1951 8.47094 41.6422 8.67407C41.6152 8.4443 40.0973 8.57473 38.1922 8.68973L38.3052 8.37765C36.2508 8.57412 36.4186 8.71219 35.216 8.91801C32.9247 9.00817 32.4313 8.80328 31.8774 8.64038C28.197 8.79664 34.4341 8.86751 30.0868 9.17294C27.0214 9.23224 24.8859 9.48783 21.248 9.91313C19.1027 9.95942 21.6081 9.69879 20.834 9.66792L18.9534 10.0409C18.4869 10.0658 18.6363 9.9843 18.7063 9.94315C17.115 10.1523 18.5933 10.2552 16.0965 10.5261C15.4462 10.9136 10.9016 10.4531 7.8325 11.1942C7.05502 11.2009 8.18404 10.9696 7.93609 10.8813C5.80943 11.2513 4.90161 11.4454 4.08947 11.6291C3.68298 11.7256 3.29529 11.8238 2.7992 11.9692C2.29119 12.142 1.70193 12.2697 0.796431 12.7577C0.647917 12.8298 0.500237 12.8924 0.326242 13.038C0.245198 13.0972 0.127603 13.2478 0.0570082 13.4026C-0.0194317 13.6232 -0.0215068 13.8598 0.0660279 14.0476C0.151893 14.2542 0.223752 14.2985 0.327367 14.4119C0.406122 14.4852 0.477146 14.5389 0.557571 14.5934C0.710691 14.6828 0.94674 14.7985 1.07667 14.829C1.68705 14.9969 2.19548 15.0326 2.72271 15.07C1.56986 14.9297 1.75242 14.7943 2.50838 14.7099C3.26684 14.5972 4.57195 14.41 5.78997 14.2434C5.00977 14.1741 4.33214 14.1234 3.8895 14.0936C5.1871 13.9909 6.47948 13.8404 7.78125 13.6908C8.25376 13.7044 7.87213 13.841 7.24109 14.0123C7.50074 13.9691 7.75098 13.925 7.95339 13.8861C9.35544 13.8875 8.65276 14.1188 7.65534 14.3618C7.1751 14.3286 6.69403 14.3048 6.2326 14.2733C5.28218 14.5204 4.37876 14.7718 4.59183 14.9328C4.85147 14.8896 5.34006 14.8288 5.87481 14.7815C5.62289 14.8444 5.46665 14.8968 5.58718 14.9265C5.72734 14.9484 6.12443 14.8511 6.76926 14.7378L7.68316 15.0085L7.88618 14.856L13.0104 14.6574C16.6377 14.0322 19.7751 13.2688 25.5633 12.7408C24.1398 13.088 25.2797 13.1609 25.2248 13.4592C23.6232 13.2506 20.7419 13.9042 17.7331 14.0727C19.3041 13.9849 18.967 14.1539 18.5716 14.2324L23.9084 13.5601C23.8012 13.8064 25.0552 13.662 26.4666 13.6642C25.3748 13.2641 30.44 13.0887 32.6139 12.8271C32.7612 12.9823 32.243 13.1636 29.5792 13.287C32.5383 13.4646 33.3438 12.5035 36.2387 12.6564C35.5912 12.6936 35.2409 12.6909 34.9865 12.782C36.494 12.5559 40.2138 12.4884 39.3547 12.6679L38.7072 12.7051C43.024 12.5296 51.8576 12.168 52.4907 11.76C52.5336 11.8111 51.9441 12.2609 51.6803 12.3512L59.3606 10.788C58.694 11.1457 61.3168 11.9092 57.7393 12.1883C58.7697 12.2135 60.0462 12.2416 62.2117 12.074C61.5042 12.0395 60.4524 11.6145 61.4144 11.5579C64.056 11.8967 63.2474 11.7207 66.4998 12.0096C65.4436 11.9537 66.6113 11.3942 68.2696 11.3899C68.0066 11.4708 68.4117 11.9236 67.8095 11.9838L71.9444 11.4037C70.9116 11.5109 71.7625 11.8518 72.6966 12.0011C72.2701 11.8969 76.279 11.9877 77.3742 11.9239L75.6225 11.8062C80.2978 11.8615 80.238 11.0414 84.8774 11.0746C84.318 11.186 83.4913 11.7473 85.8435 11.8236C86.9289 11.5505 90.6383 10.5347 94.7544 10.3793L95.545 10.5442L98.7025 10.4078C96.7365 10.7827 91.218 11.581 88.2146 11.9016C89.9647 12.0381 88.7003 12.0868 91.3241 12.0925C92.248 12.2504 89.8943 12.2971 89.1262 12.3047L95.2234 12.4579C94.9588 12.1312 99.8887 12.1996 99.6652 11.9429L93.0408 12.1787C92.7753 11.8614 96.8786 11.3164 101.205 11.4544C102.301 11.5991 100.37 12.0055 100.465 12.1087C101.024 12.0067 104.57 11.9712 104.969 12.0635L103.129 12.1938C105.53 12.3691 107.063 11.8516 109.947 12.231C110.947 12.2819 112.917 12.7127 113.095 12.5295C111.482 12.1304 111.185 10.9956 112.277 10.7515C112.625 10.7824 117.51 11.2448 118.647 11.4595C120.285 11.7944 116.159 12.0627 117.554 12.3477C117.619 12.2587 118.525 12.1877 118.906 12.1647C119.949 12.2668 118.467 12.4193 120.738 12.4505C121.125 12.1439 125.364 12.6341 121.82 12.215C124.047 12.2045 124.185 12.3588 126.802 12.4397C125.981 12.1962 129.178 11.8265 131.415 11.8168C131.276 11.8897 131.776 12.0194 132.017 12.0787C136.582 12.3042 139.024 12.5495 143.278 12.7569C143.667 12.8578 145.715 13.0492 144.836 13.1416C145.454 13.1113 146.02 13.0383 147.331 13.098C149.853 13.502 144.404 12.9895 146.326 13.4256C146.503 13.2518 149.735 13.3399 151.612 13.3267C151.053 13.0117 147.298 13.0476 145.42 13.0703C145.427 12.673 148.709 12.4151 153.165 12.4793C156.71 12.5763 154.679 12.8222 155.297 12.8013C161.928 13.2388 160.995 12.4359 166.492 13.0568C168.664 13.4487 166.56 13.565 167.034 13.7776C164.152 13.6921 162.629 13.3484 160.677 13.2413L163.07 13.5013C162.148 13.5331 160.22 13.4755 159.18 13.3452C160.998 13.6773 170.391 14.0569 175.494 14.6333C176.406 14.6101 177.986 14.6273 177.251 14.4768L175.629 14.399C174.149 14.097 178.696 14.3209 176.651 14.0918C178.829 14.0959 181.288 14.0395 184.337 14.3767L184.895 14.7105C184.837 14.62 182.905 14.3916 182.041 14.4191C183.323 14.3814 186.704 15.1459 188.121 14.8739L185.993 14.5143C188.181 14.5192 190.898 14.429 193.61 14.7267C192.403 14.3447 192.986 14.7092 191.087 14.2278C192.726 14.7618 184.152 13.6876 186.806 14.3212C184.854 13.7878 183.393 13.9139 180.834 13.3929C180.91 13.4944 181.741 13.6345 179.466 13.4324C179.36 13.4514 179.113 13.4673 178.96 13.4822C178.894 13.4763 178.866 13.4738 178.809 13.4688C178.856 13.473 178.884 13.4755 178.932 13.4797C178.836 13.4901 178.826 13.4893 178.978 13.4838C179.521 13.5605 179.949 13.6459 180.124 13.7087C178.974 13.8529 175.359 13.5981 174.124 13.6305C172.772 13.4915 174.699 13.5584 173.964 13.4079L172.122 13.4527C171.952 13.2292 168.555 12.8705 171.749 12.9554L168.887 12.7579C167.211 12.5332 164.888 12.3364 163.457 12.3419C162.103 12.2217 160.025 12.3686 161.218 12.2756L156.72 12.1414L156.677 12.0902C152.24 11.8097 147.529 11.9407 142.477 11.3215C140.981 11.3117 139.43 11.2876 136.934 11.1227L136.45 10.9187C134.528 10.8996 130.699 10.4931 129.86 10.6554C127.808 10.0753 120.55 10.1979 117.174 10.0212L117.039 10.2555C114.717 10.1629 112.488 10.1829 109.597 10.2008L109.768 10.4149C107.276 10.5252 103.38 10.1222 99.4426 10.0757C99.715 9.99566 100.706 10.0363 101.411 10.099C96.7151 9.53022 91.4828 10.3065 87.2246 9.92829C86.1568 10.004 85.392 9.97393 84.6486 9.91737C84.7426 9.92572 84.8383 9.91527 84.9151 9.90315C84.8023 9.89313 84.6409 9.89773 84.4794 9.90234C84.0094 9.86059 83.53 9.818 83.0028 9.78064C83.4437 9.82929 83.8753 9.8771 84.2436 9.89086C83.4191 9.89342 82.1854 9.91647 80.9586 9.96855L80.4387 9.74236C80.3438 9.74341 80.2584 9.74529 80.1542 9.74551C78.9587 9.65826 79.1975 9.85001 79.8361 10.0204C79.2261 10.061 78.6631 10.1057 78.2224 10.1613C77.2502 9.8002 75.0264 10.3037 73.6962 9.92031C72.8738 10.1125 67.5673 10.1243 66.9333 10.5417C66.8905 10.4905 66.5325 10.4682 67.1869 10.46C65.825 10.4338 64.4724 10.4084 63.2569 10.5467L62.6754 10.2677L59.7175 10.7155C57.9102 10.5834 57.1607 10.4884 58.9459 10.2301C54.633 10.6807 55.4408 10.4398 51.7815 10.8917L51.9503 10.6982C50.6389 10.7428 48.5446 11.0684 47.7506 10.941C44.799 10.6788 33.2246 11.4981 25.6842 11.6999C27.1795 12.1454 22.1701 11.6909 21.9028 12.1409C21.4566 12.0444 20.4048 12.0457 21.6074 11.8399C17.7814 12.2485 15.8262 12.0748 13.2087 12.6381C12.7625 12.5416 14.0181 12.3784 13.6148 12.3331C13.3073 12.3816 12.402 12.5475 11.9986 12.5022C11.6047 12.4577 12.552 12.3524 13.1489 12.2444C9.23484 12.5788 8.87432 13.011 8.62138 13.4054C6.62463 13.3796 5.64057 13.4722 4.22976 13.7827C3.5375 13.6833 2.39844 13.6011 4.79812 13.4637C4.45639 13.4712 3.77207 13.4957 2.94843 13.4889C2.54173 13.4812 2.08802 13.4693 1.69489 13.4154C1.59149 13.4062 1.52736 13.3816 1.4436 13.3647C1.3872 13.3597 1.40767 13.3425 1.38887 13.3409C1.37863 13.3494 1.39221 13.3033 1.34876 13.3657L1.29425 13.4462C1.32746 13.3923 1.21676 13.5719 1.36067 13.3384L1.3521 13.3281L1.3239 13.3256C1.3239 13.3256 1.32641 13.2974 1.30594 13.3146C1.2838 13.3505 1.26166 13.3864 1.23012 13.4215C1.17727 13.4831 1.10563 13.5431 1.03566 13.5842C0.946045 13.6331 0.974245 13.6356 0.92474 13.6597C0.905941 13.658 0.886306 13.6657 0.866671 13.6735C0.866671 13.6735 0.885471 13.6751 0.894871 13.676C0.93247 13.6793 0.885471 13.6751 0.958165 13.71C1.10439 13.7704 1.12591 13.8481 1.32708 14.0365C1.32708 14.0365 1.52677 13.9216 1.70265 13.8614C1.88876 13.7927 2.09284 13.735 2.28752 13.6765C2.68545 13.5697 3.0723 13.4809 3.40192 13.3965C4.06032 13.2371 4.50608 13.1251 4.5324 13.0422C4.95873 13.0422 6.41236 12.7829 6.76935 12.7103C9.81282 12.3649 10.0871 12.3703 13.0888 12.0685L12.2524 12.0984C13.4023 11.6321 14.7431 11.7891 17.17 11.5594L17.1 11.6006C22.6934 11.4532 19.4959 11.2923 25.016 11.2237L24.7028 11.0159C25.1845 10.4997 29.5933 10.9955 32.7794 10.6438L31.6199 10.5787C33.358 10.3162 36.53 10.9769 38.2857 10.9434C38.672 10.9682 37.6896 11.042 37.154 11.0987C41.7541 11.1473 37.7326 10.7711 41.1454 10.5342C41.7873 10.6671 40.3568 10.9853 42.6575 10.8959C43.8068 10.9696 49.3072 10.056 52.4662 10.223C51.7637 10.1321 51.0706 10.0422 52.6586 9.87056C55.0975 9.71772 59.265 10.05 61.4496 9.56194C61.7598 9.5895 61.8811 9.60975 61.8974 9.63962C63.7511 9.46321 67.9413 9.21961 69.0532 8.96784C70.8096 9.67336 80.6207 8.1195 80.6034 8.84748L86.3307 8.57935L86.1813 8.66082C89.8465 8.56953 91.1361 8.34302 92.4164 8.11568C93.2674 8.13443 92.6533 8.22199 92.5833 8.26314C97.9419 8.19912 98.4766 8.15188 102.949 7.61123L103.423 7.82385C104.633 7.63766 111.177 7.88732 116.412 7.3955C116.362 7.42892 116.253 7.47614 115.842 7.52483C121.733 7.00603 130.012 7.5614 132.142 6.61376L136.033 6.22041C130.987 6.39742 136.77 5.8122 134.689 5.7789C136.673 5.63298 139.824 5.78027 137.394 5.94335L137.008 5.90911C136.13 6.40903 143.284 5.75605 143.163 6.0579C148.124 5.76913 153.024 5.54116 157.859 5.18431C160.293 4.98363 162.645 4.84208 165.125 4.33288C165.455 4.24847 165.744 4.19832 166.199 3.97353C166.239 3.95807 166.349 3.89205 166.431 3.82353C166.48 3.79951 166.687 3.60001 166.78 3.40929C166.848 3.2827 166.898 3.04081 166.887 2.8503C166.876 2.6504 166.819 2.54115 166.738 2.3918C166.705 2.33206 166.646 2.25102 166.611 2.21948L166.532 2.14616C166.48 2.09415 166.418 2.05071 166.355 2.00726C166.022 1.80717 165.864 1.77418 165.671 1.70964C164.977 1.52482 164.397 1.44485 163.788 1.36237C162.589 1.20849 161.413 1.11352 160.246 1.02877L161.298 1.4538C160.217 1.35777 159.133 1.28995 158.05 1.22212C157.199 1.09914 156.914 0.88442 159.241 1.03426C158.025 0.75568 155.341 1.00044 155.268 1.0698C150.731 0.742528 157.06 0.73631 155.663 0.67853L153.773 0.62433L154.195 0.680704C152.653 0.761634 152.517 0.901179 149.731 0.805253C147.969 0.686708 148.833 0.564459 148.135 0.530869C148.137 0.502669 147.902 0.491194 147.068 0.492913L142.976 0.375757L144.607 0.681682C142.789 0.775996 140.758 0.595636 142.642 0.933505C139.877 0.384711 127.384 0.554012 125.692 0.413112C123.155 0.5952 120.646 0.580725 117.541 0.551244C118.313 0.610314 118.778 0.916934 116.1 0.878028C117.076 0.244625 111.198 0.603628 109.031 0.155273C110.966 0.450318 101.414 0.255566 104.456 0.667941C102.224 0.63068 104.317 0.428146 102.624 0.287246C97.3041 0.553679 90.9023 0.202913 84.3316 0.367691C84.2292 0.45334 85.3282 0.560435 83.9222 0.710289L80.4492 0.34494C79.1558 0.400579 79.2592 0.836103 76.8843 0.587248C77.2194 0.654908 77.7228 0.746998 76.8472 0.792377C63.9617 0.585704 50.5586 1.62152 37.4586 1.37684C39.2316 1.46802 38.0604 1.53452 36.7004 1.59371C37.5812 1.59617 36.682 1.80051 36.8625 1.90181L31.3737 1.83111C30.3953 2.18001 25.5099 2.14395 24.9492 2.48259L26.6774 2.33292C24.3895 2.81183 29.939 2.94477 29.6221 3.41876C32.1799 2.88803 36.4381 3.69263 40.6428 2.96712C41.5759 3.02159 39.8503 3.14305 40.3545 3.22574C41.4169 2.998 42.7137 2.90476 45.1102 2.90921L44.8395 2.97043C51.5801 2.70705 54.4784 2.82239 62.0524 2.77516L61.4838 2.56359C63.114 2.55681 63.4584 2.62531 64.2224 2.66474C66.085 2.2807 59.649 2.74167 61.3432 2.3332C63.5151 2.73455 72.8266 2.11215 74.2895 2.60212C76.7936 2.56876 73.5533 2.35672 76.0583 2.31396L76.7292 2.43988L77.362 2.24975C79.0007 2.25321 79.8383 2.42236 79.8949 2.5316C79.4976 2.52473 78.763 2.58264 78.335 2.60146C80.4644 2.73377 84.335 2.46178 85.0699 2.50811L82.6587 2.45499C89.4899 2.23756 97.8367 2.34423 104.439 2.04012L103.936 1.93863C108.977 1.72318 107.972 2.04138 113.514 1.94622L113.312 1.97568C114.42 1.87515 115.903 1.81741 117.418 1.82881C116.024 1.9513 120.049 2.07201 118.219 2.20309C123.684 2.00641 120.923 2.04543 124.537 1.67486L125.374 1.85341C126.609 1.70732 126.712 1.62167 129.481 1.59289C127.214 1.72316 131.246 1.87291 128.701 2.05416C134.499 2.48392 137.32 1.75871 139.976 2.36412C142.649 1.91945 134.957 2.01306 136.452 1.93736C135.207 1.76051 138.66 1.60301 140.481 1.68897C142.334 1.73983 143.624 2.3566 148.276 2.46662C147.812 2.4539 147.781 2.489 147.318 2.47628C149.055 2.64956 150.735 2.40088 152.871 2.67586C154.078 2.42304 155.645 2.79915 155.999 2.44215L151.724 2.36552C154.141 2.35285 156.438 1.97902 160.404 2.45442C160.087 2.50207 158.9 2.52929 158.084 2.54208C159.243 2.72082 160.324 2.59898 161.518 2.80926C161.159 3.12783 156.351 2.53967 153.745 2.75352C154.988 2.94917 158.647 2.70581 157.329 3.04345C158.276 2.83388 159.415 2.91612 160.712 3.04075C161.988 3.17311 163.473 3.31444 164.924 3.40543L164.699 3.58446C164.803 3.59364 164.933 3.61473 165.083 3.63749C165.139 3.6425 165.186 3.65608 165.25 3.67132C165.26 3.67216 165.279 3.67383 165.26 3.67216C165.284 3.61743 165.376 3.43611 165.451 3.33856C165.554 3.12987 165.718 2.99283 165.768 2.96881C165.805 2.97215 165.768 2.96881 165.741 2.9475C165.659 2.91179 165.652 2.88275 165.566 2.7898C165.479 2.69685 165.403 2.59534 165.347 2.47669L165.332 2.43742C165.184 2.17799 165.291 2.36745 165.258 2.30771L165.249 2.30687C165.249 2.30687 165.138 2.37289 165.069 2.40464C164.893 2.47421 164.689 2.53188 164.486 2.57074C164.713 2.46775 164.969 2.35786 165.112 2.24735C165.161 2.22332 165.173 2.19596 165.184 2.17799C165.184 2.17799 165.226 2.23857 165.252 2.26927L165.25 2.28807L165.35 2.43909L165.357 2.46813L165.381 2.51763C165.436 2.64568 165.594 2.79231 165.644 2.86312C165.846 3.04212 165.814 2.87815 165.665 3.05446C165.553 3.14867 165.556 3.21531 165.417 3.40185C165.319 3.54473 165.232 3.77389 165.185 3.87395C165.234 3.74569 165.342 3.49 165.461 3.32999C165.536 3.23244 165.53 3.194 165.583 3.13238C165.616 3.07848 165.716 3.02103 165.717 3.00223C165.728 2.98427 165.787 2.96108 165.797 2.96191C165.778 2.96024 165.778 2.96024 165.76 2.94917C165.65 2.91095 165.628 2.83325 165.481 2.67805C165.43 2.60724 165.381 2.52703 165.35 2.44849L165.351 2.42969L165.252 2.26927L165.177 2.14896C165.128 2.06875 165.161 2.11909 165.152 2.10885L165.132 2.12598C165.132 2.12598 165.043 2.16547 165.004 2.18093C164.789 2.25656 164.516 2.33658 164.228 2.38673C163.659 2.49726 163.066 2.55829 162.475 2.60052C161.282 2.69355 160.094 2.73957 158.885 2.91636C163.935 2.37024 160.045 3.0763 162.204 2.98384C159.116 3.51481 158.177 3.41251 157.171 3.33256C156.156 3.24238 155.056 3.14469 151.533 3.44757C152.489 3.35247 155.124 3.3308 153.637 3.53978C152.288 3.59041 150.513 3.62226 149.676 3.55734C144.994 3.88996 150.407 3.74551 148.423 4.00506C146.809 3.83324 146.127 4.25586 144.082 4.45317L144.055 4.2234C138.709 4.36429 142.66 4.78162 137.842 4.84624L139.859 4.42856L137.358 4.64219L137.866 4.35577C135.147 4.68263 134.295 4.67328 131.618 4.72921C132.251 4.86119 131.287 5.15452 128.917 5.27561C127.292 5.21659 129.811 5.02343 126.46 5.19951C127.215 5.02024 128.03 4.80838 129.505 4.94888C129.654 4.8674 130.25 4.76877 130.4 4.6873C128.654 4.60802 126.027 4.84839 124.81 4.90131C125.275 4.88583 125.835 4.87869 126.127 4.89518L121.277 5.42123C120.505 5.37156 121.11 5.27377 121.715 5.18537C120.733 5.24977 120.048 5.38788 118.601 5.46776C118.97 5.26366 118.872 5.08444 120.915 4.90593L116.285 5.30935C115.968 5.24336 113.899 5.18269 114.494 5.09346C111.917 5.09194 108.196 5.7088 104.786 5.6996C104.612 5.74097 104.257 5.79467 103.532 5.84401C100.323 5.92838 97.4807 5.81804 93.6838 6.21975L91.5174 5.97046C88.5445 6.16114 94.4554 6.27882 89.5006 6.59661C85.993 6.83453 88.1759 6.36524 86.948 6.32249C85.2124 6.55676 82.1871 7.01753 78.9598 6.87296C80.0207 6.76825 80.8623 6.78616 81.8533 6.7226L81.8602 6.75164ZM45.167 8.45662C45.8751 8.37741 47.2869 8.16176 47.8169 8.27516C47.0229 8.57412 46.3871 8.47974 45.167 8.45662ZM11.2359 14.263C10.7141 14.3777 9.89649 14.4093 8.96945 14.3932C9.63913 14.3201 10.3918 14.2732 11.2359 14.263ZM166.652 12.7395C166.652 12.7395 166.605 12.7353 166.576 12.7422C165.001 12.5549 165.554 12.623 166.652 12.7395ZM169.941 13.0505C170.273 13.0421 170.258 13.0029 170.119 12.9621C169.888 13.0079 169.143 12.9607 168.306 12.8958C168.536 12.9731 168.956 13.0389 169.942 13.0411L169.941 13.0505ZM147.757 0.620504L148.395 0.696083C146.943 0.718728 147.354 0.679433 147.757 0.620504Z" fill="#CD4D14"/>
  <path d="M4.9251 15.0279C4.7183 15.0096 4.66607 14.9576 4.61218 14.9243C4.3329 14.9753 4.32872 15.0223 4.9251 15.0279Z" fill="#CD4D14"/>
  <path d="M104.679 5.72683L104.792 5.73685C104.851 5.70426 104.89 5.6982 104.901 5.68023L104.679 5.72683Z" fill="#CD4D14"/>
  <path d="M118.841 12.4897C118.164 12.4296 117.789 12.3868 117.537 12.3361C117.495 12.3891 117.802 12.4449 118.841 12.4897Z" fill="#CD4D14"/>
  <path d="M187.396 13.8614L185.282 13.7683C186.3 13.8303 186.662 13.9099 187.177 13.984C187.135 13.9234 186.736 13.8217 187.396 13.8614Z" fill="#CD4D14"/>
  <path d="M205.561 16.7063C205.874 16.7057 206.21 16.7639 206.524 16.7539L206.448 16.643C205.141 16.5363 204.211 16.5485 205.561 16.7063Z" fill="#CD4D14"/>
  <path d="M189.296 14.77C189.448 14.973 190.772 15.0053 192.252 15.0894C192.167 15.0819 192.083 15.0744 191.989 15.066C192.445 14.8318 190.865 14.8052 189.296 14.77Z" fill="#CD4D14"/>
  <path d="M192.591 15.0994C193.044 15.1207 193.515 15.1531 193.956 15.2017C194.135 15.104 193.403 15.1337 192.591 15.0994Z" fill="#CD4D14"/>
  <path d="M174.117 13.1924C174.809 13.2918 174.572 12.977 174.961 13.0779C175.755 12.8831 170.273 13.0499 174.117 13.1924Z" fill="#CD4D14"/>
  <path d="M190.436 15.4853L189.93 15.213L189.085 15.3369L190.436 15.4853Z" fill="#CD4D14"/>
  <path d="M178.807 14.4624L181.165 14.6908C181.165 14.6908 181.434 14.6484 181.803 14.6527C180.354 14.5335 178.757 14.3822 178.817 14.4538L178.807 14.4624Z" fill="#CD4D14"/>
  <path d="M181.793 14.6613C182.545 14.7281 183.271 14.7642 183.689 14.7539C183.284 14.718 182.398 14.6677 181.793 14.6613Z" fill="#CD4D14"/>
  <path d="M187.21 15.3126L186.518 15.2132L184.853 15.0748L187.21 15.3126Z" fill="#CD4D14"/>
  <path d="M153.447 12.8435L150.866 12.7754C150.595 12.846 151.298 12.9274 152.263 12.9468C152.88 12.9259 153.835 12.9444 153.447 12.8435Z" fill="#CD4D14"/>
  <path d="M161.194 13.9325C160.501 13.8426 160.459 13.782 160.07 13.6811L159.978 13.9667L161.195 13.9231L161.194 13.9325Z" fill="#CD4D14"/>
  <path d="M153.684 13.5772C153.422 13.6487 149.939 13.6046 153.203 13.7619C153.464 13.6998 156.054 13.7688 153.684 13.5772Z" fill="#CD4D14"/>
  <path d="M114.886 11.5706L115.539 11.5812L115.459 11.1003L114.886 11.5706Z" fill="#CD4D14"/>
  <path d="M80.6353 12.2219C83.6849 12.3412 81.3635 11.9171 84.1166 12.0669C84.8375 11.951 81.8634 11.9426 82.6013 11.8471C80.7621 11.9679 79.7922 11.9007 80.6362 12.2125L80.6353 12.2219Z" fill="#CD4D14"/>
  <path d="M82.6012 11.8577C82.8968 11.8366 83.212 11.8078 83.5452 11.79C83.0121 11.8185 82.7635 11.8437 82.6012 11.8577Z" fill="#CD4D14"/>
  <path d="M27.7056 1.75067L25.7337 1.76499L27.0146 1.85035L27.7056 1.75067Z" fill="#CD4D14"/>
  <path d="M23.9489 2.32695L23.4716 2.0477L22.3035 2.3987C22.7435 2.35251 23.6028 2.27726 23.9489 2.32695Z" fill="#CD4D14"/>
  <path d="M39.6748 8.10117L39.5254 8.18264C39.8323 8.2478 40.2979 8.23231 41.2197 8.20051L39.6748 8.10117Z" fill="#CD4D14"/>
  <path d="M66.3272 7.13342L65.8718 7.14034L66.7404 7.38803L66.3272 7.13342Z" fill="#CD4D14"/>
  <path d="M88.6736 5.88756C87.7595 5.939 86.6933 5.99588 85.7707 6.03709C87.762 5.9108 88.928 6.22281 88.6736 5.88756Z" fill="#CD4D14"/>
</svg>
