<svg width="100%" height="100%" viewBox="0 0 168 67" fill="none" xmlns="http://www.w3.org/2000/svg">
  <g clip-path="url(#clip0_423_52623)">
    <path d="M87.872 0.499185C88.489 0.58939 88.2968 0.358866 88.3979 0.328797C87.346 0.258637 87.8922 0.559322 87.872 0.499185Z" fill="#CD4D14"/>
    <path d="M77.5981 0.470515L77.7801 0.38031L76.2832 0.620858L77.5981 0.470515Z" fill="#CD4D14"/>
    <path d="M68.0785 1.09107C69.009 1.34164 71.5073 0.670113 73.2166 0.700181L73.4998 0.760318L74.2483 0.429565C72.1748 0.579908 69.5248 1.01089 68.0684 1.09107H68.0785Z" fill="#CD4D14"/>
    <path d="M62.9125 1.03149C63.2463 1.1217 61.8404 1.31213 64.0959 0.891174C63.9846 0.891174 63.9442 0.891174 63.8734 0.891174C63.6711 0.921243 63.3879 0.961334 62.9024 1.03149H62.9125Z" fill="#CD4D14"/>
    <path d="M63.8833 0.880262C63.2158 0.860216 64.8847 0.719897 63.8833 0.880262V0.880262Z" fill="#CD4D14"/>
    <path d="M59.2992 1.74999L60.5838 1.38917C60.3005 1.3591 59.1273 1.55956 59.5521 1.41924C58.217 1.73997 58.5204 1.77004 59.2992 1.76001V1.74999Z" fill="#CD4D14"/>
    <path d="M58.1172 2.25232L58.7847 2.06189C58.6634 2.06189 58.4813 2.07191 58.1172 2.25232Z" fill="#CD4D14"/>
    <path d="M60.1895 1.69141L58.7734 2.07227C58.9757 2.09232 59.0162 2.20257 59.4208 1.90189C59.3196 2.03218 59.5826 1.87182 60.1794 1.69141H60.1895Z" fill="#CD4D14"/>
    <path d="M61.0098 1.59086C61.7582 1.54075 62.7191 1.4305 61.4245 1.77127C63.9227 1.31023 63.508 1.11979 61.0098 1.59086Z" fill="#CD4D14"/>
    <path d="M67.634 1.52133H68.6252L69.4647 1.31085C69.05 1.4211 67.5531 1.41108 67.634 1.52133Z" fill="#CD4D14"/>
    <path d="M51.1785 3.40569C51.1178 3.4959 51.664 3.48587 51.7854 3.55603L52.7159 3.22528C52.2102 3.29544 51.2797 3.4959 51.1785 3.39567V3.40569Z" fill="#CD4D14"/>
    <path d="M51.7841 3.5567L50.3984 4.04782C51.6729 3.73711 51.8853 3.61684 51.7841 3.5567Z" fill="#CD4D14"/>
    <path d="M57.963 2.6937C58.7317 2.44313 59.5004 2.19256 60.2691 1.96204C59.3486 2.22263 58.4282 2.50327 57.5078 2.78391L57.963 2.68368V2.6937Z" fill="#CD4D14"/>
    <path d="M45.7764 4.92851L46.5148 4.51758L45.1797 5.20915L45.7764 4.92851Z" fill="#CD4D14"/>
    <path d="M42.238 6.09208C42.7741 5.76132 41.3581 6.12214 41.9447 5.83148C40.9939 6.18228 40.2151 6.59322 39.5273 6.95404C40.2859 6.61326 41.1254 6.33262 42.238 6.08205V6.09208Z" fill="#CD4D14"/>
    <path d="M38.3633 7.57604C38.7375 7.40565 39.1118 7.19517 39.5264 6.97467C39.1219 7.15508 38.7375 7.35554 38.3633 7.57604Z" fill="#CD4D14"/>
    <path d="M47.9819 4.68924C47.8605 4.67922 47.6178 4.61908 46.8086 4.80952L47.4256 4.84961C47.5975 4.79949 47.7897 4.74938 47.9819 4.68924Z" fill="#CD4D14"/>
    <path d="M47.4462 4.84747H47.4259C46.8292 5.01786 46.4044 5.13813 46.2324 5.18825C46.3841 5.14816 46.7483 5.04793 47.4563 4.84747H47.4462Z" fill="#CD4D14"/>
    <path d="M48.1229 4.64783C48.072 4.65791 48.0313 4.67807 47.9805 4.68815C48.0415 4.68815 48.072 4.68815 48.1229 4.64783Z" fill="#CD4D14"/>
    <path d="M54.1832 3.3252C53.374 3.64593 51.6748 4.18716 53.3943 3.95663C53.9607 3.66597 52.9695 3.80629 54.1832 3.3252Z" fill="#CD4D14"/>
    <path d="M48.8809 4.70805L50.3879 4.3372C50.3879 4.3372 50.0541 4.28709 50.4486 4.1167L48.8809 4.70805Z" fill="#CD4D14"/>
    <path d="M48.1719 4.99066L48.8799 4.71002L48.3236 4.85034L48.1719 4.99066Z" fill="#CD4D14"/>
    <path d="M40.9423 6.8536C40.3354 7.16431 39.6476 7.41488 38.8789 7.71556C39.7285 7.44495 40.5984 7.15429 41.4278 6.87365C41.5188 6.77342 41.8425 6.53287 40.9423 6.8536Z" fill="#CD4D14"/>
    <path d="M44.0975 5.85028C44.0975 5.85028 43.9958 5.8906 43.9551 5.91076C44.0466 5.90068 44.1178 5.88052 44.0975 5.85028Z" fill="#CD4D14"/>
    <path d="M31.3047 10.7933L31.4369 10.7731L31.4573 10.7328L31.3047 10.7933Z" fill="#CD4D14"/>
    <path d="M41.5814 6.86342C42.2287 6.68301 42.5928 6.51262 42.9266 6.33221C42.4512 6.5026 41.9556 6.68301 41.4297 6.88347C41.3892 6.93358 41.3892 6.95363 41.5814 6.87345V6.86342Z" fill="#CD4D14"/>
    <path d="M36.2598 8.47782C36.6037 8.39764 36.988 8.28739 37.3825 8.16711C37.0386 8.22725 36.3508 8.37759 36.2598 8.47782Z" fill="#CD4D14"/>
    <path d="M43.7234 5.92223C43.7234 5.92223 43.7841 5.89216 43.8145 5.88214C43.5919 5.91221 43.6223 5.92223 43.7234 5.92223Z" fill="#CD4D14"/>
    <path d="M43.7248 5.92251C43.4113 6.06283 43.1685 6.19313 42.9258 6.32342C43.3101 6.1831 43.654 6.04279 43.9575 5.90247C43.8765 5.91249 43.7855 5.92251 43.7248 5.91249V5.92251Z" fill="#CD4D14"/>
    <path d="M29.6429 13.0671C29.653 12.8365 31.16 11.9345 32.6266 11.5236C33.9314 10.8119 32.7784 10.5714 31.4331 10.7718C31.4331 10.8721 31.4534 10.9422 30.1081 11.6839C30.6442 11.5536 33.3144 10.5313 32.2119 11.2128C30.4116 12.1349 30.6644 11.8242 29.7339 12.145C30.5936 12.0047 27.5593 13.5682 28.1257 13.7186L29.6631 12.8365C29.7137 12.8766 29.1776 13.2274 29.6429 13.0671Z" fill="#CD4D14"/>
    <path d="M34.1335 9.63895L34.71 9.37836C34.0323 9.6189 33.5266 9.7492 32.5859 9.97973C31.6554 10.4809 31.4936 10.6513 31.4531 10.7314C32.4039 10.3105 33.3648 9.91959 34.3256 9.5287L34.1335 9.63895Z" fill="#CD4D14"/>
    <path d="M37.3508 8.32703C36.9665 8.7079 35.5909 9.33933 36.5417 9.21906C38.2611 8.53751 37.6846 8.5776 38.6859 8.10653C35.9044 9.20904 39.4445 7.67555 37.3812 8.33705C37.9172 8.08648 38.4128 7.89605 38.8781 7.71564C38.3623 7.876 37.8667 8.02634 37.3913 8.16666C37.4216 8.16666 37.4419 8.16666 37.4621 8.15664H37.4722C37.6037 8.1366 37.6441 8.1366 37.5025 8.17669C37.5025 8.17669 37.4621 8.19673 37.4418 8.20675C37.4418 8.23682 37.3913 8.28694 37.3407 8.32703C36.5113 8.59764 37.189 8.32703 37.4418 8.20675C37.4418 8.19673 37.4621 8.17669 37.4621 8.16666H37.452C36.5315 8.56758 35.6111 8.96849 34.7109 9.37942C35.3077 9.16894 36.0461 8.85824 37.3508 8.32703Z" fill="#CD4D14"/>
    <path d="M51.9571 4.79812C51.8661 4.79812 51.8661 4.7881 51.8559 4.77808C51.6739 4.84824 51.6132 4.88833 51.9571 4.79812Z" fill="#CD4D14"/>
    <path d="M50.7434 4.98065C50.9457 4.90047 51.0974 4.77017 51.7852 4.60981C52.3921 4.5196 51.8054 4.71004 51.856 4.77017C52.2505 4.60981 53.2518 4.24899 51.9369 4.47951L51.7447 4.5597C50.5613 4.7802 49.0037 4.95058 49.1959 4.86038C49.5904 4.95058 49.9241 5.0007 50.7434 4.98065Z" fill="#CD4D14"/>
    <path d="M43.9455 6.55219C43.1667 6.85287 42.3878 7.13351 41.6191 7.44422L42.8733 7.21369L42.7722 7.12349C44.1275 6.72257 43.7938 6.68248 43.9354 6.55219H43.9455Z" fill="#CD4D14"/>
    <path d="M30.9987 10.8116L31.201 10.4708L30.0176 11.3528L30.9987 10.8116Z" fill="#CD4D14"/>
    <path d="M28.0573 12.205L28.0775 11.9744L27.3594 12.4655L28.0573 12.205Z" fill="#CD4D14"/>
    <path d="M132.842 56.0558L133.519 55.8052C133.196 55.9155 132.994 55.9957 132.842 56.0558Z" fill="#CD4D14"/>
    <path d="M127.796 57.408L127.695 57.5383C127.918 57.4281 127.999 57.3679 127.796 57.408Z" fill="#CD4D14"/>
    <path d="M31.3203 63.0508C32.3115 63.5018 33.4241 64.043 33.3432 63.7925L33.0701 63.5118C32.3318 63.3916 31.7755 63.2111 31.3203 63.0508Z" fill="#CD4D14"/>
    <path d="M85.4763 65.2266C85.3751 65.2166 85.2639 65.1966 85.1627 65.1765C84.9099 65.2667 84.6772 65.3569 84.4648 65.4271C84.7683 65.3669 85.1122 65.2968 85.4763 65.2166V65.2266Z" fill="#CD4D14"/>
    <path d="M86.1641 64.2734L87.5599 64.3034C87.2463 64.2834 86.7912 64.2633 86.1641 64.2734Z" fill="#CD4D14"/>
    <path d="M158.645 44.7294L159.161 44.0679C158.149 44.8196 158.655 44.5791 158.645 44.7294Z" fill="#CD4D14"/>
    <path d="M2.38464 33.1713C1.87891 33.9932 1.53502 34.7048 1.3125 35.3563C1.81822 34.2738 2.41498 33.5221 2.38464 33.1713Z" fill="#CD4D14"/>
    <path d="M131.488 58.8309C131.913 58.6805 132.085 58.5803 132.054 58.5402C131.619 58.7006 131.377 58.8008 131.488 58.8309Z" fill="#CD4D14"/>
    <path d="M0.605469 38.1356C0.656041 37.9652 0.696499 37.7948 0.747072 37.6244C0.787529 37.2636 0.858331 36.9028 0.949361 36.5319C1.03028 36.1611 1.14154 35.7702 1.30337 35.3593C0.908903 36.141 0.605469 37.1433 0.605469 38.1356Z" fill="#CD4D14"/>
    <path d="M85.4657 10.8515C85.3848 10.8515 85.3038 10.8515 85.233 10.8515C85.2128 10.8816 85.314 10.8715 85.4657 10.8515Z" fill="#CD4D14"/>
    <path d="M55.2422 14.2914C55.5254 14.1912 55.9907 14.0408 56.4357 13.9005C56.2132 13.9506 55.8491 14.0709 55.2422 14.2914Z" fill="#CD4D14"/>
    <path d="M16.6055 18.5895C16.6864 18.5093 17.1719 18.1986 16.6055 18.5895V18.5895Z" fill="#CD4D14"/>
    <path d="M19.9036 17.5066C19.7923 17.5968 19.7114 17.687 19.7316 17.7371C19.7519 17.667 19.8125 17.5868 19.9036 17.5066Z" fill="#CD4D14"/>
    <path d="M2.88215 44.8902C2.88215 44.8902 2.89232 44.9204 2.90249 44.9406C2.8618 44.739 2.87197 44.7692 2.88215 44.8902Z" fill="#CD4D14"/>
    <path d="M17.5366 18.0985C17.304 18.2188 17.041 18.3691 16.7578 18.5295C16.8893 18.4694 17.1219 18.329 17.5366 18.0985Z" fill="#CD4D14"/>
    <path d="M17.3555 18.0886C17.5578 17.9683 17.7196 17.8681 17.8713 17.7779C17.9219 17.7077 17.841 17.7177 17.3555 18.0886Z" fill="#CD4D14"/>
    <path d="M15.8184 19.1411C16.142 18.9105 16.4556 18.7101 16.759 18.5297C16.6376 18.5898 16.5871 18.6098 16.6073 18.5898C16.4353 18.7101 16.2027 18.8704 15.8184 19.1411Z" fill="#CD4D14"/>
    <path d="M140.507 15.6022C140.507 15.6022 140.416 15.5621 140.376 15.5421C139.698 15.4218 139.992 15.492 140.507 15.6022Z" fill="#CD4D14"/>
    <path d="M49.2454 63.8438C49.2454 63.8438 49.1946 63.8438 49.1641 63.8438C49.1946 63.8438 49.2353 63.8538 49.2658 63.8639L49.2454 63.8438Z" fill="#CD4D14"/>
    <path d="M51.681 63.9227C50.619 64.0931 50.0425 63.9929 49.2637 63.8626L50.002 64.5642L51.681 63.9227Z" fill="#CD4D14"/>
    <path d="M144.676 52.0461L143.017 52.467C144.827 51.4647 146.223 50.9836 144.645 51.3244C144.666 51.6953 143.128 52.2866 141.581 52.8679C140.033 53.4392 138.465 53.9805 138.465 54.3313L137.353 54.5417C137.656 54.4515 137.697 54.3914 138 54.3012C135.825 54.672 136.604 55.2634 133.873 55.995C132.913 56.2155 132.225 56.3158 132.842 56.0452C132.154 56.2957 131.466 56.5663 130.778 56.7969C130.161 56.9472 130.273 56.7969 130.89 56.6465C129.817 56.9472 128.745 57.2679 127.663 57.5586L127.683 57.5285C127.248 57.749 126.237 58.17 125.741 58.3705C124.892 58.4807 126.136 58.2001 125.903 58.17L124.133 58.7613C123.354 58.7613 124.821 58.2502 126.065 57.9695C124.224 57.719 124.609 58.5108 120.876 58.9418L122.565 58.4807C121.382 58.3504 120.077 58.7914 118.095 58.9518C118.58 59.0019 122.09 58.7112 120.168 59.3126C119.602 59.3828 118.863 59.5131 117.832 59.8639C117.771 59.6233 116.75 59.9039 115.445 60.1645L115.475 59.8338C114.079 60.1946 114.221 60.3249 113.422 60.6256C111.844 60.8862 111.47 60.6857 111.065 60.5454C108.537 60.9363 112.876 60.6356 109.902 61.2169C107.778 61.4374 106.322 61.8083 103.823 62.3595C102.326 62.4698 104.056 62.129 103.51 62.119L102.235 62.55C101.912 62.5901 102.003 62.4898 102.053 62.4497C100.961 62.6903 102.003 62.7805 100.273 63.0912C99.8482 63.5122 96.6318 63.0311 94.5179 63.6425C93.9717 63.6124 94.7505 63.422 94.5786 63.3117C91.6454 63.893 92.0601 63.7527 89.6528 64.334L87.5591 64.2939C89.1067 64.4142 87.1748 64.8552 85.4756 65.216C86.0319 65.2962 86.4971 65.3564 86.8107 65.3864L84.0798 65.7472C83.746 65.7172 84.0191 65.5869 84.454 65.4265C84.2719 65.4666 84.1 65.5067 83.9584 65.5368C82.9672 65.4766 83.4729 65.2661 84.1607 65.0356C84.4945 65.0857 84.8282 65.1258 85.162 65.1659C85.8296 64.9354 86.4364 64.6648 86.2847 64.4844C86.1128 64.5345 85.7689 64.5946 85.3946 64.6347C85.5666 64.5746 85.6779 64.5144 85.5969 64.4944C85.5059 64.4643 85.2227 64.5545 84.7777 64.6648L84.1303 64.3441L83.9887 64.4944C82.7952 64.4944 81.6017 64.4944 80.4082 64.4743C77.8695 64.9655 75.6645 65.5668 71.5884 65.7873C72.5998 65.5067 71.8008 65.3564 71.8513 65.0457C72.9639 65.3463 74.997 64.8652 77.1008 64.8452C75.9983 64.8452 76.241 64.6948 76.5141 64.6347C75.27 64.7851 74.0159 64.9053 72.7718 65.0256C72.8527 64.765 71.9727 64.8652 70.9916 64.755C71.7401 65.2461 68.1899 65.1158 66.6626 65.2361C66.5716 65.0657 66.9357 64.9053 68.7968 64.9554C66.7435 64.5646 66.1367 65.5267 64.1138 65.1659C64.5689 65.1659 64.8117 65.206 64.9937 65.1258C63.9317 65.2461 61.3323 65.0557 61.9493 64.9254H62.4044C59.3802 64.8051 53.2306 64.4443 52.7451 64.8051C52.7249 64.745 53.18 64.324 53.3722 64.2538C51.5415 64.5946 49.7107 64.8853 47.8497 65.1659C48.3655 64.8552 46.6562 63.7928 49.1646 63.8529C48.4565 63.7327 47.5867 63.5623 46.0695 63.5122C46.5449 63.6224 47.2125 64.1837 46.5449 64.1336C44.7749 63.5021 45.3008 63.7627 43.1161 63.1012C43.8342 63.2816 42.934 63.7327 41.7911 63.5422C41.9833 63.4821 41.7911 62.9709 42.2159 62.9709L39.2726 63.0511C40.0008 63.0712 39.485 62.6001 38.8781 62.3395C39.1512 62.4999 36.4405 61.8584 35.6718 61.7582C36.0562 61.8885 36.4507 61.9987 36.8451 62.129C33.6793 61.3773 33.5174 62.2493 30.3718 61.4174C30.7865 61.3973 31.4844 60.9664 29.9268 60.4853C29.1379 60.5654 26.326 60.9363 23.494 60.1746L23.0287 59.8338C22.3106 59.6434 21.5824 59.4529 20.8743 59.2224C22.3814 59.3727 26.3159 59.7636 28.3692 59.9741C27.2465 59.5131 28.0961 59.7135 26.3665 59.1723C25.8102 58.8215 27.378 59.2625 27.8837 59.3928C26.5587 58.9418 25.2236 58.5108 23.9289 57.9896C23.9593 58.18 23.1804 57.9896 22.3915 57.7891C21.6127 57.5586 20.8339 57.3181 20.8541 57.4784C22.3106 57.9595 23.7873 58.3604 25.264 58.7413C25.3348 59.1322 22.4219 58.8115 19.6505 57.5787C19.0032 57.1577 20.4192 57.2479 20.399 57.1176C19.9843 57.1176 17.7287 56.1654 17.5062 55.985L18.7301 56.3458C18.0018 55.9449 17.3444 55.7745 16.6667 55.514C15.989 55.2534 15.2608 54.9928 14.4921 54.3513C13.9055 53.9905 12.9547 52.9682 12.7625 53.0483C13.4807 53.9704 13.1064 55.083 12.277 54.9527C12.1759 54.8725 11.4578 54.2912 10.6688 53.6597C9.90012 53.0183 9.14154 52.2565 8.87856 51.9559C8.15032 51.0438 10.6992 52.3969 10.0721 51.6151C9.98104 51.6652 9.41463 51.3846 9.18199 51.2643C8.66616 50.7531 9.58657 51.2342 8.36272 50.272C7.90757 50.3923 6.02628 48.1672 7.60414 50.0215C6.40051 49.0793 6.44097 48.8989 5.2778 47.5859C5.46998 48.1773 3.61903 46.8342 2.84021 45.411C2.9717 45.451 2.89078 45.1003 2.88067 44.9198C2.23334 43.4665 2.02094 42.2437 1.97037 41.0711C1.92991 39.8984 2.02094 38.7458 2.35472 37.3225C2.42552 37.2023 2.58735 36.8114 2.71884 36.5307C2.86044 36.2501 2.99193 36.0897 2.96159 36.3904C3.05262 35.9895 3.02227 35.5786 3.39651 34.7567C3.882 34.025 3.68983 34.4861 3.48754 34.9973C3.26502 35.4984 3.13353 36.0697 3.50777 35.5285C3.43697 35.4383 3.58868 34.897 3.84155 34.2155C3.98315 33.8847 4.14498 33.5139 4.2967 33.1631C4.46864 32.8123 4.64059 32.4715 4.78219 32.1909C4.55967 32.2811 4.12475 32.8925 3.78086 33.6843C3.40662 34.456 3.13353 35.3881 2.99193 35.9995C2.58735 35.9093 2.84021 33.5039 4.52933 30.7676C5.92513 28.6628 5.39918 30.056 5.60147 29.6651C7.0883 27.851 7.67494 27.0391 8.19078 26.2774C8.71673 25.5257 9.21234 24.8642 10.7902 23.6815C12.1557 22.8897 11.1948 24.0423 11.5892 23.9722C10.1328 25.3653 9.15165 25.9066 8.20089 26.9088C8.6257 26.538 9.05051 26.1571 9.49554 25.8164C9.08085 26.3175 8.19078 27.3198 7.64459 27.8109C8.16043 27.41 9.52589 26.0068 11.2251 24.5435C12.9244 23.0701 14.9574 21.5567 16.4948 20.6346C16.96 20.1936 17.8299 19.512 17.3343 19.7125C17.0207 19.933 16.7173 20.1535 16.4139 20.384C15.4226 20.7949 18.0119 18.9307 16.7577 19.6523C17.9411 18.6801 19.256 17.5275 21.1879 16.5453L21.6936 16.6054C21.6026 16.5453 20.3888 17.1667 19.9135 17.5576C20.6114 16.9662 22.968 16.2345 23.6356 15.4227L22.2095 15.974C23.4636 15.0719 25.0011 13.8892 26.761 13.1074C25.8406 13.2277 26.3867 13.338 25.0011 13.6487C26.2451 13.4582 20.6619 15.984 22.5635 15.4728C21.1373 15.8036 20.3686 16.5252 18.6188 17.1967C18.72 17.2569 19.2763 17.0163 17.8805 17.8382C17.8299 17.8983 17.7085 18.0286 17.6276 18.1088C17.5871 18.1289 17.5669 18.1389 17.5366 18.1589C17.5669 18.1489 17.5871 18.1389 17.6175 18.1188C17.5669 18.169 17.5669 18.179 17.6478 18.1088C17.9917 17.9384 18.2951 17.8182 18.4266 17.7981C17.8602 18.4095 15.7362 19.8428 15.1091 20.4441C14.31 20.9653 15.3619 20.1134 14.8765 20.3339L13.9358 21.246C13.6931 21.1257 11.6803 22.5189 13.3896 21.0154L11.7713 22.2683C10.7599 22.9298 9.44497 23.9822 8.77742 24.774C8.01883 25.3954 7.20967 26.6883 7.67494 25.9567C6.94669 26.7585 6.24879 27.5804 5.60147 28.4524H5.54078C3.48754 30.938 1.89957 34.005 0.756628 37.6934C0.604911 38.8159 0.523995 40.0087 0.695941 41.923C0.635255 42.0533 0.604911 42.1936 0.564453 42.3239C0.726285 43.0556 0.938689 44.1681 1.32304 45.1103C1.49499 45.5914 1.69728 46.0223 1.88945 46.3631C2.08163 46.7039 2.24346 46.9645 2.37495 47.0647C2.55701 47.8766 3.58868 49.39 4.95414 50.683C5.63181 51.3445 6.38028 51.9258 7.05795 52.457C7.72551 53.0183 8.38295 53.4493 8.85833 53.8301L9.08085 53.6798C10.4261 54.6821 11.832 55.4739 13.6829 56.406V56.1454C14.4921 56.5263 15.5035 57.0374 16.5959 57.6789C17.7186 58.2502 18.9526 58.9317 20.2574 59.4229C20.045 59.4229 19.3976 59.1422 18.9526 58.9017C21.8554 60.7058 25.6686 61.0566 28.4602 62.2192C29.2087 62.3495 29.7245 62.5299 30.2201 62.7003C30.1493 62.6803 30.0886 62.6702 30.0381 62.6702C30.1089 62.6903 30.2201 62.7204 30.3415 62.7504C30.6551 62.8707 30.9787 62.991 31.3226 63.1213C31.0293 62.991 30.7461 62.8707 30.5033 62.7905C31.0697 62.9208 31.9295 63.1213 32.7791 63.2716L33.0825 63.5823C33.1533 63.5923 33.2039 63.6024 33.2747 63.6224C34.0839 63.893 33.9625 63.6625 33.568 63.3819C34.0029 63.442 34.3974 63.4821 34.711 63.4921C35.2976 64.0333 36.9463 63.8128 37.7858 64.4042C38.3926 64.334 42.0743 65.0056 42.5901 64.6247C42.6104 64.6848 42.8531 64.745 42.398 64.6848C43.3386 64.8652 44.2793 65.0657 45.139 65.0557L45.5031 65.4065L47.6272 65.2561C48.8611 65.5869 49.377 65.7372 48.0924 65.8475C51.1571 65.7873 50.5604 65.9778 53.1699 65.8274L53.0283 66.0179C53.9487 66.098 55.4355 65.9377 55.9817 66.1281C58.0248 66.6894 66.1872 66.6794 71.4872 66.94C70.4556 66.3687 73.9552 67.1605 74.1574 66.6994C74.471 66.8297 75.2094 66.8999 74.3496 67.0302C77.0502 66.8197 78.4258 67.1304 80.2767 66.6593C80.5903 66.7796 79.7103 66.8898 79.9834 66.96C80.1958 66.9199 80.833 66.7996 81.1263 66.8698C81.4095 66.94 80.7319 67.0001 80.3071 67.0903C83.0784 66.94 83.3212 66.4689 83.5032 66.068C84.9092 66.1682 85.607 66.1081 86.5983 65.7573C87.0939 65.8475 87.9132 65.9277 86.2038 66.098C87.1647 66.0579 92.1006 65.8074 92.1714 65.4666C92.4849 65.5267 93.5166 65.3564 93.7694 65.2962C95.9238 65.0958 96.116 65.1058 98.2299 64.8151L97.6433 64.8352C98.4322 64.3541 99.3931 64.5545 101.082 64.2739L101.042 64.324C104.976 64.0835 102.701 63.9632 106.584 63.7327L106.342 63.5222C106.615 62.9509 109.781 63.3017 111.965 62.7003H111.146C112.319 62.3295 114.656 62.7905 115.88 62.6201C116.153 62.6201 115.475 62.7705 115.111 62.8707C118.358 62.57 115.465 62.4898 117.812 61.9486C118.287 62.0288 117.336 62.4898 118.934 62.1891C119.764 62.1691 123.425 60.6657 125.65 60.4552C125.145 60.4352 124.639 60.4251 125.711 60.0743C127.37 59.6333 130.343 59.4128 131.729 58.601C131.952 58.5809 132.043 58.591 132.053 58.621C133.287 58.17 136.109 57.2679 136.786 56.8069C137.494 57.0274 139.406 56.3058 141.156 55.5841C142.906 54.8725 144.473 54.1308 144.605 54.5016C145.869 54.0206 147.113 53.4893 148.347 52.9581L148.276 53.0684C150.684 52.1062 151.422 51.5048 152.17 50.9636C152.727 50.7431 152.373 51.0037 152.342 51.0638C154.082 50.2921 155.013 49.821 155.842 49.3098C156.661 48.7987 157.4 48.2675 158.613 47.2351L159.028 47.2552C159.352 46.9545 160.555 46.2729 161.961 45.2105C163.367 44.1581 164.986 42.6747 165.946 40.9508C165.946 41.0009 165.946 41.0911 165.785 41.3617C166.098 40.9107 166.341 40.3695 166.665 39.8683C166.907 39.3171 167.221 38.7759 167.413 38.1645C167.888 36.9818 168.02 35.6487 167.979 34.426C167.716 31.9503 166.665 30.2464 165.886 29.7754C165.643 29.3644 165.319 29.0036 165.006 28.6528L164.075 27.5904C166.179 30.5371 163.448 27.4 164.207 28.6829C163.984 28.4223 163.772 28.0815 163.539 27.7808C163.296 27.4902 163.084 27.2095 162.942 26.999C162.649 26.5681 162.629 26.4077 163.236 27.0291L163.387 27.2596C163.782 27.3398 163.064 26.4779 162.234 25.6259C161.354 24.8241 160.414 24.0022 160.555 23.902C157.764 21.687 154.75 19.9129 151.695 18.3694C150.178 17.5676 148.61 16.9161 147.073 16.2345C145.505 15.6332 143.968 14.9817 142.39 14.4906L142.987 15.0719L140.812 14.3503C140.266 14.0796 140.134 13.8291 141.682 14.3503C140.933 13.8692 139.012 13.6787 138.941 13.7689C135.906 12.7566 140.266 13.6988 139.325 13.4282L138.03 13.0874L138.304 13.2077C137.221 13.0673 137.09 13.1575 135.188 12.6564C134.005 12.2856 134.622 12.2856 134.157 12.1553C134.157 12.1252 134.005 12.0751 133.428 11.9648C132.498 11.7143 131.557 11.4938 130.617 11.2933L131.679 11.8145C130.394 11.6942 129.029 11.2432 130.263 11.8345C129.817 11.614 128.938 11.3434 127.845 11.0828C126.753 10.8423 125.458 10.6017 124.174 10.3712C121.615 9.98031 119.137 9.64956 118.55 9.51926C116.75 9.52929 115 9.28874 112.825 9.0983C113.361 9.20856 113.655 9.55935 111.783 9.3589C112.158 9.05821 111.298 8.90787 110.165 8.76755C109.032 8.6573 107.616 8.54705 106.868 8.26641C107.535 8.46687 106.2 8.39671 104.956 8.39671C103.712 8.39671 102.569 8.42678 103.621 8.67735C102.053 8.57712 103.53 8.42678 102.347 8.23634C100.475 8.28646 98.412 8.3065 96.2273 8.23634C94.0526 8.23634 91.7567 8.18623 89.4506 8.38668C89.3798 8.47689 90.1687 8.56709 89.1775 8.75753L86.7095 8.47689C85.7992 8.57712 85.9105 9.04819 84.2214 8.89785C84.4641 8.94796 84.8282 9.02814 84.2214 9.11835C79.68 9.27871 75.0981 10.0404 70.5264 10.8824C65.9546 11.7644 61.4233 12.8168 56.8617 13.6888C58.1159 13.5284 57.3168 13.7589 56.3964 14.0195C57.0033 13.8992 56.447 14.23 56.5987 14.3102L52.8159 15.1421C52.2394 15.6232 48.9117 16.5152 48.6386 16.9462L49.7714 16.4851C48.3756 17.3872 52.1787 16.5052 52.1079 17.0464C53.706 16.1243 56.801 16.1744 59.4813 14.8714C60.1388 14.7913 58.9857 15.1621 59.3498 15.1822C60.0174 14.8013 60.867 14.4806 62.5258 14.1899L62.3539 14.2801C64.6397 13.7389 66.2783 13.338 68.0079 13.0974C69.7374 12.8268 71.5378 12.5261 74.1574 12.2054L73.7326 12.035C74.8554 11.8846 75.1082 11.9247 75.6342 11.8947C76.8681 11.3334 72.4886 12.3758 73.591 11.7944C75.1487 11.9849 81.5309 10.6619 82.6031 11.163C84.3427 11.0026 82.067 10.9425 83.8067 10.7721L84.2821 10.8723L84.7069 10.6418C85.8498 10.5616 86.4364 10.702 86.4971 10.8222C86.2139 10.8222 85.7183 10.9225 85.4149 10.9625C86.9017 10.9926 89.582 10.6218 90.0878 10.6418H88.4088C90.7756 10.4013 93.4256 10.3512 96.0452 10.261C98.6649 10.2409 101.274 10.2008 103.58 10.1407L103.237 10.0204C106.767 9.89011 106.048 10.261 109.912 10.3512L109.771 10.3712C110.549 10.3111 111.581 10.3512 112.633 10.4514C111.652 10.5015 114.433 10.8623 113.149 10.8924C116.962 11.0227 115.04 10.9124 117.599 10.7621L118.155 11.0127C119.035 10.9425 119.116 10.8623 121.038 11.0928C119.45 11.0227 122.211 11.5539 120.431 11.5038C122.404 11.9849 123.9 12.1051 125.124 12.2655C126.348 12.4058 127.299 12.496 128.149 12.9872C129.109 12.927 128.27 12.6664 127.309 12.466C126.348 12.2755 125.276 12.1152 125.802 12.1553C124.973 11.8546 127.39 12.0149 128.624 12.3457C129.888 12.6464 130.657 13.3881 133.792 14.1698C133.479 14.0897 133.449 14.1197 133.135 14.0396C134.278 14.4605 135.492 14.4104 136.867 15.0418C137.757 14.9717 138.718 15.5831 139.062 15.2724L136.169 14.5507C137.818 14.9115 139.497 14.8714 142.066 15.974C141.833 15.974 141.014 15.8236 140.458 15.7033C141.196 16.0642 141.975 16.1143 142.734 16.4851C142.37 16.8058 139.285 15.4127 137.444 15.2523C137.838 15.4528 138.678 15.6131 139.295 15.7535C139.902 15.9138 140.296 16.0341 139.8 16.0942C141.206 15.974 142.815 17.1166 144.989 17.5074L144.767 17.6778C145.1 17.768 145.819 17.8983 146.405 18.1489C146.021 18.0888 145.606 18.0687 145.222 18.0286C146.102 18.199 146.86 18.5999 147.609 18.9908C148.347 19.3917 149.086 19.7626 149.864 20.0833C146.648 18.65 149.268 19.492 147.963 18.7402C150.057 19.4218 150.522 19.9129 151.078 20.3539C151.351 20.5844 151.634 20.825 152.12 21.1457C152.595 21.4865 153.263 21.8974 154.335 22.4487C153.748 22.1681 152.251 21.1457 153.202 21.5366C153.991 22.0177 155.013 22.6892 155.397 23.1102C158.118 24.774 155.114 22.6391 156.348 23.2405C157.116 24.0423 157.713 24.0223 158.907 24.774L158.765 24.9744C160.151 26.1371 160.353 26.2574 160.596 26.2774C160.707 26.2974 160.818 26.3075 161.041 26.4578C161.274 26.5981 161.597 26.9088 162.113 27.5403C161.708 27.2897 161.354 27.0091 160.92 26.7986C161.365 27.1394 161.739 27.5603 162.153 27.9412L161.719 27.8811C162.062 28.1717 162.346 28.4223 162.599 28.6528C162.831 28.8934 162.993 29.1339 163.175 29.3544C163.509 29.8255 163.893 30.2765 164.227 31.0583C164.207 30.8378 164.328 30.8378 164.551 31.0583C164.743 31.2888 165.178 31.6997 165.4 32.4414C165.603 33.4738 165.036 31.9804 165.704 33.9849C165.603 33.7745 165.441 33.564 165.289 33.2833C165.147 33.0027 165.036 32.672 164.975 32.1909C164.884 32.1307 164.642 31.82 164.52 31.7699C164.642 32.0205 164.723 32.3212 164.803 32.6218C164.905 32.9225 165.016 33.2232 165.127 33.5239C165.269 33.8246 165.279 34.0952 165.35 34.3458C165.41 34.5963 165.471 34.8168 165.451 34.9872C165.481 34.7166 165.39 34.4059 165.4 34.2355C165.724 35.1376 165.764 36.1198 165.633 37.1121C165.41 37.543 165.451 37.1622 165.481 36.8014C165.34 37.3727 165.37 37.8137 164.986 38.6456C164.945 38.4952 164.874 38.415 164.864 38.2246C164.844 38.0342 164.935 37.7435 165.036 37.1622C164.895 38.0442 164.48 38.9061 164.045 39.7681C163.863 39.8884 162.953 40.8305 163.124 40.4797C162.062 41.6624 160.566 43.6971 158.573 44.8998C158.502 45 158.33 45.1704 157.926 45.4611C156.095 46.6438 154.295 47.3955 152.1 48.7987C151.604 48.9189 151.119 49.0392 150.613 49.1294C148.792 50.0716 152.636 48.6784 149.591 50.242C147.417 51.3244 148.641 50.3322 147.821 50.5827C146.8 51.2342 144.979 52.3568 142.774 52.8679C143.442 52.5472 144.008 52.3969 144.645 52.1262L144.676 52.0461ZM120.219 59.3026C120.694 59.1422 121.625 58.7814 122.009 58.8415C121.524 59.2324 121.058 59.1923 120.219 59.3026ZM81.6725 64.9955C82.0366 64.9053 82.6132 64.9053 83.2605 64.9554C82.7952 65.0056 82.2592 65.0356 81.6725 64.9955ZM10.6486 23.3207C10.6486 23.3207 10.6284 23.3507 10.6183 23.3608C9.70795 24.0423 10.0316 23.8018 10.6486 23.3207ZM12.5299 21.9175C12.6917 21.7471 12.6614 21.727 12.5602 21.7671C12.4692 21.9175 12.0545 22.2382 11.5791 22.6091C11.7511 22.5489 12.0039 22.3886 12.5299 21.9175ZM133.914 12.0851L134.339 12.2555C133.327 12.0751 133.621 12.0851 133.914 12.0851Z" fill="#CD4D14"/>
    <path d="M86.0723 64.385C86.2139 64.4151 86.2543 64.4552 86.2948 64.4953C86.487 64.4351 86.487 64.395 86.0723 64.385Z" fill="#CD4D14"/>
    <path d="M158.543 44.8502L158.604 44.8099C158.604 44.8099 158.635 44.7494 158.635 44.7292L158.533 44.8502H158.543Z" fill="#CD4D14"/>
    <path d="M9.42383 50.9618C9.77784 51.2625 9.9599 51.4529 10.0712 51.5832C10.1318 51.5531 9.99024 51.3828 9.42383 50.9618Z" fill="#CD4D14"/>
    <path d="M22.6748 14.7628L21.4004 15.5546C22.0275 15.1838 22.2803 15.1036 22.6141 14.9533C22.5534 14.9232 22.2702 14.9934 22.6748 14.7528V14.7628Z" fill="#CD4D14"/>
    <path d="M34.9726 10.5408C35.1648 10.4306 35.3974 10.3604 35.5795 10.2602L35.4783 10.18C34.6287 10.5308 34.0724 10.8615 34.9625 10.5408H34.9726Z" fill="#CD4D14"/>
    <path d="M24.2852 14.8105C24.4874 14.9307 25.2764 14.4296 26.1867 13.9285L26.0248 14.0086C26.1665 13.6178 25.2157 14.1991 24.2953 14.8105H24.2852Z" fill="#CD4D14"/>
    <path d="M26.3867 13.8087C26.6699 13.6483 26.9632 13.508 27.2464 13.3777C27.3071 13.2274 26.8823 13.528 26.3867 13.8087Z" fill="#CD4D14"/>
    <path d="M14.8271 20.0213C15.2621 19.7807 14.9283 19.6304 15.2115 19.5402C15.5048 18.9889 12.7031 21.7452 14.8271 20.0213Z" fill="#CD4D14"/>
    <path d="M25.3464 15.0026L24.8913 14.9525L24.4766 15.4136L25.3464 15.0026Z" fill="#CD4D14"/>
    <path d="M18.1872 18.9619L19.6235 18.14C19.6235 18.14 19.7449 17.9896 19.9573 17.8293C19.0874 18.3605 18.1164 18.9218 18.1872 18.9619Z" fill="#CD4D14"/>
    <path d="M19.9531 17.8289C20.4083 17.5583 20.8432 17.2977 21.0758 17.1072C20.8331 17.2576 20.3071 17.5783 19.9531 17.8289Z" fill="#CD4D14"/>
    <path d="M23.3927 16.1434L22.9376 16.3339L21.916 16.8951L23.3927 16.1434Z" fill="#CD4D14"/>
    <path d="M4.96561 30.7687C4.64195 31.2799 4.31829 31.7911 4.04519 32.3223C4.03508 32.5227 4.30817 32.1218 4.65206 31.5505C4.84424 31.1596 5.18813 30.5883 4.96561 30.7687Z" fill="#CD4D14"/>
    <path d="M8.99833 27.069C8.6241 27.3797 8.56341 27.3596 8.31055 27.5L8.50272 27.7505L8.99833 27.069Z" fill="#CD4D14"/>
    <path d="M5.7025 31.039C5.67215 31.2395 4.48876 33.2741 5.7025 31.4399C5.7025 31.2294 6.73417 29.7962 5.7025 31.039Z" fill="#CD4D14"/>
    <path d="M11.1642 53.2485L10.7697 53.008L10.5371 53.459L11.1642 53.2485Z" fill="#CD4D14"/>
    <path d="M33.5486 60.9147C31.5257 60.3033 32.9822 61.1052 31.1717 60.4938C30.6558 60.4938 32.6585 60.9949 32.1325 60.9749C33.3968 61.1753 34.0442 61.3658 33.5486 60.9147Z" fill="#CD4D14"/>
    <path d="M32.1321 60.9761C31.9298 60.9461 31.7174 60.926 31.4746 60.8859C31.8387 60.9461 32.0208 60.9661 32.1321 60.9761Z" fill="#CD4D14"/>
    <path d="M50.3179 15.6022L48.9727 15.9731L49.8728 15.8328L50.3179 15.6022Z" fill="#CD4D14"/>
    <path d="M47.9306 16.8577L47.5058 16.6673L46.8281 17.2186C47.1214 17.0983 47.6777 16.8678 47.9306 16.8577Z" fill="#CD4D14"/>
    <path d="M116.364 59.4313L116.273 59.5315C116.496 59.5716 116.81 59.5114 117.447 59.4012L116.364 59.4313Z" fill="#CD4D14"/>
    <path d="M134.411 55.264L134.107 55.3542L134.755 55.4645L134.411 55.264Z" fill="#CD4D14"/>
    <path d="M148.781 49.6508C148.205 49.8913 147.557 50.2421 146.971 50.4826C148.205 49.8913 149.085 49.9214 148.781 49.6508Z" fill="#CD4D14"/>
  </g>
  <defs>
    <clipPath id="clip0_423_52623">
      <rect width="167.445" height="66.6818" fill="white" transform="translate(0.554688 0.318115)"/>
    </clipPath>
  </defs>
</svg>
