<?xml version="1.0" standalone="no"?>
<!DOCTYPE svg PUBLIC "-//W3C//DTD SVG 20010904//EN"
 "http://www.w3.org/TR/2001/REC-SVG-20010904/DTD/svg10.dtd">
<svg version="1.0" xmlns="http://www.w3.org/2000/svg"
 width="393.000000pt" height="393.000000pt" viewBox="0 0 393.000000 393.000000"
 preserveAspectRatio="xMidYMid meet">
<metadata>
Created by potrace 1.14, written by Peter Selinger 2001-2017
</metadata>
<g transform="translate(0.000000,393.000000) scale(0.100000,-0.100000)"
fill="#000000" stroke="none">
<path d="M2035 3922 c-50 -19 -73 -37 -102 -80 -117 -174 -98 -441 42 -591 77
-82 159 -108 237 -73 59 26 95 65 132 142 29 61 31 71 30 180 0 90 -5 130 -23
183 -34 107 -93 187 -165 224 -33 17 -122 26 -151 15z"/>
<path d="M1515 3734 c-5 -1 -26 -5 -45 -8 -167 -28 -171 -356 -5 -521 66 -67
125 -95 188 -90 121 10 191 148 155 309 -14 64 -62 159 -104 205 -52 59 -153
115 -189 105z"/>
<path d="M1019 3417 c-100 -49 -108 -212 -18 -343 69 -102 158 -158 249 -158
95 1 150 49 155 135 9 145 -75 283 -214 353 -66 34 -122 38 -172 13z"/>
<path d="M754 3015 c-124 -63 -59 -286 108 -369 137 -69 253 -3 233 131 -23
157 -223 297 -341 238z"/>
<path d="M1875 2990 c-263 -56 -464 -176 -635 -379 -92 -109 -142 -213 -164
-338 -12 -72 -13 -210 -2 -258 2 -11 9 -42 16 -70 32 -142 131 -321 242 -440
91 -97 198 -181 413 -322 207 -137 323 -215 338 -228 7 -5 35 -28 62 -50 155
-123 268 -277 335 -457 78 -207 179 -336 319 -406 72 -35 79 -37 175 -36 80 0
113 5 157 22 198 78 306 261 264 447 -14 65 -57 142 -103 190 -38 39 -136 115
-148 115 -4 0 -15 6 -23 14 -9 8 -74 43 -146 79 -137 69 -144 72 -410 192
-310 140 -474 229 -655 353 -100 69 -304 265 -330 317 -8 17 -17 32 -20 35 -3
3 -20 32 -37 65 -66 127 -97 282 -80 405 22 167 149 315 342 398 101 43 193
63 308 66 177 6 312 -35 590 -177 143 -74 181 -89 195 -81 78 49 -83 295 -275
417 -158 100 -286 138 -493 142 -114 3 -164 0 -235 -15z"/>
<path d="M621 2596 c-44 -16 -74 -56 -73 -96 1 -38 39 -106 81 -143 60 -53
110 -72 185 -71 66 0 70 2 102 37 41 44 45 94 13 147 -65 106 -206 164 -308
126z"/>
</g>
</svg>
